%
M48
M72
T01C0.0150
T02C0.0200
T03C0.0236
T04C0.0433
T05C0.1200
%
T01
X4676Y4647
X5110Y4910
X5410Y5360
X3210Y7310
X2777Y7137
X3610Y7660
X4410Y9360
X6033Y8235
X6660Y8810
X8460Y9160
X8460Y9660
X8460Y10660
X8460Y11660
X8460Y12960
X6710Y14310
X6160Y14010
X5810Y14810
X5160Y15310
X3710Y16060
X2510Y16010
X2010Y16010
X1560Y16260
X3610Y18660
X3060Y18760
X2760Y19160
X4860Y21160
X5310Y20910
X4660Y21660
X7260Y23110
X7160Y23560
X7660Y22760
X8010Y24030
X10060Y24310
X10035Y24770
X10310Y23810
X11620Y23770
X13260Y24160
X14060Y23660
X13160Y25160
X16060Y24260
X16260Y24760
X18310Y24060
X18870Y23350
X18760Y22860
X19260Y23710
X21160Y21460
X20760Y21160
X21678Y21636
X21660Y19310
X22660Y18710
X23010Y19060
X23543Y19183
X24260Y16260
X24750Y16285
X23810Y16010
X24660Y13360
X24210Y13160
X25160Y13160
X24310Y10360
X23810Y10360
X24760Y10010
X22810Y7810
X23260Y7610
X23548Y7145
X21460Y5160
X21685Y4693
X20960Y5410
X19060Y3310
X18610Y3610
X19160Y2760
X16310Y2110
X15960Y2510
X16260Y1560
X13260Y1660
X13160Y2160
X13125Y1115
X10310Y2010
X10310Y2510
X10060Y1560
X7660Y3610
X7460Y3110
X7128Y2784
X2010Y10110
X1560Y10060
X2510Y10310
X2160Y13110
X1610Y13010
X1160Y13160
X6510Y11460
X7210Y10910
X10310Y14360
X10410Y16060
X9960Y16060
X9440Y16910
X8910Y17050
X8910Y17860
X6960Y15910
X12660Y15560
X17510Y14710
X18610Y18810
X17010Y9210
X15410Y6960
T02
X10710Y7960
X10510Y6310
X8460Y13560
X20810Y7160
T03
X16565Y14208
X14655Y14208
T04
X14189Y15310
X17031Y15310
T05
X19410Y20660
X6910Y20660
X6910Y5660
X19410Y5660
M30
