G75*
%MOIN*%
%OFA0B0*%
%FSLAX24Y24*%
%IPPOS*%
%LPD*%
%AMOC8*
5,1,8,0,0,1.08239X$1,22.5*
%
%ADD10R,0.0474X0.0513*%
%ADD11R,0.0237X0.0631*%
%ADD12R,0.0789X0.0789*%
%ADD13C,0.0552*%
%ADD14C,0.0867*%
%ADD15C,0.0200*%
%ADD16R,0.0316X0.0552*%
%ADD17R,0.0474X0.1891*%
%ADD18R,0.0710X0.1419*%
%ADD19R,0.0297X0.0552*%
%ADD20R,0.2442X0.1064*%
%ADD21R,0.1064X0.0474*%
%ADD22R,0.2088X0.2088*%
%ADD23R,0.1064X0.2088*%
%ADD24R,0.0474X0.0631*%
%ADD25R,0.0513X0.0474*%
%ADD26R,0.0789X0.0513*%
%ADD27R,0.0513X0.0789*%
%ADD28R,0.0178X0.0474*%
%ADD29R,0.0474X0.0178*%
%ADD30R,0.0867X0.0867*%
%ADD31R,0.0710X0.1340*%
%ADD32R,0.0395X0.0395*%
%ADD33R,0.0789X0.0474*%
%ADD34C,0.1280*%
%ADD35R,0.0580X0.0330*%
%ADD36R,0.0316X0.0395*%
D10*
X004710Y010806D03*
X004710Y011514D03*
X004710Y012256D03*
X004710Y012964D03*
X008760Y012264D03*
X008760Y011556D03*
X016960Y009514D03*
X017560Y009514D03*
X018160Y009514D03*
X018160Y008806D03*
X017560Y008806D03*
X016960Y008806D03*
X018160Y011906D03*
X018160Y012614D03*
D11*
X015972Y018117D03*
X015716Y018117D03*
X015460Y018117D03*
X015204Y018117D03*
X014948Y018117D03*
D12*
X015007Y019160D03*
X015913Y019160D03*
D13*
X016415Y018058D03*
X014505Y018058D03*
D14*
X014039Y019160D03*
X016881Y019160D03*
D15*
X016410Y014260D02*
X015210Y014260D01*
X016410Y014260D02*
X016410Y014060D01*
X015210Y014060D01*
X015210Y014260D01*
X015210Y014259D02*
X016410Y014259D01*
X016410Y013760D02*
X015210Y013760D01*
X016410Y013760D02*
X016410Y013560D01*
X015210Y013560D01*
X015210Y013760D01*
X015210Y013759D02*
X016410Y013759D01*
X016410Y013260D02*
X015210Y013260D01*
X016410Y013260D02*
X016410Y013060D01*
X015210Y013060D01*
X015210Y013260D01*
X015210Y013259D02*
X016410Y013259D01*
X016410Y012760D02*
X015210Y012760D01*
X016410Y012760D02*
X016410Y012560D01*
X015210Y012560D01*
X015210Y012760D01*
X015210Y012759D02*
X016410Y012759D01*
X016410Y012260D02*
X015210Y012260D01*
X016410Y012260D02*
X016410Y012060D01*
X015210Y012060D01*
X015210Y012260D01*
X015210Y012259D02*
X016410Y012259D01*
X016410Y011760D02*
X015210Y011760D01*
X016410Y011760D02*
X016410Y011560D01*
X015210Y011560D01*
X015210Y011760D01*
X015210Y011759D02*
X016410Y011759D01*
X016410Y011260D02*
X015210Y011260D01*
X016410Y011260D02*
X016410Y011060D01*
X015210Y011060D01*
X015210Y011260D01*
X015210Y011259D02*
X016410Y011259D01*
X016410Y010760D02*
X015210Y010760D01*
X016410Y010760D02*
X016410Y010560D01*
X015210Y010560D01*
X015210Y010760D01*
X015210Y010759D02*
X016410Y010759D01*
X011110Y010760D02*
X009910Y010760D01*
X011110Y010760D02*
X011110Y010560D01*
X009910Y010560D01*
X009910Y010760D01*
X009910Y010759D02*
X011110Y010759D01*
X011110Y011260D02*
X009910Y011260D01*
X011110Y011260D02*
X011110Y011060D01*
X009910Y011060D01*
X009910Y011260D01*
X009910Y011259D02*
X011110Y011259D01*
X011110Y011760D02*
X009910Y011760D01*
X011110Y011760D02*
X011110Y011560D01*
X009910Y011560D01*
X009910Y011760D01*
X009910Y011759D02*
X011110Y011759D01*
X011110Y012260D02*
X009910Y012260D01*
X011110Y012260D02*
X011110Y012060D01*
X009910Y012060D01*
X009910Y012260D01*
X009910Y012259D02*
X011110Y012259D01*
X011110Y012760D02*
X009910Y012760D01*
X011110Y012760D02*
X011110Y012560D01*
X009910Y012560D01*
X009910Y012760D01*
X009910Y012759D02*
X011110Y012759D01*
X011110Y013260D02*
X009910Y013260D01*
X011110Y013260D02*
X011110Y013060D01*
X009910Y013060D01*
X009910Y013260D01*
X009910Y013259D02*
X011110Y013259D01*
X011110Y013760D02*
X009910Y013760D01*
X011110Y013760D02*
X011110Y013560D01*
X009910Y013560D01*
X009910Y013760D01*
X009910Y013759D02*
X011110Y013759D01*
X011110Y014260D02*
X009910Y014260D01*
X011110Y014260D02*
X011110Y014060D01*
X009910Y014060D01*
X009910Y014260D01*
X009910Y014259D02*
X011110Y014259D01*
X011110Y014760D02*
X009910Y014760D01*
X011110Y014760D02*
X011110Y014560D01*
X009910Y014560D01*
X009910Y014760D01*
X009910Y014759D02*
X011110Y014759D01*
X011110Y015260D02*
X009910Y015260D01*
X011110Y015260D02*
X011110Y015060D01*
X009910Y015060D01*
X009910Y015260D01*
X009910Y015259D02*
X011110Y015259D01*
X011110Y015760D02*
X009910Y015760D01*
X011110Y015760D02*
X011110Y015560D01*
X009910Y015560D01*
X009910Y015760D01*
X009910Y015759D02*
X011110Y015759D01*
D16*
X006810Y012962D03*
X006310Y012962D03*
X005810Y012962D03*
X005310Y012962D03*
X005310Y010758D03*
X005810Y010758D03*
X006310Y010758D03*
X006810Y010758D03*
D17*
X019923Y017923D03*
X020710Y017923D03*
X021497Y017923D03*
X021304Y008753D03*
X020516Y008753D03*
D18*
X018978Y015876D03*
X022442Y015876D03*
D19*
X008184Y012372D03*
X007810Y012372D03*
X007436Y012372D03*
X007436Y011348D03*
X008184Y011348D03*
D20*
X007686Y008960D03*
D21*
X005323Y008460D03*
X005323Y009460D03*
D22*
X013160Y007160D03*
D23*
X016113Y007160D03*
X010207Y007160D03*
D24*
X008460Y014077D03*
X008086Y014943D03*
X008834Y014943D03*
X017236Y010227D03*
X017984Y010227D03*
X017610Y011093D03*
D25*
G36*
X022657Y005573D02*
X022252Y005884D01*
X022541Y006259D01*
X022946Y005948D01*
X022657Y005573D01*
G37*
G36*
X023219Y005141D02*
X022814Y005452D01*
X023103Y005827D01*
X023508Y005516D01*
X023219Y005141D01*
G37*
G36*
X020804Y002812D02*
X020493Y003217D01*
X020868Y003506D01*
X021179Y003101D01*
X020804Y002812D01*
G37*
G36*
X020372Y003374D02*
X020061Y003779D01*
X020436Y004068D01*
X020747Y003663D01*
X020372Y003374D01*
G37*
G36*
X017866Y001186D02*
X017670Y001658D01*
X018106Y001840D01*
X018302Y001368D01*
X017866Y001186D01*
G37*
G36*
X017594Y001840D02*
X017398Y002312D01*
X017834Y002494D01*
X018030Y002022D01*
X017594Y001840D01*
G37*
G36*
X014605Y000375D02*
X014538Y000881D01*
X015007Y000943D01*
X015074Y000437D01*
X014605Y000375D01*
G37*
G36*
X014513Y001077D02*
X014446Y001583D01*
X014915Y001645D01*
X014982Y001139D01*
X014513Y001077D01*
G37*
G36*
X011338Y001139D02*
X011405Y001645D01*
X011874Y001583D01*
X011807Y001077D01*
X011338Y001139D01*
G37*
G36*
X011246Y000437D02*
X011313Y000943D01*
X011782Y000881D01*
X011715Y000375D01*
X011246Y000437D01*
G37*
G36*
X008290Y002022D02*
X008486Y002494D01*
X008922Y002312D01*
X008726Y001840D01*
X008290Y002022D01*
G37*
G36*
X008018Y001368D02*
X008214Y001840D01*
X008650Y001658D01*
X008454Y001186D01*
X008018Y001368D01*
G37*
G36*
X005573Y003663D02*
X005884Y004068D01*
X006259Y003779D01*
X005948Y003374D01*
X005573Y003663D01*
G37*
G36*
X005141Y003101D02*
X005452Y003506D01*
X005827Y003217D01*
X005516Y002812D01*
X005141Y003101D01*
G37*
G36*
X002812Y005516D02*
X003217Y005827D01*
X003506Y005452D01*
X003101Y005141D01*
X002812Y005516D01*
G37*
G36*
X003374Y005948D02*
X003779Y006259D01*
X004068Y005884D01*
X003663Y005573D01*
X003374Y005948D01*
G37*
G36*
X001186Y008454D02*
X001658Y008650D01*
X001840Y008214D01*
X001368Y008018D01*
X001186Y008454D01*
G37*
G36*
X001840Y008726D02*
X002312Y008922D01*
X002494Y008486D01*
X002022Y008290D01*
X001840Y008726D01*
G37*
G36*
X000375Y011715D02*
X000881Y011782D01*
X000943Y011313D01*
X000437Y011246D01*
X000375Y011715D01*
G37*
G36*
X001077Y011807D02*
X001583Y011874D01*
X001645Y011405D01*
X001139Y011338D01*
X001077Y011807D01*
G37*
G36*
X001139Y014982D02*
X001645Y014915D01*
X001583Y014446D01*
X001077Y014513D01*
X001139Y014982D01*
G37*
G36*
X000437Y015074D02*
X000943Y015007D01*
X000881Y014538D01*
X000375Y014605D01*
X000437Y015074D01*
G37*
G36*
X002022Y018030D02*
X002494Y017834D01*
X002312Y017398D01*
X001840Y017594D01*
X002022Y018030D01*
G37*
G36*
X001368Y018302D02*
X001840Y018106D01*
X001658Y017670D01*
X001186Y017866D01*
X001368Y018302D01*
G37*
G36*
X003663Y020747D02*
X004068Y020436D01*
X003779Y020061D01*
X003374Y020372D01*
X003663Y020747D01*
G37*
G36*
X003101Y021179D02*
X003506Y020868D01*
X003217Y020493D01*
X002812Y020804D01*
X003101Y021179D01*
G37*
G36*
X005516Y023508D02*
X005827Y023103D01*
X005452Y022814D01*
X005141Y023219D01*
X005516Y023508D01*
G37*
G36*
X005948Y022946D02*
X006259Y022541D01*
X005884Y022252D01*
X005573Y022657D01*
X005948Y022946D01*
G37*
G36*
X008454Y025134D02*
X008650Y024662D01*
X008214Y024480D01*
X008018Y024952D01*
X008454Y025134D01*
G37*
G36*
X008726Y024480D02*
X008922Y024008D01*
X008486Y023826D01*
X008290Y024298D01*
X008726Y024480D01*
G37*
G36*
X011715Y025945D02*
X011782Y025439D01*
X011313Y025377D01*
X011246Y025883D01*
X011715Y025945D01*
G37*
G36*
X011807Y025243D02*
X011874Y024737D01*
X011405Y024675D01*
X011338Y025181D01*
X011807Y025243D01*
G37*
G36*
X014982Y025181D02*
X014915Y024675D01*
X014446Y024737D01*
X014513Y025243D01*
X014982Y025181D01*
G37*
G36*
X015074Y025883D02*
X015007Y025377D01*
X014538Y025439D01*
X014605Y025945D01*
X015074Y025883D01*
G37*
G36*
X018030Y024298D02*
X017834Y023826D01*
X017398Y024008D01*
X017594Y024480D01*
X018030Y024298D01*
G37*
G36*
X018302Y024952D02*
X018106Y024480D01*
X017670Y024662D01*
X017866Y025134D01*
X018302Y024952D01*
G37*
G36*
X020747Y022657D02*
X020436Y022252D01*
X020061Y022541D01*
X020372Y022946D01*
X020747Y022657D01*
G37*
G36*
X021179Y023219D02*
X020868Y022814D01*
X020493Y023103D01*
X020804Y023508D01*
X021179Y023219D01*
G37*
G36*
X023508Y020804D02*
X023103Y020493D01*
X022814Y020868D01*
X023219Y021179D01*
X023508Y020804D01*
G37*
G36*
X022946Y020372D02*
X022541Y020061D01*
X022252Y020436D01*
X022657Y020747D01*
X022946Y020372D01*
G37*
G36*
X025134Y017866D02*
X024662Y017670D01*
X024480Y018106D01*
X024952Y018302D01*
X025134Y017866D01*
G37*
G36*
X024480Y017594D02*
X024008Y017398D01*
X023826Y017834D01*
X024298Y018030D01*
X024480Y017594D01*
G37*
G36*
X025945Y014605D02*
X025439Y014538D01*
X025377Y015007D01*
X025883Y015074D01*
X025945Y014605D01*
G37*
G36*
X025243Y014513D02*
X024737Y014446D01*
X024675Y014915D01*
X025181Y014982D01*
X025243Y014513D01*
G37*
G36*
X025181Y011338D02*
X024675Y011405D01*
X024737Y011874D01*
X025243Y011807D01*
X025181Y011338D01*
G37*
G36*
X025883Y011246D02*
X025377Y011313D01*
X025439Y011782D01*
X025945Y011715D01*
X025883Y011246D01*
G37*
G36*
X024298Y008290D02*
X023826Y008486D01*
X024008Y008922D01*
X024480Y008726D01*
X024298Y008290D01*
G37*
G36*
X024952Y008018D02*
X024480Y008214D01*
X024662Y008650D01*
X025134Y008454D01*
X024952Y008018D01*
G37*
X011714Y016760D03*
X011714Y017360D03*
X011714Y017960D03*
X011714Y018560D03*
X011006Y018560D03*
X011006Y017960D03*
X011006Y017360D03*
X011006Y016760D03*
X010464Y019360D03*
X009756Y019360D03*
X006414Y019110D03*
X006414Y018510D03*
X006414Y017910D03*
X006414Y017310D03*
X005706Y017310D03*
X005706Y017910D03*
X005706Y018510D03*
X005706Y019110D03*
D26*
G36*
X003709Y004378D02*
X003153Y004934D01*
X003515Y005296D01*
X004071Y004740D01*
X003709Y004378D01*
G37*
G36*
X004934Y003153D02*
X004378Y003709D01*
X004740Y004071D01*
X005296Y003515D01*
X004934Y003153D01*
G37*
G36*
X006308Y002240D02*
X005626Y002634D01*
X005882Y003076D01*
X006564Y002682D01*
X006308Y002240D01*
G37*
G36*
X007808Y001373D02*
X007126Y001767D01*
X007382Y002209D01*
X008064Y001815D01*
X007808Y001373D01*
G37*
G36*
X009364Y000837D02*
X008604Y001041D01*
X008736Y001535D01*
X009496Y001331D01*
X009364Y000837D01*
G37*
G36*
X011038Y000388D02*
X010278Y000592D01*
X010410Y001086D01*
X011170Y000882D01*
X011038Y000388D01*
G37*
X012294Y000530D03*
X012294Y001790D03*
G36*
X011364Y001605D02*
X010604Y001809D01*
X010736Y002303D01*
X011496Y002099D01*
X011364Y001605D01*
G37*
G36*
X009690Y002054D02*
X008930Y002258D01*
X009062Y002752D01*
X009822Y002548D01*
X009690Y002054D01*
G37*
G36*
X008438Y002464D02*
X007756Y002858D01*
X008012Y003300D01*
X008694Y002906D01*
X008438Y002464D01*
G37*
G36*
X006938Y003331D02*
X006256Y003725D01*
X006512Y004167D01*
X007194Y003773D01*
X006938Y003331D01*
G37*
G36*
X005825Y004044D02*
X005269Y004600D01*
X005631Y004962D01*
X006187Y004406D01*
X005825Y004044D01*
G37*
G36*
X004600Y005269D02*
X004044Y005825D01*
X004406Y006187D01*
X004962Y005631D01*
X004600Y005269D01*
G37*
G36*
X003725Y006256D02*
X003331Y006938D01*
X003773Y007194D01*
X004167Y006512D01*
X003725Y006256D01*
G37*
G36*
X002634Y005626D02*
X002240Y006308D01*
X002682Y006564D01*
X003076Y005882D01*
X002634Y005626D01*
G37*
G36*
X001767Y007126D02*
X001373Y007808D01*
X001815Y008064D01*
X002209Y007382D01*
X001767Y007126D01*
G37*
G36*
X002858Y007756D02*
X002464Y008438D01*
X002906Y008694D01*
X003300Y008012D01*
X002858Y007756D01*
G37*
G36*
X002258Y008930D02*
X002054Y009690D01*
X002548Y009822D01*
X002752Y009062D01*
X002258Y008930D01*
G37*
G36*
X001041Y008604D02*
X000837Y009364D01*
X001331Y009496D01*
X001535Y008736D01*
X001041Y008604D01*
G37*
G36*
X000592Y010278D02*
X000388Y011038D01*
X000882Y011170D01*
X001086Y010410D01*
X000592Y010278D01*
G37*
G36*
X001809Y010604D02*
X001605Y011364D01*
X002099Y011496D01*
X002303Y010736D01*
X001809Y010604D01*
G37*
G36*
X001605Y014956D02*
X001809Y015716D01*
X002303Y015584D01*
X002099Y014824D01*
X001605Y014956D01*
G37*
G36*
X000388Y015282D02*
X000592Y016042D01*
X001086Y015910D01*
X000882Y015150D01*
X000388Y015282D01*
G37*
G36*
X000837Y016956D02*
X001041Y017716D01*
X001535Y017584D01*
X001331Y016824D01*
X000837Y016956D01*
G37*
G36*
X002054Y016630D02*
X002258Y017390D01*
X002752Y017258D01*
X002548Y016498D01*
X002054Y016630D01*
G37*
G36*
X002464Y017882D02*
X002858Y018564D01*
X003300Y018308D01*
X002906Y017626D01*
X002464Y017882D01*
G37*
G36*
X001373Y018512D02*
X001767Y019194D01*
X002209Y018938D01*
X001815Y018256D01*
X001373Y018512D01*
G37*
G36*
X002240Y020012D02*
X002634Y020694D01*
X003076Y020438D01*
X002682Y019756D01*
X002240Y020012D01*
G37*
G36*
X003153Y021386D02*
X003709Y021942D01*
X004071Y021580D01*
X003515Y021024D01*
X003153Y021386D01*
G37*
G36*
X004044Y020495D02*
X004600Y021051D01*
X004962Y020689D01*
X004406Y020133D01*
X004044Y020495D01*
G37*
G36*
X003331Y019382D02*
X003725Y020064D01*
X004167Y019808D01*
X003773Y019126D01*
X003331Y019382D01*
G37*
G36*
X005269Y021720D02*
X005825Y022276D01*
X006187Y021914D01*
X005631Y021358D01*
X005269Y021720D01*
G37*
G36*
X004378Y022611D02*
X004934Y023167D01*
X005296Y022805D01*
X004740Y022249D01*
X004378Y022611D01*
G37*
G36*
X005626Y023686D02*
X006308Y024080D01*
X006564Y023638D01*
X005882Y023244D01*
X005626Y023686D01*
G37*
G36*
X006256Y022595D02*
X006938Y022989D01*
X007194Y022547D01*
X006512Y022153D01*
X006256Y022595D01*
G37*
G36*
X007756Y023462D02*
X008438Y023856D01*
X008694Y023414D01*
X008012Y023020D01*
X007756Y023462D01*
G37*
G36*
X007126Y024553D02*
X007808Y024947D01*
X008064Y024505D01*
X007382Y024111D01*
X007126Y024553D01*
G37*
G36*
X008604Y025279D02*
X009364Y025483D01*
X009496Y024989D01*
X008736Y024785D01*
X008604Y025279D01*
G37*
G36*
X008930Y024062D02*
X009690Y024266D01*
X009822Y023772D01*
X009062Y023568D01*
X008930Y024062D01*
G37*
G36*
X010278Y025728D02*
X011038Y025932D01*
X011170Y025438D01*
X010410Y025234D01*
X010278Y025728D01*
G37*
G36*
X010604Y024511D02*
X011364Y024715D01*
X011496Y024221D01*
X010736Y024017D01*
X010604Y024511D01*
G37*
X012294Y024530D03*
X012294Y025790D03*
X014026Y025790D03*
X014026Y024530D03*
G36*
X014956Y024715D02*
X015716Y024511D01*
X015584Y024017D01*
X014824Y024221D01*
X014956Y024715D01*
G37*
G36*
X015282Y025932D02*
X016042Y025728D01*
X015910Y025234D01*
X015150Y025438D01*
X015282Y025932D01*
G37*
G36*
X016956Y025483D02*
X017716Y025279D01*
X017584Y024785D01*
X016824Y024989D01*
X016956Y025483D01*
G37*
G36*
X016630Y024266D02*
X017390Y024062D01*
X017258Y023568D01*
X016498Y023772D01*
X016630Y024266D01*
G37*
G36*
X017882Y023856D02*
X018564Y023462D01*
X018308Y023020D01*
X017626Y023414D01*
X017882Y023856D01*
G37*
G36*
X018512Y024947D02*
X019194Y024553D01*
X018938Y024111D01*
X018256Y024505D01*
X018512Y024947D01*
G37*
G36*
X020012Y024080D02*
X020694Y023686D01*
X020438Y023244D01*
X019756Y023638D01*
X020012Y024080D01*
G37*
G36*
X021386Y023167D02*
X021942Y022611D01*
X021580Y022249D01*
X021024Y022805D01*
X021386Y023167D01*
G37*
G36*
X020495Y022276D02*
X021051Y021720D01*
X020689Y021358D01*
X020133Y021914D01*
X020495Y022276D01*
G37*
G36*
X019382Y022989D02*
X020064Y022595D01*
X019808Y022153D01*
X019126Y022547D01*
X019382Y022989D01*
G37*
G36*
X021720Y021051D02*
X022276Y020495D01*
X021914Y020133D01*
X021358Y020689D01*
X021720Y021051D01*
G37*
G36*
X022611Y021942D02*
X023167Y021386D01*
X022805Y021024D01*
X022249Y021580D01*
X022611Y021942D01*
G37*
G36*
X023686Y020694D02*
X024080Y020012D01*
X023638Y019756D01*
X023244Y020438D01*
X023686Y020694D01*
G37*
G36*
X022595Y020064D02*
X022989Y019382D01*
X022547Y019126D01*
X022153Y019808D01*
X022595Y020064D01*
G37*
G36*
X023462Y018564D02*
X023856Y017882D01*
X023414Y017626D01*
X023020Y018308D01*
X023462Y018564D01*
G37*
G36*
X024553Y019194D02*
X024947Y018512D01*
X024505Y018256D01*
X024111Y018938D01*
X024553Y019194D01*
G37*
G36*
X025279Y017716D02*
X025483Y016956D01*
X024989Y016824D01*
X024785Y017584D01*
X025279Y017716D01*
G37*
G36*
X024062Y017390D02*
X024266Y016630D01*
X023772Y016498D01*
X023568Y017258D01*
X024062Y017390D01*
G37*
G36*
X025728Y016042D02*
X025932Y015282D01*
X025438Y015150D01*
X025234Y015910D01*
X025728Y016042D01*
G37*
G36*
X024511Y015716D02*
X024715Y014956D01*
X024221Y014824D01*
X024017Y015584D01*
X024511Y015716D01*
G37*
G36*
X024715Y011364D02*
X024511Y010604D01*
X024017Y010736D01*
X024221Y011496D01*
X024715Y011364D01*
G37*
G36*
X025932Y011038D02*
X025728Y010278D01*
X025234Y010410D01*
X025438Y011170D01*
X025932Y011038D01*
G37*
G36*
X025483Y009364D02*
X025279Y008604D01*
X024785Y008736D01*
X024989Y009496D01*
X025483Y009364D01*
G37*
G36*
X024266Y009690D02*
X024062Y008930D01*
X023568Y009062D01*
X023772Y009822D01*
X024266Y009690D01*
G37*
G36*
X023856Y008438D02*
X023462Y007756D01*
X023020Y008012D01*
X023414Y008694D01*
X023856Y008438D01*
G37*
G36*
X024947Y007808D02*
X024553Y007126D01*
X024111Y007382D01*
X024505Y008064D01*
X024947Y007808D01*
G37*
G36*
X024080Y006308D02*
X023686Y005626D01*
X023244Y005882D01*
X023638Y006564D01*
X024080Y006308D01*
G37*
G36*
X023167Y004934D02*
X022611Y004378D01*
X022249Y004740D01*
X022805Y005296D01*
X023167Y004934D01*
G37*
G36*
X022276Y005825D02*
X021720Y005269D01*
X021358Y005631D01*
X021914Y006187D01*
X022276Y005825D01*
G37*
G36*
X022989Y006938D02*
X022595Y006256D01*
X022153Y006512D01*
X022547Y007194D01*
X022989Y006938D01*
G37*
G36*
X021051Y004600D02*
X020495Y004044D01*
X020133Y004406D01*
X020689Y004962D01*
X021051Y004600D01*
G37*
G36*
X021942Y003709D02*
X021386Y003153D01*
X021024Y003515D01*
X021580Y004071D01*
X021942Y003709D01*
G37*
G36*
X020694Y002634D02*
X020012Y002240D01*
X019756Y002682D01*
X020438Y003076D01*
X020694Y002634D01*
G37*
G36*
X020064Y003725D02*
X019382Y003331D01*
X019126Y003773D01*
X019808Y004167D01*
X020064Y003725D01*
G37*
G36*
X018564Y002858D02*
X017882Y002464D01*
X017626Y002906D01*
X018308Y003300D01*
X018564Y002858D01*
G37*
G36*
X019194Y001767D02*
X018512Y001373D01*
X018256Y001815D01*
X018938Y002209D01*
X019194Y001767D01*
G37*
G36*
X017716Y001041D02*
X016956Y000837D01*
X016824Y001331D01*
X017584Y001535D01*
X017716Y001041D01*
G37*
G36*
X017390Y002258D02*
X016630Y002054D01*
X016498Y002548D01*
X017258Y002752D01*
X017390Y002258D01*
G37*
G36*
X016042Y000592D02*
X015282Y000388D01*
X015150Y000882D01*
X015910Y001086D01*
X016042Y000592D01*
G37*
G36*
X015716Y001809D02*
X014956Y001605D01*
X014824Y002099D01*
X015584Y002303D01*
X015716Y001809D01*
G37*
X014026Y001790D03*
X014026Y000530D03*
D27*
X024530Y012294D03*
X025790Y012294D03*
X025790Y014026D03*
X024530Y014026D03*
X001790Y014026D03*
X000530Y014026D03*
X000530Y012294D03*
X001790Y012294D03*
D28*
X008329Y016710D03*
X008526Y016710D03*
X008723Y016710D03*
X008919Y016710D03*
X009116Y016710D03*
X009116Y018285D03*
X008919Y018285D03*
X008723Y018285D03*
X008526Y018285D03*
X008329Y018285D03*
D29*
X007935Y017891D03*
X007935Y017694D03*
X007935Y017497D03*
X007935Y017301D03*
X007935Y017104D03*
X009510Y017104D03*
X009510Y017301D03*
X009510Y017497D03*
X009510Y017694D03*
X009510Y017891D03*
D30*
X008723Y017497D03*
D31*
X019571Y010801D03*
X022249Y010801D03*
D32*
X010455Y018510D03*
X010455Y018910D03*
X009865Y018910D03*
X009865Y018510D03*
D33*
X017060Y012811D03*
X017060Y011709D03*
D34*
X018410Y005660D03*
X007910Y005660D03*
X007910Y020660D03*
X018410Y020660D03*
D35*
X020310Y019687D03*
X020310Y019333D03*
X016060Y022098D03*
X016060Y022418D03*
D36*
X007860Y015927D03*
X007860Y015493D03*
M02*
