G75*
%MOIN*%
%OFA0B0*%
%FSLAX24Y24*%
%IPPOS*%
%LPD*%
%AMOC8*
5,1,8,0,0,1.08239X$1,22.5*
%
%ADD10C,0.0040*%
%ADD11C,0.0060*%
%ADD12C,0.0010*%
%ADD13C,0.0050*%
%ADD14C,0.0030*%
%ADD15C,0.0220*%
%ADD16C,0.0080*%
%ADD17R,0.0100X0.0400*%
%ADD18R,0.0250X0.0100*%
%ADD19R,0.0300X0.0180*%
%ADD20R,0.0180X0.0300*%
%ADD21C,0.0079*%
%ADD22C,0.0000*%
D10*
X003990Y011290D02*
X003990Y011470D01*
X004050Y011530D01*
X004170Y011530D01*
X004230Y011470D01*
X004230Y011290D01*
X004350Y011290D02*
X003990Y011290D01*
X004110Y011718D02*
X004110Y011838D01*
X004170Y011899D01*
X004350Y011899D01*
X004350Y011718D01*
X004290Y011658D01*
X004230Y011718D01*
X004230Y011899D01*
X004170Y012027D02*
X004230Y012087D01*
X004230Y012207D01*
X004290Y012267D01*
X004350Y012207D01*
X004350Y012027D01*
X004170Y012027D02*
X004110Y012087D01*
X004110Y012267D01*
X004110Y012455D02*
X004110Y012575D01*
X004170Y012635D01*
X004350Y012635D01*
X004350Y012455D01*
X004290Y012395D01*
X004230Y012455D01*
X004230Y012635D01*
X004290Y012763D02*
X004170Y012763D01*
X004110Y012823D01*
X004110Y013003D01*
X003990Y013003D02*
X004350Y013003D01*
X004350Y012823D01*
X004290Y012763D01*
X004290Y013132D02*
X004170Y013132D01*
X004110Y013192D01*
X004110Y013312D01*
X004170Y013372D01*
X004230Y013372D01*
X004230Y013132D01*
X004290Y013132D02*
X004350Y013192D01*
X004350Y013312D01*
X004350Y013500D02*
X004110Y013500D01*
X004110Y013680D01*
X004170Y013740D01*
X004350Y013740D01*
X004290Y013868D02*
X004230Y013928D01*
X004230Y014108D01*
X004170Y014108D02*
X004350Y014108D01*
X004350Y013928D01*
X004290Y013868D01*
X004110Y013928D02*
X004110Y014048D01*
X004170Y014108D01*
X004290Y014297D02*
X004350Y014297D01*
X004350Y014357D01*
X004290Y014357D01*
X004290Y014297D01*
X004350Y014357D02*
X004470Y014237D01*
X004290Y014850D02*
X004050Y014850D01*
X003990Y014910D01*
X003990Y015031D01*
X004050Y015091D01*
X004110Y015219D02*
X003990Y015339D01*
X004110Y015459D01*
X004350Y015459D01*
X004170Y015459D02*
X004170Y015219D01*
X004110Y015219D02*
X004350Y015219D01*
X004290Y015091D02*
X004350Y015031D01*
X004350Y014910D01*
X004290Y014850D01*
X003690Y014932D02*
X003510Y014932D01*
X003390Y015052D01*
X003330Y015052D01*
X003510Y014932D02*
X003390Y014812D01*
X003330Y014812D01*
X003330Y014684D02*
X003570Y014444D01*
X003510Y014504D02*
X003690Y014684D01*
X003690Y014444D02*
X003330Y014444D01*
X003330Y014316D02*
X003690Y014316D01*
X003330Y014075D01*
X003690Y014075D01*
X003690Y013950D02*
X003690Y013830D01*
X003690Y013890D02*
X003330Y013890D01*
X003330Y013830D02*
X003330Y013950D01*
X003690Y013702D02*
X003690Y013462D01*
X003330Y013462D01*
X003390Y013333D02*
X003450Y013333D01*
X003510Y013273D01*
X003510Y013093D01*
X003690Y013093D02*
X003690Y013273D01*
X003630Y013333D01*
X003570Y013333D01*
X003510Y013273D01*
X003390Y013333D02*
X003330Y013273D01*
X003330Y013093D01*
X003690Y013093D01*
X003690Y012597D02*
X003690Y012357D01*
X003330Y012357D01*
X003330Y012597D01*
X003510Y012477D02*
X003510Y012357D01*
X003690Y012229D02*
X003690Y011988D01*
X003330Y011988D01*
X003390Y011860D02*
X003450Y011860D01*
X003510Y011800D01*
X003510Y011620D01*
X003690Y011620D02*
X003330Y011620D01*
X003330Y011800D01*
X003390Y011860D01*
X003510Y011800D02*
X003570Y011860D01*
X003630Y011860D01*
X003690Y011800D01*
X003690Y011620D01*
X014480Y022980D02*
X014480Y023300D01*
X014640Y023300D01*
X014694Y023247D01*
X014694Y023140D01*
X014640Y023087D01*
X014480Y023087D01*
X014587Y023087D02*
X014694Y022980D01*
X014811Y022980D02*
X014811Y023300D01*
X015025Y022980D01*
X015025Y023300D01*
X015143Y023247D02*
X015143Y023033D01*
X015196Y022980D01*
X015303Y022980D01*
X015356Y023033D01*
X015356Y023140D01*
X015250Y023140D01*
X015356Y023247D02*
X015303Y023300D01*
X015196Y023300D01*
X015143Y023247D01*
X015193Y023430D02*
X015246Y023483D01*
X015193Y023430D02*
X015086Y023430D01*
X015032Y023483D01*
X015032Y023697D01*
X015086Y023750D01*
X015193Y023750D01*
X015246Y023697D01*
X015364Y023750D02*
X015471Y023644D01*
X015471Y023537D01*
X015364Y023430D01*
X015566Y023625D02*
X015566Y022995D01*
X014915Y023430D02*
X014915Y023750D01*
X014701Y023750D02*
X014701Y023430D01*
X014587Y023430D02*
X014480Y023537D01*
X014480Y023644D01*
X014587Y023750D01*
X014701Y023750D02*
X014915Y023430D01*
X016554Y023625D02*
X016554Y022995D01*
X019820Y020830D02*
X019820Y020710D01*
X019940Y020590D01*
X020066Y020590D02*
X020066Y020950D01*
X020306Y020590D01*
X020306Y020950D01*
X020434Y020890D02*
X020434Y020650D01*
X020494Y020590D01*
X020614Y020590D01*
X020674Y020650D01*
X020674Y020890D01*
X020614Y020950D01*
X020494Y020950D01*
X020434Y020890D01*
X020802Y020950D02*
X020922Y020830D01*
X020922Y020710D01*
X020802Y020590D01*
X019940Y020950D02*
X019820Y020830D01*
D11*
X009020Y012570D02*
X009020Y012250D01*
X008800Y012250D01*
X008120Y012250D02*
X007900Y012250D01*
X007900Y012570D01*
X002950Y012478D02*
X002950Y012642D01*
X002868Y012723D01*
X002460Y012723D01*
X002460Y012903D02*
X002950Y012903D01*
X002950Y013230D01*
X002868Y013409D02*
X002950Y013491D01*
X002950Y013655D01*
X002868Y013736D01*
X002787Y013736D01*
X002705Y013655D01*
X002705Y013491D01*
X002623Y013409D01*
X002541Y013409D01*
X002460Y013491D01*
X002460Y013655D01*
X002541Y013736D01*
X002623Y013916D02*
X002460Y014079D01*
X002623Y014243D01*
X002950Y014243D01*
X002950Y014422D02*
X002460Y014422D01*
X002460Y014667D01*
X002541Y014749D01*
X002705Y014749D01*
X002787Y014667D01*
X002787Y014422D01*
X002787Y014586D02*
X002950Y014749D01*
X002705Y014243D02*
X002705Y013916D01*
X002623Y013916D02*
X002950Y013916D01*
X002950Y012478D02*
X002868Y012396D01*
X002460Y012396D01*
X002541Y012217D02*
X002705Y012217D01*
X002787Y012135D01*
X002787Y011890D01*
X002950Y011890D02*
X002460Y011890D01*
X002460Y012135D01*
X002541Y012217D01*
D12*
X011960Y007578D02*
X011960Y006650D01*
X012234Y006650D01*
X012234Y006920D01*
X012184Y006946D01*
X012184Y007228D01*
X012232Y007268D01*
X012232Y007286D01*
X012432Y007286D01*
X012432Y007270D01*
X012258Y007270D01*
X012236Y007270D01*
X012236Y007292D01*
X012258Y007292D01*
X012258Y007384D01*
X012286Y007410D01*
X012412Y007410D01*
X012434Y007388D01*
X012434Y007270D01*
X012464Y007270D01*
X012512Y007230D01*
X012512Y006946D01*
X012462Y006922D01*
X012462Y006648D01*
X012736Y006648D01*
X012736Y007578D01*
X011960Y007578D01*
X011960Y007572D02*
X012736Y007572D01*
X012736Y007564D02*
X011960Y007564D01*
X011960Y007555D02*
X012736Y007555D01*
X012736Y007547D02*
X011960Y007547D01*
X011960Y007538D02*
X012736Y007538D01*
X012736Y007530D02*
X011960Y007530D01*
X011960Y007521D02*
X012736Y007521D01*
X012736Y007513D02*
X011960Y007513D01*
X011960Y007504D02*
X012736Y007504D01*
X012736Y007496D02*
X011960Y007496D01*
X011960Y007487D02*
X012736Y007487D01*
X012736Y007479D02*
X011960Y007479D01*
X011960Y007470D02*
X012736Y007470D01*
X012736Y007462D02*
X011960Y007462D01*
X011960Y007453D02*
X012736Y007453D01*
X012736Y007445D02*
X011960Y007445D01*
X011960Y007436D02*
X012736Y007436D01*
X012736Y007428D02*
X011960Y007428D01*
X011960Y007419D02*
X012736Y007419D01*
X012736Y007411D02*
X011960Y007411D01*
X011960Y007402D02*
X012278Y007402D01*
X012268Y007394D02*
X011960Y007394D01*
X011960Y007385D02*
X012259Y007385D01*
X012258Y007377D02*
X011960Y007377D01*
X011960Y007368D02*
X012258Y007368D01*
X012258Y007360D02*
X011960Y007360D01*
X011960Y007351D02*
X012258Y007351D01*
X012258Y007343D02*
X011960Y007343D01*
X011960Y007334D02*
X012258Y007334D01*
X012258Y007326D02*
X011960Y007326D01*
X011960Y007317D02*
X012258Y007317D01*
X012258Y007309D02*
X011960Y007309D01*
X011960Y007300D02*
X012258Y007300D01*
X012236Y007292D02*
X011960Y007292D01*
X011960Y007283D02*
X012232Y007283D01*
X012236Y007283D02*
X012432Y007283D01*
X012434Y007283D02*
X012736Y007283D01*
X012736Y007275D02*
X012434Y007275D01*
X012432Y007275D02*
X012236Y007275D01*
X012232Y007275D02*
X011960Y007275D01*
X011960Y007266D02*
X012230Y007266D01*
X012220Y007258D02*
X011960Y007258D01*
X011960Y007249D02*
X012209Y007249D01*
X012199Y007241D02*
X011960Y007241D01*
X011960Y007232D02*
X012189Y007232D01*
X012184Y007224D02*
X011960Y007224D01*
X011960Y007215D02*
X012184Y007215D01*
X012184Y007207D02*
X011960Y007207D01*
X011960Y007198D02*
X012184Y007198D01*
X012184Y007190D02*
X011960Y007190D01*
X011960Y007181D02*
X012184Y007181D01*
X012184Y007173D02*
X011960Y007173D01*
X011960Y007164D02*
X012184Y007164D01*
X012184Y007156D02*
X011960Y007156D01*
X011960Y007147D02*
X012184Y007147D01*
X012184Y007139D02*
X011960Y007139D01*
X011960Y007130D02*
X012184Y007130D01*
X012184Y007122D02*
X011960Y007122D01*
X011960Y007113D02*
X012184Y007113D01*
X012184Y007105D02*
X011960Y007105D01*
X011960Y007096D02*
X012184Y007096D01*
X012184Y007088D02*
X011960Y007088D01*
X011960Y007079D02*
X012184Y007079D01*
X012184Y007071D02*
X011960Y007071D01*
X011960Y007062D02*
X012184Y007062D01*
X012184Y007054D02*
X011960Y007054D01*
X011960Y007045D02*
X012184Y007045D01*
X012184Y007037D02*
X011960Y007037D01*
X011960Y007028D02*
X012184Y007028D01*
X012184Y007020D02*
X011960Y007020D01*
X011960Y007011D02*
X012184Y007011D01*
X012184Y007003D02*
X011960Y007003D01*
X011960Y006994D02*
X012184Y006994D01*
X012184Y006986D02*
X011960Y006986D01*
X011960Y006977D02*
X012184Y006977D01*
X012184Y006969D02*
X011960Y006969D01*
X011960Y006960D02*
X012184Y006960D01*
X012184Y006952D02*
X011960Y006952D01*
X011960Y006943D02*
X012189Y006943D01*
X012206Y006935D02*
X011960Y006935D01*
X011960Y006926D02*
X012222Y006926D01*
X012234Y006918D02*
X011960Y006918D01*
X011960Y006909D02*
X012234Y006909D01*
X012234Y006901D02*
X011960Y006901D01*
X011960Y006892D02*
X012234Y006892D01*
X012234Y006884D02*
X011960Y006884D01*
X011960Y006875D02*
X012234Y006875D01*
X012234Y006867D02*
X011960Y006867D01*
X011960Y006858D02*
X012234Y006858D01*
X012234Y006850D02*
X011960Y006850D01*
X011960Y006841D02*
X012234Y006841D01*
X012234Y006833D02*
X011960Y006833D01*
X011960Y006824D02*
X012234Y006824D01*
X012234Y006816D02*
X011960Y006816D01*
X011960Y006807D02*
X012234Y006807D01*
X012234Y006799D02*
X011960Y006799D01*
X011960Y006790D02*
X012234Y006790D01*
X012234Y006782D02*
X011960Y006782D01*
X011960Y006773D02*
X012234Y006773D01*
X012234Y006765D02*
X011960Y006765D01*
X011960Y006756D02*
X012234Y006756D01*
X012234Y006748D02*
X011960Y006748D01*
X011960Y006739D02*
X012234Y006739D01*
X012234Y006731D02*
X011960Y006731D01*
X011960Y006722D02*
X012234Y006722D01*
X012234Y006714D02*
X011960Y006714D01*
X011960Y006705D02*
X012234Y006705D01*
X012234Y006697D02*
X011960Y006697D01*
X011960Y006688D02*
X012234Y006688D01*
X012234Y006680D02*
X011960Y006680D01*
X011960Y006671D02*
X012234Y006671D01*
X012234Y006663D02*
X011960Y006663D01*
X011960Y006654D02*
X012234Y006654D01*
X012462Y006654D02*
X012736Y006654D01*
X012736Y006663D02*
X012462Y006663D01*
X012462Y006671D02*
X012736Y006671D01*
X012736Y006680D02*
X012462Y006680D01*
X012462Y006688D02*
X012736Y006688D01*
X012736Y006697D02*
X012462Y006697D01*
X012462Y006705D02*
X012736Y006705D01*
X012736Y006714D02*
X012462Y006714D01*
X012462Y006722D02*
X012736Y006722D01*
X012736Y006731D02*
X012462Y006731D01*
X012462Y006739D02*
X012736Y006739D01*
X012736Y006748D02*
X012462Y006748D01*
X012462Y006756D02*
X012736Y006756D01*
X012736Y006765D02*
X012462Y006765D01*
X012462Y006773D02*
X012736Y006773D01*
X012736Y006782D02*
X012462Y006782D01*
X012462Y006790D02*
X012736Y006790D01*
X012736Y006799D02*
X012462Y006799D01*
X012462Y006807D02*
X012736Y006807D01*
X012736Y006816D02*
X012462Y006816D01*
X012462Y006824D02*
X012736Y006824D01*
X012736Y006833D02*
X012462Y006833D01*
X012462Y006841D02*
X012736Y006841D01*
X012736Y006850D02*
X012462Y006850D01*
X012462Y006858D02*
X012736Y006858D01*
X012736Y006867D02*
X012462Y006867D01*
X012462Y006875D02*
X012736Y006875D01*
X012736Y006884D02*
X012462Y006884D01*
X012462Y006892D02*
X012736Y006892D01*
X012736Y006901D02*
X012462Y006901D01*
X012462Y006909D02*
X012736Y006909D01*
X012736Y006918D02*
X012462Y006918D01*
X012471Y006926D02*
X012736Y006926D01*
X012736Y006935D02*
X012488Y006935D01*
X012506Y006943D02*
X012736Y006943D01*
X012736Y006952D02*
X012512Y006952D01*
X012512Y006960D02*
X012736Y006960D01*
X012736Y006969D02*
X012512Y006969D01*
X012512Y006977D02*
X012736Y006977D01*
X012736Y006986D02*
X012512Y006986D01*
X012512Y006994D02*
X012736Y006994D01*
X012736Y007003D02*
X012512Y007003D01*
X012512Y007011D02*
X012736Y007011D01*
X012736Y007020D02*
X012512Y007020D01*
X012512Y007028D02*
X012736Y007028D01*
X012736Y007037D02*
X012512Y007037D01*
X012512Y007045D02*
X012736Y007045D01*
X012736Y007054D02*
X012512Y007054D01*
X012512Y007062D02*
X012736Y007062D01*
X012736Y007071D02*
X012512Y007071D01*
X012512Y007079D02*
X012736Y007079D01*
X012736Y007088D02*
X012512Y007088D01*
X012512Y007096D02*
X012736Y007096D01*
X012736Y007105D02*
X012512Y007105D01*
X012512Y007113D02*
X012736Y007113D01*
X012736Y007122D02*
X012512Y007122D01*
X012512Y007130D02*
X012736Y007130D01*
X012736Y007139D02*
X012512Y007139D01*
X012512Y007147D02*
X012736Y007147D01*
X012736Y007156D02*
X012512Y007156D01*
X012512Y007164D02*
X012736Y007164D01*
X012736Y007173D02*
X012512Y007173D01*
X012512Y007181D02*
X012736Y007181D01*
X012736Y007190D02*
X012512Y007190D01*
X012512Y007198D02*
X012736Y007198D01*
X012736Y007207D02*
X012512Y007207D01*
X012512Y007215D02*
X012736Y007215D01*
X012736Y007224D02*
X012512Y007224D01*
X012509Y007232D02*
X012736Y007232D01*
X012736Y007241D02*
X012499Y007241D01*
X012489Y007249D02*
X012736Y007249D01*
X012736Y007258D02*
X012479Y007258D01*
X012469Y007266D02*
X012736Y007266D01*
X012736Y007292D02*
X012434Y007292D01*
X012434Y007300D02*
X012736Y007300D01*
X012736Y007309D02*
X012434Y007309D01*
X012434Y007317D02*
X012736Y007317D01*
X012736Y007326D02*
X012434Y007326D01*
X012434Y007334D02*
X012736Y007334D01*
X012736Y007343D02*
X012434Y007343D01*
X012434Y007351D02*
X012736Y007351D01*
X012736Y007360D02*
X012434Y007360D01*
X012434Y007368D02*
X012736Y007368D01*
X012736Y007377D02*
X012434Y007377D01*
X012434Y007385D02*
X012736Y007385D01*
X012736Y007394D02*
X012428Y007394D01*
X012420Y007402D02*
X012736Y007402D01*
X000160Y013160D02*
X000164Y013479D01*
X000176Y013798D01*
X000195Y014116D01*
X000223Y014434D01*
X000258Y014751D01*
X000301Y015067D01*
X000351Y015383D01*
X000410Y015696D01*
X000476Y016008D01*
X000550Y016319D01*
X000631Y016627D01*
X000720Y016934D01*
X000816Y017238D01*
X000920Y017540D01*
X001031Y017839D01*
X001150Y018135D01*
X001275Y018428D01*
X001408Y018718D01*
X001548Y019005D01*
X001695Y019288D01*
X001849Y019568D01*
X002010Y019843D01*
X002177Y020115D01*
X002351Y020382D01*
X002531Y020646D01*
X002718Y020904D01*
X002911Y021158D01*
X003111Y021407D01*
X003316Y021651D01*
X003528Y021890D01*
X003745Y022124D01*
X003968Y022352D01*
X004196Y022575D01*
X004430Y022792D01*
X004669Y023004D01*
X004913Y023209D01*
X005162Y023409D01*
X005416Y023602D01*
X005674Y023789D01*
X005938Y023969D01*
X006205Y024143D01*
X006477Y024310D01*
X006752Y024471D01*
X007032Y024625D01*
X007315Y024772D01*
X007602Y024912D01*
X007892Y025045D01*
X008185Y025170D01*
X008481Y025289D01*
X008780Y025400D01*
X009082Y025504D01*
X009386Y025600D01*
X009693Y025689D01*
X010001Y025770D01*
X010312Y025844D01*
X010624Y025910D01*
X010937Y025969D01*
X011253Y026019D01*
X011569Y026062D01*
X011886Y026097D01*
X012204Y026125D01*
X012522Y026144D01*
X012841Y026156D01*
X013160Y026160D01*
X013479Y026156D01*
X013798Y026144D01*
X014116Y026125D01*
X014434Y026097D01*
X014751Y026062D01*
X015067Y026019D01*
X015383Y025969D01*
X015696Y025910D01*
X016008Y025844D01*
X016319Y025770D01*
X016627Y025689D01*
X016934Y025600D01*
X017238Y025504D01*
X017540Y025400D01*
X017839Y025289D01*
X018135Y025170D01*
X018428Y025045D01*
X018718Y024912D01*
X019005Y024772D01*
X019288Y024625D01*
X019568Y024471D01*
X019843Y024310D01*
X020115Y024143D01*
X020382Y023969D01*
X020646Y023789D01*
X020904Y023602D01*
X021158Y023409D01*
X021407Y023209D01*
X021651Y023004D01*
X021890Y022792D01*
X022124Y022575D01*
X022352Y022352D01*
X022575Y022124D01*
X022792Y021890D01*
X023004Y021651D01*
X023209Y021407D01*
X023409Y021158D01*
X023602Y020904D01*
X023789Y020646D01*
X023969Y020382D01*
X024143Y020115D01*
X024310Y019843D01*
X024471Y019568D01*
X024625Y019288D01*
X024772Y019005D01*
X024912Y018718D01*
X025045Y018428D01*
X025170Y018135D01*
X025289Y017839D01*
X025400Y017540D01*
X025504Y017238D01*
X025600Y016934D01*
X025689Y016627D01*
X025770Y016319D01*
X025844Y016008D01*
X025910Y015696D01*
X025969Y015383D01*
X026019Y015067D01*
X026062Y014751D01*
X026097Y014434D01*
X026125Y014116D01*
X026144Y013798D01*
X026156Y013479D01*
X026160Y013160D01*
X026156Y012841D01*
X026144Y012522D01*
X026125Y012204D01*
X026097Y011886D01*
X026062Y011569D01*
X026019Y011253D01*
X025969Y010937D01*
X025910Y010624D01*
X025844Y010312D01*
X025770Y010001D01*
X025689Y009693D01*
X025600Y009386D01*
X025504Y009082D01*
X025400Y008780D01*
X025289Y008481D01*
X025170Y008185D01*
X025045Y007892D01*
X024912Y007602D01*
X024772Y007315D01*
X024625Y007032D01*
X024471Y006752D01*
X024310Y006477D01*
X024143Y006205D01*
X023969Y005938D01*
X023789Y005674D01*
X023602Y005416D01*
X023409Y005162D01*
X023209Y004913D01*
X023004Y004669D01*
X022792Y004430D01*
X022575Y004196D01*
X022352Y003968D01*
X022124Y003745D01*
X021890Y003528D01*
X021651Y003316D01*
X021407Y003111D01*
X021158Y002911D01*
X020904Y002718D01*
X020646Y002531D01*
X020382Y002351D01*
X020115Y002177D01*
X019843Y002010D01*
X019568Y001849D01*
X019288Y001695D01*
X019005Y001548D01*
X018718Y001408D01*
X018428Y001275D01*
X018135Y001150D01*
X017839Y001031D01*
X017540Y000920D01*
X017238Y000816D01*
X016934Y000720D01*
X016627Y000631D01*
X016319Y000550D01*
X016008Y000476D01*
X015696Y000410D01*
X015383Y000351D01*
X015067Y000301D01*
X014751Y000258D01*
X014434Y000223D01*
X014116Y000195D01*
X013798Y000176D01*
X013479Y000164D01*
X013160Y000160D01*
X012841Y000164D01*
X012522Y000176D01*
X012204Y000195D01*
X011886Y000223D01*
X011569Y000258D01*
X011253Y000301D01*
X010937Y000351D01*
X010624Y000410D01*
X010312Y000476D01*
X010001Y000550D01*
X009693Y000631D01*
X009386Y000720D01*
X009082Y000816D01*
X008780Y000920D01*
X008481Y001031D01*
X008185Y001150D01*
X007892Y001275D01*
X007602Y001408D01*
X007315Y001548D01*
X007032Y001695D01*
X006752Y001849D01*
X006477Y002010D01*
X006205Y002177D01*
X005938Y002351D01*
X005674Y002531D01*
X005416Y002718D01*
X005162Y002911D01*
X004913Y003111D01*
X004669Y003316D01*
X004430Y003528D01*
X004196Y003745D01*
X003968Y003968D01*
X003745Y004196D01*
X003528Y004430D01*
X003316Y004669D01*
X003111Y004913D01*
X002911Y005162D01*
X002718Y005416D01*
X002531Y005674D01*
X002351Y005938D01*
X002177Y006205D01*
X002010Y006477D01*
X001849Y006752D01*
X001695Y007032D01*
X001548Y007315D01*
X001408Y007602D01*
X001275Y007892D01*
X001150Y008185D01*
X001031Y008481D01*
X000920Y008780D01*
X000816Y009082D01*
X000720Y009386D01*
X000631Y009693D01*
X000550Y010001D01*
X000476Y010312D01*
X000410Y010624D01*
X000351Y010937D01*
X000301Y011253D01*
X000258Y011569D01*
X000223Y011886D01*
X000195Y012204D01*
X000176Y012522D01*
X000164Y012841D01*
X000160Y013160D01*
D13*
X005060Y010630D02*
X005060Y009090D01*
X007060Y009090D01*
X007060Y010630D01*
X005060Y010630D01*
X005615Y007666D02*
X005851Y007666D01*
X005851Y007154D02*
X005615Y007154D01*
X007426Y007154D02*
X007544Y007154D01*
X007426Y007154D02*
X007426Y007666D01*
X007544Y007666D01*
X010160Y008160D02*
X010160Y008410D01*
X010160Y008160D02*
X016160Y008160D01*
X016160Y008410D01*
X015247Y005905D02*
X015247Y004899D01*
X016329Y004899D01*
X016329Y003521D01*
X015247Y003521D01*
X015247Y002515D01*
X011073Y002515D01*
X011073Y003521D01*
X009991Y003521D01*
X009991Y004899D01*
X011073Y004899D01*
X011073Y005905D01*
X011090Y005925D01*
X011110Y005942D01*
X011132Y005956D01*
X011156Y005967D01*
X011182Y005975D01*
X011208Y005979D01*
X011234Y005979D01*
X011260Y005975D01*
X011286Y005967D01*
X011310Y005956D01*
X011332Y005942D01*
X011352Y005925D01*
X011369Y005905D01*
X010430Y004210D02*
X010432Y004245D01*
X010438Y004279D01*
X010447Y004312D01*
X010461Y004344D01*
X010477Y004374D01*
X010497Y004403D01*
X010521Y004428D01*
X010546Y004452D01*
X010575Y004472D01*
X010605Y004488D01*
X010637Y004502D01*
X010670Y004511D01*
X010704Y004517D01*
X010739Y004519D01*
X010774Y004517D01*
X010808Y004511D01*
X010841Y004502D01*
X010873Y004488D01*
X010903Y004472D01*
X010932Y004452D01*
X010957Y004428D01*
X010981Y004403D01*
X011001Y004374D01*
X011017Y004344D01*
X011031Y004312D01*
X011040Y004279D01*
X011046Y004245D01*
X011048Y004210D01*
X011046Y004175D01*
X011040Y004141D01*
X011031Y004108D01*
X011017Y004076D01*
X011001Y004046D01*
X010981Y004017D01*
X010957Y003992D01*
X010932Y003968D01*
X010903Y003948D01*
X010873Y003932D01*
X010841Y003918D01*
X010808Y003909D01*
X010774Y003903D01*
X010739Y003901D01*
X010704Y003903D01*
X010670Y003909D01*
X010637Y003918D01*
X010605Y003932D01*
X010575Y003948D01*
X010546Y003968D01*
X010521Y003992D01*
X010497Y004017D01*
X010477Y004046D01*
X010461Y004076D01*
X010447Y004108D01*
X010438Y004141D01*
X010432Y004175D01*
X010430Y004210D01*
X011369Y005905D02*
X011419Y005830D01*
X011473Y005757D01*
X011530Y005686D01*
X011589Y005618D01*
X011652Y005552D01*
X011717Y005489D01*
X011785Y005429D01*
X011855Y005372D01*
X011928Y005318D01*
X012003Y005267D01*
X012080Y005219D01*
X012159Y005175D01*
X012240Y005134D01*
X012322Y005096D01*
X012406Y005062D01*
X012492Y005032D01*
X012578Y005005D01*
X012666Y004982D01*
X012755Y004963D01*
X012844Y004948D01*
X012934Y004936D01*
X013024Y004928D01*
X013115Y004924D01*
X013205Y004924D01*
X013296Y004928D01*
X013386Y004936D01*
X013476Y004948D01*
X013565Y004963D01*
X013654Y004982D01*
X013742Y005005D01*
X013828Y005032D01*
X013914Y005062D01*
X013998Y005096D01*
X014080Y005134D01*
X014161Y005175D01*
X014240Y005219D01*
X014317Y005267D01*
X014392Y005318D01*
X014465Y005372D01*
X014535Y005429D01*
X014603Y005489D01*
X014668Y005552D01*
X014731Y005618D01*
X014790Y005686D01*
X014847Y005757D01*
X014901Y005830D01*
X014951Y005905D01*
X014963Y005927D01*
X014978Y005946D01*
X014996Y005963D01*
X015017Y005977D01*
X015039Y005988D01*
X015062Y005995D01*
X015087Y005999D01*
X015111Y005999D01*
X015136Y005995D01*
X015159Y005988D01*
X015181Y005977D01*
X015202Y005963D01*
X015220Y005946D01*
X015235Y005927D01*
X015247Y005905D01*
X015272Y004271D02*
X015274Y004306D01*
X015280Y004340D01*
X015289Y004373D01*
X015303Y004405D01*
X015319Y004435D01*
X015339Y004464D01*
X015363Y004489D01*
X015388Y004513D01*
X015417Y004533D01*
X015447Y004549D01*
X015479Y004563D01*
X015512Y004572D01*
X015546Y004578D01*
X015581Y004580D01*
X015616Y004578D01*
X015650Y004572D01*
X015683Y004563D01*
X015715Y004549D01*
X015745Y004533D01*
X015774Y004513D01*
X015799Y004489D01*
X015823Y004464D01*
X015843Y004435D01*
X015859Y004405D01*
X015873Y004373D01*
X015882Y004340D01*
X015888Y004306D01*
X015890Y004271D01*
X015888Y004236D01*
X015882Y004202D01*
X015873Y004169D01*
X015859Y004137D01*
X015843Y004107D01*
X015823Y004078D01*
X015799Y004053D01*
X015774Y004029D01*
X015745Y004009D01*
X015715Y003993D01*
X015683Y003979D01*
X015650Y003970D01*
X015616Y003964D01*
X015581Y003962D01*
X015546Y003964D01*
X015512Y003970D01*
X015479Y003979D01*
X015447Y003993D01*
X015417Y004009D01*
X015388Y004029D01*
X015363Y004053D01*
X015339Y004078D01*
X015319Y004107D01*
X015303Y004137D01*
X015289Y004169D01*
X015280Y004202D01*
X015274Y004236D01*
X015272Y004271D01*
X018910Y011910D02*
X022510Y011910D01*
X022540Y011912D01*
X022570Y011917D01*
X022599Y011926D01*
X022626Y011939D01*
X022652Y011954D01*
X022676Y011973D01*
X022697Y011994D01*
X022716Y012018D01*
X022731Y012044D01*
X022744Y012071D01*
X022753Y012100D01*
X022758Y012130D01*
X022760Y012160D01*
X022760Y014410D01*
X022758Y014440D01*
X022753Y014470D01*
X022744Y014499D01*
X022731Y014526D01*
X022716Y014552D01*
X022697Y014576D01*
X022676Y014597D01*
X022652Y014616D01*
X022626Y014631D01*
X022599Y014644D01*
X022570Y014653D01*
X022540Y014658D01*
X022510Y014660D01*
X018910Y014660D01*
X018880Y014658D01*
X018850Y014653D01*
X018821Y014644D01*
X018794Y014631D01*
X018768Y014616D01*
X018744Y014597D01*
X018723Y014576D01*
X018704Y014552D01*
X018689Y014526D01*
X018676Y014499D01*
X018667Y014470D01*
X018662Y014440D01*
X018660Y014410D01*
X018660Y012160D01*
X018662Y012130D01*
X018667Y012100D01*
X018676Y012071D01*
X018689Y012044D01*
X018704Y012018D01*
X018723Y011994D01*
X018744Y011973D01*
X018768Y011954D01*
X018794Y011939D01*
X018821Y011926D01*
X018850Y011917D01*
X018880Y011912D01*
X018910Y011910D01*
X016160Y012460D02*
X016160Y012660D01*
X012660Y012660D01*
X012660Y014160D01*
X010160Y014160D01*
X010160Y013960D01*
X009510Y014710D02*
X009510Y014907D01*
X009510Y014710D02*
X009313Y014710D01*
X008132Y014710D02*
X007935Y014710D01*
X007935Y014907D01*
X007935Y016088D02*
X007935Y016285D01*
X008132Y016285D01*
X009313Y016285D02*
X009510Y016285D01*
X009510Y016088D01*
X012060Y018060D02*
X012060Y020260D01*
X012058Y020304D01*
X012052Y020347D01*
X012043Y020389D01*
X012030Y020431D01*
X012013Y020471D01*
X011993Y020510D01*
X011970Y020547D01*
X011943Y020581D01*
X011914Y020614D01*
X011881Y020643D01*
X011847Y020670D01*
X011810Y020693D01*
X011771Y020713D01*
X011731Y020730D01*
X011689Y020743D01*
X011647Y020752D01*
X011604Y020758D01*
X011560Y020760D01*
X009760Y020760D01*
X009716Y020762D01*
X009673Y020768D01*
X009631Y020777D01*
X009589Y020790D01*
X009549Y020807D01*
X009510Y020827D01*
X009473Y020850D01*
X009439Y020877D01*
X009406Y020906D01*
X009377Y020939D01*
X009350Y020973D01*
X009327Y021010D01*
X009307Y021049D01*
X009290Y021089D01*
X009277Y021131D01*
X009268Y021173D01*
X009262Y021216D01*
X009260Y021260D01*
X009260Y022310D01*
X009262Y022354D01*
X009268Y022397D01*
X009277Y022439D01*
X009290Y022481D01*
X009307Y022521D01*
X009327Y022560D01*
X009350Y022597D01*
X009377Y022631D01*
X009406Y022664D01*
X009439Y022693D01*
X009473Y022720D01*
X009510Y022743D01*
X009549Y022763D01*
X009589Y022780D01*
X009631Y022793D01*
X009673Y022802D01*
X009716Y022808D01*
X009760Y022810D01*
X016560Y022810D01*
X016604Y022808D01*
X016647Y022802D01*
X016689Y022793D01*
X016731Y022780D01*
X016771Y022763D01*
X016810Y022743D01*
X016847Y022720D01*
X016881Y022693D01*
X016914Y022664D01*
X016943Y022631D01*
X016970Y022597D01*
X016993Y022560D01*
X017013Y022521D01*
X017030Y022481D01*
X017043Y022439D01*
X017052Y022397D01*
X017058Y022354D01*
X017060Y022310D01*
X017060Y018060D01*
X017058Y018016D01*
X017052Y017973D01*
X017043Y017931D01*
X017030Y017889D01*
X017013Y017849D01*
X016993Y017810D01*
X016970Y017773D01*
X016943Y017739D01*
X016914Y017706D01*
X016881Y017677D01*
X016847Y017650D01*
X016810Y017627D01*
X016771Y017607D01*
X016731Y017590D01*
X016689Y017577D01*
X016647Y017568D01*
X016604Y017562D01*
X016560Y017560D01*
X012560Y017560D01*
X012516Y017562D01*
X012473Y017568D01*
X012431Y017577D01*
X012389Y017590D01*
X012349Y017607D01*
X012310Y017627D01*
X012273Y017650D01*
X012239Y017677D01*
X012206Y017706D01*
X012177Y017739D01*
X012150Y017773D01*
X012127Y017810D01*
X012107Y017849D01*
X012090Y017889D01*
X012077Y017931D01*
X012068Y017973D01*
X012062Y018016D01*
X012060Y018060D01*
X012660Y014160D02*
X016160Y014160D01*
X016160Y012660D01*
X019275Y018160D02*
X019575Y018160D01*
X019860Y019985D02*
X019785Y020060D01*
X019860Y019985D02*
X020010Y019985D01*
X020085Y020060D01*
X020085Y020135D01*
X020010Y020210D01*
X019860Y020210D01*
X019785Y020285D01*
X019785Y020360D01*
X019860Y020435D01*
X020010Y020435D01*
X020085Y020360D01*
X020245Y020435D02*
X020546Y020435D01*
X020396Y020435D02*
X020396Y019985D01*
X020706Y019985D02*
X020706Y020435D01*
X020931Y020435D01*
X021006Y020360D01*
X021006Y020210D01*
X020931Y020135D01*
X020706Y020135D01*
X020856Y020135D02*
X021006Y019985D01*
X022020Y018345D02*
X022020Y018045D01*
X022170Y018195D02*
X021870Y018195D01*
D14*
X017195Y012613D02*
X017195Y012420D01*
X017195Y012516D02*
X016905Y012516D01*
X017002Y012420D01*
X016905Y012318D02*
X016905Y012125D01*
X017195Y012125D01*
X017050Y012125D02*
X017050Y012222D01*
X017995Y011483D02*
X017995Y011290D01*
X018043Y011188D02*
X018140Y011188D01*
X018188Y011140D01*
X018188Y010995D01*
X018188Y011092D02*
X018285Y011188D01*
X018285Y011290D02*
X018237Y011290D01*
X018043Y011483D01*
X017995Y011483D01*
X018043Y011188D02*
X017995Y011140D01*
X017995Y010995D01*
X018285Y010995D01*
X017277Y007918D02*
X017325Y007870D01*
X017325Y007725D01*
X017228Y007725D02*
X017228Y007870D01*
X017277Y007918D01*
X017228Y007870D02*
X017180Y007918D01*
X017131Y007918D01*
X017131Y007725D01*
X017030Y007773D02*
X017030Y007870D01*
X016982Y007918D01*
X016885Y007918D01*
X016837Y007870D01*
X016837Y007773D01*
X016885Y007725D01*
X016982Y007725D01*
X017030Y007773D01*
X016736Y007725D02*
X016590Y007725D01*
X016542Y007773D01*
X016542Y007870D01*
X016590Y007918D01*
X016736Y007918D01*
X016443Y007773D02*
X016443Y007725D01*
X016395Y007725D01*
X016395Y007773D01*
X016443Y007773D01*
X016294Y007725D02*
X016148Y007725D01*
X016100Y007773D01*
X016100Y007870D01*
X016148Y007918D01*
X016294Y007918D01*
X015952Y007918D02*
X015952Y007725D01*
X015904Y007725D02*
X016000Y007725D01*
X015804Y007725D02*
X015756Y007773D01*
X015756Y007967D01*
X015804Y007918D02*
X015707Y007918D01*
X015606Y007870D02*
X015558Y007918D01*
X015461Y007918D01*
X015413Y007870D01*
X015413Y007773D01*
X015461Y007725D01*
X015558Y007725D01*
X015606Y007773D01*
X015606Y007870D01*
X015311Y007870D02*
X015263Y007918D01*
X015118Y007918D01*
X015118Y008015D02*
X015118Y007725D01*
X015263Y007725D01*
X015311Y007773D01*
X015311Y007870D01*
X015017Y007870D02*
X014968Y007918D01*
X014872Y007918D01*
X014823Y007870D01*
X014823Y007773D01*
X014872Y007725D01*
X014968Y007725D01*
X015017Y007773D01*
X015017Y007870D01*
X014723Y007918D02*
X014675Y007918D01*
X014578Y007822D01*
X014578Y007918D02*
X014578Y007725D01*
X014477Y007725D02*
X014331Y007725D01*
X014283Y007773D01*
X014283Y007870D01*
X014331Y007918D01*
X014477Y007918D01*
X014182Y007870D02*
X014182Y007725D01*
X014037Y007725D01*
X013988Y007773D01*
X014037Y007822D01*
X014182Y007822D01*
X014182Y007870D02*
X014134Y007918D01*
X014037Y007918D01*
X013887Y008015D02*
X013694Y007725D01*
X013399Y007725D02*
X013593Y008015D01*
X013300Y007918D02*
X013300Y007870D01*
X013252Y007870D01*
X013252Y007918D01*
X013300Y007918D01*
X013300Y007773D02*
X013300Y007725D01*
X013252Y007725D01*
X013252Y007773D01*
X013300Y007773D01*
X013151Y007773D02*
X013102Y007822D01*
X013006Y007822D01*
X012957Y007870D01*
X013006Y007918D01*
X013151Y007918D01*
X013151Y007773D02*
X013102Y007725D01*
X012957Y007725D01*
X012856Y007773D02*
X012808Y007725D01*
X012663Y007725D01*
X012663Y007628D02*
X012663Y007918D01*
X012808Y007918D01*
X012856Y007870D01*
X012856Y007773D01*
X012563Y007725D02*
X012514Y007773D01*
X012514Y007967D01*
X012466Y007918D02*
X012563Y007918D01*
X012366Y007918D02*
X012270Y007918D01*
X012318Y007967D02*
X012318Y007773D01*
X012366Y007725D01*
X012168Y007725D02*
X012168Y007870D01*
X012120Y007918D01*
X012023Y007918D01*
X011975Y007870D01*
X011975Y008015D02*
X011975Y007725D01*
X011563Y007723D02*
X011515Y007675D01*
X011418Y007675D01*
X011370Y007723D01*
X011268Y007675D02*
X011172Y007772D01*
X011220Y007772D02*
X011075Y007772D01*
X011075Y007675D02*
X011075Y007965D01*
X011220Y007965D01*
X011268Y007917D01*
X011268Y007820D01*
X011220Y007772D01*
X011370Y007917D02*
X011418Y007965D01*
X011515Y007965D01*
X011563Y007917D01*
X011563Y007868D01*
X011515Y007820D01*
X011563Y007772D01*
X011563Y007723D01*
X011515Y007820D02*
X011466Y007820D01*
X011495Y006965D02*
X011350Y006820D01*
X011543Y006820D01*
X011495Y006675D02*
X011495Y006965D01*
X011248Y006917D02*
X011248Y006820D01*
X011200Y006772D01*
X011055Y006772D01*
X011152Y006772D02*
X011248Y006675D01*
X011055Y006675D02*
X011055Y006965D01*
X011200Y006965D01*
X011248Y006917D01*
X009507Y005202D02*
X009410Y005202D01*
X009362Y005153D01*
X009362Y005105D01*
X009410Y005008D01*
X009265Y005008D01*
X009265Y005202D01*
X009507Y005202D02*
X009555Y005153D01*
X009555Y005057D01*
X009507Y005008D01*
X009555Y004907D02*
X009555Y004714D01*
X009362Y004907D01*
X009313Y004907D01*
X009265Y004859D01*
X009265Y004762D01*
X009313Y004714D01*
X009313Y004612D02*
X009507Y004419D01*
X009555Y004467D01*
X009555Y004564D01*
X009507Y004612D01*
X009313Y004612D01*
X009265Y004564D01*
X009265Y004467D01*
X009313Y004419D01*
X009507Y004419D01*
X009555Y004318D02*
X009555Y004124D01*
X009555Y004221D02*
X009265Y004221D01*
X009362Y004124D01*
X009410Y004023D02*
X009458Y003975D01*
X009458Y003830D01*
X009458Y003926D02*
X009555Y004023D01*
X009410Y004023D02*
X009313Y004023D01*
X009265Y003975D01*
X009265Y003830D01*
X009555Y003830D01*
X009507Y003728D02*
X009555Y003680D01*
X009555Y003583D01*
X009507Y003535D01*
X009313Y003535D01*
X009265Y003583D01*
X009265Y003680D01*
X009313Y003728D01*
X006892Y006739D02*
X006699Y006739D01*
X006796Y006739D02*
X006796Y007029D01*
X006699Y006933D01*
X006598Y006739D02*
X006404Y006739D01*
X006404Y007029D01*
X006303Y007029D02*
X006110Y006739D01*
X006303Y006739D02*
X006110Y007029D01*
X004337Y008945D02*
X004385Y008993D01*
X004385Y009090D01*
X004337Y009138D01*
X004385Y009240D02*
X004192Y009433D01*
X004143Y009433D01*
X004095Y009385D01*
X004095Y009288D01*
X004143Y009240D01*
X004143Y009138D02*
X004095Y009090D01*
X004095Y008993D01*
X004143Y008945D01*
X004337Y008945D01*
X004385Y009240D02*
X004385Y009433D01*
X004347Y010376D02*
X004153Y010376D01*
X004105Y010424D01*
X004105Y010521D01*
X004153Y010569D01*
X004202Y010670D02*
X004105Y010767D01*
X004395Y010767D01*
X004395Y010670D02*
X004395Y010864D01*
X004347Y010569D02*
X004395Y010521D01*
X004395Y010424D01*
X004347Y010376D01*
X007009Y010875D02*
X007106Y010875D01*
X007058Y010875D02*
X007058Y011165D01*
X007106Y011165D02*
X007009Y011165D01*
X007206Y011117D02*
X007206Y010923D01*
X007254Y010875D01*
X007351Y010875D01*
X007399Y010923D01*
X007500Y010875D02*
X007694Y010875D01*
X007597Y010875D02*
X007597Y011165D01*
X007500Y011068D01*
X007399Y011117D02*
X007351Y011165D01*
X007254Y011165D01*
X007206Y011117D01*
X007226Y012245D02*
X007371Y012245D01*
X007419Y012293D01*
X007419Y012487D01*
X007371Y012535D01*
X007226Y012535D01*
X007226Y012245D01*
X007520Y012245D02*
X007714Y012245D01*
X007617Y012245D02*
X007617Y012535D01*
X007520Y012438D01*
X008673Y011163D02*
X008722Y011163D01*
X008770Y011115D01*
X008818Y011163D01*
X008867Y011163D01*
X008915Y011115D01*
X008915Y011018D01*
X008867Y010970D01*
X008867Y010868D02*
X008915Y010820D01*
X008915Y010723D01*
X008867Y010675D01*
X008673Y010675D01*
X008625Y010723D01*
X008625Y010820D01*
X008673Y010868D01*
X008673Y010970D02*
X008625Y011018D01*
X008625Y011115D01*
X008673Y011163D01*
X008770Y011115D02*
X008770Y011066D01*
X008556Y008982D02*
X008556Y008691D01*
X008652Y008691D02*
X008459Y008691D01*
X008358Y008740D02*
X008358Y008982D01*
X008459Y008885D02*
X008556Y008982D01*
X008358Y008740D02*
X008309Y008691D01*
X008213Y008691D01*
X008164Y008740D01*
X008164Y008982D01*
X009323Y014225D02*
X009420Y014225D01*
X009468Y014273D01*
X009468Y014515D01*
X009570Y014467D02*
X009618Y014515D01*
X009715Y014515D01*
X009763Y014467D01*
X009763Y014418D01*
X009570Y014225D01*
X009763Y014225D01*
X009925Y014625D02*
X009925Y014915D01*
X010070Y014915D01*
X010118Y014867D01*
X010118Y014770D01*
X010070Y014722D01*
X009925Y014722D01*
X010022Y014722D02*
X010118Y014625D01*
X010220Y014625D02*
X010413Y014625D01*
X010316Y014625D02*
X010316Y014915D01*
X010220Y014818D01*
X010514Y014818D02*
X010611Y014915D01*
X010611Y014625D01*
X010514Y014625D02*
X010708Y014625D01*
X009275Y014515D02*
X009275Y014273D01*
X009323Y014225D01*
X007274Y015203D02*
X007274Y015397D01*
X007225Y015445D01*
X007129Y015445D01*
X007080Y015397D01*
X007080Y015348D01*
X007129Y015300D01*
X007274Y015300D01*
X007274Y015203D02*
X007225Y015155D01*
X007129Y015155D01*
X007080Y015203D01*
X006979Y015155D02*
X006882Y015252D01*
X006931Y015252D02*
X006786Y015252D01*
X006786Y015155D02*
X006786Y015445D01*
X006931Y015445D01*
X006979Y015397D01*
X006979Y015300D01*
X006931Y015252D01*
X005365Y015725D02*
X005365Y016015D01*
X005220Y015870D01*
X005413Y015870D01*
X005118Y015773D02*
X005070Y015725D01*
X004973Y015725D01*
X004925Y015773D01*
X004925Y015967D01*
X004973Y016015D01*
X005070Y016015D01*
X005118Y015967D01*
X005070Y016375D02*
X004973Y016375D01*
X004925Y016423D01*
X004925Y016617D01*
X004973Y016665D01*
X005070Y016665D01*
X005118Y016617D01*
X005220Y016665D02*
X005220Y016520D01*
X005316Y016568D01*
X005365Y016568D01*
X005413Y016520D01*
X005413Y016423D01*
X005365Y016375D01*
X005268Y016375D01*
X005220Y016423D01*
X005118Y016423D02*
X005070Y016375D01*
X005220Y016665D02*
X005413Y016665D01*
X006736Y016955D02*
X006736Y017245D01*
X006881Y017245D01*
X006929Y017197D01*
X006929Y017100D01*
X006881Y017052D01*
X006736Y017052D01*
X006832Y017052D02*
X006929Y016955D01*
X007030Y017003D02*
X007030Y017052D01*
X007079Y017100D01*
X007175Y017100D01*
X007224Y017052D01*
X007224Y017003D01*
X007175Y016955D01*
X007079Y016955D01*
X007030Y017003D01*
X007079Y017100D02*
X007030Y017148D01*
X007030Y017197D01*
X007079Y017245D01*
X007175Y017245D01*
X007224Y017197D01*
X007224Y017148D01*
X007175Y017100D01*
X008675Y017275D02*
X008675Y017565D01*
X008820Y017565D01*
X008868Y017517D01*
X008868Y017420D01*
X008820Y017372D01*
X008675Y017372D01*
X008772Y017372D02*
X008868Y017275D01*
X008970Y017275D02*
X009163Y017275D01*
X009066Y017275D02*
X009066Y017565D01*
X008970Y017468D01*
X009264Y017517D02*
X009264Y017323D01*
X009458Y017517D01*
X009458Y017323D01*
X009409Y017275D01*
X009313Y017275D01*
X009264Y017323D01*
X009264Y017517D02*
X009313Y017565D01*
X009409Y017565D01*
X009458Y017517D01*
X010775Y017055D02*
X010775Y016825D01*
X010928Y016825D01*
X011014Y016825D02*
X011168Y016825D01*
X011254Y016825D02*
X011369Y016825D01*
X011407Y016863D01*
X011407Y017017D01*
X011369Y017055D01*
X011254Y017055D01*
X011254Y016825D01*
X011091Y016940D02*
X011014Y016940D01*
X011014Y017055D02*
X011014Y016825D01*
X011034Y016625D02*
X011034Y016395D01*
X011188Y016395D01*
X011274Y016395D02*
X011389Y016395D01*
X011427Y016433D01*
X011427Y016587D01*
X011389Y016625D01*
X011274Y016625D01*
X011274Y016395D01*
X011111Y016510D02*
X011034Y016510D01*
X011034Y016625D02*
X011188Y016625D01*
X011513Y016587D02*
X011552Y016625D01*
X011628Y016625D01*
X011667Y016587D01*
X011667Y016548D01*
X011513Y016395D01*
X011667Y016395D01*
X011753Y016433D02*
X011791Y016395D01*
X011868Y016395D01*
X011906Y016433D01*
X011906Y016472D01*
X011868Y016510D01*
X011753Y016510D01*
X011753Y016433D01*
X011753Y016510D02*
X011829Y016587D01*
X011906Y016625D01*
X011848Y016825D02*
X011771Y016825D01*
X011733Y016863D01*
X011733Y016940D02*
X011809Y016978D01*
X011848Y016978D01*
X011886Y016940D01*
X011886Y016863D01*
X011848Y016825D01*
X011733Y016940D02*
X011733Y017055D01*
X011886Y017055D01*
X011647Y017017D02*
X011608Y017055D01*
X011532Y017055D01*
X011493Y017017D01*
X011647Y017017D02*
X011647Y016978D01*
X011493Y016825D01*
X011647Y016825D01*
X011168Y017055D02*
X011014Y017055D01*
X010795Y016625D02*
X010795Y016395D01*
X010948Y016395D01*
X012075Y016115D02*
X012075Y015825D01*
X012075Y015922D02*
X012220Y015922D01*
X012268Y015970D01*
X012268Y016067D01*
X012220Y016115D01*
X012075Y016115D01*
X012172Y015922D02*
X012268Y015825D01*
X012370Y015825D02*
X012563Y015825D01*
X012466Y015825D02*
X012466Y016115D01*
X012370Y016018D01*
X012418Y015515D02*
X012370Y015467D01*
X012418Y015515D02*
X012515Y015515D01*
X012563Y015467D01*
X012563Y015418D01*
X012370Y015225D01*
X012563Y015225D01*
X012268Y015225D02*
X012172Y015322D01*
X012220Y015322D02*
X012075Y015322D01*
X012075Y015225D02*
X012075Y015515D01*
X012220Y015515D01*
X012268Y015467D01*
X012268Y015370D01*
X012220Y015322D01*
X012711Y014745D02*
X012856Y014745D01*
X012904Y014697D01*
X012904Y014600D01*
X012856Y014552D01*
X012711Y014552D01*
X012807Y014552D02*
X012904Y014455D01*
X013005Y014455D02*
X013005Y014745D01*
X013199Y014745D01*
X013300Y014745D02*
X013445Y014745D01*
X013493Y014697D01*
X013493Y014503D01*
X013445Y014455D01*
X013300Y014455D01*
X013300Y014745D01*
X013102Y014600D02*
X013005Y014600D01*
X012711Y014455D02*
X012711Y014745D01*
X013595Y014745D02*
X013595Y014503D01*
X013643Y014455D01*
X013740Y014455D01*
X013788Y014503D01*
X013788Y014745D01*
X013889Y014745D02*
X013986Y014745D01*
X013938Y014745D02*
X013938Y014455D01*
X013986Y014455D02*
X013889Y014455D01*
X014086Y014455D02*
X014086Y014745D01*
X014279Y014455D01*
X014279Y014745D01*
X014380Y014697D02*
X014429Y014745D01*
X014525Y014745D01*
X014574Y014697D01*
X014574Y014503D01*
X014525Y014455D01*
X014429Y014455D01*
X014380Y014503D01*
X014380Y014697D01*
X015952Y008064D02*
X015952Y008015D01*
X015952Y007918D02*
X015904Y007918D01*
X003605Y016368D02*
X003438Y016285D01*
X003438Y016452D02*
X003605Y016368D01*
X003605Y016543D02*
X003605Y016710D01*
X003605Y016626D02*
X003355Y016626D01*
X003438Y016543D01*
X003563Y016801D02*
X003563Y016842D01*
X003605Y016842D01*
X003605Y016801D01*
X003563Y016801D01*
X003480Y016930D02*
X003355Y017055D01*
X003605Y017055D01*
X003480Y017096D02*
X003480Y016930D01*
D15*
X001835Y017839D02*
X001845Y017861D01*
X003433Y020610D02*
X003447Y020630D01*
X005690Y022873D02*
X005710Y022887D01*
X008459Y024475D02*
X008481Y024485D01*
X011548Y025308D02*
X011572Y025312D01*
X014748Y025312D02*
X014772Y025308D01*
X017839Y024485D02*
X017861Y024475D01*
X020610Y022887D02*
X020630Y022873D01*
X022873Y020630D02*
X022887Y020610D01*
X024475Y017861D02*
X024485Y017839D01*
X025308Y014772D02*
X025312Y014748D01*
X025312Y011572D02*
X025308Y011548D01*
X024485Y008481D02*
X024475Y008459D01*
X022887Y005710D02*
X022873Y005690D01*
X020630Y003447D02*
X020610Y003433D01*
X017861Y001845D02*
X017839Y001835D01*
X014772Y001012D02*
X014748Y001008D01*
X011572Y001008D02*
X011548Y001012D01*
X008481Y001835D02*
X008459Y001845D01*
X005710Y003433D02*
X005690Y003447D01*
X003447Y005690D02*
X003433Y005710D01*
X001845Y008459D02*
X001835Y008481D01*
X004698Y009160D02*
X004722Y009160D01*
X004722Y010610D02*
X004698Y010610D01*
X001012Y011548D02*
X001008Y011572D01*
X001008Y014748D02*
X001012Y014772D01*
X006060Y015898D02*
X006060Y015922D01*
X006060Y016498D02*
X006060Y016522D01*
X008748Y009960D02*
X008772Y009960D01*
D16*
X003696Y004252D02*
X004252Y003696D01*
X004220Y003918D02*
X004222Y003936D01*
X004228Y003954D01*
X004237Y003970D01*
X004249Y003983D01*
X004264Y003994D01*
X004281Y004002D01*
X004299Y004006D01*
X004317Y004006D01*
X004335Y004002D01*
X004352Y003994D01*
X004367Y003983D01*
X004379Y003970D01*
X004388Y003954D01*
X004394Y003936D01*
X004396Y003918D01*
X004394Y003900D01*
X004388Y003882D01*
X004379Y003866D01*
X004367Y003853D01*
X004352Y003842D01*
X004335Y003834D01*
X004317Y003830D01*
X004299Y003830D01*
X004281Y003834D01*
X004264Y003842D01*
X004249Y003853D01*
X004237Y003866D01*
X004228Y003882D01*
X004222Y003900D01*
X004220Y003918D01*
X005115Y003723D02*
X005171Y003779D01*
X005561Y004169D02*
X005617Y004225D01*
X005644Y005088D02*
X005088Y005644D01*
X004225Y005617D02*
X004169Y005561D01*
X003779Y005171D02*
X003723Y005115D01*
X003023Y006170D02*
X002955Y006130D01*
X003501Y006445D02*
X003569Y006485D01*
X003819Y007311D02*
X003426Y007993D01*
X002585Y008190D02*
X002517Y008150D01*
X002039Y007875D02*
X001971Y007835D01*
X001721Y007009D02*
X002114Y006327D01*
X002138Y006528D02*
X002140Y006546D01*
X002146Y006564D01*
X002155Y006580D01*
X002167Y006593D01*
X002182Y006604D01*
X002199Y006612D01*
X002217Y006616D01*
X002235Y006616D01*
X002253Y006612D01*
X002270Y006604D01*
X002285Y006593D01*
X002297Y006580D01*
X002306Y006564D01*
X002312Y006546D01*
X002314Y006528D01*
X002312Y006510D01*
X002306Y006492D01*
X002297Y006476D01*
X002285Y006463D01*
X002270Y006452D01*
X002253Y006444D01*
X002235Y006440D01*
X002217Y006440D01*
X002199Y006444D01*
X002182Y006452D01*
X002167Y006463D01*
X002155Y006476D01*
X002146Y006492D01*
X002140Y006510D01*
X002138Y006528D01*
X001482Y009008D02*
X001559Y009028D01*
X002091Y009171D02*
X002167Y009191D01*
X002623Y009924D02*
X002419Y010685D01*
X001658Y011092D02*
X001581Y011072D01*
X001049Y010929D02*
X000973Y010909D01*
X000517Y010176D02*
X000721Y009415D01*
X000793Y009580D02*
X000795Y009598D01*
X000801Y009616D01*
X000810Y009632D01*
X000822Y009645D01*
X000837Y009656D01*
X000854Y009664D01*
X000872Y009668D01*
X000890Y009668D01*
X000908Y009664D01*
X000925Y009656D01*
X000940Y009645D01*
X000952Y009632D01*
X000961Y009616D01*
X000967Y009598D01*
X000969Y009580D01*
X000967Y009562D01*
X000961Y009544D01*
X000952Y009528D01*
X000940Y009515D01*
X000925Y009504D01*
X000908Y009496D01*
X000890Y009492D01*
X000872Y009492D01*
X000854Y009496D01*
X000837Y009504D01*
X000822Y009515D01*
X000810Y009528D01*
X000801Y009544D01*
X000795Y009562D01*
X000793Y009580D01*
X000806Y012176D02*
X000884Y012176D01*
X001436Y012176D02*
X001514Y012176D01*
X002144Y012766D02*
X002144Y013554D01*
X001514Y014144D02*
X001436Y014144D01*
X000884Y014144D02*
X000806Y014144D01*
X000176Y013554D02*
X000176Y012766D01*
X000285Y012884D02*
X000287Y012902D01*
X000293Y012920D01*
X000302Y012936D01*
X000314Y012949D01*
X000329Y012960D01*
X000346Y012968D01*
X000364Y012972D01*
X000382Y012972D01*
X000400Y012968D01*
X000417Y012960D01*
X000432Y012949D01*
X000444Y012936D01*
X000453Y012920D01*
X000459Y012902D01*
X000461Y012884D01*
X000459Y012866D01*
X000453Y012848D01*
X000444Y012832D01*
X000432Y012819D01*
X000417Y012808D01*
X000400Y012800D01*
X000382Y012796D01*
X000364Y012796D01*
X000346Y012800D01*
X000329Y012808D01*
X000314Y012819D01*
X000302Y012832D01*
X000293Y012848D01*
X000287Y012866D01*
X000285Y012884D01*
X001581Y015248D02*
X001658Y015228D01*
X001049Y015391D02*
X000973Y015411D01*
X000650Y016208D02*
X000652Y016226D01*
X000658Y016244D01*
X000667Y016260D01*
X000679Y016273D01*
X000694Y016284D01*
X000711Y016292D01*
X000729Y016296D01*
X000747Y016296D01*
X000765Y016292D01*
X000782Y016284D01*
X000797Y016273D01*
X000809Y016260D01*
X000818Y016244D01*
X000824Y016226D01*
X000826Y016208D01*
X000824Y016190D01*
X000818Y016172D01*
X000809Y016156D01*
X000797Y016143D01*
X000782Y016132D01*
X000765Y016124D01*
X000747Y016120D01*
X000729Y016120D01*
X000711Y016124D01*
X000694Y016132D01*
X000679Y016143D01*
X000667Y016156D01*
X000658Y016172D01*
X000652Y016190D01*
X000650Y016208D01*
X000517Y016144D02*
X000721Y016905D01*
X001482Y017312D02*
X001559Y017292D01*
X002091Y017149D02*
X002167Y017129D01*
X002623Y016396D02*
X002419Y015635D01*
X002585Y018130D02*
X002517Y018170D01*
X002039Y018445D02*
X001971Y018485D01*
X001862Y019315D02*
X001864Y019333D01*
X001870Y019351D01*
X001879Y019367D01*
X001891Y019380D01*
X001906Y019391D01*
X001923Y019399D01*
X001941Y019403D01*
X001959Y019403D01*
X001977Y019399D01*
X001994Y019391D01*
X002009Y019380D01*
X002021Y019367D01*
X002030Y019351D01*
X002036Y019333D01*
X002038Y019315D01*
X002036Y019297D01*
X002030Y019279D01*
X002021Y019263D01*
X002009Y019250D01*
X001994Y019239D01*
X001977Y019231D01*
X001959Y019227D01*
X001941Y019227D01*
X001923Y019231D01*
X001906Y019239D01*
X001891Y019250D01*
X001879Y019263D01*
X001870Y019279D01*
X001864Y019297D01*
X001862Y019315D01*
X001721Y019311D02*
X002114Y019993D01*
X002955Y020190D02*
X003023Y020150D01*
X003501Y019875D02*
X003569Y019835D01*
X003819Y019009D02*
X003426Y018327D01*
X004225Y020703D02*
X004169Y020759D01*
X003779Y021149D02*
X003723Y021205D01*
X003830Y022012D02*
X003832Y022030D01*
X003838Y022048D01*
X003847Y022064D01*
X003859Y022077D01*
X003874Y022088D01*
X003891Y022096D01*
X003909Y022100D01*
X003927Y022100D01*
X003945Y022096D01*
X003962Y022088D01*
X003977Y022077D01*
X003989Y022064D01*
X003998Y022048D01*
X004004Y022030D01*
X004006Y022012D01*
X004004Y021994D01*
X003998Y021976D01*
X003989Y021960D01*
X003977Y021947D01*
X003962Y021936D01*
X003945Y021928D01*
X003927Y021924D01*
X003909Y021924D01*
X003891Y021928D01*
X003874Y021936D01*
X003859Y021947D01*
X003847Y021960D01*
X003838Y021976D01*
X003832Y021994D01*
X003830Y022012D01*
X003696Y022068D02*
X004252Y022624D01*
X005115Y022597D02*
X005171Y022541D01*
X005561Y022151D02*
X005617Y022095D01*
X005644Y021232D02*
X005088Y020676D01*
X006485Y022751D02*
X006445Y022819D01*
X006170Y023297D02*
X006130Y023365D01*
X006440Y024094D02*
X006442Y024112D01*
X006448Y024130D01*
X006457Y024146D01*
X006469Y024159D01*
X006484Y024170D01*
X006501Y024178D01*
X006519Y024182D01*
X006537Y024182D01*
X006555Y024178D01*
X006572Y024170D01*
X006587Y024159D01*
X006599Y024146D01*
X006608Y024130D01*
X006614Y024112D01*
X006616Y024094D01*
X006614Y024076D01*
X006608Y024058D01*
X006599Y024042D01*
X006587Y024029D01*
X006572Y024018D01*
X006555Y024010D01*
X006537Y024006D01*
X006519Y024006D01*
X006501Y024010D01*
X006484Y024018D01*
X006469Y024029D01*
X006457Y024042D01*
X006448Y024058D01*
X006442Y024076D01*
X006440Y024094D01*
X006327Y024206D02*
X007009Y024599D01*
X007835Y024349D02*
X007875Y024281D01*
X008150Y023803D02*
X008190Y023735D01*
X009191Y024153D02*
X009171Y024229D01*
X009028Y024761D02*
X009008Y024838D01*
X009492Y025439D02*
X009494Y025457D01*
X009500Y025475D01*
X009509Y025491D01*
X009521Y025504D01*
X009536Y025515D01*
X009553Y025523D01*
X009571Y025527D01*
X009589Y025527D01*
X009607Y025523D01*
X009624Y025515D01*
X009639Y025504D01*
X009651Y025491D01*
X009660Y025475D01*
X009666Y025457D01*
X009668Y025439D01*
X009666Y025421D01*
X009660Y025403D01*
X009651Y025387D01*
X009639Y025374D01*
X009624Y025363D01*
X009607Y025355D01*
X009589Y025351D01*
X009571Y025351D01*
X009553Y025355D01*
X009536Y025363D01*
X009521Y025374D01*
X009509Y025387D01*
X009500Y025403D01*
X009494Y025421D01*
X009492Y025439D01*
X009415Y025599D02*
X010176Y025803D01*
X010909Y025347D02*
X010929Y025271D01*
X011072Y024739D02*
X011092Y024662D01*
X010685Y023901D02*
X009924Y023697D01*
X007993Y022894D02*
X007311Y022501D01*
X012176Y024806D02*
X012176Y024884D01*
X012176Y025436D02*
X012176Y025514D01*
X012796Y025947D02*
X012798Y025965D01*
X012804Y025983D01*
X012813Y025999D01*
X012825Y026012D01*
X012840Y026023D01*
X012857Y026031D01*
X012875Y026035D01*
X012893Y026035D01*
X012911Y026031D01*
X012928Y026023D01*
X012943Y026012D01*
X012955Y025999D01*
X012964Y025983D01*
X012970Y025965D01*
X012972Y025947D01*
X012970Y025929D01*
X012964Y025911D01*
X012955Y025895D01*
X012943Y025882D01*
X012928Y025871D01*
X012911Y025863D01*
X012893Y025859D01*
X012875Y025859D01*
X012857Y025863D01*
X012840Y025871D01*
X012825Y025882D01*
X012813Y025895D01*
X012804Y025911D01*
X012798Y025929D01*
X012796Y025947D01*
X012766Y026144D02*
X013554Y026144D01*
X014144Y025514D02*
X014144Y025436D01*
X014144Y024884D02*
X014144Y024806D01*
X013554Y024176D02*
X012766Y024176D01*
X015228Y024662D02*
X015248Y024739D01*
X015391Y025271D02*
X015411Y025347D01*
X016120Y025582D02*
X016122Y025600D01*
X016128Y025618D01*
X016137Y025634D01*
X016149Y025647D01*
X016164Y025658D01*
X016181Y025666D01*
X016199Y025670D01*
X016217Y025670D01*
X016235Y025666D01*
X016252Y025658D01*
X016267Y025647D01*
X016279Y025634D01*
X016288Y025618D01*
X016294Y025600D01*
X016296Y025582D01*
X016294Y025564D01*
X016288Y025546D01*
X016279Y025530D01*
X016267Y025517D01*
X016252Y025506D01*
X016235Y025498D01*
X016217Y025494D01*
X016199Y025494D01*
X016181Y025498D01*
X016164Y025506D01*
X016149Y025517D01*
X016137Y025530D01*
X016128Y025546D01*
X016122Y025564D01*
X016120Y025582D01*
X016144Y025803D02*
X016905Y025599D01*
X017312Y024838D02*
X017292Y024761D01*
X017149Y024229D02*
X017129Y024153D01*
X016454Y023625D02*
X016454Y022995D01*
X016396Y023697D02*
X015635Y023901D01*
X015666Y023625D02*
X015666Y022995D01*
X018130Y023735D02*
X018170Y023803D01*
X018445Y024281D02*
X018485Y024349D01*
X019227Y024370D02*
X019229Y024388D01*
X019235Y024406D01*
X019244Y024422D01*
X019256Y024435D01*
X019271Y024446D01*
X019288Y024454D01*
X019306Y024458D01*
X019324Y024458D01*
X019342Y024454D01*
X019359Y024446D01*
X019374Y024435D01*
X019386Y024422D01*
X019395Y024406D01*
X019401Y024388D01*
X019403Y024370D01*
X019401Y024352D01*
X019395Y024334D01*
X019386Y024318D01*
X019374Y024305D01*
X019359Y024294D01*
X019342Y024286D01*
X019324Y024282D01*
X019306Y024282D01*
X019288Y024286D01*
X019271Y024294D01*
X019256Y024305D01*
X019244Y024318D01*
X019235Y024334D01*
X019229Y024352D01*
X019227Y024370D01*
X019311Y024599D02*
X019993Y024206D01*
X020190Y023365D02*
X020150Y023297D01*
X019875Y022819D02*
X019835Y022751D01*
X019009Y022501D02*
X018327Y022894D01*
X020703Y022095D02*
X020759Y022151D01*
X021149Y022541D02*
X021205Y022597D01*
X021924Y022402D02*
X021926Y022420D01*
X021932Y022438D01*
X021941Y022454D01*
X021953Y022467D01*
X021968Y022478D01*
X021985Y022486D01*
X022003Y022490D01*
X022021Y022490D01*
X022039Y022486D01*
X022056Y022478D01*
X022071Y022467D01*
X022083Y022454D01*
X022092Y022438D01*
X022098Y022420D01*
X022100Y022402D01*
X022098Y022384D01*
X022092Y022366D01*
X022083Y022350D01*
X022071Y022337D01*
X022056Y022326D01*
X022039Y022318D01*
X022021Y022314D01*
X022003Y022314D01*
X021985Y022318D01*
X021968Y022326D01*
X021953Y022337D01*
X021941Y022350D01*
X021932Y022366D01*
X021926Y022384D01*
X021924Y022402D01*
X022068Y022624D02*
X022624Y022068D01*
X022597Y021205D02*
X022541Y021149D01*
X022151Y020759D02*
X022095Y020703D01*
X021232Y020676D02*
X020676Y021232D01*
X020704Y019825D02*
X020704Y019195D01*
X019916Y019195D02*
X019916Y019825D01*
X019076Y018238D02*
X018741Y018238D01*
X018741Y016663D01*
X019076Y017254D02*
X019627Y017254D01*
X019076Y017254D02*
X019076Y018238D01*
X021793Y017254D02*
X022344Y017254D01*
X022344Y018238D01*
X022679Y018238D01*
X022679Y016663D01*
X023697Y016396D02*
X023901Y015635D01*
X024662Y015228D02*
X024739Y015248D01*
X025271Y015391D02*
X025347Y015411D01*
X025803Y016144D02*
X025599Y016905D01*
X025351Y016740D02*
X025353Y016758D01*
X025359Y016776D01*
X025368Y016792D01*
X025380Y016805D01*
X025395Y016816D01*
X025412Y016824D01*
X025430Y016828D01*
X025448Y016828D01*
X025466Y016824D01*
X025483Y016816D01*
X025498Y016805D01*
X025510Y016792D01*
X025519Y016776D01*
X025525Y016758D01*
X025527Y016740D01*
X025525Y016722D01*
X025519Y016704D01*
X025510Y016688D01*
X025498Y016675D01*
X025483Y016664D01*
X025466Y016656D01*
X025448Y016652D01*
X025430Y016652D01*
X025412Y016656D01*
X025395Y016664D01*
X025380Y016675D01*
X025368Y016688D01*
X025359Y016704D01*
X025353Y016722D01*
X025351Y016740D01*
X024838Y017312D02*
X024761Y017292D01*
X024229Y017149D02*
X024153Y017129D01*
X023735Y018130D02*
X023803Y018170D01*
X024281Y018445D02*
X024349Y018485D01*
X024599Y019311D02*
X024206Y019993D01*
X024006Y019792D02*
X024008Y019810D01*
X024014Y019828D01*
X024023Y019844D01*
X024035Y019857D01*
X024050Y019868D01*
X024067Y019876D01*
X024085Y019880D01*
X024103Y019880D01*
X024121Y019876D01*
X024138Y019868D01*
X024153Y019857D01*
X024165Y019844D01*
X024174Y019828D01*
X024180Y019810D01*
X024182Y019792D01*
X024180Y019774D01*
X024174Y019756D01*
X024165Y019740D01*
X024153Y019727D01*
X024138Y019716D01*
X024121Y019708D01*
X024103Y019704D01*
X024085Y019704D01*
X024067Y019708D01*
X024050Y019716D01*
X024035Y019727D01*
X024023Y019740D01*
X024014Y019756D01*
X024008Y019774D01*
X024006Y019792D01*
X023365Y020190D02*
X023297Y020150D01*
X022819Y019875D02*
X022751Y019835D01*
X022501Y019009D02*
X022894Y018327D01*
X021990Y015285D02*
X019430Y015285D01*
X016099Y016038D02*
X013421Y016038D01*
X013421Y016168D01*
X013421Y017231D02*
X016099Y017231D01*
X016099Y016168D02*
X016099Y016038D01*
X016760Y011510D02*
X016760Y011010D01*
X017360Y011010D02*
X017360Y011510D01*
X019135Y009816D02*
X019135Y008438D01*
X019450Y008438D01*
X019450Y009423D01*
X019923Y009423D01*
X019970Y008960D02*
X019690Y008960D01*
X021520Y008930D02*
X021800Y008930D01*
X021660Y008790D02*
X021660Y009070D01*
X021497Y009423D02*
X021970Y009423D01*
X021970Y008438D01*
X022285Y008438D01*
X022285Y009816D01*
X023697Y009924D02*
X023901Y010685D01*
X024662Y011092D02*
X024739Y011072D01*
X025271Y010929D02*
X025347Y010909D01*
X025494Y010112D02*
X025496Y010130D01*
X025502Y010148D01*
X025511Y010164D01*
X025523Y010177D01*
X025538Y010188D01*
X025555Y010196D01*
X025573Y010200D01*
X025591Y010200D01*
X025609Y010196D01*
X025626Y010188D01*
X025641Y010177D01*
X025653Y010164D01*
X025662Y010148D01*
X025668Y010130D01*
X025670Y010112D01*
X025668Y010094D01*
X025662Y010076D01*
X025653Y010060D01*
X025641Y010047D01*
X025626Y010036D01*
X025609Y010028D01*
X025591Y010024D01*
X025573Y010024D01*
X025555Y010028D01*
X025538Y010036D01*
X025523Y010047D01*
X025511Y010060D01*
X025502Y010076D01*
X025496Y010094D01*
X025494Y010112D01*
X025803Y010176D02*
X025599Y009415D01*
X024838Y009008D02*
X024761Y009028D01*
X024229Y009171D02*
X024153Y009191D01*
X023735Y008190D02*
X023803Y008150D01*
X024281Y007875D02*
X024349Y007835D01*
X024282Y007005D02*
X024284Y007023D01*
X024290Y007041D01*
X024299Y007057D01*
X024311Y007070D01*
X024326Y007081D01*
X024343Y007089D01*
X024361Y007093D01*
X024379Y007093D01*
X024397Y007089D01*
X024414Y007081D01*
X024429Y007070D01*
X024441Y007057D01*
X024450Y007041D01*
X024456Y007023D01*
X024458Y007005D01*
X024456Y006987D01*
X024450Y006969D01*
X024441Y006953D01*
X024429Y006940D01*
X024414Y006929D01*
X024397Y006921D01*
X024379Y006917D01*
X024361Y006917D01*
X024343Y006921D01*
X024326Y006929D01*
X024311Y006940D01*
X024299Y006953D01*
X024290Y006969D01*
X024284Y006987D01*
X024282Y007005D01*
X024599Y007009D02*
X024206Y006327D01*
X023365Y006130D02*
X023297Y006170D01*
X022819Y006445D02*
X022751Y006485D01*
X022501Y007311D02*
X022894Y007993D01*
X022095Y005617D02*
X022151Y005561D01*
X022541Y005171D02*
X022597Y005115D01*
X022314Y004308D02*
X022316Y004326D01*
X022322Y004344D01*
X022331Y004360D01*
X022343Y004373D01*
X022358Y004384D01*
X022375Y004392D01*
X022393Y004396D01*
X022411Y004396D01*
X022429Y004392D01*
X022446Y004384D01*
X022461Y004373D01*
X022473Y004360D01*
X022482Y004344D01*
X022488Y004326D01*
X022490Y004308D01*
X022488Y004290D01*
X022482Y004272D01*
X022473Y004256D01*
X022461Y004243D01*
X022446Y004232D01*
X022429Y004224D01*
X022411Y004220D01*
X022393Y004220D01*
X022375Y004224D01*
X022358Y004232D01*
X022343Y004243D01*
X022331Y004256D01*
X022322Y004272D01*
X022316Y004290D01*
X022314Y004308D01*
X022624Y004252D02*
X022068Y003696D01*
X021205Y003723D02*
X021149Y003779D01*
X020759Y004169D02*
X020703Y004225D01*
X020676Y005088D02*
X021232Y005644D01*
X019835Y003569D02*
X019875Y003501D01*
X020150Y003023D02*
X020190Y002955D01*
X019704Y002226D02*
X019706Y002244D01*
X019712Y002262D01*
X019721Y002278D01*
X019733Y002291D01*
X019748Y002302D01*
X019765Y002310D01*
X019783Y002314D01*
X019801Y002314D01*
X019819Y002310D01*
X019836Y002302D01*
X019851Y002291D01*
X019863Y002278D01*
X019872Y002262D01*
X019878Y002244D01*
X019880Y002226D01*
X019878Y002208D01*
X019872Y002190D01*
X019863Y002174D01*
X019851Y002161D01*
X019836Y002150D01*
X019819Y002142D01*
X019801Y002138D01*
X019783Y002138D01*
X019765Y002142D01*
X019748Y002150D01*
X019733Y002161D01*
X019721Y002174D01*
X019712Y002190D01*
X019706Y002208D01*
X019704Y002226D01*
X019993Y002114D02*
X019311Y001721D01*
X018485Y001971D02*
X018445Y002039D01*
X018170Y002517D02*
X018130Y002585D01*
X017129Y002167D02*
X017149Y002091D01*
X017292Y001559D02*
X017312Y001482D01*
X016652Y000881D02*
X016654Y000899D01*
X016660Y000917D01*
X016669Y000933D01*
X016681Y000946D01*
X016696Y000957D01*
X016713Y000965D01*
X016731Y000969D01*
X016749Y000969D01*
X016767Y000965D01*
X016784Y000957D01*
X016799Y000946D01*
X016811Y000933D01*
X016820Y000917D01*
X016826Y000899D01*
X016828Y000881D01*
X016826Y000863D01*
X016820Y000845D01*
X016811Y000829D01*
X016799Y000816D01*
X016784Y000805D01*
X016767Y000797D01*
X016749Y000793D01*
X016731Y000793D01*
X016713Y000797D01*
X016696Y000805D01*
X016681Y000816D01*
X016669Y000829D01*
X016660Y000845D01*
X016654Y000863D01*
X016652Y000881D01*
X016905Y000721D02*
X016144Y000517D01*
X015411Y000973D02*
X015391Y001049D01*
X015248Y001581D02*
X015228Y001658D01*
X015635Y002419D02*
X016396Y002623D01*
X018327Y003426D02*
X019009Y003819D01*
X014144Y001514D02*
X014144Y001436D01*
X014144Y000884D02*
X014144Y000806D01*
X013348Y000373D02*
X013350Y000391D01*
X013356Y000409D01*
X013365Y000425D01*
X013377Y000438D01*
X013392Y000449D01*
X013409Y000457D01*
X013427Y000461D01*
X013445Y000461D01*
X013463Y000457D01*
X013480Y000449D01*
X013495Y000438D01*
X013507Y000425D01*
X013516Y000409D01*
X013522Y000391D01*
X013524Y000373D01*
X013522Y000355D01*
X013516Y000337D01*
X013507Y000321D01*
X013495Y000308D01*
X013480Y000297D01*
X013463Y000289D01*
X013445Y000285D01*
X013427Y000285D01*
X013409Y000289D01*
X013392Y000297D01*
X013377Y000308D01*
X013365Y000321D01*
X013356Y000337D01*
X013350Y000355D01*
X013348Y000373D01*
X013554Y000176D02*
X012766Y000176D01*
X012176Y000806D02*
X012176Y000884D01*
X012176Y001436D02*
X012176Y001514D01*
X012766Y002144D02*
X013554Y002144D01*
X011092Y001658D02*
X011072Y001581D01*
X010929Y001049D02*
X010909Y000973D01*
X010024Y000738D02*
X010026Y000756D01*
X010032Y000774D01*
X010041Y000790D01*
X010053Y000803D01*
X010068Y000814D01*
X010085Y000822D01*
X010103Y000826D01*
X010121Y000826D01*
X010139Y000822D01*
X010156Y000814D01*
X010171Y000803D01*
X010183Y000790D01*
X010192Y000774D01*
X010198Y000756D01*
X010200Y000738D01*
X010198Y000720D01*
X010192Y000702D01*
X010183Y000686D01*
X010171Y000673D01*
X010156Y000662D01*
X010139Y000654D01*
X010121Y000650D01*
X010103Y000650D01*
X010085Y000654D01*
X010068Y000662D01*
X010053Y000673D01*
X010041Y000686D01*
X010032Y000702D01*
X010026Y000720D01*
X010024Y000738D01*
X010176Y000517D02*
X009415Y000721D01*
X009008Y001482D02*
X009028Y001559D01*
X009171Y002091D02*
X009191Y002167D01*
X009924Y002623D02*
X010685Y002419D01*
X008190Y002585D02*
X008150Y002517D01*
X007875Y002039D02*
X007835Y001971D01*
X006917Y001950D02*
X006919Y001968D01*
X006925Y001986D01*
X006934Y002002D01*
X006946Y002015D01*
X006961Y002026D01*
X006978Y002034D01*
X006996Y002038D01*
X007014Y002038D01*
X007032Y002034D01*
X007049Y002026D01*
X007064Y002015D01*
X007076Y002002D01*
X007085Y001986D01*
X007091Y001968D01*
X007093Y001950D01*
X007091Y001932D01*
X007085Y001914D01*
X007076Y001898D01*
X007064Y001885D01*
X007049Y001874D01*
X007032Y001866D01*
X007014Y001862D01*
X006996Y001862D01*
X006978Y001866D01*
X006961Y001874D01*
X006946Y001885D01*
X006934Y001898D01*
X006925Y001914D01*
X006919Y001932D01*
X006917Y001950D01*
X007009Y001721D02*
X006327Y002114D01*
X006130Y002955D02*
X006170Y003023D01*
X006445Y003501D02*
X006485Y003569D01*
X007311Y003819D02*
X007993Y003426D01*
X007916Y009541D02*
X007704Y009541D01*
X007250Y009691D02*
X007250Y010029D01*
X008370Y010029D02*
X008370Y009691D01*
X010227Y016329D02*
X010227Y016510D01*
X010105Y016418D01*
X010227Y016510D02*
X010227Y016691D01*
X010227Y016729D02*
X010227Y016910D01*
X010105Y016818D01*
X010227Y016910D02*
X010227Y017091D01*
X010105Y016996D02*
X010221Y016920D01*
X010105Y016596D02*
X010221Y016520D01*
X019923Y011391D02*
X021497Y011391D01*
X024176Y012766D02*
X024176Y013554D01*
X024806Y014144D02*
X024884Y014144D01*
X025436Y014144D02*
X025514Y014144D01*
X025859Y013436D02*
X025861Y013454D01*
X025867Y013472D01*
X025876Y013488D01*
X025888Y013501D01*
X025903Y013512D01*
X025920Y013520D01*
X025938Y013524D01*
X025956Y013524D01*
X025974Y013520D01*
X025991Y013512D01*
X026006Y013501D01*
X026018Y013488D01*
X026027Y013472D01*
X026033Y013454D01*
X026035Y013436D01*
X026033Y013418D01*
X026027Y013400D01*
X026018Y013384D01*
X026006Y013371D01*
X025991Y013360D01*
X025974Y013352D01*
X025956Y013348D01*
X025938Y013348D01*
X025920Y013352D01*
X025903Y013360D01*
X025888Y013371D01*
X025876Y013384D01*
X025867Y013400D01*
X025861Y013418D01*
X025859Y013436D01*
X026144Y013554D02*
X026144Y012766D01*
X025514Y012176D02*
X025436Y012176D01*
X024884Y012176D02*
X024806Y012176D01*
D17*
X016610Y008660D03*
D18*
X008335Y014410D03*
X005310Y008360D03*
D19*
X018160Y010260D03*
D20*
X011360Y014760D03*
X011360Y015360D03*
X011360Y015960D03*
X010110Y017360D03*
X006060Y017110D03*
X006060Y015310D03*
X010360Y007760D03*
X010360Y006810D03*
D21*
X008436Y003170D02*
X008505Y003130D01*
X008485Y003096D01*
X009458Y002707D02*
X009506Y002735D01*
X009620Y002704D01*
X011179Y002286D02*
X011255Y002266D01*
X011245Y002228D01*
X012294Y002105D02*
X012333Y002144D01*
X012451Y002144D01*
X014066Y002144D02*
X014144Y002144D01*
X014144Y002105D01*
X015189Y002259D02*
X015217Y002307D01*
X015331Y002337D01*
X016890Y002755D02*
X016966Y002775D01*
X016976Y002737D01*
X017937Y003155D02*
X017952Y003209D01*
X018054Y003268D01*
X019452Y004075D02*
X019520Y004115D01*
X019540Y004080D01*
X020369Y004726D02*
X020369Y004781D01*
X020453Y004865D01*
X021594Y006006D02*
X021650Y006062D01*
X021678Y006034D01*
X022299Y006882D02*
X022284Y006936D01*
X022343Y007038D01*
X023150Y008436D02*
X023190Y008505D01*
X023224Y008485D01*
X023613Y009458D02*
X023585Y009506D01*
X023616Y009620D01*
X024034Y011179D02*
X024054Y011255D01*
X024092Y011245D01*
X024215Y012294D02*
X024176Y012333D01*
X024176Y012451D01*
X024176Y014066D02*
X024176Y014144D01*
X024215Y014144D01*
X024061Y015189D02*
X024013Y015217D01*
X023983Y015331D01*
X023565Y016890D02*
X023545Y016966D01*
X023583Y016976D01*
X023165Y017937D02*
X023111Y017952D01*
X023052Y018054D01*
X022245Y019452D02*
X022205Y019520D01*
X022240Y019540D01*
X021594Y020369D02*
X021539Y020369D01*
X021455Y020453D01*
X020314Y021594D02*
X020258Y021650D01*
X020286Y021678D01*
X019438Y022299D02*
X019384Y022284D01*
X019282Y022343D01*
X017884Y023150D02*
X017815Y023190D01*
X017835Y023224D01*
X016862Y023613D02*
X016814Y023585D01*
X016700Y023616D01*
X015141Y024034D02*
X015065Y024054D01*
X015075Y024092D01*
X014026Y024215D02*
X013987Y024176D01*
X013869Y024176D01*
X012254Y024176D02*
X012176Y024176D01*
X012176Y024215D01*
X011131Y024061D02*
X011103Y024013D01*
X010989Y023983D01*
X009430Y023565D02*
X009354Y023545D01*
X009344Y023583D01*
X008383Y023165D02*
X008368Y023111D01*
X008266Y023052D01*
X006868Y022245D02*
X006800Y022205D01*
X006780Y022240D01*
X005951Y021594D02*
X005951Y021539D01*
X005867Y021455D01*
X004726Y020314D02*
X004670Y020258D01*
X004642Y020286D01*
X004021Y019438D02*
X004036Y019384D01*
X003977Y019282D01*
X003170Y017884D02*
X003130Y017815D01*
X003096Y017835D01*
X002707Y016862D02*
X002735Y016814D01*
X002704Y016700D01*
X002286Y015141D02*
X002266Y015065D01*
X002228Y015075D01*
X002105Y014026D02*
X002144Y013987D01*
X002144Y013869D01*
X002144Y012254D02*
X002144Y012176D01*
X002105Y012176D01*
X002259Y011131D02*
X002307Y011103D01*
X002337Y010989D01*
X002755Y009430D02*
X002775Y009354D01*
X002737Y009344D01*
X003155Y008383D02*
X003209Y008368D01*
X003268Y008266D01*
X004075Y006868D02*
X004115Y006800D01*
X004080Y006780D01*
X004726Y005951D02*
X004781Y005951D01*
X004865Y005867D01*
X006006Y004726D02*
X006062Y004670D01*
X006034Y004642D01*
X006882Y004021D02*
X006936Y004036D01*
X007038Y003977D01*
X005835Y002444D02*
X005815Y002410D01*
X005884Y002370D01*
X004698Y003306D02*
X004670Y003278D01*
X004614Y003334D01*
X003334Y004614D02*
X003278Y004670D01*
X003306Y004698D01*
X002444Y005835D02*
X002410Y005815D01*
X002370Y005884D01*
X001465Y007452D02*
X001425Y007520D01*
X001460Y007540D01*
X000912Y008855D02*
X000874Y008845D01*
X000854Y008921D01*
X000385Y010670D02*
X000365Y010746D01*
X000403Y010756D01*
X000215Y012176D02*
X000176Y012176D01*
X000176Y012254D01*
X000176Y014066D02*
X000176Y014144D01*
X000215Y014144D01*
X000403Y015564D02*
X000365Y015574D01*
X000385Y015650D01*
X000854Y017399D02*
X000874Y017475D01*
X000912Y017465D01*
X001460Y018780D02*
X001425Y018800D01*
X001465Y018868D01*
X002370Y020436D02*
X002410Y020505D01*
X002444Y020485D01*
X003306Y021622D02*
X003278Y021650D01*
X003334Y021706D01*
X004614Y022986D02*
X004670Y023042D01*
X004698Y023014D01*
X005835Y023876D02*
X005815Y023910D01*
X005884Y023950D01*
X007452Y024855D02*
X007520Y024895D01*
X007540Y024860D01*
X008855Y025408D02*
X008845Y025446D01*
X008921Y025466D01*
X010670Y025935D02*
X010746Y025955D01*
X010756Y025917D01*
X012176Y026105D02*
X012176Y026144D01*
X012254Y026144D01*
X014066Y026144D02*
X014144Y026144D01*
X014144Y026105D01*
X015564Y025917D02*
X015574Y025955D01*
X015650Y025935D01*
X017399Y025466D02*
X017475Y025446D01*
X017465Y025408D01*
X018780Y024860D02*
X018800Y024895D01*
X018868Y024855D01*
X020436Y023950D02*
X020505Y023910D01*
X020485Y023876D01*
X021622Y023014D02*
X021650Y023042D01*
X021706Y022986D01*
X022986Y021706D02*
X023042Y021650D01*
X023014Y021622D01*
X023876Y020485D02*
X023910Y020505D01*
X023950Y020436D01*
X024855Y018868D02*
X024895Y018800D01*
X024860Y018780D01*
X025408Y017465D02*
X025446Y017475D01*
X025466Y017399D01*
X025935Y015650D02*
X025955Y015574D01*
X025917Y015564D01*
X026105Y014144D02*
X026144Y014144D01*
X026144Y014066D01*
X026144Y012254D02*
X026144Y012176D01*
X026105Y012176D01*
X025917Y010756D02*
X025955Y010746D01*
X025935Y010670D01*
X025466Y008921D02*
X025446Y008845D01*
X025408Y008855D01*
X024860Y007540D02*
X024895Y007520D01*
X024855Y007452D01*
X023950Y005884D02*
X023910Y005815D01*
X023876Y005835D01*
X023014Y004698D02*
X023042Y004670D01*
X022986Y004614D01*
X021706Y003334D02*
X021650Y003278D01*
X021622Y003306D01*
X020485Y002444D02*
X020505Y002410D01*
X020436Y002370D01*
X018868Y001465D02*
X018800Y001425D01*
X018780Y001460D01*
X017465Y000912D02*
X017475Y000874D01*
X017399Y000854D01*
X015650Y000385D02*
X015574Y000365D01*
X015564Y000403D01*
X014144Y000215D02*
X014144Y000176D01*
X014066Y000176D01*
X012254Y000176D02*
X012176Y000176D01*
X012176Y000215D01*
X010756Y000403D02*
X010746Y000365D01*
X010670Y000385D01*
X008921Y000854D02*
X008845Y000874D01*
X008855Y000912D01*
X007540Y001460D02*
X007520Y001425D01*
X007452Y001465D01*
D22*
X007310Y005660D02*
X007312Y005709D01*
X007318Y005757D01*
X007328Y005805D01*
X007342Y005852D01*
X007359Y005898D01*
X007380Y005942D01*
X007405Y005984D01*
X007433Y006024D01*
X007465Y006062D01*
X007499Y006097D01*
X007536Y006129D01*
X007575Y006158D01*
X007617Y006184D01*
X007661Y006206D01*
X007706Y006224D01*
X007753Y006239D01*
X007800Y006250D01*
X007849Y006257D01*
X007898Y006260D01*
X007947Y006259D01*
X007995Y006254D01*
X008044Y006245D01*
X008091Y006232D01*
X008137Y006215D01*
X008181Y006195D01*
X008224Y006171D01*
X008265Y006144D01*
X008303Y006113D01*
X008339Y006080D01*
X008371Y006044D01*
X008401Y006005D01*
X008428Y005964D01*
X008451Y005920D01*
X008470Y005875D01*
X008486Y005829D01*
X008498Y005782D01*
X008506Y005733D01*
X008510Y005684D01*
X008510Y005636D01*
X008506Y005587D01*
X008498Y005538D01*
X008486Y005491D01*
X008470Y005445D01*
X008451Y005400D01*
X008428Y005356D01*
X008401Y005315D01*
X008371Y005276D01*
X008339Y005240D01*
X008303Y005207D01*
X008265Y005176D01*
X008224Y005149D01*
X008181Y005125D01*
X008137Y005105D01*
X008091Y005088D01*
X008044Y005075D01*
X007995Y005066D01*
X007947Y005061D01*
X007898Y005060D01*
X007849Y005063D01*
X007800Y005070D01*
X007753Y005081D01*
X007706Y005096D01*
X007661Y005114D01*
X007617Y005136D01*
X007575Y005162D01*
X007536Y005191D01*
X007499Y005223D01*
X007465Y005258D01*
X007433Y005296D01*
X007405Y005336D01*
X007380Y005378D01*
X007359Y005422D01*
X007342Y005468D01*
X007328Y005515D01*
X007318Y005563D01*
X007312Y005611D01*
X007310Y005660D01*
X017810Y005660D02*
X017812Y005709D01*
X017818Y005757D01*
X017828Y005805D01*
X017842Y005852D01*
X017859Y005898D01*
X017880Y005942D01*
X017905Y005984D01*
X017933Y006024D01*
X017965Y006062D01*
X017999Y006097D01*
X018036Y006129D01*
X018075Y006158D01*
X018117Y006184D01*
X018161Y006206D01*
X018206Y006224D01*
X018253Y006239D01*
X018300Y006250D01*
X018349Y006257D01*
X018398Y006260D01*
X018447Y006259D01*
X018495Y006254D01*
X018544Y006245D01*
X018591Y006232D01*
X018637Y006215D01*
X018681Y006195D01*
X018724Y006171D01*
X018765Y006144D01*
X018803Y006113D01*
X018839Y006080D01*
X018871Y006044D01*
X018901Y006005D01*
X018928Y005964D01*
X018951Y005920D01*
X018970Y005875D01*
X018986Y005829D01*
X018998Y005782D01*
X019006Y005733D01*
X019010Y005684D01*
X019010Y005636D01*
X019006Y005587D01*
X018998Y005538D01*
X018986Y005491D01*
X018970Y005445D01*
X018951Y005400D01*
X018928Y005356D01*
X018901Y005315D01*
X018871Y005276D01*
X018839Y005240D01*
X018803Y005207D01*
X018765Y005176D01*
X018724Y005149D01*
X018681Y005125D01*
X018637Y005105D01*
X018591Y005088D01*
X018544Y005075D01*
X018495Y005066D01*
X018447Y005061D01*
X018398Y005060D01*
X018349Y005063D01*
X018300Y005070D01*
X018253Y005081D01*
X018206Y005096D01*
X018161Y005114D01*
X018117Y005136D01*
X018075Y005162D01*
X018036Y005191D01*
X017999Y005223D01*
X017965Y005258D01*
X017933Y005296D01*
X017905Y005336D01*
X017880Y005378D01*
X017859Y005422D01*
X017842Y005468D01*
X017828Y005515D01*
X017818Y005563D01*
X017812Y005611D01*
X017810Y005660D01*
X017810Y020660D02*
X017812Y020709D01*
X017818Y020757D01*
X017828Y020805D01*
X017842Y020852D01*
X017859Y020898D01*
X017880Y020942D01*
X017905Y020984D01*
X017933Y021024D01*
X017965Y021062D01*
X017999Y021097D01*
X018036Y021129D01*
X018075Y021158D01*
X018117Y021184D01*
X018161Y021206D01*
X018206Y021224D01*
X018253Y021239D01*
X018300Y021250D01*
X018349Y021257D01*
X018398Y021260D01*
X018447Y021259D01*
X018495Y021254D01*
X018544Y021245D01*
X018591Y021232D01*
X018637Y021215D01*
X018681Y021195D01*
X018724Y021171D01*
X018765Y021144D01*
X018803Y021113D01*
X018839Y021080D01*
X018871Y021044D01*
X018901Y021005D01*
X018928Y020964D01*
X018951Y020920D01*
X018970Y020875D01*
X018986Y020829D01*
X018998Y020782D01*
X019006Y020733D01*
X019010Y020684D01*
X019010Y020636D01*
X019006Y020587D01*
X018998Y020538D01*
X018986Y020491D01*
X018970Y020445D01*
X018951Y020400D01*
X018928Y020356D01*
X018901Y020315D01*
X018871Y020276D01*
X018839Y020240D01*
X018803Y020207D01*
X018765Y020176D01*
X018724Y020149D01*
X018681Y020125D01*
X018637Y020105D01*
X018591Y020088D01*
X018544Y020075D01*
X018495Y020066D01*
X018447Y020061D01*
X018398Y020060D01*
X018349Y020063D01*
X018300Y020070D01*
X018253Y020081D01*
X018206Y020096D01*
X018161Y020114D01*
X018117Y020136D01*
X018075Y020162D01*
X018036Y020191D01*
X017999Y020223D01*
X017965Y020258D01*
X017933Y020296D01*
X017905Y020336D01*
X017880Y020378D01*
X017859Y020422D01*
X017842Y020468D01*
X017828Y020515D01*
X017818Y020563D01*
X017812Y020611D01*
X017810Y020660D01*
X007310Y020660D02*
X007312Y020709D01*
X007318Y020757D01*
X007328Y020805D01*
X007342Y020852D01*
X007359Y020898D01*
X007380Y020942D01*
X007405Y020984D01*
X007433Y021024D01*
X007465Y021062D01*
X007499Y021097D01*
X007536Y021129D01*
X007575Y021158D01*
X007617Y021184D01*
X007661Y021206D01*
X007706Y021224D01*
X007753Y021239D01*
X007800Y021250D01*
X007849Y021257D01*
X007898Y021260D01*
X007947Y021259D01*
X007995Y021254D01*
X008044Y021245D01*
X008091Y021232D01*
X008137Y021215D01*
X008181Y021195D01*
X008224Y021171D01*
X008265Y021144D01*
X008303Y021113D01*
X008339Y021080D01*
X008371Y021044D01*
X008401Y021005D01*
X008428Y020964D01*
X008451Y020920D01*
X008470Y020875D01*
X008486Y020829D01*
X008498Y020782D01*
X008506Y020733D01*
X008510Y020684D01*
X008510Y020636D01*
X008506Y020587D01*
X008498Y020538D01*
X008486Y020491D01*
X008470Y020445D01*
X008451Y020400D01*
X008428Y020356D01*
X008401Y020315D01*
X008371Y020276D01*
X008339Y020240D01*
X008303Y020207D01*
X008265Y020176D01*
X008224Y020149D01*
X008181Y020125D01*
X008137Y020105D01*
X008091Y020088D01*
X008044Y020075D01*
X007995Y020066D01*
X007947Y020061D01*
X007898Y020060D01*
X007849Y020063D01*
X007800Y020070D01*
X007753Y020081D01*
X007706Y020096D01*
X007661Y020114D01*
X007617Y020136D01*
X007575Y020162D01*
X007536Y020191D01*
X007499Y020223D01*
X007465Y020258D01*
X007433Y020296D01*
X007405Y020336D01*
X007380Y020378D01*
X007359Y020422D01*
X007342Y020468D01*
X007328Y020515D01*
X007318Y020563D01*
X007312Y020611D01*
X007310Y020660D01*
M02*
