G75*
%MOIN*%
%OFA0B0*%
%FSLAX24Y24*%
%IPPOS*%
%LPD*%
%AMOC8*
5,1,8,0,0,1.08239X$1,22.5*
%
%ADD10C,0.0040*%
%ADD11C,0.0060*%
%ADD12C,0.0050*%
%ADD13C,0.0030*%
%ADD14C,0.0220*%
%ADD15C,0.0010*%
%ADD16C,0.0080*%
%ADD17R,0.0100X0.0400*%
%ADD18R,0.0250X0.0100*%
%ADD19R,0.0300X0.0180*%
%ADD20R,0.0180X0.0300*%
%ADD21C,0.0079*%
D10*
X011290Y003720D02*
X011290Y004080D01*
X011470Y004080D01*
X011530Y004020D01*
X011530Y003900D01*
X011470Y003840D01*
X011290Y003840D01*
X011658Y003780D02*
X011718Y003840D01*
X011899Y003840D01*
X011899Y003900D02*
X011899Y003720D01*
X011718Y003720D01*
X011658Y003780D01*
X011718Y003960D02*
X011838Y003960D01*
X011899Y003900D01*
X012027Y003900D02*
X012087Y003960D01*
X012267Y003960D01*
X012207Y003840D02*
X012087Y003840D01*
X012027Y003900D01*
X012027Y003720D02*
X012207Y003720D01*
X012267Y003780D01*
X012207Y003840D01*
X012395Y003780D02*
X012455Y003840D01*
X012635Y003840D01*
X012635Y003900D02*
X012635Y003720D01*
X012455Y003720D01*
X012395Y003780D01*
X012455Y003960D02*
X012575Y003960D01*
X012635Y003900D01*
X012763Y003900D02*
X012823Y003960D01*
X013003Y003960D01*
X013003Y004080D02*
X013003Y003720D01*
X012823Y003720D01*
X012763Y003780D01*
X012763Y003900D01*
X013132Y003900D02*
X013192Y003960D01*
X013312Y003960D01*
X013372Y003900D01*
X013372Y003840D01*
X013132Y003840D01*
X013132Y003780D02*
X013132Y003900D01*
X013132Y003780D02*
X013192Y003720D01*
X013312Y003720D01*
X013500Y003720D02*
X013500Y003960D01*
X013680Y003960D01*
X013740Y003900D01*
X013740Y003720D01*
X013868Y003780D02*
X013928Y003840D01*
X014108Y003840D01*
X014108Y003900D02*
X014108Y003720D01*
X013928Y003720D01*
X013868Y003780D01*
X013928Y003960D02*
X014048Y003960D01*
X014108Y003900D01*
X014297Y003780D02*
X014297Y003720D01*
X014357Y003720D01*
X014357Y003780D01*
X014297Y003780D01*
X014357Y003720D02*
X014237Y003600D01*
X014850Y003780D02*
X014850Y004020D01*
X014910Y004080D01*
X015031Y004080D01*
X015091Y004020D01*
X015219Y003960D02*
X015339Y004080D01*
X015459Y003960D01*
X015459Y003720D01*
X015459Y003900D02*
X015219Y003900D01*
X015219Y003960D02*
X015219Y003720D01*
X015091Y003780D02*
X015031Y003720D01*
X014910Y003720D01*
X014850Y003780D01*
X003790Y011470D02*
X003790Y011650D01*
X003730Y011710D01*
X003670Y011710D01*
X003610Y011650D01*
X003610Y011470D01*
X003790Y011470D02*
X003430Y011470D01*
X003430Y011650D01*
X003490Y011710D01*
X003550Y011710D01*
X003610Y011650D01*
X003430Y011838D02*
X003790Y011838D01*
X003790Y012079D01*
X003790Y012207D02*
X003430Y012207D01*
X003430Y012447D01*
X003610Y012327D02*
X003610Y012207D01*
X003790Y012207D02*
X003790Y012447D01*
X003790Y012943D02*
X003430Y012943D01*
X003430Y013123D01*
X003490Y013183D01*
X003550Y013183D01*
X003610Y013123D01*
X003610Y012943D01*
X003790Y012943D02*
X003790Y013123D01*
X003730Y013183D01*
X003670Y013183D01*
X003610Y013123D01*
X003430Y013312D02*
X003790Y013312D01*
X003790Y013552D01*
X003790Y013680D02*
X003790Y013800D01*
X003790Y013740D02*
X003430Y013740D01*
X003430Y013680D02*
X003430Y013800D01*
X003430Y013925D02*
X003790Y014166D01*
X003430Y014166D01*
X003430Y014294D02*
X003790Y014294D01*
X003670Y014294D02*
X003430Y014534D01*
X003430Y014662D02*
X003490Y014662D01*
X003610Y014782D01*
X003790Y014782D01*
X003610Y014782D02*
X003490Y014902D01*
X003430Y014902D01*
X003790Y014534D02*
X003610Y014354D01*
X003790Y013925D02*
X003430Y013925D01*
X015570Y020910D02*
X015690Y020790D01*
X015816Y020790D02*
X015816Y021150D01*
X016056Y020790D01*
X016056Y021150D01*
X016184Y021090D02*
X016184Y020850D01*
X016244Y020790D01*
X016364Y020790D01*
X016424Y020850D01*
X016552Y020790D02*
X016672Y020910D01*
X016672Y021030D01*
X016552Y021150D01*
X016424Y021090D02*
X016364Y021150D01*
X016244Y021150D01*
X016184Y021090D01*
X015690Y021150D02*
X015570Y021030D01*
X015570Y020910D01*
X015566Y021945D02*
X015566Y022575D01*
X016554Y022575D02*
X016554Y021945D01*
X019820Y020830D02*
X019820Y020710D01*
X019940Y020590D01*
X020066Y020590D02*
X020066Y020950D01*
X020306Y020590D01*
X020306Y020950D01*
X020434Y020890D02*
X020434Y020650D01*
X020494Y020590D01*
X020614Y020590D01*
X020674Y020650D01*
X020674Y020890D01*
X020614Y020950D01*
X020494Y020950D01*
X020434Y020890D01*
X020802Y020950D02*
X020922Y020830D01*
X020922Y020710D01*
X020802Y020590D01*
X019940Y020950D02*
X019820Y020830D01*
D11*
X018170Y010920D02*
X017950Y010920D01*
X018170Y010920D02*
X018170Y010600D01*
X017270Y010920D02*
X017050Y010920D01*
X017050Y010600D01*
X009020Y014250D02*
X008800Y014250D01*
X009020Y014250D02*
X009020Y014570D01*
X008120Y014250D02*
X007900Y014250D01*
X007900Y014570D01*
X003050Y014649D02*
X002887Y014486D01*
X002887Y014567D02*
X002887Y014322D01*
X003050Y014322D02*
X002560Y014322D01*
X002560Y014567D01*
X002641Y014649D01*
X002805Y014649D01*
X002887Y014567D01*
X002805Y014143D02*
X002805Y013816D01*
X002723Y013816D02*
X002560Y013979D01*
X002723Y014143D01*
X003050Y014143D01*
X003050Y013816D02*
X002723Y013816D01*
X002641Y013636D02*
X002560Y013555D01*
X002560Y013391D01*
X002641Y013309D01*
X002723Y013309D01*
X002805Y013391D01*
X002805Y013555D01*
X002887Y013636D01*
X002968Y013636D01*
X003050Y013555D01*
X003050Y013391D01*
X002968Y013309D01*
X003050Y013130D02*
X003050Y012803D01*
X002560Y012803D01*
X002560Y012623D02*
X002968Y012623D01*
X003050Y012542D01*
X003050Y012378D01*
X002968Y012296D01*
X002560Y012296D01*
X002641Y012117D02*
X002560Y012035D01*
X002560Y011790D01*
X003050Y011790D01*
X002887Y011790D02*
X002887Y012035D01*
X002805Y012117D01*
X002641Y012117D01*
D12*
X005060Y012630D02*
X005060Y011090D01*
X007060Y011090D01*
X007060Y012630D01*
X005060Y012630D01*
X007703Y015474D02*
X007624Y015553D01*
X007703Y015553D01*
X007703Y015474D01*
X007703Y015553D02*
X007703Y015946D01*
X008017Y015946D02*
X008017Y015553D01*
X008096Y015553D01*
X008017Y015474D01*
X008017Y015553D01*
X007935Y016710D02*
X007935Y016907D01*
X007935Y016710D02*
X008132Y016710D01*
X009313Y016710D02*
X009510Y016710D01*
X009510Y016907D01*
X010160Y016160D02*
X010160Y015960D01*
X010160Y016160D02*
X012660Y016160D01*
X012660Y014660D01*
X016160Y014660D01*
X016160Y014460D01*
X016160Y014660D02*
X016160Y016160D01*
X012660Y016160D01*
X009510Y018088D02*
X009510Y018285D01*
X009313Y018285D01*
X008132Y018285D02*
X007935Y018285D01*
X007935Y018088D01*
X015485Y021335D02*
X015485Y021785D01*
X015710Y021785D01*
X015785Y021710D01*
X015785Y021560D01*
X015710Y021485D01*
X015485Y021485D01*
X015635Y021485D02*
X015785Y021335D01*
X015945Y021335D02*
X015945Y021785D01*
X016246Y021335D01*
X016246Y021785D01*
X016406Y021710D02*
X016406Y021410D01*
X016481Y021335D01*
X016631Y021335D01*
X016706Y021410D01*
X016706Y021560D01*
X016556Y021560D01*
X016706Y021710D02*
X016631Y021785D01*
X016481Y021785D01*
X016406Y021710D01*
X019663Y022701D02*
X019901Y022518D01*
X020006Y022532D01*
X020098Y022651D01*
X020084Y022756D01*
X020181Y022883D02*
X020241Y022837D01*
X020181Y022883D02*
X020126Y023304D01*
X020066Y023350D01*
X019883Y023112D01*
X019845Y022939D02*
X019740Y022925D01*
X019649Y022806D01*
X019663Y022701D01*
X019860Y020435D02*
X019785Y020360D01*
X019785Y020285D01*
X019860Y020210D01*
X020010Y020210D01*
X020085Y020135D01*
X020085Y020060D01*
X020010Y019985D01*
X019860Y019985D01*
X019785Y020060D01*
X019860Y020435D02*
X020010Y020435D01*
X020085Y020360D01*
X020245Y020435D02*
X020546Y020435D01*
X020396Y020435D02*
X020396Y019985D01*
X020706Y019985D02*
X020706Y020435D01*
X020931Y020435D01*
X021006Y020360D01*
X021006Y020210D01*
X020931Y020135D01*
X020706Y020135D01*
X020856Y020135D02*
X021006Y019985D01*
X022020Y018345D02*
X022020Y018045D01*
X022170Y018195D02*
X021870Y018195D01*
X019575Y018160D02*
X019275Y018160D01*
X016160Y010410D02*
X016160Y010160D01*
X010160Y010160D01*
X010160Y010410D01*
X010660Y009254D02*
X010660Y007955D01*
X009754Y007955D01*
X009754Y006365D01*
X010660Y006365D01*
X010660Y004601D01*
X010672Y004579D01*
X010687Y004560D01*
X010705Y004543D01*
X010726Y004529D01*
X010748Y004518D01*
X010771Y004511D01*
X010796Y004507D01*
X010820Y004507D01*
X010845Y004511D01*
X010868Y004518D01*
X010890Y004529D01*
X010911Y004543D01*
X010929Y004560D01*
X010944Y004579D01*
X010956Y004601D01*
X009846Y007099D02*
X009848Y007137D01*
X009854Y007174D01*
X009864Y007211D01*
X009877Y007246D01*
X009894Y007279D01*
X009915Y007311D01*
X009939Y007341D01*
X009965Y007367D01*
X009995Y007391D01*
X010026Y007412D01*
X010060Y007429D01*
X010095Y007442D01*
X010132Y007452D01*
X010169Y007458D01*
X010207Y007460D01*
X010245Y007458D01*
X010282Y007452D01*
X010319Y007442D01*
X010354Y007429D01*
X010387Y007412D01*
X010419Y007391D01*
X010449Y007367D01*
X010475Y007341D01*
X010499Y007311D01*
X010520Y007280D01*
X010537Y007246D01*
X010550Y007211D01*
X010560Y007174D01*
X010566Y007137D01*
X010568Y007099D01*
X010566Y007061D01*
X010560Y007024D01*
X010550Y006987D01*
X010537Y006952D01*
X010520Y006919D01*
X010499Y006887D01*
X010475Y006857D01*
X010449Y006831D01*
X010419Y006807D01*
X010388Y006786D01*
X010354Y006769D01*
X010319Y006756D01*
X010282Y006746D01*
X010245Y006740D01*
X010207Y006738D01*
X010169Y006740D01*
X010132Y006746D01*
X010095Y006756D01*
X010060Y006769D01*
X010027Y006786D01*
X009995Y006807D01*
X009965Y006831D01*
X009939Y006857D01*
X009915Y006887D01*
X009894Y006918D01*
X009877Y006952D01*
X009864Y006987D01*
X009854Y007024D01*
X009848Y007061D01*
X009846Y007099D01*
X010660Y009254D02*
X015660Y009254D01*
X015660Y007955D01*
X016566Y007955D01*
X016566Y006365D01*
X015660Y006365D01*
X015660Y004601D01*
X015643Y004581D01*
X015623Y004564D01*
X015601Y004550D01*
X015577Y004539D01*
X015551Y004531D01*
X015525Y004527D01*
X015499Y004527D01*
X015473Y004531D01*
X015447Y004539D01*
X015423Y004550D01*
X015401Y004564D01*
X015381Y004581D01*
X015364Y004601D01*
X015365Y004601D02*
X015309Y004685D01*
X015250Y004766D01*
X015188Y004846D01*
X015122Y004923D01*
X015054Y004997D01*
X014983Y005069D01*
X014910Y005138D01*
X014833Y005204D01*
X014755Y005267D01*
X014674Y005327D01*
X014590Y005383D01*
X014505Y005437D01*
X014417Y005487D01*
X014328Y005534D01*
X014237Y005577D01*
X014144Y005617D01*
X014050Y005653D01*
X013954Y005686D01*
X013858Y005714D01*
X013760Y005739D01*
X013661Y005761D01*
X013562Y005778D01*
X013462Y005792D01*
X013362Y005801D01*
X013261Y005807D01*
X013160Y005809D01*
X013059Y005807D01*
X012958Y005801D01*
X012858Y005792D01*
X012758Y005778D01*
X012659Y005761D01*
X012560Y005739D01*
X012462Y005714D01*
X012366Y005686D01*
X012270Y005653D01*
X012176Y005617D01*
X012083Y005577D01*
X011992Y005534D01*
X011903Y005487D01*
X011815Y005437D01*
X011730Y005383D01*
X011646Y005327D01*
X011565Y005267D01*
X011487Y005204D01*
X011410Y005138D01*
X011337Y005069D01*
X011266Y004997D01*
X011198Y004923D01*
X011132Y004846D01*
X011070Y004766D01*
X011011Y004685D01*
X010955Y004601D01*
X015752Y007160D02*
X015754Y007198D01*
X015760Y007235D01*
X015770Y007272D01*
X015783Y007307D01*
X015800Y007340D01*
X015821Y007372D01*
X015845Y007402D01*
X015871Y007428D01*
X015901Y007452D01*
X015932Y007473D01*
X015966Y007490D01*
X016001Y007503D01*
X016038Y007513D01*
X016075Y007519D01*
X016113Y007521D01*
X016151Y007519D01*
X016188Y007513D01*
X016225Y007503D01*
X016260Y007490D01*
X016293Y007473D01*
X016325Y007452D01*
X016355Y007428D01*
X016381Y007402D01*
X016405Y007372D01*
X016426Y007341D01*
X016443Y007307D01*
X016456Y007272D01*
X016466Y007235D01*
X016472Y007198D01*
X016474Y007160D01*
X016472Y007122D01*
X016466Y007085D01*
X016456Y007048D01*
X016443Y007013D01*
X016426Y006980D01*
X016405Y006948D01*
X016381Y006918D01*
X016355Y006892D01*
X016325Y006868D01*
X016294Y006847D01*
X016260Y006830D01*
X016225Y006817D01*
X016188Y006807D01*
X016151Y006801D01*
X016113Y006799D01*
X016075Y006801D01*
X016038Y006807D01*
X016001Y006817D01*
X015966Y006830D01*
X015933Y006847D01*
X015901Y006868D01*
X015871Y006892D01*
X015845Y006918D01*
X015821Y006948D01*
X015800Y006979D01*
X015783Y007013D01*
X015770Y007048D01*
X015760Y007085D01*
X015754Y007122D01*
X015752Y007160D01*
D13*
X016855Y007884D02*
X016903Y007836D01*
X017097Y007836D01*
X017145Y007884D01*
X017145Y007981D01*
X017097Y008029D01*
X017097Y008130D02*
X017145Y008179D01*
X017145Y008275D01*
X017097Y008324D01*
X017048Y008324D01*
X017000Y008275D01*
X017000Y008227D01*
X017000Y008275D02*
X016952Y008324D01*
X016903Y008324D01*
X016855Y008275D01*
X016855Y008179D01*
X016903Y008130D01*
X016903Y008029D02*
X016855Y007981D01*
X016855Y007884D01*
X017425Y007836D02*
X017425Y007981D01*
X017473Y008029D01*
X017570Y008029D01*
X017618Y007981D01*
X017618Y007836D01*
X017618Y007932D02*
X017715Y008029D01*
X017667Y008130D02*
X017715Y008179D01*
X017715Y008275D01*
X017667Y008324D01*
X017570Y008324D01*
X017522Y008275D01*
X017522Y008227D01*
X017570Y008130D01*
X017425Y008130D01*
X017425Y008324D01*
X017425Y007836D02*
X017715Y007836D01*
X018025Y007836D02*
X018025Y007981D01*
X018073Y008029D01*
X018170Y008029D01*
X018218Y007981D01*
X018218Y007836D01*
X018218Y007932D02*
X018315Y008029D01*
X018267Y008130D02*
X018315Y008179D01*
X018315Y008275D01*
X018267Y008324D01*
X018218Y008324D01*
X018170Y008275D01*
X018170Y008227D01*
X018170Y008275D02*
X018122Y008324D01*
X018073Y008324D01*
X018025Y008275D01*
X018025Y008179D01*
X018073Y008130D01*
X018025Y007836D02*
X018315Y007836D01*
X018373Y010675D02*
X018325Y010723D01*
X018325Y010917D01*
X018373Y010965D01*
X018470Y010965D01*
X018518Y010917D01*
X018518Y010723D01*
X018470Y010675D01*
X018373Y010675D01*
X018422Y010772D02*
X018518Y010675D01*
X018620Y010675D02*
X018813Y010675D01*
X018716Y010675D02*
X018716Y010965D01*
X018620Y010868D01*
X018285Y012995D02*
X017995Y012995D01*
X017995Y013140D01*
X018043Y013188D01*
X018140Y013188D01*
X018188Y013140D01*
X018188Y012995D01*
X018188Y013092D02*
X018285Y013188D01*
X018285Y013290D02*
X018237Y013290D01*
X018043Y013483D01*
X017995Y013483D01*
X017995Y013290D01*
X017195Y013420D02*
X017195Y013613D01*
X017195Y013516D02*
X016905Y013516D01*
X017002Y013420D01*
X016905Y013318D02*
X016905Y013125D01*
X017195Y013125D01*
X017050Y013125D02*
X017050Y013222D01*
X014075Y009995D02*
X014124Y009947D01*
X014124Y009753D01*
X014075Y009705D01*
X013979Y009705D01*
X013930Y009753D01*
X013930Y009947D01*
X013979Y009995D01*
X014075Y009995D01*
X013829Y009995D02*
X013829Y009705D01*
X013636Y009995D01*
X013636Y009705D01*
X013536Y009705D02*
X013439Y009705D01*
X013488Y009705D02*
X013488Y009995D01*
X013536Y009995D02*
X013439Y009995D01*
X013338Y009995D02*
X013338Y009753D01*
X013290Y009705D01*
X013193Y009705D01*
X013145Y009753D01*
X013145Y009995D01*
X013043Y009947D02*
X012995Y009995D01*
X012850Y009995D01*
X012850Y009705D01*
X012995Y009705D01*
X013043Y009753D01*
X013043Y009947D01*
X012749Y009995D02*
X012555Y009995D01*
X012555Y009705D01*
X012454Y009705D02*
X012357Y009802D01*
X012406Y009802D02*
X012261Y009802D01*
X012261Y009705D02*
X012261Y009995D01*
X012406Y009995D01*
X012454Y009947D01*
X012454Y009850D01*
X012406Y009802D01*
X012555Y009850D02*
X012652Y009850D01*
X009629Y009389D02*
X009629Y009196D01*
X009629Y009293D02*
X009339Y009293D01*
X009436Y009196D01*
X009629Y009095D02*
X009629Y008901D01*
X009339Y008901D01*
X009339Y008800D02*
X009629Y008606D01*
X009629Y008800D02*
X009339Y008606D01*
X008652Y010691D02*
X008459Y010691D01*
X008556Y010691D02*
X008556Y010982D01*
X008459Y010885D01*
X008358Y010982D02*
X008358Y010740D01*
X008309Y010691D01*
X008213Y010691D01*
X008164Y010740D01*
X008164Y010982D01*
X008555Y012655D02*
X008555Y012800D01*
X008603Y012848D01*
X008700Y012848D01*
X008748Y012800D01*
X008748Y012655D01*
X008748Y012752D02*
X008845Y012848D01*
X008700Y012950D02*
X008555Y013095D01*
X008845Y013095D01*
X008700Y013143D02*
X008700Y012950D01*
X008845Y012655D02*
X008555Y012655D01*
X007694Y012875D02*
X007500Y012875D01*
X007597Y012875D02*
X007597Y013165D01*
X007500Y013068D01*
X007399Y013117D02*
X007351Y013165D01*
X007254Y013165D01*
X007206Y013117D01*
X007206Y012923D01*
X007254Y012875D01*
X007351Y012875D01*
X007399Y012923D01*
X007106Y012875D02*
X007009Y012875D01*
X007058Y012875D02*
X007058Y013165D01*
X007106Y013165D02*
X007009Y013165D01*
X007226Y014245D02*
X007371Y014245D01*
X007419Y014293D01*
X007419Y014487D01*
X007371Y014535D01*
X007226Y014535D01*
X007226Y014245D01*
X007520Y014245D02*
X007714Y014245D01*
X007617Y014245D02*
X007617Y014535D01*
X007520Y014438D01*
X008195Y015496D02*
X008195Y015641D01*
X008243Y015689D01*
X008437Y015689D01*
X008485Y015641D01*
X008485Y015496D01*
X008195Y015496D01*
X008243Y015790D02*
X008195Y015839D01*
X008195Y015935D01*
X008243Y015984D01*
X008292Y015984D01*
X008485Y015790D01*
X008485Y015984D01*
X009275Y016273D02*
X009323Y016225D01*
X009420Y016225D01*
X009468Y016273D01*
X009468Y016515D01*
X009570Y016467D02*
X009618Y016515D01*
X009715Y016515D01*
X009763Y016467D01*
X009763Y016418D01*
X009570Y016225D01*
X009763Y016225D01*
X009925Y016625D02*
X009925Y016915D01*
X010070Y016915D01*
X010118Y016867D01*
X010118Y016770D01*
X010070Y016722D01*
X009925Y016722D01*
X010022Y016722D02*
X010118Y016625D01*
X010220Y016625D02*
X010413Y016625D01*
X010316Y016625D02*
X010316Y016915D01*
X010220Y016818D01*
X010514Y016818D02*
X010611Y016915D01*
X010611Y016625D01*
X010514Y016625D02*
X010708Y016625D01*
X009275Y016515D02*
X009275Y016273D01*
X007274Y017203D02*
X007274Y017397D01*
X007225Y017445D01*
X007129Y017445D01*
X007080Y017397D01*
X007080Y017348D01*
X007129Y017300D01*
X007274Y017300D01*
X007274Y017203D02*
X007225Y017155D01*
X007129Y017155D01*
X007080Y017203D01*
X006979Y017155D02*
X006882Y017252D01*
X006931Y017252D02*
X006786Y017252D01*
X006786Y017155D02*
X006786Y017445D01*
X006931Y017445D01*
X006979Y017397D01*
X006979Y017300D01*
X006931Y017252D01*
X007895Y018545D02*
X008088Y018545D01*
X008190Y018545D02*
X008190Y018835D01*
X008383Y018835D01*
X008484Y018835D02*
X008484Y018545D01*
X008629Y018545D01*
X008678Y018593D01*
X008678Y018787D01*
X008629Y018835D01*
X008484Y018835D01*
X008286Y018690D02*
X008190Y018690D01*
X008190Y018545D02*
X008383Y018545D01*
X008779Y018545D02*
X008972Y018738D01*
X008972Y018787D01*
X008924Y018835D01*
X008827Y018835D01*
X008779Y018787D01*
X008779Y018545D02*
X008972Y018545D01*
X009074Y018593D02*
X009122Y018545D01*
X009219Y018545D01*
X009267Y018593D01*
X009267Y018642D01*
X009219Y018690D01*
X009074Y018690D01*
X009074Y018593D01*
X009074Y018690D02*
X009170Y018787D01*
X009267Y018835D01*
X009313Y019275D02*
X009264Y019323D01*
X009458Y019517D01*
X009458Y019323D01*
X009409Y019275D01*
X009313Y019275D01*
X009264Y019323D02*
X009264Y019517D01*
X009313Y019565D01*
X009409Y019565D01*
X009458Y019517D01*
X009163Y019275D02*
X008970Y019275D01*
X009066Y019275D02*
X009066Y019565D01*
X008970Y019468D01*
X008868Y019420D02*
X008868Y019517D01*
X008820Y019565D01*
X008675Y019565D01*
X008675Y019275D01*
X008675Y019372D02*
X008820Y019372D01*
X008868Y019420D01*
X008772Y019372D02*
X008868Y019275D01*
X007895Y018835D02*
X007895Y018545D01*
X007224Y019003D02*
X007175Y018955D01*
X007079Y018955D01*
X007030Y019003D01*
X007030Y019052D01*
X007079Y019100D01*
X007175Y019100D01*
X007224Y019052D01*
X007224Y019003D01*
X007175Y019100D02*
X007224Y019148D01*
X007224Y019197D01*
X007175Y019245D01*
X007079Y019245D01*
X007030Y019197D01*
X007030Y019148D01*
X007079Y019100D01*
X006929Y019100D02*
X006881Y019052D01*
X006736Y019052D01*
X006832Y019052D02*
X006929Y018955D01*
X006929Y019100D02*
X006929Y019197D01*
X006881Y019245D01*
X006736Y019245D01*
X006736Y018955D01*
X005413Y018665D02*
X005220Y018665D01*
X005220Y018520D01*
X005316Y018568D01*
X005365Y018568D01*
X005413Y018520D01*
X005413Y018423D01*
X005365Y018375D01*
X005268Y018375D01*
X005220Y018423D01*
X005118Y018423D02*
X005070Y018375D01*
X004973Y018375D01*
X004925Y018423D01*
X004925Y018617D01*
X004973Y018665D01*
X005070Y018665D01*
X005118Y018617D01*
X005070Y018015D02*
X004973Y018015D01*
X004925Y017967D01*
X004925Y017773D01*
X004973Y017725D01*
X005070Y017725D01*
X005118Y017773D01*
X005220Y017870D02*
X005413Y017870D01*
X005365Y017725D02*
X005365Y018015D01*
X005220Y017870D01*
X005118Y017967D02*
X005070Y018015D01*
X003405Y016355D02*
X003405Y016271D01*
X003363Y016230D01*
X003363Y016142D02*
X003405Y016142D01*
X003405Y016101D01*
X003363Y016101D01*
X003363Y016142D01*
X003405Y016010D02*
X003405Y015843D01*
X003405Y015926D02*
X003155Y015926D01*
X003238Y015843D01*
X003238Y015752D02*
X003405Y015668D01*
X003238Y015585D01*
X003196Y016230D02*
X003155Y016271D01*
X003155Y016355D01*
X003196Y016396D01*
X003238Y016396D01*
X003280Y016355D01*
X003322Y016396D01*
X003363Y016396D01*
X003405Y016355D01*
X003280Y016355D02*
X003280Y016313D01*
X004395Y012864D02*
X004395Y012670D01*
X004395Y012767D02*
X004105Y012767D01*
X004202Y012670D01*
X004153Y012569D02*
X004105Y012521D01*
X004105Y012424D01*
X004153Y012376D01*
X004347Y012376D01*
X004395Y012424D01*
X004395Y012521D01*
X004347Y012569D01*
X004385Y011433D02*
X004385Y011240D01*
X004192Y011433D01*
X004143Y011433D01*
X004095Y011385D01*
X004095Y011288D01*
X004143Y011240D01*
X004143Y011138D02*
X004095Y011090D01*
X004095Y010993D01*
X004143Y010945D01*
X004337Y010945D01*
X004385Y010993D01*
X004385Y011090D01*
X004337Y011138D01*
X012075Y017225D02*
X012075Y017515D01*
X012220Y017515D01*
X012268Y017467D01*
X012268Y017370D01*
X012220Y017322D01*
X012075Y017322D01*
X012172Y017322D02*
X012268Y017225D01*
X012370Y017225D02*
X012563Y017418D01*
X012563Y017467D01*
X012515Y017515D01*
X012418Y017515D01*
X012370Y017467D01*
X012370Y017225D02*
X012563Y017225D01*
X012563Y017825D02*
X012370Y017825D01*
X012466Y017825D02*
X012466Y018115D01*
X012370Y018018D01*
X012268Y017970D02*
X012220Y017922D01*
X012075Y017922D01*
X012172Y017922D02*
X012268Y017825D01*
X012268Y017970D02*
X012268Y018067D01*
X012220Y018115D01*
X012075Y018115D01*
X012075Y017825D01*
X012075Y018425D02*
X012075Y018715D01*
X012220Y018715D01*
X012268Y018667D01*
X012268Y018570D01*
X012220Y018522D01*
X012075Y018522D01*
X012172Y018522D02*
X012268Y018425D01*
X012370Y018473D02*
X012418Y018425D01*
X012515Y018425D01*
X012563Y018473D01*
X012563Y018522D01*
X012515Y018570D01*
X012370Y018570D01*
X012370Y018473D01*
X012370Y018570D02*
X012466Y018667D01*
X012563Y018715D01*
X012197Y018973D02*
X012149Y018925D01*
X012052Y018925D01*
X012004Y018973D01*
X012004Y019070D02*
X012100Y019118D01*
X012149Y019118D01*
X012197Y019070D01*
X012197Y018973D01*
X012004Y019070D02*
X012004Y019215D01*
X012197Y019215D01*
X011902Y019167D02*
X011854Y019215D01*
X011757Y019215D01*
X011709Y019167D01*
X011608Y019167D02*
X011559Y019215D01*
X011414Y019215D01*
X011414Y018925D01*
X011559Y018925D01*
X011608Y018973D01*
X011608Y019167D01*
X011709Y018925D02*
X011902Y019118D01*
X011902Y019167D01*
X011902Y018925D02*
X011709Y018925D01*
X011313Y018925D02*
X011120Y018925D01*
X011120Y019215D01*
X011313Y019215D01*
X011216Y019070D02*
X011120Y019070D01*
X011018Y018925D02*
X010825Y018925D01*
X010825Y019215D01*
X012383Y005355D02*
X012335Y005307D01*
X012335Y005113D01*
X012383Y005065D01*
X012480Y005065D01*
X012528Y005113D01*
X012630Y005065D02*
X012630Y005355D01*
X012775Y005355D01*
X012823Y005307D01*
X012823Y005210D01*
X012775Y005162D01*
X012630Y005162D01*
X012726Y005162D02*
X012823Y005065D01*
X012924Y005065D02*
X013118Y005065D01*
X013021Y005065D02*
X013021Y005355D01*
X012924Y005258D01*
X013219Y005307D02*
X013267Y005355D01*
X013364Y005355D01*
X013412Y005307D01*
X013219Y005113D01*
X013267Y005065D01*
X013364Y005065D01*
X013412Y005113D01*
X013412Y005307D01*
X013514Y005307D02*
X013562Y005355D01*
X013659Y005355D01*
X013707Y005307D01*
X013707Y005258D01*
X013514Y005065D01*
X013707Y005065D01*
X013808Y005113D02*
X013857Y005065D01*
X013953Y005065D01*
X014002Y005113D01*
X014002Y005210D01*
X013953Y005258D01*
X013905Y005258D01*
X013808Y005210D01*
X013808Y005355D01*
X014002Y005355D01*
X013219Y005307D02*
X013219Y005113D01*
X012528Y005307D02*
X012480Y005355D01*
X012383Y005355D01*
X012903Y003455D02*
X012709Y003165D01*
X012610Y003165D02*
X012562Y003165D01*
X012562Y003213D01*
X012610Y003213D01*
X012610Y003165D01*
X012610Y003310D02*
X012562Y003310D01*
X012562Y003358D01*
X012610Y003358D01*
X012610Y003310D01*
X012461Y003358D02*
X012316Y003358D01*
X012267Y003310D01*
X012316Y003262D01*
X012412Y003262D01*
X012461Y003213D01*
X012412Y003165D01*
X012267Y003165D01*
X012166Y003213D02*
X012118Y003165D01*
X011973Y003165D01*
X011973Y003068D02*
X011973Y003358D01*
X012118Y003358D01*
X012166Y003310D01*
X012166Y003213D01*
X011873Y003165D02*
X011824Y003213D01*
X011824Y003407D01*
X011776Y003358D02*
X011873Y003358D01*
X011676Y003358D02*
X011580Y003358D01*
X011628Y003407D02*
X011628Y003213D01*
X011676Y003165D01*
X011478Y003165D02*
X011478Y003310D01*
X011430Y003358D01*
X011333Y003358D01*
X011285Y003310D01*
X011285Y003455D02*
X011285Y003165D01*
X013004Y003165D02*
X013197Y003455D01*
X013347Y003358D02*
X013444Y003358D01*
X013492Y003310D01*
X013492Y003165D01*
X013347Y003165D01*
X013298Y003213D01*
X013347Y003262D01*
X013492Y003262D01*
X013593Y003310D02*
X013593Y003213D01*
X013641Y003165D01*
X013787Y003165D01*
X013888Y003165D02*
X013888Y003358D01*
X013888Y003262D02*
X013985Y003358D01*
X014033Y003358D01*
X014133Y003310D02*
X014133Y003213D01*
X014182Y003165D01*
X014278Y003165D01*
X014327Y003213D01*
X014327Y003310D01*
X014278Y003358D01*
X014182Y003358D01*
X014133Y003310D01*
X014428Y003358D02*
X014573Y003358D01*
X014621Y003310D01*
X014621Y003213D01*
X014573Y003165D01*
X014428Y003165D01*
X014428Y003455D01*
X014723Y003310D02*
X014723Y003213D01*
X014771Y003165D01*
X014868Y003165D01*
X014916Y003213D01*
X014916Y003310D01*
X014868Y003358D01*
X014771Y003358D01*
X014723Y003310D01*
X015017Y003358D02*
X015114Y003358D01*
X015066Y003407D02*
X015066Y003213D01*
X015114Y003165D01*
X015214Y003165D02*
X015310Y003165D01*
X015262Y003165D02*
X015262Y003358D01*
X015214Y003358D01*
X015262Y003455D02*
X015262Y003504D01*
X015410Y003310D02*
X015410Y003213D01*
X015458Y003165D01*
X015604Y003165D01*
X015705Y003165D02*
X015753Y003165D01*
X015753Y003213D01*
X015705Y003213D01*
X015705Y003165D01*
X015852Y003213D02*
X015900Y003165D01*
X016046Y003165D01*
X016147Y003213D02*
X016195Y003165D01*
X016292Y003165D01*
X016340Y003213D01*
X016340Y003310D01*
X016292Y003358D01*
X016195Y003358D01*
X016147Y003310D01*
X016147Y003213D01*
X016046Y003358D02*
X015900Y003358D01*
X015852Y003310D01*
X015852Y003213D01*
X015604Y003358D02*
X015458Y003358D01*
X015410Y003310D01*
X016441Y003358D02*
X016490Y003358D01*
X016538Y003310D01*
X016587Y003358D01*
X016635Y003310D01*
X016635Y003165D01*
X016538Y003165D02*
X016538Y003310D01*
X016441Y003358D02*
X016441Y003165D01*
X013787Y003358D02*
X013641Y003358D01*
X013593Y003310D01*
D14*
X014748Y001008D02*
X014772Y001012D01*
X017839Y001835D02*
X017861Y001845D01*
X020610Y003433D02*
X020630Y003447D01*
X022873Y005690D02*
X022887Y005710D01*
X024475Y008459D02*
X024485Y008481D01*
X025308Y011548D02*
X025312Y011572D01*
X025312Y014748D02*
X025308Y014772D01*
X024485Y017839D02*
X024475Y017861D01*
X022887Y020610D02*
X022873Y020630D01*
X020630Y022873D02*
X020610Y022887D01*
X017861Y024475D02*
X017839Y024485D01*
X014772Y025308D02*
X014748Y025312D01*
X011572Y025312D02*
X011548Y025308D01*
X008481Y024485D02*
X008459Y024475D01*
X005710Y022887D02*
X005690Y022873D01*
X003447Y020630D02*
X003433Y020610D01*
X006060Y018522D02*
X006060Y018498D01*
X006060Y017922D02*
X006060Y017898D01*
X001845Y017861D02*
X001835Y017839D01*
X001012Y014772D02*
X001008Y014748D01*
X001008Y011572D02*
X001012Y011548D01*
X001835Y008481D02*
X001845Y008459D01*
X004698Y011160D02*
X004722Y011160D01*
X004722Y012610D02*
X004698Y012610D01*
X003433Y005710D02*
X003447Y005690D01*
X005690Y003447D02*
X005710Y003433D01*
X008459Y001845D02*
X008481Y001835D01*
X011548Y001012D02*
X011572Y001008D01*
X016948Y009160D02*
X016972Y009160D01*
D15*
X010936Y004078D02*
X010936Y003148D01*
X010662Y003148D01*
X010662Y003422D01*
X010712Y003446D01*
X010712Y003730D01*
X010664Y003770D01*
X010634Y003770D01*
X010634Y003888D01*
X010612Y003910D01*
X010486Y003910D01*
X010458Y003884D01*
X010458Y003792D01*
X010436Y003792D01*
X010436Y003770D01*
X010458Y003770D01*
X010632Y003770D01*
X010632Y003786D01*
X010432Y003786D01*
X010432Y003768D01*
X010384Y003728D01*
X010384Y003446D01*
X010434Y003420D01*
X010434Y003150D01*
X010160Y003150D01*
X010160Y004078D01*
X010936Y004078D01*
X010936Y004070D02*
X010160Y004070D01*
X010160Y004062D02*
X010936Y004062D01*
X010936Y004053D02*
X010160Y004053D01*
X010160Y004045D02*
X010936Y004045D01*
X010936Y004036D02*
X010160Y004036D01*
X010160Y004028D02*
X010936Y004028D01*
X010936Y004019D02*
X010160Y004019D01*
X010160Y004011D02*
X010936Y004011D01*
X010936Y004002D02*
X010160Y004002D01*
X010160Y003994D02*
X010936Y003994D01*
X010936Y003985D02*
X010160Y003985D01*
X010160Y003977D02*
X010936Y003977D01*
X010936Y003968D02*
X010160Y003968D01*
X010160Y003960D02*
X010936Y003960D01*
X010936Y003951D02*
X010160Y003951D01*
X010160Y003943D02*
X010936Y003943D01*
X010936Y003934D02*
X010160Y003934D01*
X010160Y003926D02*
X010936Y003926D01*
X010936Y003917D02*
X010160Y003917D01*
X010160Y003909D02*
X010485Y003909D01*
X010475Y003900D02*
X010160Y003900D01*
X010160Y003892D02*
X010466Y003892D01*
X010458Y003883D02*
X010160Y003883D01*
X010160Y003875D02*
X010458Y003875D01*
X010458Y003866D02*
X010160Y003866D01*
X010160Y003858D02*
X010458Y003858D01*
X010458Y003849D02*
X010160Y003849D01*
X010160Y003841D02*
X010458Y003841D01*
X010458Y003832D02*
X010160Y003832D01*
X010160Y003824D02*
X010458Y003824D01*
X010458Y003815D02*
X010160Y003815D01*
X010160Y003807D02*
X010458Y003807D01*
X010458Y003798D02*
X010160Y003798D01*
X010160Y003790D02*
X010436Y003790D01*
X010436Y003781D02*
X010632Y003781D01*
X010634Y003781D02*
X010936Y003781D01*
X010936Y003773D02*
X010634Y003773D01*
X010632Y003773D02*
X010436Y003773D01*
X010432Y003773D02*
X010160Y003773D01*
X010160Y003781D02*
X010432Y003781D01*
X010427Y003764D02*
X010160Y003764D01*
X010160Y003756D02*
X010417Y003756D01*
X010407Y003747D02*
X010160Y003747D01*
X010160Y003739D02*
X010397Y003739D01*
X010387Y003730D02*
X010160Y003730D01*
X010160Y003722D02*
X010384Y003722D01*
X010384Y003713D02*
X010160Y003713D01*
X010160Y003705D02*
X010384Y003705D01*
X010384Y003696D02*
X010160Y003696D01*
X010160Y003688D02*
X010384Y003688D01*
X010384Y003679D02*
X010160Y003679D01*
X010160Y003671D02*
X010384Y003671D01*
X010384Y003662D02*
X010160Y003662D01*
X010160Y003654D02*
X010384Y003654D01*
X010384Y003645D02*
X010160Y003645D01*
X010160Y003637D02*
X010384Y003637D01*
X010384Y003628D02*
X010160Y003628D01*
X010160Y003620D02*
X010384Y003620D01*
X010384Y003611D02*
X010160Y003611D01*
X010160Y003603D02*
X010384Y003603D01*
X010384Y003594D02*
X010160Y003594D01*
X010160Y003586D02*
X010384Y003586D01*
X010384Y003577D02*
X010160Y003577D01*
X010160Y003569D02*
X010384Y003569D01*
X010384Y003560D02*
X010160Y003560D01*
X010160Y003552D02*
X010384Y003552D01*
X010384Y003543D02*
X010160Y003543D01*
X010160Y003535D02*
X010384Y003535D01*
X010384Y003526D02*
X010160Y003526D01*
X010160Y003518D02*
X010384Y003518D01*
X010384Y003509D02*
X010160Y003509D01*
X010160Y003501D02*
X010384Y003501D01*
X010384Y003492D02*
X010160Y003492D01*
X010160Y003484D02*
X010384Y003484D01*
X010384Y003475D02*
X010160Y003475D01*
X010160Y003467D02*
X010384Y003467D01*
X010384Y003458D02*
X010160Y003458D01*
X010160Y003450D02*
X010384Y003450D01*
X010393Y003441D02*
X010160Y003441D01*
X010160Y003433D02*
X010410Y003433D01*
X010426Y003424D02*
X010160Y003424D01*
X010160Y003416D02*
X010434Y003416D01*
X010434Y003407D02*
X010160Y003407D01*
X010160Y003399D02*
X010434Y003399D01*
X010434Y003390D02*
X010160Y003390D01*
X010160Y003382D02*
X010434Y003382D01*
X010434Y003373D02*
X010160Y003373D01*
X010160Y003365D02*
X010434Y003365D01*
X010434Y003356D02*
X010160Y003356D01*
X010160Y003348D02*
X010434Y003348D01*
X010434Y003339D02*
X010160Y003339D01*
X010160Y003331D02*
X010434Y003331D01*
X010434Y003322D02*
X010160Y003322D01*
X010160Y003314D02*
X010434Y003314D01*
X010434Y003305D02*
X010160Y003305D01*
X010160Y003297D02*
X010434Y003297D01*
X010434Y003288D02*
X010160Y003288D01*
X010160Y003280D02*
X010434Y003280D01*
X010434Y003271D02*
X010160Y003271D01*
X010160Y003263D02*
X010434Y003263D01*
X010434Y003254D02*
X010160Y003254D01*
X010160Y003246D02*
X010434Y003246D01*
X010434Y003237D02*
X010160Y003237D01*
X010160Y003229D02*
X010434Y003229D01*
X010434Y003220D02*
X010160Y003220D01*
X010160Y003212D02*
X010434Y003212D01*
X010434Y003203D02*
X010160Y003203D01*
X010160Y003195D02*
X010434Y003195D01*
X010434Y003186D02*
X010160Y003186D01*
X010160Y003178D02*
X010434Y003178D01*
X010434Y003169D02*
X010160Y003169D01*
X010160Y003161D02*
X010434Y003161D01*
X010434Y003152D02*
X010160Y003152D01*
X010662Y003152D02*
X010936Y003152D01*
X010936Y003161D02*
X010662Y003161D01*
X010662Y003169D02*
X010936Y003169D01*
X010936Y003178D02*
X010662Y003178D01*
X010662Y003186D02*
X010936Y003186D01*
X010936Y003195D02*
X010662Y003195D01*
X010662Y003203D02*
X010936Y003203D01*
X010936Y003212D02*
X010662Y003212D01*
X010662Y003220D02*
X010936Y003220D01*
X010936Y003229D02*
X010662Y003229D01*
X010662Y003237D02*
X010936Y003237D01*
X010936Y003246D02*
X010662Y003246D01*
X010662Y003254D02*
X010936Y003254D01*
X010936Y003263D02*
X010662Y003263D01*
X010662Y003271D02*
X010936Y003271D01*
X010936Y003280D02*
X010662Y003280D01*
X010662Y003288D02*
X010936Y003288D01*
X010936Y003297D02*
X010662Y003297D01*
X010662Y003305D02*
X010936Y003305D01*
X010936Y003314D02*
X010662Y003314D01*
X010662Y003322D02*
X010936Y003322D01*
X010936Y003331D02*
X010662Y003331D01*
X010662Y003339D02*
X010936Y003339D01*
X010936Y003348D02*
X010662Y003348D01*
X010662Y003356D02*
X010936Y003356D01*
X010936Y003365D02*
X010662Y003365D01*
X010662Y003373D02*
X010936Y003373D01*
X010936Y003382D02*
X010662Y003382D01*
X010662Y003390D02*
X010936Y003390D01*
X010936Y003399D02*
X010662Y003399D01*
X010662Y003407D02*
X010936Y003407D01*
X010936Y003416D02*
X010662Y003416D01*
X010666Y003424D02*
X010936Y003424D01*
X010936Y003433D02*
X010684Y003433D01*
X010702Y003441D02*
X010936Y003441D01*
X010936Y003450D02*
X010712Y003450D01*
X010712Y003458D02*
X010936Y003458D01*
X010936Y003467D02*
X010712Y003467D01*
X010712Y003475D02*
X010936Y003475D01*
X010936Y003484D02*
X010712Y003484D01*
X010712Y003492D02*
X010936Y003492D01*
X010936Y003501D02*
X010712Y003501D01*
X010712Y003509D02*
X010936Y003509D01*
X010936Y003518D02*
X010712Y003518D01*
X010712Y003526D02*
X010936Y003526D01*
X010936Y003535D02*
X010712Y003535D01*
X010712Y003543D02*
X010936Y003543D01*
X010936Y003552D02*
X010712Y003552D01*
X010712Y003560D02*
X010936Y003560D01*
X010936Y003569D02*
X010712Y003569D01*
X010712Y003577D02*
X010936Y003577D01*
X010936Y003586D02*
X010712Y003586D01*
X010712Y003594D02*
X010936Y003594D01*
X010936Y003603D02*
X010712Y003603D01*
X010712Y003611D02*
X010936Y003611D01*
X010936Y003620D02*
X010712Y003620D01*
X010712Y003628D02*
X010936Y003628D01*
X010936Y003637D02*
X010712Y003637D01*
X010712Y003645D02*
X010936Y003645D01*
X010936Y003654D02*
X010712Y003654D01*
X010712Y003662D02*
X010936Y003662D01*
X010936Y003671D02*
X010712Y003671D01*
X010712Y003679D02*
X010936Y003679D01*
X010936Y003688D02*
X010712Y003688D01*
X010712Y003696D02*
X010936Y003696D01*
X010936Y003705D02*
X010712Y003705D01*
X010712Y003713D02*
X010936Y003713D01*
X010936Y003722D02*
X010712Y003722D01*
X010712Y003730D02*
X010936Y003730D01*
X010936Y003739D02*
X010702Y003739D01*
X010691Y003747D02*
X010936Y003747D01*
X010936Y003756D02*
X010681Y003756D01*
X010671Y003764D02*
X010936Y003764D01*
X010936Y003790D02*
X010634Y003790D01*
X010634Y003798D02*
X010936Y003798D01*
X010936Y003807D02*
X010634Y003807D01*
X010634Y003815D02*
X010936Y003815D01*
X010936Y003824D02*
X010634Y003824D01*
X010634Y003832D02*
X010936Y003832D01*
X010936Y003841D02*
X010634Y003841D01*
X010634Y003849D02*
X010936Y003849D01*
X010936Y003858D02*
X010634Y003858D01*
X010634Y003866D02*
X010936Y003866D01*
X010936Y003875D02*
X010634Y003875D01*
X010634Y003883D02*
X010936Y003883D01*
X010936Y003892D02*
X010630Y003892D01*
X010622Y003900D02*
X010936Y003900D01*
X010936Y003909D02*
X010613Y003909D01*
D16*
X004252Y003696D02*
X003696Y004252D01*
X004220Y003918D02*
X004222Y003936D01*
X004228Y003954D01*
X004237Y003970D01*
X004249Y003983D01*
X004264Y003994D01*
X004281Y004002D01*
X004299Y004006D01*
X004317Y004006D01*
X004335Y004002D01*
X004352Y003994D01*
X004367Y003983D01*
X004379Y003970D01*
X004388Y003954D01*
X004394Y003936D01*
X004396Y003918D01*
X004394Y003900D01*
X004388Y003882D01*
X004379Y003866D01*
X004367Y003853D01*
X004352Y003842D01*
X004335Y003834D01*
X004317Y003830D01*
X004299Y003830D01*
X004281Y003834D01*
X004264Y003842D01*
X004249Y003853D01*
X004237Y003866D01*
X004228Y003882D01*
X004222Y003900D01*
X004220Y003918D01*
X005115Y003723D02*
X005171Y003779D01*
X005561Y004169D02*
X005617Y004225D01*
X005644Y005088D02*
X005088Y005644D01*
X004225Y005617D02*
X004169Y005561D01*
X003779Y005171D02*
X003723Y005115D01*
X003023Y006170D02*
X002955Y006130D01*
X003501Y006445D02*
X003569Y006485D01*
X003819Y007311D02*
X003426Y007993D01*
X002585Y008190D02*
X002517Y008150D01*
X002039Y007875D02*
X001971Y007835D01*
X001721Y007009D02*
X002114Y006327D01*
X002138Y006528D02*
X002140Y006546D01*
X002146Y006564D01*
X002155Y006580D01*
X002167Y006593D01*
X002182Y006604D01*
X002199Y006612D01*
X002217Y006616D01*
X002235Y006616D01*
X002253Y006612D01*
X002270Y006604D01*
X002285Y006593D01*
X002297Y006580D01*
X002306Y006564D01*
X002312Y006546D01*
X002314Y006528D01*
X002312Y006510D01*
X002306Y006492D01*
X002297Y006476D01*
X002285Y006463D01*
X002270Y006452D01*
X002253Y006444D01*
X002235Y006440D01*
X002217Y006440D01*
X002199Y006444D01*
X002182Y006452D01*
X002167Y006463D01*
X002155Y006476D01*
X002146Y006492D01*
X002140Y006510D01*
X002138Y006528D01*
X004585Y007976D02*
X009113Y007976D01*
X009113Y009944D01*
X004585Y009944D01*
X004585Y007976D01*
X002623Y009924D02*
X002419Y010685D01*
X001658Y011092D02*
X001581Y011072D01*
X001049Y010929D02*
X000973Y010909D01*
X000517Y010176D02*
X000721Y009415D01*
X000793Y009580D02*
X000795Y009598D01*
X000801Y009616D01*
X000810Y009632D01*
X000822Y009645D01*
X000837Y009656D01*
X000854Y009664D01*
X000872Y009668D01*
X000890Y009668D01*
X000908Y009664D01*
X000925Y009656D01*
X000940Y009645D01*
X000952Y009632D01*
X000961Y009616D01*
X000967Y009598D01*
X000969Y009580D01*
X000967Y009562D01*
X000961Y009544D01*
X000952Y009528D01*
X000940Y009515D01*
X000925Y009504D01*
X000908Y009496D01*
X000890Y009492D01*
X000872Y009492D01*
X000854Y009496D01*
X000837Y009504D01*
X000822Y009515D01*
X000810Y009528D01*
X000801Y009544D01*
X000795Y009562D01*
X000793Y009580D01*
X001482Y009008D02*
X001559Y009028D01*
X002091Y009171D02*
X002167Y009191D01*
X001514Y012176D02*
X001436Y012176D01*
X000884Y012176D02*
X000806Y012176D01*
X000285Y012884D02*
X000287Y012902D01*
X000293Y012920D01*
X000302Y012936D01*
X000314Y012949D01*
X000329Y012960D01*
X000346Y012968D01*
X000364Y012972D01*
X000382Y012972D01*
X000400Y012968D01*
X000417Y012960D01*
X000432Y012949D01*
X000444Y012936D01*
X000453Y012920D01*
X000459Y012902D01*
X000461Y012884D01*
X000459Y012866D01*
X000453Y012848D01*
X000444Y012832D01*
X000432Y012819D01*
X000417Y012808D01*
X000400Y012800D01*
X000382Y012796D01*
X000364Y012796D01*
X000346Y012800D01*
X000329Y012808D01*
X000314Y012819D01*
X000302Y012832D01*
X000293Y012848D01*
X000287Y012866D01*
X000285Y012884D01*
X000176Y012766D02*
X000176Y013554D01*
X000806Y014144D02*
X000884Y014144D01*
X001436Y014144D02*
X001514Y014144D01*
X002144Y013554D02*
X002144Y012766D01*
X001658Y015228D02*
X001581Y015248D01*
X001049Y015391D02*
X000973Y015411D01*
X000650Y016208D02*
X000652Y016226D01*
X000658Y016244D01*
X000667Y016260D01*
X000679Y016273D01*
X000694Y016284D01*
X000711Y016292D01*
X000729Y016296D01*
X000747Y016296D01*
X000765Y016292D01*
X000782Y016284D01*
X000797Y016273D01*
X000809Y016260D01*
X000818Y016244D01*
X000824Y016226D01*
X000826Y016208D01*
X000824Y016190D01*
X000818Y016172D01*
X000809Y016156D01*
X000797Y016143D01*
X000782Y016132D01*
X000765Y016124D01*
X000747Y016120D01*
X000729Y016120D01*
X000711Y016124D01*
X000694Y016132D01*
X000679Y016143D01*
X000667Y016156D01*
X000658Y016172D01*
X000652Y016190D01*
X000650Y016208D01*
X000517Y016144D02*
X000721Y016905D01*
X001482Y017312D02*
X001559Y017292D01*
X002091Y017149D02*
X002167Y017129D01*
X002623Y016396D02*
X002419Y015635D01*
X002585Y018130D02*
X002517Y018170D01*
X002039Y018445D02*
X001971Y018485D01*
X001862Y019315D02*
X001864Y019333D01*
X001870Y019351D01*
X001879Y019367D01*
X001891Y019380D01*
X001906Y019391D01*
X001923Y019399D01*
X001941Y019403D01*
X001959Y019403D01*
X001977Y019399D01*
X001994Y019391D01*
X002009Y019380D01*
X002021Y019367D01*
X002030Y019351D01*
X002036Y019333D01*
X002038Y019315D01*
X002036Y019297D01*
X002030Y019279D01*
X002021Y019263D01*
X002009Y019250D01*
X001994Y019239D01*
X001977Y019231D01*
X001959Y019227D01*
X001941Y019227D01*
X001923Y019231D01*
X001906Y019239D01*
X001891Y019250D01*
X001879Y019263D01*
X001870Y019279D01*
X001864Y019297D01*
X001862Y019315D01*
X001721Y019311D02*
X002114Y019993D01*
X002955Y020190D02*
X003023Y020150D01*
X003501Y019875D02*
X003569Y019835D01*
X003819Y019009D02*
X003426Y018327D01*
X004225Y020703D02*
X004169Y020759D01*
X003779Y021149D02*
X003723Y021205D01*
X003830Y022012D02*
X003832Y022030D01*
X003838Y022048D01*
X003847Y022064D01*
X003859Y022077D01*
X003874Y022088D01*
X003891Y022096D01*
X003909Y022100D01*
X003927Y022100D01*
X003945Y022096D01*
X003962Y022088D01*
X003977Y022077D01*
X003989Y022064D01*
X003998Y022048D01*
X004004Y022030D01*
X004006Y022012D01*
X004004Y021994D01*
X003998Y021976D01*
X003989Y021960D01*
X003977Y021947D01*
X003962Y021936D01*
X003945Y021928D01*
X003927Y021924D01*
X003909Y021924D01*
X003891Y021928D01*
X003874Y021936D01*
X003859Y021947D01*
X003847Y021960D01*
X003838Y021976D01*
X003832Y021994D01*
X003830Y022012D01*
X003696Y022068D02*
X004252Y022624D01*
X005115Y022597D02*
X005171Y022541D01*
X005561Y022151D02*
X005617Y022095D01*
X005644Y021232D02*
X005088Y020676D01*
X006485Y022751D02*
X006445Y022819D01*
X006170Y023297D02*
X006130Y023365D01*
X006440Y024094D02*
X006442Y024112D01*
X006448Y024130D01*
X006457Y024146D01*
X006469Y024159D01*
X006484Y024170D01*
X006501Y024178D01*
X006519Y024182D01*
X006537Y024182D01*
X006555Y024178D01*
X006572Y024170D01*
X006587Y024159D01*
X006599Y024146D01*
X006608Y024130D01*
X006614Y024112D01*
X006616Y024094D01*
X006614Y024076D01*
X006608Y024058D01*
X006599Y024042D01*
X006587Y024029D01*
X006572Y024018D01*
X006555Y024010D01*
X006537Y024006D01*
X006519Y024006D01*
X006501Y024010D01*
X006484Y024018D01*
X006469Y024029D01*
X006457Y024042D01*
X006448Y024058D01*
X006442Y024076D01*
X006440Y024094D01*
X006327Y024206D02*
X007009Y024599D01*
X007835Y024349D02*
X007875Y024281D01*
X008150Y023803D02*
X008190Y023735D01*
X009191Y024153D02*
X009171Y024229D01*
X009028Y024761D02*
X009008Y024838D01*
X009492Y025439D02*
X009494Y025457D01*
X009500Y025475D01*
X009509Y025491D01*
X009521Y025504D01*
X009536Y025515D01*
X009553Y025523D01*
X009571Y025527D01*
X009589Y025527D01*
X009607Y025523D01*
X009624Y025515D01*
X009639Y025504D01*
X009651Y025491D01*
X009660Y025475D01*
X009666Y025457D01*
X009668Y025439D01*
X009666Y025421D01*
X009660Y025403D01*
X009651Y025387D01*
X009639Y025374D01*
X009624Y025363D01*
X009607Y025355D01*
X009589Y025351D01*
X009571Y025351D01*
X009553Y025355D01*
X009536Y025363D01*
X009521Y025374D01*
X009509Y025387D01*
X009500Y025403D01*
X009494Y025421D01*
X009492Y025439D01*
X009415Y025599D02*
X010176Y025803D01*
X010909Y025347D02*
X010929Y025271D01*
X011072Y024739D02*
X011092Y024662D01*
X010685Y023901D02*
X009924Y023697D01*
X007993Y022894D02*
X007311Y022501D01*
X010105Y018996D02*
X010221Y018920D01*
X010227Y018910D02*
X010105Y018818D01*
X010227Y018729D02*
X010227Y018910D01*
X010227Y019091D01*
X010227Y018691D02*
X010227Y018510D01*
X010105Y018418D01*
X010227Y018329D02*
X010227Y018510D01*
X010221Y018520D02*
X010105Y018596D01*
X014121Y018538D02*
X016799Y018538D01*
X016799Y018668D01*
X016799Y019731D02*
X014121Y019731D01*
X014121Y018668D02*
X014121Y018538D01*
X015666Y021945D02*
X015666Y022575D01*
X016454Y022575D02*
X016454Y021945D01*
X016396Y023697D02*
X015635Y023901D01*
X015228Y024662D02*
X015248Y024739D01*
X015391Y025271D02*
X015411Y025347D01*
X016120Y025582D02*
X016122Y025600D01*
X016128Y025618D01*
X016137Y025634D01*
X016149Y025647D01*
X016164Y025658D01*
X016181Y025666D01*
X016199Y025670D01*
X016217Y025670D01*
X016235Y025666D01*
X016252Y025658D01*
X016267Y025647D01*
X016279Y025634D01*
X016288Y025618D01*
X016294Y025600D01*
X016296Y025582D01*
X016294Y025564D01*
X016288Y025546D01*
X016279Y025530D01*
X016267Y025517D01*
X016252Y025506D01*
X016235Y025498D01*
X016217Y025494D01*
X016199Y025494D01*
X016181Y025498D01*
X016164Y025506D01*
X016149Y025517D01*
X016137Y025530D01*
X016128Y025546D01*
X016122Y025564D01*
X016120Y025582D01*
X016144Y025803D02*
X016905Y025599D01*
X017312Y024838D02*
X017292Y024761D01*
X017149Y024229D02*
X017129Y024153D01*
X018130Y023735D02*
X018170Y023803D01*
X018445Y024281D02*
X018485Y024349D01*
X019227Y024370D02*
X019229Y024388D01*
X019235Y024406D01*
X019244Y024422D01*
X019256Y024435D01*
X019271Y024446D01*
X019288Y024454D01*
X019306Y024458D01*
X019324Y024458D01*
X019342Y024454D01*
X019359Y024446D01*
X019374Y024435D01*
X019386Y024422D01*
X019395Y024406D01*
X019401Y024388D01*
X019403Y024370D01*
X019401Y024352D01*
X019395Y024334D01*
X019386Y024318D01*
X019374Y024305D01*
X019359Y024294D01*
X019342Y024286D01*
X019324Y024282D01*
X019306Y024282D01*
X019288Y024286D01*
X019271Y024294D01*
X019256Y024305D01*
X019244Y024318D01*
X019235Y024334D01*
X019229Y024352D01*
X019227Y024370D01*
X019311Y024599D02*
X019993Y024206D01*
X020190Y023365D02*
X020150Y023297D01*
X019875Y022819D02*
X019835Y022751D01*
X019009Y022501D02*
X018327Y022894D01*
X020703Y022095D02*
X020759Y022151D01*
X021149Y022541D02*
X021205Y022597D01*
X021924Y022402D02*
X021926Y022420D01*
X021932Y022438D01*
X021941Y022454D01*
X021953Y022467D01*
X021968Y022478D01*
X021985Y022486D01*
X022003Y022490D01*
X022021Y022490D01*
X022039Y022486D01*
X022056Y022478D01*
X022071Y022467D01*
X022083Y022454D01*
X022092Y022438D01*
X022098Y022420D01*
X022100Y022402D01*
X022098Y022384D01*
X022092Y022366D01*
X022083Y022350D01*
X022071Y022337D01*
X022056Y022326D01*
X022039Y022318D01*
X022021Y022314D01*
X022003Y022314D01*
X021985Y022318D01*
X021968Y022326D01*
X021953Y022337D01*
X021941Y022350D01*
X021932Y022366D01*
X021926Y022384D01*
X021924Y022402D01*
X022068Y022624D02*
X022624Y022068D01*
X022597Y021205D02*
X022541Y021149D01*
X022151Y020759D02*
X022095Y020703D01*
X021232Y020676D02*
X020676Y021232D01*
X020704Y019825D02*
X020704Y019195D01*
X019916Y019195D02*
X019916Y019825D01*
X019076Y018238D02*
X018741Y018238D01*
X018741Y016663D01*
X019076Y017254D02*
X019627Y017254D01*
X019076Y017254D02*
X019076Y018238D01*
X021793Y017254D02*
X022344Y017254D01*
X022344Y018238D01*
X022679Y018238D01*
X022679Y016663D01*
X023697Y016396D02*
X023901Y015635D01*
X024662Y015228D02*
X024739Y015248D01*
X025271Y015391D02*
X025347Y015411D01*
X025803Y016144D02*
X025599Y016905D01*
X025351Y016740D02*
X025353Y016758D01*
X025359Y016776D01*
X025368Y016792D01*
X025380Y016805D01*
X025395Y016816D01*
X025412Y016824D01*
X025430Y016828D01*
X025448Y016828D01*
X025466Y016824D01*
X025483Y016816D01*
X025498Y016805D01*
X025510Y016792D01*
X025519Y016776D01*
X025525Y016758D01*
X025527Y016740D01*
X025525Y016722D01*
X025519Y016704D01*
X025510Y016688D01*
X025498Y016675D01*
X025483Y016664D01*
X025466Y016656D01*
X025448Y016652D01*
X025430Y016652D01*
X025412Y016656D01*
X025395Y016664D01*
X025380Y016675D01*
X025368Y016688D01*
X025359Y016704D01*
X025353Y016722D01*
X025351Y016740D01*
X024838Y017312D02*
X024761Y017292D01*
X024229Y017149D02*
X024153Y017129D01*
X023735Y018130D02*
X023803Y018170D01*
X024281Y018445D02*
X024349Y018485D01*
X024599Y019311D02*
X024206Y019993D01*
X024006Y019792D02*
X024008Y019810D01*
X024014Y019828D01*
X024023Y019844D01*
X024035Y019857D01*
X024050Y019868D01*
X024067Y019876D01*
X024085Y019880D01*
X024103Y019880D01*
X024121Y019876D01*
X024138Y019868D01*
X024153Y019857D01*
X024165Y019844D01*
X024174Y019828D01*
X024180Y019810D01*
X024182Y019792D01*
X024180Y019774D01*
X024174Y019756D01*
X024165Y019740D01*
X024153Y019727D01*
X024138Y019716D01*
X024121Y019708D01*
X024103Y019704D01*
X024085Y019704D01*
X024067Y019708D01*
X024050Y019716D01*
X024035Y019727D01*
X024023Y019740D01*
X024014Y019756D01*
X024008Y019774D01*
X024006Y019792D01*
X023365Y020190D02*
X023297Y020150D01*
X022819Y019875D02*
X022751Y019835D01*
X022501Y019009D02*
X022894Y018327D01*
X021990Y015285D02*
X019430Y015285D01*
X017360Y012510D02*
X017360Y012010D01*
X016760Y012010D02*
X016760Y012510D01*
X019335Y009816D02*
X019335Y008438D01*
X019650Y008438D01*
X019650Y009423D01*
X020123Y009423D01*
X020170Y008960D02*
X019890Y008960D01*
X021720Y008930D02*
X022000Y008930D01*
X021860Y008790D02*
X021860Y009070D01*
X021697Y009423D02*
X022170Y009423D01*
X022170Y008438D01*
X022485Y008438D01*
X022485Y009816D01*
X023697Y009924D02*
X023901Y010685D01*
X024662Y011092D02*
X024739Y011072D01*
X025271Y010929D02*
X025347Y010909D01*
X025494Y010112D02*
X025496Y010130D01*
X025502Y010148D01*
X025511Y010164D01*
X025523Y010177D01*
X025538Y010188D01*
X025555Y010196D01*
X025573Y010200D01*
X025591Y010200D01*
X025609Y010196D01*
X025626Y010188D01*
X025641Y010177D01*
X025653Y010164D01*
X025662Y010148D01*
X025668Y010130D01*
X025670Y010112D01*
X025668Y010094D01*
X025662Y010076D01*
X025653Y010060D01*
X025641Y010047D01*
X025626Y010036D01*
X025609Y010028D01*
X025591Y010024D01*
X025573Y010024D01*
X025555Y010028D01*
X025538Y010036D01*
X025523Y010047D01*
X025511Y010060D01*
X025502Y010076D01*
X025496Y010094D01*
X025494Y010112D01*
X025803Y010176D02*
X025599Y009415D01*
X024838Y009008D02*
X024761Y009028D01*
X024229Y009171D02*
X024153Y009191D01*
X023735Y008190D02*
X023803Y008150D01*
X024281Y007875D02*
X024349Y007835D01*
X024282Y007005D02*
X024284Y007023D01*
X024290Y007041D01*
X024299Y007057D01*
X024311Y007070D01*
X024326Y007081D01*
X024343Y007089D01*
X024361Y007093D01*
X024379Y007093D01*
X024397Y007089D01*
X024414Y007081D01*
X024429Y007070D01*
X024441Y007057D01*
X024450Y007041D01*
X024456Y007023D01*
X024458Y007005D01*
X024456Y006987D01*
X024450Y006969D01*
X024441Y006953D01*
X024429Y006940D01*
X024414Y006929D01*
X024397Y006921D01*
X024379Y006917D01*
X024361Y006917D01*
X024343Y006921D01*
X024326Y006929D01*
X024311Y006940D01*
X024299Y006953D01*
X024290Y006969D01*
X024284Y006987D01*
X024282Y007005D01*
X024599Y007009D02*
X024206Y006327D01*
X023365Y006130D02*
X023297Y006170D01*
X022819Y006445D02*
X022751Y006485D01*
X022501Y007311D02*
X022894Y007993D01*
X022095Y005617D02*
X022151Y005561D01*
X022541Y005171D02*
X022597Y005115D01*
X022314Y004308D02*
X022316Y004326D01*
X022322Y004344D01*
X022331Y004360D01*
X022343Y004373D01*
X022358Y004384D01*
X022375Y004392D01*
X022393Y004396D01*
X022411Y004396D01*
X022429Y004392D01*
X022446Y004384D01*
X022461Y004373D01*
X022473Y004360D01*
X022482Y004344D01*
X022488Y004326D01*
X022490Y004308D01*
X022488Y004290D01*
X022482Y004272D01*
X022473Y004256D01*
X022461Y004243D01*
X022446Y004232D01*
X022429Y004224D01*
X022411Y004220D01*
X022393Y004220D01*
X022375Y004224D01*
X022358Y004232D01*
X022343Y004243D01*
X022331Y004256D01*
X022322Y004272D01*
X022316Y004290D01*
X022314Y004308D01*
X022624Y004252D02*
X022068Y003696D01*
X021205Y003723D02*
X021149Y003779D01*
X020759Y004169D02*
X020703Y004225D01*
X020676Y005088D02*
X021232Y005644D01*
X019835Y003569D02*
X019875Y003501D01*
X020150Y003023D02*
X020190Y002955D01*
X019704Y002226D02*
X019706Y002244D01*
X019712Y002262D01*
X019721Y002278D01*
X019733Y002291D01*
X019748Y002302D01*
X019765Y002310D01*
X019783Y002314D01*
X019801Y002314D01*
X019819Y002310D01*
X019836Y002302D01*
X019851Y002291D01*
X019863Y002278D01*
X019872Y002262D01*
X019878Y002244D01*
X019880Y002226D01*
X019878Y002208D01*
X019872Y002190D01*
X019863Y002174D01*
X019851Y002161D01*
X019836Y002150D01*
X019819Y002142D01*
X019801Y002138D01*
X019783Y002138D01*
X019765Y002142D01*
X019748Y002150D01*
X019733Y002161D01*
X019721Y002174D01*
X019712Y002190D01*
X019706Y002208D01*
X019704Y002226D01*
X019993Y002114D02*
X019311Y001721D01*
X018485Y001971D02*
X018445Y002039D01*
X018170Y002517D02*
X018130Y002585D01*
X017129Y002167D02*
X017149Y002091D01*
X017292Y001559D02*
X017312Y001482D01*
X016652Y000881D02*
X016654Y000899D01*
X016660Y000917D01*
X016669Y000933D01*
X016681Y000946D01*
X016696Y000957D01*
X016713Y000965D01*
X016731Y000969D01*
X016749Y000969D01*
X016767Y000965D01*
X016784Y000957D01*
X016799Y000946D01*
X016811Y000933D01*
X016820Y000917D01*
X016826Y000899D01*
X016828Y000881D01*
X016826Y000863D01*
X016820Y000845D01*
X016811Y000829D01*
X016799Y000816D01*
X016784Y000805D01*
X016767Y000797D01*
X016749Y000793D01*
X016731Y000793D01*
X016713Y000797D01*
X016696Y000805D01*
X016681Y000816D01*
X016669Y000829D01*
X016660Y000845D01*
X016654Y000863D01*
X016652Y000881D01*
X016905Y000721D02*
X016144Y000517D01*
X015411Y000973D02*
X015391Y001049D01*
X015248Y001581D02*
X015228Y001658D01*
X015635Y002419D02*
X016396Y002623D01*
X018327Y003426D02*
X019009Y003819D01*
X014144Y001514D02*
X014144Y001436D01*
X014144Y000884D02*
X014144Y000806D01*
X013348Y000373D02*
X013350Y000391D01*
X013356Y000409D01*
X013365Y000425D01*
X013377Y000438D01*
X013392Y000449D01*
X013409Y000457D01*
X013427Y000461D01*
X013445Y000461D01*
X013463Y000457D01*
X013480Y000449D01*
X013495Y000438D01*
X013507Y000425D01*
X013516Y000409D01*
X013522Y000391D01*
X013524Y000373D01*
X013522Y000355D01*
X013516Y000337D01*
X013507Y000321D01*
X013495Y000308D01*
X013480Y000297D01*
X013463Y000289D01*
X013445Y000285D01*
X013427Y000285D01*
X013409Y000289D01*
X013392Y000297D01*
X013377Y000308D01*
X013365Y000321D01*
X013356Y000337D01*
X013350Y000355D01*
X013348Y000373D01*
X013554Y000176D02*
X012766Y000176D01*
X012176Y000806D02*
X012176Y000884D01*
X012176Y001436D02*
X012176Y001514D01*
X012766Y002144D02*
X013554Y002144D01*
X011092Y001658D02*
X011072Y001581D01*
X010929Y001049D02*
X010909Y000973D01*
X010024Y000738D02*
X010026Y000756D01*
X010032Y000774D01*
X010041Y000790D01*
X010053Y000803D01*
X010068Y000814D01*
X010085Y000822D01*
X010103Y000826D01*
X010121Y000826D01*
X010139Y000822D01*
X010156Y000814D01*
X010171Y000803D01*
X010183Y000790D01*
X010192Y000774D01*
X010198Y000756D01*
X010200Y000738D01*
X010198Y000720D01*
X010192Y000702D01*
X010183Y000686D01*
X010171Y000673D01*
X010156Y000662D01*
X010139Y000654D01*
X010121Y000650D01*
X010103Y000650D01*
X010085Y000654D01*
X010068Y000662D01*
X010053Y000673D01*
X010041Y000686D01*
X010032Y000702D01*
X010026Y000720D01*
X010024Y000738D01*
X010176Y000517D02*
X009415Y000721D01*
X009008Y001482D02*
X009028Y001559D01*
X009171Y002091D02*
X009191Y002167D01*
X009924Y002623D02*
X010685Y002419D01*
X008190Y002585D02*
X008150Y002517D01*
X007875Y002039D02*
X007835Y001971D01*
X006917Y001950D02*
X006919Y001968D01*
X006925Y001986D01*
X006934Y002002D01*
X006946Y002015D01*
X006961Y002026D01*
X006978Y002034D01*
X006996Y002038D01*
X007014Y002038D01*
X007032Y002034D01*
X007049Y002026D01*
X007064Y002015D01*
X007076Y002002D01*
X007085Y001986D01*
X007091Y001968D01*
X007093Y001950D01*
X007091Y001932D01*
X007085Y001914D01*
X007076Y001898D01*
X007064Y001885D01*
X007049Y001874D01*
X007032Y001866D01*
X007014Y001862D01*
X006996Y001862D01*
X006978Y001866D01*
X006961Y001874D01*
X006946Y001885D01*
X006934Y001898D01*
X006925Y001914D01*
X006919Y001932D01*
X006917Y001950D01*
X007009Y001721D02*
X006327Y002114D01*
X006130Y002955D02*
X006170Y003023D01*
X006445Y003501D02*
X006485Y003569D01*
X007311Y003819D02*
X007993Y003426D01*
X007916Y011541D02*
X007704Y011541D01*
X007250Y011691D02*
X007250Y012029D01*
X008370Y012029D02*
X008370Y011691D01*
X020123Y011391D02*
X021697Y011391D01*
X024176Y012766D02*
X024176Y013554D01*
X024806Y014144D02*
X024884Y014144D01*
X025436Y014144D02*
X025514Y014144D01*
X025859Y013436D02*
X025861Y013454D01*
X025867Y013472D01*
X025876Y013488D01*
X025888Y013501D01*
X025903Y013512D01*
X025920Y013520D01*
X025938Y013524D01*
X025956Y013524D01*
X025974Y013520D01*
X025991Y013512D01*
X026006Y013501D01*
X026018Y013488D01*
X026027Y013472D01*
X026033Y013454D01*
X026035Y013436D01*
X026033Y013418D01*
X026027Y013400D01*
X026018Y013384D01*
X026006Y013371D01*
X025991Y013360D01*
X025974Y013352D01*
X025956Y013348D01*
X025938Y013348D01*
X025920Y013352D01*
X025903Y013360D01*
X025888Y013371D01*
X025876Y013384D01*
X025867Y013400D01*
X025861Y013418D01*
X025859Y013436D01*
X026144Y013554D02*
X026144Y012766D01*
X025514Y012176D02*
X025436Y012176D01*
X024884Y012176D02*
X024806Y012176D01*
X013554Y024176D02*
X012766Y024176D01*
X012176Y024806D02*
X012176Y024884D01*
X012176Y025436D02*
X012176Y025514D01*
X012796Y025947D02*
X012798Y025965D01*
X012804Y025983D01*
X012813Y025999D01*
X012825Y026012D01*
X012840Y026023D01*
X012857Y026031D01*
X012875Y026035D01*
X012893Y026035D01*
X012911Y026031D01*
X012928Y026023D01*
X012943Y026012D01*
X012955Y025999D01*
X012964Y025983D01*
X012970Y025965D01*
X012972Y025947D01*
X012970Y025929D01*
X012964Y025911D01*
X012955Y025895D01*
X012943Y025882D01*
X012928Y025871D01*
X012911Y025863D01*
X012893Y025859D01*
X012875Y025859D01*
X012857Y025863D01*
X012840Y025871D01*
X012825Y025882D01*
X012813Y025895D01*
X012804Y025911D01*
X012798Y025929D01*
X012796Y025947D01*
X012766Y026144D02*
X013554Y026144D01*
X014144Y025514D02*
X014144Y025436D01*
X014144Y024884D02*
X014144Y024806D01*
D17*
X016610Y010660D03*
D18*
X008335Y016410D03*
X005310Y010360D03*
D19*
X008760Y011910D03*
X017560Y009160D03*
X018160Y009160D03*
X018160Y012260D03*
D20*
X011360Y016760D03*
X011360Y017360D03*
X011360Y017960D03*
X011360Y018560D03*
X010110Y019360D03*
X006060Y019110D03*
X006060Y017310D03*
D21*
X003977Y019282D02*
X004036Y019384D01*
X004021Y019438D01*
X004670Y020258D02*
X004726Y020314D01*
X004670Y020258D02*
X004642Y020286D01*
X005867Y021455D02*
X005951Y021539D01*
X005951Y021594D01*
X006800Y022205D02*
X006868Y022245D01*
X006800Y022205D02*
X006780Y022240D01*
X008266Y023052D02*
X008368Y023111D01*
X008383Y023165D01*
X009354Y023545D02*
X009430Y023565D01*
X009354Y023545D02*
X009344Y023583D01*
X010989Y023983D02*
X011103Y024013D01*
X011131Y024061D01*
X012176Y024176D02*
X012254Y024176D01*
X012176Y024176D02*
X012176Y024215D01*
X013869Y024176D02*
X013987Y024176D01*
X014026Y024215D01*
X015065Y024054D02*
X015141Y024034D01*
X015065Y024054D02*
X015075Y024092D01*
X016700Y023616D02*
X016814Y023585D01*
X016862Y023613D01*
X017815Y023190D02*
X017884Y023150D01*
X017815Y023190D02*
X017835Y023224D01*
X019282Y022343D02*
X019384Y022284D01*
X019438Y022299D01*
X020258Y021650D02*
X020314Y021594D01*
X020258Y021650D02*
X020286Y021678D01*
X021455Y020453D02*
X021539Y020369D01*
X021594Y020369D01*
X022205Y019520D02*
X022245Y019452D01*
X022205Y019520D02*
X022240Y019540D01*
X023052Y018054D02*
X023111Y017952D01*
X023165Y017937D01*
X023545Y016966D02*
X023565Y016890D01*
X023545Y016966D02*
X023583Y016976D01*
X023983Y015331D02*
X024013Y015217D01*
X024061Y015189D01*
X024176Y014144D02*
X024176Y014066D01*
X024176Y014144D02*
X024215Y014144D01*
X024176Y012451D02*
X024176Y012333D01*
X024215Y012294D01*
X024054Y011255D02*
X024034Y011179D01*
X024054Y011255D02*
X024092Y011245D01*
X023616Y009620D02*
X023585Y009506D01*
X023613Y009458D01*
X023190Y008505D02*
X023150Y008436D01*
X023190Y008505D02*
X023224Y008485D01*
X022343Y007038D02*
X022284Y006936D01*
X022299Y006882D01*
X021650Y006062D02*
X021594Y006006D01*
X021650Y006062D02*
X021678Y006034D01*
X020453Y004865D02*
X020369Y004781D01*
X020369Y004726D01*
X019520Y004115D02*
X019452Y004075D01*
X019520Y004115D02*
X019540Y004080D01*
X018054Y003268D02*
X017952Y003209D01*
X017937Y003155D01*
X016966Y002775D02*
X016890Y002755D01*
X016966Y002775D02*
X016976Y002737D01*
X015331Y002337D02*
X015217Y002307D01*
X015189Y002259D01*
X014144Y002144D02*
X014144Y002105D01*
X014144Y002144D02*
X014066Y002144D01*
X012451Y002144D02*
X012333Y002144D01*
X012294Y002105D01*
X011255Y002266D02*
X011179Y002286D01*
X011255Y002266D02*
X011245Y002228D01*
X009620Y002704D02*
X009506Y002735D01*
X009458Y002707D01*
X008505Y003130D02*
X008436Y003170D01*
X008505Y003130D02*
X008485Y003096D01*
X007038Y003977D02*
X006936Y004036D01*
X006882Y004021D01*
X006062Y004670D02*
X006006Y004726D01*
X006062Y004670D02*
X006034Y004642D01*
X004865Y005867D02*
X004781Y005951D01*
X004726Y005951D01*
X004115Y006800D02*
X004075Y006868D01*
X004115Y006800D02*
X004080Y006780D01*
X003268Y008266D02*
X003209Y008368D01*
X003155Y008383D01*
X002775Y009354D02*
X002755Y009430D01*
X002775Y009354D02*
X002737Y009344D01*
X002337Y010989D02*
X002307Y011103D01*
X002259Y011131D01*
X002144Y012176D02*
X002105Y012176D01*
X002144Y012176D02*
X002144Y012254D01*
X002144Y013869D02*
X002144Y013987D01*
X002105Y014026D01*
X002266Y015065D02*
X002286Y015141D01*
X002266Y015065D02*
X002228Y015075D01*
X002704Y016700D02*
X002735Y016814D01*
X002707Y016862D01*
X003130Y017815D02*
X003170Y017884D01*
X003130Y017815D02*
X003096Y017835D01*
X001460Y018780D02*
X001425Y018800D01*
X001465Y018868D01*
X000912Y017465D02*
X000874Y017475D01*
X000854Y017399D01*
X000385Y015650D02*
X000365Y015574D01*
X000403Y015564D01*
X000215Y014144D02*
X000176Y014144D01*
X000176Y014066D01*
X000176Y012254D02*
X000176Y012176D01*
X000215Y012176D01*
X000403Y010756D02*
X000365Y010746D01*
X000385Y010670D01*
X000854Y008921D02*
X000874Y008845D01*
X000912Y008855D01*
X001460Y007540D02*
X001425Y007520D01*
X001465Y007452D01*
X002370Y005884D02*
X002410Y005815D01*
X002444Y005835D01*
X003306Y004698D02*
X003278Y004670D01*
X003334Y004614D01*
X004614Y003334D02*
X004670Y003278D01*
X004698Y003306D01*
X005835Y002444D02*
X005815Y002410D01*
X005884Y002370D01*
X007452Y001465D02*
X007520Y001425D01*
X007540Y001460D01*
X008855Y000912D02*
X008845Y000874D01*
X008921Y000854D01*
X010670Y000385D02*
X010746Y000365D01*
X010756Y000403D01*
X012176Y000215D02*
X012176Y000176D01*
X012254Y000176D01*
X014066Y000176D02*
X014144Y000176D01*
X014144Y000215D01*
X015564Y000403D02*
X015574Y000365D01*
X015650Y000385D01*
X017399Y000854D02*
X017475Y000874D01*
X017465Y000912D01*
X018780Y001460D02*
X018800Y001425D01*
X018868Y001465D01*
X020436Y002370D02*
X020505Y002410D01*
X020485Y002444D01*
X021622Y003306D02*
X021650Y003278D01*
X021706Y003334D01*
X022986Y004614D02*
X023042Y004670D01*
X023014Y004698D01*
X023876Y005835D02*
X023910Y005815D01*
X023950Y005884D01*
X024855Y007452D02*
X024895Y007520D01*
X024860Y007540D01*
X025408Y008855D02*
X025446Y008845D01*
X025466Y008921D01*
X025935Y010670D02*
X025955Y010746D01*
X025917Y010756D01*
X026105Y012176D02*
X026144Y012176D01*
X026144Y012254D01*
X026144Y014066D02*
X026144Y014144D01*
X026105Y014144D01*
X025917Y015564D02*
X025955Y015574D01*
X025935Y015650D01*
X025466Y017399D02*
X025446Y017475D01*
X025408Y017465D01*
X024860Y018780D02*
X024895Y018800D01*
X024855Y018868D01*
X023950Y020436D02*
X023910Y020505D01*
X023876Y020485D01*
X023014Y021622D02*
X023042Y021650D01*
X022986Y021706D01*
X021706Y022986D02*
X021650Y023042D01*
X021622Y023014D01*
X020485Y023876D02*
X020505Y023910D01*
X020436Y023950D01*
X018868Y024855D02*
X018800Y024895D01*
X018780Y024860D01*
X017465Y025408D02*
X017475Y025446D01*
X017399Y025466D01*
X015650Y025935D02*
X015574Y025955D01*
X015564Y025917D01*
X014144Y026105D02*
X014144Y026144D01*
X014066Y026144D01*
X012254Y026144D02*
X012176Y026144D01*
X012176Y026105D01*
X010756Y025917D02*
X010746Y025955D01*
X010670Y025935D01*
X008921Y025466D02*
X008845Y025446D01*
X008855Y025408D01*
X007540Y024860D02*
X007520Y024895D01*
X007452Y024855D01*
X005884Y023950D02*
X005815Y023910D01*
X005835Y023876D01*
X004698Y023014D02*
X004670Y023042D01*
X004614Y022986D01*
X003334Y021706D02*
X003278Y021650D01*
X003306Y021622D01*
X002444Y020485D02*
X002410Y020505D01*
X002370Y020436D01*
M02*
