G75*
%MOIN*%
%OFA0B0*%
%FSLAX24Y24*%
%IPPOS*%
%LPD*%
%AMOC8*
5,1,8,0,0,1.08239X$1,22.5*
%
%ADD10R,0.0394X0.0433*%
%ADD11R,0.0157X0.0551*%
%ADD12R,0.0709X0.0709*%
%ADD13C,0.0160*%
%ADD14R,0.0236X0.0472*%
%ADD15R,0.0394X0.1811*%
%ADD16R,0.0630X0.1339*%
%ADD17R,0.0217X0.0472*%
%ADD18R,0.2362X0.0984*%
%ADD19R,0.0984X0.0394*%
%ADD20R,0.2008X0.2008*%
%ADD21R,0.0984X0.2008*%
%ADD22R,0.0394X0.0551*%
%ADD23R,0.0433X0.0394*%
%ADD24R,0.0709X0.0433*%
%ADD25R,0.0433X0.0709*%
%ADD26R,0.0098X0.0394*%
%ADD27R,0.0394X0.0098*%
%ADD28R,0.0787X0.0787*%
%ADD29R,0.0630X0.1260*%
%ADD30R,0.0315X0.0315*%
%ADD31R,0.0709X0.0394*%
%ADD32R,0.0236X0.0315*%
D10*
X004710Y010806D03*
X004710Y011514D03*
X004710Y012256D03*
X004710Y012964D03*
X008760Y012264D03*
X008760Y011556D03*
X016960Y009514D03*
X017560Y009514D03*
X018160Y009514D03*
X018160Y008806D03*
X017560Y008806D03*
X016960Y008806D03*
X018160Y011906D03*
X018160Y012614D03*
D11*
X015972Y018117D03*
X015716Y018117D03*
X015460Y018117D03*
X015204Y018117D03*
X014948Y018117D03*
D12*
X015007Y019160D03*
X015913Y019160D03*
D13*
X016390Y014240D02*
X015230Y014240D01*
X016390Y014240D02*
X016390Y014080D01*
X015230Y014080D01*
X015230Y014240D01*
X015230Y014239D02*
X016390Y014239D01*
X016390Y013740D02*
X015230Y013740D01*
X016390Y013740D02*
X016390Y013580D01*
X015230Y013580D01*
X015230Y013740D01*
X015230Y013739D02*
X016390Y013739D01*
X016390Y013240D02*
X015230Y013240D01*
X016390Y013240D02*
X016390Y013080D01*
X015230Y013080D01*
X015230Y013240D01*
X015230Y013239D02*
X016390Y013239D01*
X016390Y012740D02*
X015230Y012740D01*
X016390Y012740D02*
X016390Y012580D01*
X015230Y012580D01*
X015230Y012740D01*
X015230Y012739D02*
X016390Y012739D01*
X016390Y012240D02*
X015230Y012240D01*
X016390Y012240D02*
X016390Y012080D01*
X015230Y012080D01*
X015230Y012240D01*
X015230Y012239D02*
X016390Y012239D01*
X016390Y011740D02*
X015230Y011740D01*
X016390Y011740D02*
X016390Y011580D01*
X015230Y011580D01*
X015230Y011740D01*
X015230Y011739D02*
X016390Y011739D01*
X016390Y011240D02*
X015230Y011240D01*
X016390Y011240D02*
X016390Y011080D01*
X015230Y011080D01*
X015230Y011240D01*
X015230Y011239D02*
X016390Y011239D01*
X016390Y010740D02*
X015230Y010740D01*
X016390Y010740D02*
X016390Y010580D01*
X015230Y010580D01*
X015230Y010740D01*
X015230Y010739D02*
X016390Y010739D01*
X011090Y010740D02*
X009930Y010740D01*
X011090Y010740D02*
X011090Y010580D01*
X009930Y010580D01*
X009930Y010740D01*
X009930Y010739D02*
X011090Y010739D01*
X011090Y011240D02*
X009930Y011240D01*
X011090Y011240D02*
X011090Y011080D01*
X009930Y011080D01*
X009930Y011240D01*
X009930Y011239D02*
X011090Y011239D01*
X011090Y011740D02*
X009930Y011740D01*
X011090Y011740D02*
X011090Y011580D01*
X009930Y011580D01*
X009930Y011740D01*
X009930Y011739D02*
X011090Y011739D01*
X011090Y012240D02*
X009930Y012240D01*
X011090Y012240D02*
X011090Y012080D01*
X009930Y012080D01*
X009930Y012240D01*
X009930Y012239D02*
X011090Y012239D01*
X011090Y012740D02*
X009930Y012740D01*
X011090Y012740D02*
X011090Y012580D01*
X009930Y012580D01*
X009930Y012740D01*
X009930Y012739D02*
X011090Y012739D01*
X011090Y013240D02*
X009930Y013240D01*
X011090Y013240D02*
X011090Y013080D01*
X009930Y013080D01*
X009930Y013240D01*
X009930Y013239D02*
X011090Y013239D01*
X011090Y013740D02*
X009930Y013740D01*
X011090Y013740D02*
X011090Y013580D01*
X009930Y013580D01*
X009930Y013740D01*
X009930Y013739D02*
X011090Y013739D01*
X011090Y014240D02*
X009930Y014240D01*
X011090Y014240D02*
X011090Y014080D01*
X009930Y014080D01*
X009930Y014240D01*
X009930Y014239D02*
X011090Y014239D01*
X011090Y014740D02*
X009930Y014740D01*
X011090Y014740D02*
X011090Y014580D01*
X009930Y014580D01*
X009930Y014740D01*
X009930Y014739D02*
X011090Y014739D01*
X011090Y015240D02*
X009930Y015240D01*
X011090Y015240D02*
X011090Y015080D01*
X009930Y015080D01*
X009930Y015240D01*
X009930Y015239D02*
X011090Y015239D01*
X011090Y015740D02*
X009930Y015740D01*
X011090Y015740D02*
X011090Y015580D01*
X009930Y015580D01*
X009930Y015740D01*
X009930Y015739D02*
X011090Y015739D01*
D14*
X006810Y012962D03*
X006310Y012962D03*
X005810Y012962D03*
X005310Y012962D03*
X005310Y010758D03*
X005810Y010758D03*
X006310Y010758D03*
X006810Y010758D03*
D15*
X019923Y017923D03*
X020710Y017923D03*
X021497Y017923D03*
X021304Y008753D03*
X020516Y008753D03*
D16*
X018978Y015876D03*
X022442Y015876D03*
D17*
X008184Y012372D03*
X007810Y012372D03*
X007436Y012372D03*
X007436Y011348D03*
X008184Y011348D03*
D18*
X007686Y008960D03*
D19*
X005323Y008460D03*
X005323Y009460D03*
D20*
X013160Y007160D03*
D21*
X016113Y007160D03*
X010207Y007160D03*
D22*
X008460Y014077D03*
X008086Y014943D03*
X008834Y014943D03*
X017236Y010227D03*
X017984Y010227D03*
X017610Y011093D03*
D23*
G36*
X022650Y005629D02*
X022308Y005892D01*
X022548Y006203D01*
X022890Y005940D01*
X022650Y005629D01*
G37*
G36*
X023212Y005197D02*
X022870Y005460D01*
X023110Y005771D01*
X023452Y005508D01*
X023212Y005197D01*
G37*
G36*
X020812Y002868D02*
X020549Y003210D01*
X020860Y003450D01*
X021123Y003108D01*
X020812Y002868D01*
G37*
G36*
X020380Y003430D02*
X020117Y003772D01*
X020428Y004012D01*
X020691Y003670D01*
X020380Y003430D01*
G37*
G36*
X017887Y001239D02*
X017722Y001637D01*
X018085Y001787D01*
X018250Y001389D01*
X017887Y001239D01*
G37*
G36*
X017615Y001893D02*
X017450Y002291D01*
X017813Y002441D01*
X017978Y002043D01*
X017615Y001893D01*
G37*
G36*
X014639Y000420D02*
X014583Y000847D01*
X014973Y000898D01*
X015029Y000471D01*
X014639Y000420D01*
G37*
G36*
X014547Y001122D02*
X014491Y001549D01*
X014881Y001600D01*
X014937Y001173D01*
X014547Y001122D01*
G37*
G36*
X011383Y001173D02*
X011439Y001600D01*
X011829Y001549D01*
X011773Y001122D01*
X011383Y001173D01*
G37*
G36*
X011291Y000471D02*
X011347Y000898D01*
X011737Y000847D01*
X011681Y000420D01*
X011291Y000471D01*
G37*
G36*
X008342Y002043D02*
X008507Y002441D01*
X008870Y002291D01*
X008705Y001893D01*
X008342Y002043D01*
G37*
G36*
X008070Y001389D02*
X008235Y001787D01*
X008598Y001637D01*
X008433Y001239D01*
X008070Y001389D01*
G37*
G36*
X005629Y003670D02*
X005892Y004012D01*
X006203Y003772D01*
X005940Y003430D01*
X005629Y003670D01*
G37*
G36*
X005197Y003108D02*
X005460Y003450D01*
X005771Y003210D01*
X005508Y002868D01*
X005197Y003108D01*
G37*
G36*
X002868Y005508D02*
X003210Y005771D01*
X003450Y005460D01*
X003108Y005197D01*
X002868Y005508D01*
G37*
G36*
X003430Y005940D02*
X003772Y006203D01*
X004012Y005892D01*
X003670Y005629D01*
X003430Y005940D01*
G37*
G36*
X001239Y008433D02*
X001637Y008598D01*
X001787Y008235D01*
X001389Y008070D01*
X001239Y008433D01*
G37*
G36*
X001893Y008705D02*
X002291Y008870D01*
X002441Y008507D01*
X002043Y008342D01*
X001893Y008705D01*
G37*
G36*
X000420Y011681D02*
X000847Y011737D01*
X000898Y011347D01*
X000471Y011291D01*
X000420Y011681D01*
G37*
G36*
X001122Y011773D02*
X001549Y011829D01*
X001600Y011439D01*
X001173Y011383D01*
X001122Y011773D01*
G37*
G36*
X001173Y014937D02*
X001600Y014881D01*
X001549Y014491D01*
X001122Y014547D01*
X001173Y014937D01*
G37*
G36*
X000471Y015029D02*
X000898Y014973D01*
X000847Y014583D01*
X000420Y014639D01*
X000471Y015029D01*
G37*
G36*
X002043Y017978D02*
X002441Y017813D01*
X002291Y017450D01*
X001893Y017615D01*
X002043Y017978D01*
G37*
G36*
X001389Y018250D02*
X001787Y018085D01*
X001637Y017722D01*
X001239Y017887D01*
X001389Y018250D01*
G37*
G36*
X003670Y020691D02*
X004012Y020428D01*
X003772Y020117D01*
X003430Y020380D01*
X003670Y020691D01*
G37*
G36*
X003108Y021123D02*
X003450Y020860D01*
X003210Y020549D01*
X002868Y020812D01*
X003108Y021123D01*
G37*
G36*
X005508Y023452D02*
X005771Y023110D01*
X005460Y022870D01*
X005197Y023212D01*
X005508Y023452D01*
G37*
G36*
X005940Y022890D02*
X006203Y022548D01*
X005892Y022308D01*
X005629Y022650D01*
X005940Y022890D01*
G37*
G36*
X008433Y025081D02*
X008598Y024683D01*
X008235Y024533D01*
X008070Y024931D01*
X008433Y025081D01*
G37*
G36*
X008705Y024427D02*
X008870Y024029D01*
X008507Y023879D01*
X008342Y024277D01*
X008705Y024427D01*
G37*
G36*
X011681Y025900D02*
X011737Y025473D01*
X011347Y025422D01*
X011291Y025849D01*
X011681Y025900D01*
G37*
G36*
X011773Y025198D02*
X011829Y024771D01*
X011439Y024720D01*
X011383Y025147D01*
X011773Y025198D01*
G37*
G36*
X014937Y025147D02*
X014881Y024720D01*
X014491Y024771D01*
X014547Y025198D01*
X014937Y025147D01*
G37*
G36*
X015029Y025849D02*
X014973Y025422D01*
X014583Y025473D01*
X014639Y025900D01*
X015029Y025849D01*
G37*
G36*
X017978Y024277D02*
X017813Y023879D01*
X017450Y024029D01*
X017615Y024427D01*
X017978Y024277D01*
G37*
G36*
X018250Y024931D02*
X018085Y024533D01*
X017722Y024683D01*
X017887Y025081D01*
X018250Y024931D01*
G37*
G36*
X020691Y022650D02*
X020428Y022308D01*
X020117Y022548D01*
X020380Y022890D01*
X020691Y022650D01*
G37*
G36*
X021123Y023212D02*
X020860Y022870D01*
X020549Y023110D01*
X020812Y023452D01*
X021123Y023212D01*
G37*
G36*
X023452Y020812D02*
X023110Y020549D01*
X022870Y020860D01*
X023212Y021123D01*
X023452Y020812D01*
G37*
G36*
X022890Y020380D02*
X022548Y020117D01*
X022308Y020428D01*
X022650Y020691D01*
X022890Y020380D01*
G37*
G36*
X025081Y017887D02*
X024683Y017722D01*
X024533Y018085D01*
X024931Y018250D01*
X025081Y017887D01*
G37*
G36*
X024427Y017615D02*
X024029Y017450D01*
X023879Y017813D01*
X024277Y017978D01*
X024427Y017615D01*
G37*
G36*
X025900Y014639D02*
X025473Y014583D01*
X025422Y014973D01*
X025849Y015029D01*
X025900Y014639D01*
G37*
G36*
X025198Y014547D02*
X024771Y014491D01*
X024720Y014881D01*
X025147Y014937D01*
X025198Y014547D01*
G37*
G36*
X025147Y011383D02*
X024720Y011439D01*
X024771Y011829D01*
X025198Y011773D01*
X025147Y011383D01*
G37*
G36*
X025849Y011291D02*
X025422Y011347D01*
X025473Y011737D01*
X025900Y011681D01*
X025849Y011291D01*
G37*
G36*
X024277Y008342D02*
X023879Y008507D01*
X024029Y008870D01*
X024427Y008705D01*
X024277Y008342D01*
G37*
G36*
X024931Y008070D02*
X024533Y008235D01*
X024683Y008598D01*
X025081Y008433D01*
X024931Y008070D01*
G37*
X011714Y016760D03*
X011714Y017360D03*
X011714Y017960D03*
X011714Y018560D03*
X011006Y018560D03*
X011006Y017960D03*
X011006Y017360D03*
X011006Y016760D03*
X010464Y019360D03*
X009756Y019360D03*
X006414Y019110D03*
X006414Y018510D03*
X006414Y017910D03*
X006414Y017310D03*
X005706Y017310D03*
X005706Y017910D03*
X005706Y018510D03*
X005706Y019110D03*
D24*
G36*
X003709Y004434D02*
X003209Y004934D01*
X003515Y005240D01*
X004015Y004740D01*
X003709Y004434D01*
G37*
G36*
X004934Y003209D02*
X004434Y003709D01*
X004740Y004015D01*
X005240Y003515D01*
X004934Y003209D01*
G37*
G36*
X006293Y002294D02*
X005681Y002648D01*
X005897Y003022D01*
X006509Y002668D01*
X006293Y002294D01*
G37*
G36*
X007793Y001427D02*
X007181Y001781D01*
X007397Y002155D01*
X008009Y001801D01*
X007793Y001427D01*
G37*
G36*
X009336Y000886D02*
X008653Y001069D01*
X008764Y001486D01*
X009447Y001303D01*
X009336Y000886D01*
G37*
G36*
X011010Y000437D02*
X010327Y000620D01*
X010438Y001037D01*
X011121Y000854D01*
X011010Y000437D01*
G37*
X012294Y000530D03*
X012294Y001790D03*
G36*
X011336Y001654D02*
X010653Y001837D01*
X010764Y002254D01*
X011447Y002071D01*
X011336Y001654D01*
G37*
G36*
X009662Y002103D02*
X008979Y002286D01*
X009090Y002703D01*
X009773Y002520D01*
X009662Y002103D01*
G37*
G36*
X008423Y002518D02*
X007811Y002872D01*
X008027Y003246D01*
X008639Y002892D01*
X008423Y002518D01*
G37*
G36*
X006923Y003385D02*
X006311Y003739D01*
X006527Y004113D01*
X007139Y003759D01*
X006923Y003385D01*
G37*
G36*
X005825Y004100D02*
X005325Y004600D01*
X005631Y004906D01*
X006131Y004406D01*
X005825Y004100D01*
G37*
G36*
X004600Y005325D02*
X004100Y005825D01*
X004406Y006131D01*
X004906Y005631D01*
X004600Y005325D01*
G37*
G36*
X003739Y006311D02*
X003385Y006923D01*
X003759Y007139D01*
X004113Y006527D01*
X003739Y006311D01*
G37*
G36*
X002648Y005681D02*
X002294Y006293D01*
X002668Y006509D01*
X003022Y005897D01*
X002648Y005681D01*
G37*
G36*
X001781Y007181D02*
X001427Y007793D01*
X001801Y008009D01*
X002155Y007397D01*
X001781Y007181D01*
G37*
G36*
X002872Y007811D02*
X002518Y008423D01*
X002892Y008639D01*
X003246Y008027D01*
X002872Y007811D01*
G37*
G36*
X002286Y008979D02*
X002103Y009662D01*
X002520Y009773D01*
X002703Y009090D01*
X002286Y008979D01*
G37*
G36*
X001069Y008653D02*
X000886Y009336D01*
X001303Y009447D01*
X001486Y008764D01*
X001069Y008653D01*
G37*
G36*
X000620Y010327D02*
X000437Y011010D01*
X000854Y011121D01*
X001037Y010438D01*
X000620Y010327D01*
G37*
G36*
X001837Y010653D02*
X001654Y011336D01*
X002071Y011447D01*
X002254Y010764D01*
X001837Y010653D01*
G37*
G36*
X001654Y014984D02*
X001837Y015667D01*
X002254Y015556D01*
X002071Y014873D01*
X001654Y014984D01*
G37*
G36*
X000437Y015310D02*
X000620Y015993D01*
X001037Y015882D01*
X000854Y015199D01*
X000437Y015310D01*
G37*
G36*
X000886Y016984D02*
X001069Y017667D01*
X001486Y017556D01*
X001303Y016873D01*
X000886Y016984D01*
G37*
G36*
X002103Y016658D02*
X002286Y017341D01*
X002703Y017230D01*
X002520Y016547D01*
X002103Y016658D01*
G37*
G36*
X002518Y017897D02*
X002872Y018509D01*
X003246Y018293D01*
X002892Y017681D01*
X002518Y017897D01*
G37*
G36*
X001427Y018527D02*
X001781Y019139D01*
X002155Y018923D01*
X001801Y018311D01*
X001427Y018527D01*
G37*
G36*
X002294Y020027D02*
X002648Y020639D01*
X003022Y020423D01*
X002668Y019811D01*
X002294Y020027D01*
G37*
G36*
X003209Y021386D02*
X003709Y021886D01*
X004015Y021580D01*
X003515Y021080D01*
X003209Y021386D01*
G37*
G36*
X004100Y020495D02*
X004600Y020995D01*
X004906Y020689D01*
X004406Y020189D01*
X004100Y020495D01*
G37*
G36*
X003385Y019397D02*
X003739Y020009D01*
X004113Y019793D01*
X003759Y019181D01*
X003385Y019397D01*
G37*
G36*
X005325Y021720D02*
X005825Y022220D01*
X006131Y021914D01*
X005631Y021414D01*
X005325Y021720D01*
G37*
G36*
X004434Y022611D02*
X004934Y023111D01*
X005240Y022805D01*
X004740Y022305D01*
X004434Y022611D01*
G37*
G36*
X005681Y023672D02*
X006293Y024026D01*
X006509Y023652D01*
X005897Y023298D01*
X005681Y023672D01*
G37*
G36*
X006311Y022581D02*
X006923Y022935D01*
X007139Y022561D01*
X006527Y022207D01*
X006311Y022581D01*
G37*
G36*
X007811Y023448D02*
X008423Y023802D01*
X008639Y023428D01*
X008027Y023074D01*
X007811Y023448D01*
G37*
G36*
X007181Y024539D02*
X007793Y024893D01*
X008009Y024519D01*
X007397Y024165D01*
X007181Y024539D01*
G37*
G36*
X008653Y025251D02*
X009336Y025434D01*
X009447Y025017D01*
X008764Y024834D01*
X008653Y025251D01*
G37*
G36*
X008979Y024034D02*
X009662Y024217D01*
X009773Y023800D01*
X009090Y023617D01*
X008979Y024034D01*
G37*
G36*
X010327Y025700D02*
X011010Y025883D01*
X011121Y025466D01*
X010438Y025283D01*
X010327Y025700D01*
G37*
G36*
X010653Y024483D02*
X011336Y024666D01*
X011447Y024249D01*
X010764Y024066D01*
X010653Y024483D01*
G37*
X012294Y024530D03*
X012294Y025790D03*
X014026Y025790D03*
X014026Y024530D03*
G36*
X014984Y024666D02*
X015667Y024483D01*
X015556Y024066D01*
X014873Y024249D01*
X014984Y024666D01*
G37*
G36*
X015310Y025883D02*
X015993Y025700D01*
X015882Y025283D01*
X015199Y025466D01*
X015310Y025883D01*
G37*
G36*
X016984Y025434D02*
X017667Y025251D01*
X017556Y024834D01*
X016873Y025017D01*
X016984Y025434D01*
G37*
G36*
X016658Y024217D02*
X017341Y024034D01*
X017230Y023617D01*
X016547Y023800D01*
X016658Y024217D01*
G37*
G36*
X017897Y023802D02*
X018509Y023448D01*
X018293Y023074D01*
X017681Y023428D01*
X017897Y023802D01*
G37*
G36*
X018527Y024893D02*
X019139Y024539D01*
X018923Y024165D01*
X018311Y024519D01*
X018527Y024893D01*
G37*
G36*
X020027Y024026D02*
X020639Y023672D01*
X020423Y023298D01*
X019811Y023652D01*
X020027Y024026D01*
G37*
G36*
X021386Y023111D02*
X021886Y022611D01*
X021580Y022305D01*
X021080Y022805D01*
X021386Y023111D01*
G37*
G36*
X020495Y022220D02*
X020995Y021720D01*
X020689Y021414D01*
X020189Y021914D01*
X020495Y022220D01*
G37*
G36*
X019397Y022935D02*
X020009Y022581D01*
X019793Y022207D01*
X019181Y022561D01*
X019397Y022935D01*
G37*
G36*
X021720Y020995D02*
X022220Y020495D01*
X021914Y020189D01*
X021414Y020689D01*
X021720Y020995D01*
G37*
G36*
X022611Y021886D02*
X023111Y021386D01*
X022805Y021080D01*
X022305Y021580D01*
X022611Y021886D01*
G37*
G36*
X023672Y020639D02*
X024026Y020027D01*
X023652Y019811D01*
X023298Y020423D01*
X023672Y020639D01*
G37*
G36*
X022581Y020009D02*
X022935Y019397D01*
X022561Y019181D01*
X022207Y019793D01*
X022581Y020009D01*
G37*
G36*
X023448Y018509D02*
X023802Y017897D01*
X023428Y017681D01*
X023074Y018293D01*
X023448Y018509D01*
G37*
G36*
X024539Y019139D02*
X024893Y018527D01*
X024519Y018311D01*
X024165Y018923D01*
X024539Y019139D01*
G37*
G36*
X025251Y017667D02*
X025434Y016984D01*
X025017Y016873D01*
X024834Y017556D01*
X025251Y017667D01*
G37*
G36*
X024034Y017341D02*
X024217Y016658D01*
X023800Y016547D01*
X023617Y017230D01*
X024034Y017341D01*
G37*
G36*
X025700Y015993D02*
X025883Y015310D01*
X025466Y015199D01*
X025283Y015882D01*
X025700Y015993D01*
G37*
G36*
X024483Y015667D02*
X024666Y014984D01*
X024249Y014873D01*
X024066Y015556D01*
X024483Y015667D01*
G37*
G36*
X024666Y011336D02*
X024483Y010653D01*
X024066Y010764D01*
X024249Y011447D01*
X024666Y011336D01*
G37*
G36*
X025883Y011010D02*
X025700Y010327D01*
X025283Y010438D01*
X025466Y011121D01*
X025883Y011010D01*
G37*
G36*
X025434Y009336D02*
X025251Y008653D01*
X024834Y008764D01*
X025017Y009447D01*
X025434Y009336D01*
G37*
G36*
X024217Y009662D02*
X024034Y008979D01*
X023617Y009090D01*
X023800Y009773D01*
X024217Y009662D01*
G37*
G36*
X023802Y008423D02*
X023448Y007811D01*
X023074Y008027D01*
X023428Y008639D01*
X023802Y008423D01*
G37*
G36*
X024893Y007793D02*
X024539Y007181D01*
X024165Y007397D01*
X024519Y008009D01*
X024893Y007793D01*
G37*
G36*
X024026Y006293D02*
X023672Y005681D01*
X023298Y005897D01*
X023652Y006509D01*
X024026Y006293D01*
G37*
G36*
X023111Y004934D02*
X022611Y004434D01*
X022305Y004740D01*
X022805Y005240D01*
X023111Y004934D01*
G37*
G36*
X022220Y005825D02*
X021720Y005325D01*
X021414Y005631D01*
X021914Y006131D01*
X022220Y005825D01*
G37*
G36*
X022935Y006923D02*
X022581Y006311D01*
X022207Y006527D01*
X022561Y007139D01*
X022935Y006923D01*
G37*
G36*
X020995Y004600D02*
X020495Y004100D01*
X020189Y004406D01*
X020689Y004906D01*
X020995Y004600D01*
G37*
G36*
X021886Y003709D02*
X021386Y003209D01*
X021080Y003515D01*
X021580Y004015D01*
X021886Y003709D01*
G37*
G36*
X020639Y002648D02*
X020027Y002294D01*
X019811Y002668D01*
X020423Y003022D01*
X020639Y002648D01*
G37*
G36*
X020009Y003739D02*
X019397Y003385D01*
X019181Y003759D01*
X019793Y004113D01*
X020009Y003739D01*
G37*
G36*
X018509Y002872D02*
X017897Y002518D01*
X017681Y002892D01*
X018293Y003246D01*
X018509Y002872D01*
G37*
G36*
X019139Y001781D02*
X018527Y001427D01*
X018311Y001801D01*
X018923Y002155D01*
X019139Y001781D01*
G37*
G36*
X017667Y001069D02*
X016984Y000886D01*
X016873Y001303D01*
X017556Y001486D01*
X017667Y001069D01*
G37*
G36*
X017341Y002286D02*
X016658Y002103D01*
X016547Y002520D01*
X017230Y002703D01*
X017341Y002286D01*
G37*
G36*
X015993Y000620D02*
X015310Y000437D01*
X015199Y000854D01*
X015882Y001037D01*
X015993Y000620D01*
G37*
G36*
X015667Y001837D02*
X014984Y001654D01*
X014873Y002071D01*
X015556Y002254D01*
X015667Y001837D01*
G37*
X014026Y001790D03*
X014026Y000530D03*
D25*
X024530Y012294D03*
X025790Y012294D03*
X025790Y014026D03*
X024530Y014026D03*
X001790Y014026D03*
X000530Y014026D03*
X000530Y012294D03*
X001790Y012294D03*
D26*
X008329Y016710D03*
X008526Y016710D03*
X008723Y016710D03*
X008919Y016710D03*
X009116Y016710D03*
X009116Y018285D03*
X008919Y018285D03*
X008723Y018285D03*
X008526Y018285D03*
X008329Y018285D03*
D27*
X007935Y017891D03*
X007935Y017694D03*
X007935Y017497D03*
X007935Y017301D03*
X007935Y017104D03*
X009510Y017104D03*
X009510Y017301D03*
X009510Y017497D03*
X009510Y017694D03*
X009510Y017891D03*
D28*
X008723Y017497D03*
D29*
X019571Y010801D03*
X022249Y010801D03*
D30*
X010455Y018510D03*
X010455Y018910D03*
X009865Y018910D03*
X009865Y018510D03*
D31*
X017060Y012811D03*
X017060Y011709D03*
D32*
X007860Y015493D03*
X007860Y015927D03*
M02*
