G75*
%MOIN*%
%OFA0B0*%
%FSLAX24Y24*%
%IPPOS*%
%LPD*%
%AMOC8*
5,1,8,0,0,1.08239X$1,22.5*
%
%ADD10C,0.0010*%
%ADD11C,0.0050*%
%ADD12C,0.0472*%
%ADD13C,0.0787*%
%ADD14C,0.0000*%
%ADD15C,0.0120*%
%ADD16C,0.0350*%
%ADD17C,0.0160*%
%ADD18C,0.0400*%
%ADD19C,0.0100*%
D10*
X000160Y013160D02*
X000164Y013479D01*
X000176Y013798D01*
X000195Y014116D01*
X000223Y014434D01*
X000258Y014751D01*
X000301Y015067D01*
X000351Y015383D01*
X000410Y015696D01*
X000476Y016008D01*
X000550Y016319D01*
X000631Y016627D01*
X000720Y016934D01*
X000816Y017238D01*
X000920Y017540D01*
X001031Y017839D01*
X001150Y018135D01*
X001275Y018428D01*
X001408Y018718D01*
X001548Y019005D01*
X001695Y019288D01*
X001849Y019568D01*
X002010Y019843D01*
X002177Y020115D01*
X002351Y020382D01*
X002531Y020646D01*
X002718Y020904D01*
X002911Y021158D01*
X003111Y021407D01*
X003316Y021651D01*
X003528Y021890D01*
X003745Y022124D01*
X003968Y022352D01*
X004196Y022575D01*
X004430Y022792D01*
X004669Y023004D01*
X004913Y023209D01*
X005162Y023409D01*
X005416Y023602D01*
X005674Y023789D01*
X005938Y023969D01*
X006205Y024143D01*
X006477Y024310D01*
X006752Y024471D01*
X007032Y024625D01*
X007315Y024772D01*
X007602Y024912D01*
X007892Y025045D01*
X008185Y025170D01*
X008481Y025289D01*
X008780Y025400D01*
X009082Y025504D01*
X009386Y025600D01*
X009693Y025689D01*
X010001Y025770D01*
X010312Y025844D01*
X010624Y025910D01*
X010937Y025969D01*
X011253Y026019D01*
X011569Y026062D01*
X011886Y026097D01*
X012204Y026125D01*
X012522Y026144D01*
X012841Y026156D01*
X013160Y026160D01*
X013479Y026156D01*
X013798Y026144D01*
X014116Y026125D01*
X014434Y026097D01*
X014751Y026062D01*
X015067Y026019D01*
X015383Y025969D01*
X015696Y025910D01*
X016008Y025844D01*
X016319Y025770D01*
X016627Y025689D01*
X016934Y025600D01*
X017238Y025504D01*
X017540Y025400D01*
X017839Y025289D01*
X018135Y025170D01*
X018428Y025045D01*
X018718Y024912D01*
X019005Y024772D01*
X019288Y024625D01*
X019568Y024471D01*
X019843Y024310D01*
X020115Y024143D01*
X020382Y023969D01*
X020646Y023789D01*
X020904Y023602D01*
X021158Y023409D01*
X021407Y023209D01*
X021651Y023004D01*
X021890Y022792D01*
X022124Y022575D01*
X022352Y022352D01*
X022575Y022124D01*
X022792Y021890D01*
X023004Y021651D01*
X023209Y021407D01*
X023409Y021158D01*
X023602Y020904D01*
X023789Y020646D01*
X023969Y020382D01*
X024143Y020115D01*
X024310Y019843D01*
X024471Y019568D01*
X024625Y019288D01*
X024772Y019005D01*
X024912Y018718D01*
X025045Y018428D01*
X025170Y018135D01*
X025289Y017839D01*
X025400Y017540D01*
X025504Y017238D01*
X025600Y016934D01*
X025689Y016627D01*
X025770Y016319D01*
X025844Y016008D01*
X025910Y015696D01*
X025969Y015383D01*
X026019Y015067D01*
X026062Y014751D01*
X026097Y014434D01*
X026125Y014116D01*
X026144Y013798D01*
X026156Y013479D01*
X026160Y013160D01*
X026156Y012841D01*
X026144Y012522D01*
X026125Y012204D01*
X026097Y011886D01*
X026062Y011569D01*
X026019Y011253D01*
X025969Y010937D01*
X025910Y010624D01*
X025844Y010312D01*
X025770Y010001D01*
X025689Y009693D01*
X025600Y009386D01*
X025504Y009082D01*
X025400Y008780D01*
X025289Y008481D01*
X025170Y008185D01*
X025045Y007892D01*
X024912Y007602D01*
X024772Y007315D01*
X024625Y007032D01*
X024471Y006752D01*
X024310Y006477D01*
X024143Y006205D01*
X023969Y005938D01*
X023789Y005674D01*
X023602Y005416D01*
X023409Y005162D01*
X023209Y004913D01*
X023004Y004669D01*
X022792Y004430D01*
X022575Y004196D01*
X022352Y003968D01*
X022124Y003745D01*
X021890Y003528D01*
X021651Y003316D01*
X021407Y003111D01*
X021158Y002911D01*
X020904Y002718D01*
X020646Y002531D01*
X020382Y002351D01*
X020115Y002177D01*
X019843Y002010D01*
X019568Y001849D01*
X019288Y001695D01*
X019005Y001548D01*
X018718Y001408D01*
X018428Y001275D01*
X018135Y001150D01*
X017839Y001031D01*
X017540Y000920D01*
X017238Y000816D01*
X016934Y000720D01*
X016627Y000631D01*
X016319Y000550D01*
X016008Y000476D01*
X015696Y000410D01*
X015383Y000351D01*
X015067Y000301D01*
X014751Y000258D01*
X014434Y000223D01*
X014116Y000195D01*
X013798Y000176D01*
X013479Y000164D01*
X013160Y000160D01*
X012841Y000164D01*
X012522Y000176D01*
X012204Y000195D01*
X011886Y000223D01*
X011569Y000258D01*
X011253Y000301D01*
X010937Y000351D01*
X010624Y000410D01*
X010312Y000476D01*
X010001Y000550D01*
X009693Y000631D01*
X009386Y000720D01*
X009082Y000816D01*
X008780Y000920D01*
X008481Y001031D01*
X008185Y001150D01*
X007892Y001275D01*
X007602Y001408D01*
X007315Y001548D01*
X007032Y001695D01*
X006752Y001849D01*
X006477Y002010D01*
X006205Y002177D01*
X005938Y002351D01*
X005674Y002531D01*
X005416Y002718D01*
X005162Y002911D01*
X004913Y003111D01*
X004669Y003316D01*
X004430Y003528D01*
X004196Y003745D01*
X003968Y003968D01*
X003745Y004196D01*
X003528Y004430D01*
X003316Y004669D01*
X003111Y004913D01*
X002911Y005162D01*
X002718Y005416D01*
X002531Y005674D01*
X002351Y005938D01*
X002177Y006205D01*
X002010Y006477D01*
X001849Y006752D01*
X001695Y007032D01*
X001548Y007315D01*
X001408Y007602D01*
X001275Y007892D01*
X001150Y008185D01*
X001031Y008481D01*
X000920Y008780D01*
X000816Y009082D01*
X000720Y009386D01*
X000631Y009693D01*
X000550Y010001D01*
X000476Y010312D01*
X000410Y010624D01*
X000351Y010937D01*
X000301Y011253D01*
X000258Y011569D01*
X000223Y011886D01*
X000195Y012204D01*
X000176Y012522D01*
X000164Y012841D01*
X000160Y013160D01*
D11*
X008460Y019010D02*
X008460Y022210D01*
X008462Y022257D01*
X008467Y022304D01*
X008477Y022350D01*
X008489Y022395D01*
X008506Y022440D01*
X008525Y022482D01*
X008548Y022523D01*
X008575Y022563D01*
X008604Y022600D01*
X008636Y022634D01*
X008670Y022666D01*
X008707Y022695D01*
X008747Y022722D01*
X008788Y022745D01*
X008830Y022764D01*
X008875Y022781D01*
X008920Y022793D01*
X008966Y022803D01*
X009013Y022808D01*
X009060Y022810D01*
X017260Y022810D01*
X017307Y022808D01*
X017354Y022803D01*
X017400Y022793D01*
X017445Y022781D01*
X017490Y022764D01*
X017532Y022745D01*
X017573Y022722D01*
X017613Y022695D01*
X017650Y022666D01*
X017684Y022634D01*
X017716Y022600D01*
X017745Y022563D01*
X017772Y022523D01*
X017795Y022482D01*
X017814Y022440D01*
X017831Y022395D01*
X017843Y022350D01*
X017853Y022304D01*
X017858Y022257D01*
X017860Y022210D01*
X017860Y016810D01*
X017862Y016764D01*
X017860Y016719D01*
X017855Y016673D01*
X017846Y016629D01*
X017834Y016585D01*
X017817Y016542D01*
X017798Y016501D01*
X017775Y016462D01*
X017748Y016424D01*
X017719Y016389D01*
X017687Y016357D01*
X017653Y016327D01*
X017616Y016300D01*
X017577Y016277D01*
X017536Y016256D01*
X017493Y016239D01*
X017450Y016226D01*
X017405Y016216D01*
X017360Y016210D01*
X013960Y016210D01*
X013913Y016212D01*
X013866Y016217D01*
X013820Y016227D01*
X013775Y016239D01*
X013730Y016256D01*
X013688Y016275D01*
X013647Y016298D01*
X013607Y016325D01*
X013570Y016354D01*
X013536Y016386D01*
X013504Y016420D01*
X013475Y016457D01*
X013448Y016497D01*
X013425Y016538D01*
X013406Y016580D01*
X013389Y016625D01*
X013377Y016670D01*
X013367Y016716D01*
X013362Y016763D01*
X013360Y016810D01*
X013360Y020260D01*
X013354Y020305D01*
X013344Y020350D01*
X013331Y020393D01*
X013314Y020436D01*
X013293Y020477D01*
X013270Y020516D01*
X013243Y020553D01*
X013213Y020587D01*
X013181Y020619D01*
X013146Y020648D01*
X013108Y020675D01*
X013069Y020698D01*
X013028Y020717D01*
X012985Y020734D01*
X012941Y020746D01*
X012897Y020755D01*
X012851Y020760D01*
X012806Y020762D01*
X012760Y020760D01*
X011010Y020760D01*
X010963Y020758D01*
X010916Y020753D01*
X010870Y020743D01*
X010825Y020731D01*
X010780Y020714D01*
X010738Y020695D01*
X010697Y020672D01*
X010657Y020645D01*
X010620Y020616D01*
X010586Y020584D01*
X010554Y020550D01*
X010525Y020513D01*
X010498Y020473D01*
X010475Y020432D01*
X010456Y020390D01*
X010439Y020345D01*
X010427Y020300D01*
X010417Y020254D01*
X010412Y020207D01*
X010410Y020160D01*
X010410Y018960D01*
X010407Y018915D01*
X010399Y018870D01*
X010389Y018826D01*
X010375Y018783D01*
X010357Y018742D01*
X010336Y018701D01*
X010313Y018663D01*
X010286Y018627D01*
X010256Y018592D01*
X010224Y018560D01*
X010190Y018531D01*
X010153Y018505D01*
X010114Y018481D01*
X010074Y018461D01*
X010032Y018444D01*
X009989Y018430D01*
X009945Y018420D01*
X009900Y018413D01*
X009855Y018409D01*
X009810Y018410D01*
X009060Y018410D01*
X009013Y018412D01*
X008966Y018417D01*
X008920Y018427D01*
X008875Y018439D01*
X008830Y018456D01*
X008788Y018475D01*
X008747Y018498D01*
X008707Y018525D01*
X008670Y018554D01*
X008636Y018586D01*
X008604Y018620D01*
X008575Y018657D01*
X008548Y018697D01*
X008525Y018738D01*
X008506Y018780D01*
X008489Y018825D01*
X008477Y018870D01*
X008467Y018916D01*
X008462Y018963D01*
X008460Y019010D01*
X018910Y014160D02*
X018910Y011910D01*
X018912Y011880D01*
X018917Y011850D01*
X018926Y011821D01*
X018939Y011794D01*
X018954Y011768D01*
X018973Y011744D01*
X018994Y011723D01*
X019018Y011704D01*
X019044Y011689D01*
X019071Y011676D01*
X019100Y011667D01*
X019130Y011662D01*
X019160Y011660D01*
X022760Y011660D01*
X022790Y011662D01*
X022820Y011667D01*
X022849Y011676D01*
X022876Y011689D01*
X022902Y011704D01*
X022926Y011723D01*
X022947Y011744D01*
X022966Y011768D01*
X022981Y011794D01*
X022994Y011821D01*
X023003Y011850D01*
X023008Y011880D01*
X023010Y011910D01*
X023010Y014160D01*
X023008Y014190D01*
X023003Y014220D01*
X022994Y014249D01*
X022981Y014276D01*
X022966Y014302D01*
X022947Y014326D01*
X022926Y014347D01*
X022902Y014366D01*
X022876Y014381D01*
X022849Y014394D01*
X022820Y014403D01*
X022790Y014408D01*
X022760Y014410D01*
X019160Y014410D01*
X019130Y014408D01*
X019100Y014403D01*
X019071Y014394D01*
X019044Y014381D01*
X019018Y014366D01*
X018994Y014347D01*
X018973Y014326D01*
X018954Y014302D01*
X018939Y014276D01*
X018926Y014249D01*
X018917Y014220D01*
X018912Y014190D01*
X018910Y014160D01*
D12*
X016565Y014508D03*
X014655Y014508D03*
D13*
X014189Y015610D03*
X017031Y015610D03*
D14*
X018810Y020660D02*
X018812Y020709D01*
X018818Y020757D01*
X018828Y020805D01*
X018842Y020852D01*
X018859Y020898D01*
X018880Y020942D01*
X018905Y020984D01*
X018933Y021024D01*
X018965Y021062D01*
X018999Y021097D01*
X019036Y021129D01*
X019075Y021158D01*
X019117Y021184D01*
X019161Y021206D01*
X019206Y021224D01*
X019253Y021239D01*
X019300Y021250D01*
X019349Y021257D01*
X019398Y021260D01*
X019447Y021259D01*
X019495Y021254D01*
X019544Y021245D01*
X019591Y021232D01*
X019637Y021215D01*
X019681Y021195D01*
X019724Y021171D01*
X019765Y021144D01*
X019803Y021113D01*
X019839Y021080D01*
X019871Y021044D01*
X019901Y021005D01*
X019928Y020964D01*
X019951Y020920D01*
X019970Y020875D01*
X019986Y020829D01*
X019998Y020782D01*
X020006Y020733D01*
X020010Y020684D01*
X020010Y020636D01*
X020006Y020587D01*
X019998Y020538D01*
X019986Y020491D01*
X019970Y020445D01*
X019951Y020400D01*
X019928Y020356D01*
X019901Y020315D01*
X019871Y020276D01*
X019839Y020240D01*
X019803Y020207D01*
X019765Y020176D01*
X019724Y020149D01*
X019681Y020125D01*
X019637Y020105D01*
X019591Y020088D01*
X019544Y020075D01*
X019495Y020066D01*
X019447Y020061D01*
X019398Y020060D01*
X019349Y020063D01*
X019300Y020070D01*
X019253Y020081D01*
X019206Y020096D01*
X019161Y020114D01*
X019117Y020136D01*
X019075Y020162D01*
X019036Y020191D01*
X018999Y020223D01*
X018965Y020258D01*
X018933Y020296D01*
X018905Y020336D01*
X018880Y020378D01*
X018859Y020422D01*
X018842Y020468D01*
X018828Y020515D01*
X018818Y020563D01*
X018812Y020611D01*
X018810Y020660D01*
X006310Y020660D02*
X006312Y020709D01*
X006318Y020757D01*
X006328Y020805D01*
X006342Y020852D01*
X006359Y020898D01*
X006380Y020942D01*
X006405Y020984D01*
X006433Y021024D01*
X006465Y021062D01*
X006499Y021097D01*
X006536Y021129D01*
X006575Y021158D01*
X006617Y021184D01*
X006661Y021206D01*
X006706Y021224D01*
X006753Y021239D01*
X006800Y021250D01*
X006849Y021257D01*
X006898Y021260D01*
X006947Y021259D01*
X006995Y021254D01*
X007044Y021245D01*
X007091Y021232D01*
X007137Y021215D01*
X007181Y021195D01*
X007224Y021171D01*
X007265Y021144D01*
X007303Y021113D01*
X007339Y021080D01*
X007371Y021044D01*
X007401Y021005D01*
X007428Y020964D01*
X007451Y020920D01*
X007470Y020875D01*
X007486Y020829D01*
X007498Y020782D01*
X007506Y020733D01*
X007510Y020684D01*
X007510Y020636D01*
X007506Y020587D01*
X007498Y020538D01*
X007486Y020491D01*
X007470Y020445D01*
X007451Y020400D01*
X007428Y020356D01*
X007401Y020315D01*
X007371Y020276D01*
X007339Y020240D01*
X007303Y020207D01*
X007265Y020176D01*
X007224Y020149D01*
X007181Y020125D01*
X007137Y020105D01*
X007091Y020088D01*
X007044Y020075D01*
X006995Y020066D01*
X006947Y020061D01*
X006898Y020060D01*
X006849Y020063D01*
X006800Y020070D01*
X006753Y020081D01*
X006706Y020096D01*
X006661Y020114D01*
X006617Y020136D01*
X006575Y020162D01*
X006536Y020191D01*
X006499Y020223D01*
X006465Y020258D01*
X006433Y020296D01*
X006405Y020336D01*
X006380Y020378D01*
X006359Y020422D01*
X006342Y020468D01*
X006328Y020515D01*
X006318Y020563D01*
X006312Y020611D01*
X006310Y020660D01*
X006310Y005660D02*
X006312Y005709D01*
X006318Y005757D01*
X006328Y005805D01*
X006342Y005852D01*
X006359Y005898D01*
X006380Y005942D01*
X006405Y005984D01*
X006433Y006024D01*
X006465Y006062D01*
X006499Y006097D01*
X006536Y006129D01*
X006575Y006158D01*
X006617Y006184D01*
X006661Y006206D01*
X006706Y006224D01*
X006753Y006239D01*
X006800Y006250D01*
X006849Y006257D01*
X006898Y006260D01*
X006947Y006259D01*
X006995Y006254D01*
X007044Y006245D01*
X007091Y006232D01*
X007137Y006215D01*
X007181Y006195D01*
X007224Y006171D01*
X007265Y006144D01*
X007303Y006113D01*
X007339Y006080D01*
X007371Y006044D01*
X007401Y006005D01*
X007428Y005964D01*
X007451Y005920D01*
X007470Y005875D01*
X007486Y005829D01*
X007498Y005782D01*
X007506Y005733D01*
X007510Y005684D01*
X007510Y005636D01*
X007506Y005587D01*
X007498Y005538D01*
X007486Y005491D01*
X007470Y005445D01*
X007451Y005400D01*
X007428Y005356D01*
X007401Y005315D01*
X007371Y005276D01*
X007339Y005240D01*
X007303Y005207D01*
X007265Y005176D01*
X007224Y005149D01*
X007181Y005125D01*
X007137Y005105D01*
X007091Y005088D01*
X007044Y005075D01*
X006995Y005066D01*
X006947Y005061D01*
X006898Y005060D01*
X006849Y005063D01*
X006800Y005070D01*
X006753Y005081D01*
X006706Y005096D01*
X006661Y005114D01*
X006617Y005136D01*
X006575Y005162D01*
X006536Y005191D01*
X006499Y005223D01*
X006465Y005258D01*
X006433Y005296D01*
X006405Y005336D01*
X006380Y005378D01*
X006359Y005422D01*
X006342Y005468D01*
X006328Y005515D01*
X006318Y005563D01*
X006312Y005611D01*
X006310Y005660D01*
X018810Y005660D02*
X018812Y005709D01*
X018818Y005757D01*
X018828Y005805D01*
X018842Y005852D01*
X018859Y005898D01*
X018880Y005942D01*
X018905Y005984D01*
X018933Y006024D01*
X018965Y006062D01*
X018999Y006097D01*
X019036Y006129D01*
X019075Y006158D01*
X019117Y006184D01*
X019161Y006206D01*
X019206Y006224D01*
X019253Y006239D01*
X019300Y006250D01*
X019349Y006257D01*
X019398Y006260D01*
X019447Y006259D01*
X019495Y006254D01*
X019544Y006245D01*
X019591Y006232D01*
X019637Y006215D01*
X019681Y006195D01*
X019724Y006171D01*
X019765Y006144D01*
X019803Y006113D01*
X019839Y006080D01*
X019871Y006044D01*
X019901Y006005D01*
X019928Y005964D01*
X019951Y005920D01*
X019970Y005875D01*
X019986Y005829D01*
X019998Y005782D01*
X020006Y005733D01*
X020010Y005684D01*
X020010Y005636D01*
X020006Y005587D01*
X019998Y005538D01*
X019986Y005491D01*
X019970Y005445D01*
X019951Y005400D01*
X019928Y005356D01*
X019901Y005315D01*
X019871Y005276D01*
X019839Y005240D01*
X019803Y005207D01*
X019765Y005176D01*
X019724Y005149D01*
X019681Y005125D01*
X019637Y005105D01*
X019591Y005088D01*
X019544Y005075D01*
X019495Y005066D01*
X019447Y005061D01*
X019398Y005060D01*
X019349Y005063D01*
X019300Y005070D01*
X019253Y005081D01*
X019206Y005096D01*
X019161Y005114D01*
X019117Y005136D01*
X019075Y005162D01*
X019036Y005191D01*
X018999Y005223D01*
X018965Y005258D01*
X018933Y005296D01*
X018905Y005336D01*
X018880Y005378D01*
X018859Y005422D01*
X018842Y005468D01*
X018828Y005515D01*
X018818Y005563D01*
X018812Y005611D01*
X018810Y005660D01*
D15*
X004916Y004189D02*
X003965Y004189D01*
X003840Y004308D02*
X004760Y004308D01*
X004727Y004332D02*
X006389Y003070D01*
X006389Y003070D01*
X006813Y002747D01*
X006813Y002721D01*
X006861Y002606D01*
X006950Y002517D01*
X007066Y002469D01*
X007191Y002469D01*
X007239Y002489D01*
X009563Y001528D01*
X009768Y001443D01*
X009793Y001382D01*
X009882Y001293D01*
X009997Y001245D01*
X010123Y001245D01*
X010238Y001293D01*
X010255Y001309D01*
X012631Y000964D01*
X012631Y000964D01*
X012864Y000931D01*
X012947Y000848D01*
X013063Y000800D01*
X013188Y000800D01*
X013304Y000848D01*
X013375Y000919D01*
X016052Y001308D01*
X016065Y001309D01*
X016082Y001293D01*
X016197Y001245D01*
X016323Y001245D01*
X016438Y001293D01*
X016527Y001382D01*
X016552Y001443D01*
X018620Y002298D01*
X019036Y002471D01*
X019097Y002445D01*
X019223Y002445D01*
X019338Y002493D01*
X019427Y002582D01*
X019475Y002697D01*
X019475Y002723D01*
X021609Y004345D01*
X021615Y004350D01*
X021623Y004349D01*
X021657Y004378D01*
X021748Y004378D01*
X021863Y004426D01*
X021952Y004515D01*
X022000Y004630D01*
X022000Y004744D01*
X023444Y006644D01*
X023585Y006830D01*
X023611Y006830D01*
X023727Y006878D01*
X023815Y006966D01*
X023863Y007082D01*
X023863Y007207D01*
X023841Y007261D01*
X024841Y009635D01*
X024875Y009717D01*
X024938Y009743D01*
X025027Y009832D01*
X025075Y009947D01*
X025075Y010073D01*
X025027Y010188D01*
X025007Y010209D01*
X025349Y012904D01*
X025427Y012982D01*
X025475Y013097D01*
X025475Y013223D01*
X025427Y013338D01*
X025349Y013417D01*
X025016Y015992D01*
X025019Y015995D01*
X025005Y016082D01*
X025003Y016093D01*
X025017Y016107D01*
X025065Y016222D01*
X025065Y016348D01*
X025017Y016463D01*
X024928Y016552D01*
X024867Y016577D01*
X023866Y018997D01*
X023864Y019001D01*
X023866Y019005D01*
X023836Y019069D01*
X023858Y019120D01*
X023858Y019245D01*
X023810Y019361D01*
X023721Y019450D01*
X023605Y019498D01*
X023580Y019498D01*
X022175Y021345D01*
X022175Y021345D01*
X022088Y021460D01*
X021993Y021585D01*
X021993Y021699D01*
X021945Y021814D01*
X021857Y021903D01*
X021741Y021951D01*
X021666Y021951D01*
X020745Y022784D01*
X020744Y022791D01*
X020678Y022844D01*
X020615Y022901D01*
X020608Y022901D01*
X019575Y023738D01*
X019575Y023773D01*
X019527Y023888D01*
X019438Y023977D01*
X019323Y024025D01*
X019197Y024025D01*
X019119Y023992D01*
X016546Y024893D01*
X016527Y024938D01*
X016438Y025027D01*
X016323Y025075D01*
X016197Y025075D01*
X016082Y025027D01*
X015993Y024938D01*
X015945Y024823D01*
X015945Y024697D01*
X015993Y024582D01*
X016000Y024575D01*
X015997Y024575D01*
X015882Y024527D01*
X015793Y024438D01*
X015745Y024323D01*
X015745Y024197D01*
X015793Y024082D01*
X015882Y023993D01*
X015997Y023945D01*
X016123Y023945D01*
X016196Y023975D01*
X018445Y022809D01*
X018445Y022797D01*
X018493Y022682D01*
X018582Y022593D01*
X018697Y022545D01*
X018823Y022545D01*
X018938Y022593D01*
X019027Y022682D01*
X019075Y022797D01*
X019075Y022820D01*
X020448Y021230D01*
X020445Y021223D01*
X020445Y021097D01*
X020493Y020982D01*
X020582Y020893D01*
X020697Y020845D01*
X020823Y020845D01*
X020938Y020893D01*
X021027Y020982D01*
X021075Y021097D01*
X021075Y021154D01*
X021097Y021145D01*
X021115Y021145D01*
X022373Y018840D01*
X022345Y018773D01*
X022345Y018647D01*
X022393Y018532D01*
X022482Y018443D01*
X022597Y018395D01*
X022723Y018395D01*
X022838Y018443D01*
X022927Y018532D01*
X022942Y018569D01*
X023562Y016207D01*
X023543Y016188D01*
X023495Y016073D01*
X023495Y015947D01*
X023543Y015832D01*
X023632Y015743D01*
X023747Y015695D01*
X023873Y015695D01*
X023988Y015743D01*
X024063Y015817D01*
X024024Y013420D01*
X023943Y013338D01*
X023895Y013223D01*
X023895Y013097D01*
X023943Y012982D01*
X024032Y012893D01*
X024147Y012845D01*
X024273Y012845D01*
X024322Y012866D01*
X023696Y010654D01*
X023632Y010627D01*
X023543Y010538D01*
X023495Y010423D01*
X023495Y010297D01*
X023543Y010182D01*
X023632Y010093D01*
X023747Y010045D01*
X023873Y010045D01*
X023914Y010062D01*
X022775Y008125D01*
X022747Y008125D01*
X022632Y008077D01*
X022543Y007988D01*
X022495Y007873D01*
X022495Y007747D01*
X022543Y007632D01*
X022632Y007543D01*
X022747Y007495D01*
X022865Y007495D01*
X021014Y005725D01*
X020897Y005725D01*
X020782Y005677D01*
X020693Y005588D01*
X020645Y005473D01*
X020645Y005347D01*
X020693Y005232D01*
X020782Y005143D01*
X020897Y005095D01*
X020943Y005095D01*
X018740Y003897D01*
X018673Y003925D01*
X018547Y003925D01*
X018432Y003877D01*
X018343Y003788D01*
X018295Y003673D01*
X018295Y003547D01*
X018343Y003432D01*
X018431Y003344D01*
X016158Y002757D01*
X016138Y002777D01*
X016023Y002825D01*
X015897Y002825D01*
X015782Y002777D01*
X015693Y002688D01*
X015645Y002573D01*
X015645Y002447D01*
X015693Y002332D01*
X015715Y002309D01*
X013420Y002346D01*
X013338Y002427D01*
X013223Y002475D01*
X013097Y002475D01*
X012982Y002427D01*
X012893Y002338D01*
X012845Y002223D01*
X012845Y002097D01*
X012893Y001982D01*
X012918Y001956D01*
X010604Y002623D01*
X010577Y002688D01*
X010488Y002777D01*
X010373Y002825D01*
X010247Y002825D01*
X010132Y002777D01*
X010043Y002688D01*
X009995Y002573D01*
X009995Y002447D01*
X010009Y002414D01*
X007975Y003642D01*
X007975Y003673D01*
X007927Y003788D01*
X007838Y003877D01*
X007723Y003925D01*
X007597Y003925D01*
X007482Y003877D01*
X007393Y003788D01*
X007345Y003673D01*
X007345Y003547D01*
X007367Y003494D01*
X005725Y005297D01*
X005725Y005423D01*
X005677Y005538D01*
X005588Y005627D01*
X005473Y005675D01*
X005347Y005675D01*
X005232Y005627D01*
X005143Y005538D01*
X005095Y005423D01*
X005095Y005334D01*
X003897Y007530D01*
X003925Y007597D01*
X003925Y007723D01*
X003877Y007838D01*
X003788Y007927D01*
X003673Y007975D01*
X003547Y007975D01*
X003432Y007927D01*
X003343Y007838D01*
X003304Y007744D01*
X003304Y007744D01*
X002752Y010107D01*
X002777Y010132D01*
X002825Y010247D01*
X002825Y010373D01*
X002777Y010488D01*
X002688Y010577D01*
X002573Y010625D01*
X002447Y010625D01*
X002332Y010577D01*
X002243Y010488D01*
X002216Y010423D01*
X002337Y012842D01*
X002338Y012843D01*
X002427Y012932D01*
X002475Y013047D01*
X002475Y013173D01*
X002427Y013288D01*
X002338Y013377D01*
X002223Y013425D01*
X002097Y013425D01*
X001982Y013377D01*
X001893Y013288D01*
X001889Y013279D01*
X002620Y015714D01*
X002688Y015743D01*
X002777Y015832D01*
X002825Y015947D01*
X002825Y016073D01*
X002777Y016188D01*
X002688Y016277D01*
X002573Y016325D01*
X002447Y016325D01*
X002414Y016311D01*
X003642Y018345D01*
X003673Y018345D01*
X003788Y018393D01*
X003877Y018482D01*
X003925Y018597D01*
X003925Y018723D01*
X003877Y018838D01*
X003788Y018927D01*
X003673Y018975D01*
X003560Y018975D01*
X005255Y020595D01*
X005373Y020595D01*
X005488Y020643D01*
X005577Y020732D01*
X005625Y020847D01*
X005625Y020973D01*
X005577Y021088D01*
X005488Y021177D01*
X005373Y021225D01*
X005357Y021225D01*
X007536Y022470D01*
X007597Y022445D01*
X007723Y022445D01*
X007838Y022493D01*
X007927Y022582D01*
X007975Y022697D01*
X007975Y022823D01*
X007927Y022938D01*
X007838Y023027D01*
X007806Y023040D01*
X010106Y023568D01*
X010132Y023543D01*
X010247Y023495D01*
X010373Y023495D01*
X010488Y023543D01*
X010577Y023632D01*
X010625Y023747D01*
X010625Y023873D01*
X010577Y023988D01*
X010488Y024077D01*
X010427Y024102D01*
X012943Y023983D01*
X012943Y023982D01*
X013032Y023893D01*
X013147Y023845D01*
X013273Y023845D01*
X013388Y023893D01*
X013477Y023982D01*
X013525Y024097D01*
X015787Y024097D01*
X015745Y024216D02*
X013525Y024216D01*
X013525Y024223D02*
X013477Y024338D01*
X013388Y024427D01*
X013273Y024475D01*
X013147Y024475D01*
X013032Y024427D01*
X012966Y024362D01*
X010327Y024487D01*
X010327Y024488D01*
X010263Y024553D01*
X010285Y024575D01*
X010500Y024597D01*
X010502Y024595D01*
X010590Y024607D01*
X010678Y024616D01*
X010680Y024618D01*
X012962Y024913D01*
X012982Y024893D01*
X013097Y024845D01*
X013223Y024845D01*
X013338Y024893D01*
X013427Y024982D01*
X013475Y025097D01*
X013475Y025223D01*
X013427Y025338D01*
X013338Y025427D01*
X013223Y025475D01*
X013097Y025475D01*
X012982Y025427D01*
X012903Y025349D01*
X010539Y025044D01*
X010238Y025012D01*
X010213Y025037D01*
X010097Y025085D01*
X009972Y025085D01*
X009856Y025037D01*
X009768Y024948D01*
X009732Y024862D01*
X007409Y023901D01*
X007284Y023849D01*
X007223Y023875D01*
X007097Y023875D01*
X006982Y023827D01*
X006893Y023738D01*
X006845Y023623D01*
X005713Y023623D01*
X005557Y023505D02*
X006723Y023505D01*
X006845Y023597D02*
X004711Y021975D01*
X004597Y021975D01*
X004482Y021927D01*
X004393Y021838D01*
X004345Y021723D01*
X004345Y021609D01*
X002997Y019836D01*
X002723Y019475D01*
X002697Y019475D01*
X002582Y019427D01*
X002493Y019338D01*
X002445Y019223D01*
X002445Y019097D01*
X002471Y019036D01*
X001471Y016619D01*
X001443Y016552D01*
X001382Y016527D01*
X001293Y016438D01*
X001245Y016323D01*
X001245Y016197D01*
X001293Y016082D01*
X001313Y016062D01*
X000983Y013504D01*
X000971Y013417D01*
X000893Y013338D01*
X000845Y013223D01*
X000845Y013097D01*
X000893Y012982D01*
X000971Y012903D01*
X001313Y010258D01*
X001293Y010238D01*
X001245Y010123D01*
X001245Y009997D01*
X001293Y009882D01*
X001382Y009793D01*
X001443Y009768D01*
X002467Y007294D01*
X002465Y007289D01*
X002483Y007250D01*
X002462Y007200D01*
X002462Y007075D01*
X002510Y006959D01*
X002599Y006870D01*
X002715Y006822D01*
X002740Y006822D01*
X004304Y004764D01*
X004304Y004761D01*
X004359Y004692D01*
X004361Y004689D01*
X004361Y004585D01*
X004409Y004469D01*
X004498Y004380D01*
X004614Y004332D01*
X004727Y004332D01*
X004452Y004426D02*
X003737Y004426D01*
X003827Y004320D02*
X002926Y005380D01*
X002145Y006533D01*
X001493Y007762D01*
X000978Y009055D01*
X000606Y010397D01*
X000380Y011770D01*
X000305Y013160D01*
X000380Y014550D01*
X000606Y015923D01*
X000978Y017265D01*
X001493Y018558D01*
X002145Y019787D01*
X002926Y020940D01*
X003827Y022000D01*
X004838Y022958D01*
X005946Y023800D01*
X007139Y024518D01*
X008402Y025102D01*
X009721Y025546D01*
X011080Y025846D01*
X012464Y025996D01*
X013856Y025996D01*
X015240Y025846D01*
X016599Y025546D01*
X017918Y025102D01*
X019181Y024518D01*
X020374Y023800D01*
X021482Y022958D01*
X022493Y022000D01*
X023394Y020940D01*
X024175Y019787D01*
X024827Y018558D01*
X025342Y017265D01*
X025714Y015923D01*
X025940Y014550D01*
X026015Y013160D01*
X025940Y011770D01*
X025940Y011770D01*
X025714Y010397D01*
X025342Y009055D01*
X024827Y007762D01*
X024175Y006533D01*
X023394Y005380D01*
X022493Y004320D01*
X022493Y004320D01*
X021482Y003362D01*
X020374Y002520D01*
X019181Y001802D01*
X017918Y001218D01*
X016599Y000774D01*
X015240Y000474D01*
X013856Y000324D01*
X012464Y000324D01*
X011080Y000474D01*
X009721Y000774D01*
X008402Y001218D01*
X007139Y001802D01*
X005946Y002520D01*
X004838Y003362D01*
X003827Y004320D01*
X003636Y004545D02*
X004378Y004545D01*
X004361Y004663D02*
X003536Y004663D01*
X003435Y004782D02*
X004291Y004782D01*
X004201Y004900D02*
X003334Y004900D01*
X003234Y005019D02*
X004111Y005019D01*
X004021Y005137D02*
X003133Y005137D01*
X003032Y005256D02*
X003931Y005256D01*
X003841Y005374D02*
X002932Y005374D01*
X002850Y005493D02*
X003751Y005493D01*
X003661Y005611D02*
X002770Y005611D01*
X002690Y005730D02*
X003571Y005730D01*
X003481Y005848D02*
X002609Y005848D01*
X002529Y005967D02*
X003391Y005967D01*
X003301Y006085D02*
X002449Y006085D01*
X002368Y006204D02*
X003211Y006204D01*
X003121Y006322D02*
X002288Y006322D01*
X002208Y006441D02*
X003030Y006441D01*
X002940Y006559D02*
X002131Y006559D01*
X002068Y006678D02*
X002850Y006678D01*
X002760Y006796D02*
X002005Y006796D01*
X001943Y006915D02*
X002555Y006915D01*
X002480Y007033D02*
X001880Y007033D01*
X001817Y007152D02*
X002462Y007152D01*
X002473Y007270D02*
X001754Y007270D01*
X001691Y007389D02*
X002427Y007389D01*
X002378Y007507D02*
X001628Y007507D01*
X001566Y007626D02*
X002329Y007626D01*
X002280Y007744D02*
X001503Y007744D01*
X001453Y007863D02*
X002231Y007863D01*
X002182Y007981D02*
X001406Y007981D01*
X001359Y008100D02*
X002133Y008100D01*
X002084Y008218D02*
X001312Y008218D01*
X001264Y008337D02*
X002035Y008337D01*
X001986Y008455D02*
X001217Y008455D01*
X001170Y008574D02*
X001937Y008574D01*
X001888Y008692D02*
X001123Y008692D01*
X001075Y008811D02*
X001839Y008811D01*
X001790Y008929D02*
X001028Y008929D01*
X000981Y009048D02*
X001741Y009048D01*
X001692Y009166D02*
X000947Y009166D01*
X000914Y009285D02*
X001643Y009285D01*
X001594Y009403D02*
X000881Y009403D01*
X000848Y009522D02*
X001545Y009522D01*
X001496Y009640D02*
X000816Y009640D01*
X000783Y009759D02*
X001447Y009759D01*
X001298Y009877D02*
X000750Y009877D01*
X000717Y009996D02*
X001246Y009996D01*
X001245Y010114D02*
X000684Y010114D01*
X000651Y010233D02*
X001291Y010233D01*
X001301Y010351D02*
X000618Y010351D01*
X000594Y010470D02*
X001285Y010470D01*
X001270Y010588D02*
X000574Y010588D01*
X000555Y010707D02*
X001255Y010707D01*
X001239Y010825D02*
X000535Y010825D01*
X000516Y010944D02*
X001224Y010944D01*
X001209Y011062D02*
X000496Y011062D01*
X000477Y011181D02*
X001194Y011181D01*
X001178Y011299D02*
X000458Y011299D01*
X000438Y011418D02*
X001163Y011418D01*
X001148Y011536D02*
X000419Y011536D01*
X000399Y011655D02*
X001132Y011655D01*
X001117Y011773D02*
X000380Y011773D01*
X000374Y011892D02*
X001102Y011892D01*
X001087Y012010D02*
X000367Y012010D01*
X000361Y012129D02*
X001071Y012129D01*
X001056Y012247D02*
X000354Y012247D01*
X000348Y012366D02*
X001041Y012366D01*
X001025Y012484D02*
X000342Y012484D01*
X000335Y012603D02*
X001010Y012603D01*
X000995Y012721D02*
X000329Y012721D01*
X000322Y012840D02*
X000980Y012840D01*
X000916Y012958D02*
X000316Y012958D01*
X000310Y013077D02*
X000854Y013077D01*
X000845Y013195D02*
X000307Y013195D01*
X000313Y013314D02*
X000883Y013314D01*
X000973Y013432D02*
X000320Y013432D01*
X000326Y013551D02*
X000989Y013551D01*
X001004Y013669D02*
X000333Y013669D01*
X000339Y013788D02*
X001019Y013788D01*
X001034Y013906D02*
X000345Y013906D01*
X000352Y014025D02*
X001050Y014025D01*
X001065Y014143D02*
X000358Y014143D01*
X000365Y014262D02*
X001080Y014262D01*
X001096Y014380D02*
X000371Y014380D01*
X000378Y014499D02*
X001111Y014499D01*
X001126Y014617D02*
X000391Y014617D01*
X000411Y014736D02*
X001141Y014736D01*
X001157Y014854D02*
X000430Y014854D01*
X000450Y014973D02*
X001172Y014973D01*
X001187Y015091D02*
X000469Y015091D01*
X000489Y015210D02*
X001203Y015210D01*
X001218Y015328D02*
X000508Y015328D01*
X000527Y015447D02*
X001233Y015447D01*
X001249Y015565D02*
X000547Y015565D01*
X000566Y015684D02*
X001264Y015684D01*
X001279Y015802D02*
X000586Y015802D01*
X000605Y015921D02*
X001294Y015921D01*
X001310Y016039D02*
X000638Y016039D01*
X000671Y016158D02*
X001261Y016158D01*
X001245Y016276D02*
X000703Y016276D01*
X000736Y016395D02*
X001275Y016395D01*
X001368Y016513D02*
X000769Y016513D01*
X000802Y016632D02*
X001476Y016632D01*
X001525Y016750D02*
X000835Y016750D01*
X000868Y016869D02*
X001574Y016869D01*
X001623Y016987D02*
X000901Y016987D01*
X000934Y017106D02*
X001672Y017106D01*
X001721Y017224D02*
X000967Y017224D01*
X001009Y017343D02*
X001770Y017343D01*
X001819Y017461D02*
X001056Y017461D01*
X001103Y017580D02*
X001868Y017580D01*
X001917Y017698D02*
X001151Y017698D01*
X001198Y017817D02*
X001966Y017817D01*
X002015Y017935D02*
X001245Y017935D01*
X001292Y018054D02*
X002064Y018054D01*
X002113Y018172D02*
X001339Y018172D01*
X001387Y018291D02*
X002162Y018291D01*
X002211Y018409D02*
X001434Y018409D01*
X001481Y018528D02*
X002260Y018528D01*
X002309Y018646D02*
X001540Y018646D01*
X001603Y018765D02*
X002358Y018765D01*
X002407Y018883D02*
X001666Y018883D01*
X001728Y019002D02*
X002456Y019002D01*
X002445Y019120D02*
X001791Y019120D01*
X001854Y019239D02*
X002452Y019239D01*
X002512Y019357D02*
X001917Y019357D01*
X001980Y019476D02*
X002723Y019476D01*
X002814Y019594D02*
X002043Y019594D01*
X002105Y019713D02*
X002904Y019713D01*
X002994Y019831D02*
X002175Y019831D01*
X002255Y019950D02*
X003084Y019950D01*
X002997Y019836D02*
X002997Y019836D01*
X003174Y020068D02*
X002335Y020068D01*
X002416Y020187D02*
X003264Y020187D01*
X003354Y020305D02*
X002496Y020305D01*
X002576Y020424D02*
X003444Y020424D01*
X003534Y020542D02*
X002657Y020542D01*
X002737Y020661D02*
X003624Y020661D01*
X003714Y020779D02*
X002817Y020779D01*
X002898Y020898D02*
X003804Y020898D01*
X003894Y021016D02*
X002991Y021016D01*
X003092Y021135D02*
X003984Y021135D01*
X004074Y021253D02*
X003193Y021253D01*
X003293Y021372D02*
X004164Y021372D01*
X004255Y021490D02*
X003394Y021490D01*
X003495Y021609D02*
X004345Y021609D01*
X004347Y021727D02*
X003595Y021727D01*
X003696Y021846D02*
X004400Y021846D01*
X004571Y021964D02*
X003796Y021964D01*
X003914Y022083D02*
X004852Y022083D01*
X005008Y022201D02*
X004039Y022201D01*
X004164Y022320D02*
X005164Y022320D01*
X005320Y022438D02*
X004289Y022438D01*
X004414Y022557D02*
X005476Y022557D01*
X005632Y022675D02*
X004540Y022675D01*
X004665Y022794D02*
X005788Y022794D01*
X005944Y022912D02*
X004790Y022912D01*
X004838Y022958D02*
X004838Y022958D01*
X004934Y023031D02*
X006100Y023031D01*
X006256Y023149D02*
X005090Y023149D01*
X005246Y023268D02*
X006412Y023268D01*
X006568Y023386D02*
X005401Y023386D01*
X005869Y023742D02*
X006896Y023742D01*
X006845Y023623D02*
X006845Y023597D01*
X007061Y023860D02*
X006046Y023860D01*
X006243Y023979D02*
X007596Y023979D01*
X007882Y024097D02*
X006440Y024097D01*
X006637Y024216D02*
X008169Y024216D01*
X008455Y024334D02*
X006834Y024334D01*
X007031Y024453D02*
X008742Y024453D01*
X009028Y024571D02*
X007254Y024571D01*
X007510Y024690D02*
X009314Y024690D01*
X009601Y024808D02*
X007767Y024808D01*
X008023Y024927D02*
X009759Y024927D01*
X009876Y025045D02*
X008279Y025045D01*
X008585Y025164D02*
X011468Y025164D01*
X011233Y024690D02*
X015948Y024690D01*
X015945Y024808D02*
X012152Y024808D01*
X012387Y025282D02*
X008936Y025282D01*
X009288Y025401D02*
X012955Y025401D01*
X013365Y025401D02*
X017032Y025401D01*
X016680Y025519D02*
X009640Y025519D01*
X010135Y025638D02*
X016185Y025638D01*
X015647Y025756D02*
X010673Y025756D01*
X010550Y025045D02*
X010193Y025045D01*
X010281Y024571D02*
X015988Y024571D01*
X015807Y024453D02*
X013327Y024453D01*
X013479Y024334D02*
X015750Y024334D01*
X015916Y023979D02*
X013474Y023979D01*
X013525Y024097D02*
X013525Y024223D01*
X013309Y023860D02*
X016419Y023860D01*
X016647Y023742D02*
X010623Y023742D01*
X010625Y023860D02*
X013111Y023860D01*
X012946Y023979D02*
X010581Y023979D01*
X010537Y024097D02*
X010440Y024097D01*
X010569Y023623D02*
X016876Y023623D01*
X017104Y023505D02*
X010396Y023505D01*
X010224Y023505D02*
X009828Y023505D01*
X009312Y023386D02*
X017333Y023386D01*
X017561Y023268D02*
X008796Y023268D01*
X008908Y022975D02*
X008627Y022859D01*
X008627Y022859D01*
X008411Y022643D01*
X008295Y022362D01*
X008295Y018858D01*
X008411Y018577D01*
X008627Y018361D01*
X008908Y018245D01*
X009806Y018245D01*
X009950Y018239D01*
X010227Y018340D01*
X010444Y018539D01*
X010568Y018806D01*
X010572Y018889D01*
X010575Y018892D01*
X010575Y018956D01*
X010578Y019021D01*
X010575Y019024D01*
X010575Y020160D01*
X010583Y020245D01*
X010648Y020402D01*
X010768Y020522D01*
X010925Y020587D01*
X011010Y020595D01*
X012700Y020595D01*
X012707Y020589D01*
X012767Y020595D01*
X012828Y020595D01*
X012829Y020595D01*
X012851Y020595D01*
X012995Y020550D01*
X013111Y020453D01*
X013181Y020320D01*
X013195Y020249D01*
X013195Y016658D01*
X013311Y016377D01*
X013527Y016161D01*
X013808Y016045D01*
X013869Y016045D01*
X013736Y015912D01*
X013655Y015716D01*
X013655Y015504D01*
X013736Y015308D01*
X013794Y015250D01*
X013239Y015250D01*
X012975Y015514D01*
X012975Y015623D01*
X012927Y015738D01*
X012838Y015827D01*
X012723Y015875D01*
X012597Y015875D01*
X012482Y015827D01*
X012393Y015738D01*
X012345Y015623D01*
X012345Y015497D01*
X012393Y015382D01*
X012482Y015293D01*
X012597Y015245D01*
X012706Y015245D01*
X013081Y014870D01*
X014547Y014870D01*
X014442Y014827D01*
X014336Y014721D01*
X014279Y014582D01*
X014279Y014433D01*
X014336Y014295D01*
X014442Y014189D01*
X014580Y014131D01*
X014730Y014131D01*
X014868Y014189D01*
X014974Y014295D01*
X015031Y014433D01*
X015031Y014582D01*
X014974Y014721D01*
X014868Y014827D01*
X014764Y014870D01*
X016456Y014870D01*
X016352Y014827D01*
X016246Y014721D01*
X016189Y014582D01*
X016189Y014433D01*
X016246Y014295D01*
X016352Y014189D01*
X016490Y014131D01*
X016640Y014131D01*
X016778Y014189D01*
X016884Y014295D01*
X016941Y014433D01*
X016941Y014582D01*
X016884Y014721D01*
X016778Y014827D01*
X016673Y014870D01*
X017227Y014870D01*
X017243Y014832D01*
X017332Y014743D01*
X017447Y014695D01*
X017573Y014695D01*
X017688Y014743D01*
X017777Y014832D01*
X017825Y014947D01*
X017825Y015073D01*
X017777Y015188D01*
X017688Y015277D01*
X017573Y015325D01*
X017491Y015325D01*
X017565Y015504D01*
X017565Y015716D01*
X017484Y015912D01*
X017352Y016044D01*
X017367Y016045D01*
X017428Y016045D01*
X017434Y016051D01*
X017517Y016059D01*
X017770Y016191D01*
X017952Y016410D01*
X017952Y016410D01*
X018037Y016683D01*
X018025Y016817D01*
X018025Y022362D01*
X017909Y022643D01*
X017693Y022859D01*
X017412Y022975D01*
X017328Y022975D01*
X008908Y022975D01*
X008756Y022912D02*
X007938Y022912D01*
X007975Y022794D02*
X008562Y022794D01*
X008443Y022675D02*
X007966Y022675D01*
X007902Y022557D02*
X008376Y022557D01*
X008411Y022643D02*
X008411Y022643D01*
X008326Y022438D02*
X007480Y022438D01*
X007272Y022320D02*
X008295Y022320D01*
X008295Y022201D02*
X007065Y022201D01*
X006857Y022083D02*
X008295Y022083D01*
X008295Y021964D02*
X006650Y021964D01*
X006443Y021846D02*
X008295Y021846D01*
X008295Y021727D02*
X006235Y021727D01*
X006028Y021609D02*
X008295Y021609D01*
X008295Y021490D02*
X005821Y021490D01*
X005613Y021372D02*
X006459Y021372D01*
X006440Y021364D02*
X006440Y021364D01*
X006206Y021130D01*
X006080Y020825D01*
X006080Y020495D01*
X006206Y020190D01*
X006440Y019956D01*
X006745Y019830D01*
X006951Y019830D01*
X007075Y019830D01*
X007075Y019830D01*
X007380Y019956D01*
X007614Y020190D01*
X007740Y020495D01*
X007740Y020825D01*
X007614Y021130D01*
X007614Y021130D01*
X007380Y021364D01*
X007075Y021490D01*
X006745Y021490D01*
X006440Y021364D01*
X006329Y021253D02*
X005406Y021253D01*
X005531Y021135D02*
X006211Y021135D01*
X006206Y021130D02*
X006206Y021130D01*
X006159Y021016D02*
X005607Y021016D01*
X005625Y020898D02*
X006110Y020898D01*
X006080Y020779D02*
X005597Y020779D01*
X005506Y020661D02*
X006080Y020661D01*
X006080Y020542D02*
X005200Y020542D01*
X005076Y020424D02*
X006110Y020424D01*
X006159Y020305D02*
X004952Y020305D01*
X004828Y020187D02*
X006210Y020187D01*
X006206Y020190D02*
X006206Y020190D01*
X006328Y020068D02*
X004704Y020068D01*
X004580Y019950D02*
X006456Y019950D01*
X006440Y019956D02*
X006440Y019956D01*
X006742Y019831D02*
X004456Y019831D01*
X004332Y019713D02*
X008295Y019713D01*
X008295Y019831D02*
X007078Y019831D01*
X007364Y019950D02*
X008295Y019950D01*
X008295Y020068D02*
X007492Y020068D01*
X007380Y019956D02*
X007380Y019956D01*
X007610Y020187D02*
X008295Y020187D01*
X008295Y020305D02*
X007661Y020305D01*
X007614Y020190D02*
X007614Y020190D01*
X007710Y020424D02*
X008295Y020424D01*
X008295Y020542D02*
X007740Y020542D01*
X007740Y020661D02*
X008295Y020661D01*
X008295Y020779D02*
X007740Y020779D01*
X007710Y020898D02*
X008295Y020898D01*
X008295Y021016D02*
X007661Y021016D01*
X007609Y021135D02*
X008295Y021135D01*
X008295Y021253D02*
X007491Y021253D01*
X007380Y021364D02*
X007380Y021364D01*
X007361Y021372D02*
X008295Y021372D01*
X007830Y023031D02*
X018018Y023031D01*
X017790Y023149D02*
X008280Y023149D01*
X007310Y023860D02*
X007259Y023860D01*
X010670Y020424D02*
X013127Y020424D01*
X013184Y020305D02*
X010608Y020305D01*
X010578Y020187D02*
X013195Y020187D01*
X013195Y020068D02*
X010575Y020068D01*
X010575Y019950D02*
X013195Y019950D01*
X013195Y019831D02*
X010575Y019831D01*
X010575Y019713D02*
X013195Y019713D01*
X013195Y019594D02*
X010575Y019594D01*
X010575Y019476D02*
X013195Y019476D01*
X013195Y019357D02*
X010575Y019357D01*
X010575Y019239D02*
X013195Y019239D01*
X013195Y019120D02*
X010575Y019120D01*
X010577Y019002D02*
X013195Y019002D01*
X013195Y018883D02*
X010572Y018883D01*
X010568Y018806D02*
X010568Y018806D01*
X010549Y018765D02*
X013195Y018765D01*
X013195Y018646D02*
X010494Y018646D01*
X010444Y018539D02*
X010444Y018539D01*
X010432Y018528D02*
X013195Y018528D01*
X013195Y018409D02*
X010303Y018409D01*
X010227Y018340D02*
X010227Y018340D01*
X010092Y018291D02*
X013195Y018291D01*
X013195Y018172D02*
X008980Y018172D01*
X008973Y018175D02*
X008847Y018175D01*
X008732Y018127D01*
X008643Y018038D01*
X008595Y017923D01*
X008595Y017797D01*
X008643Y017682D01*
X008710Y017615D01*
X008710Y017295D01*
X008643Y017228D01*
X008595Y017113D01*
X008595Y016987D01*
X002822Y016987D01*
X002893Y017106D02*
X008595Y017106D01*
X008595Y016987D02*
X008643Y016872D01*
X008655Y016860D01*
X004077Y016860D01*
X003627Y016410D01*
X003553Y016336D01*
X003532Y016327D01*
X003443Y016238D01*
X003395Y016123D01*
X003395Y015997D01*
X003443Y015882D01*
X003532Y015793D01*
X003647Y015745D01*
X003773Y015745D01*
X003888Y015793D01*
X003977Y015882D01*
X004025Y015997D01*
X004025Y016123D01*
X003990Y016207D01*
X004243Y016460D01*
X008740Y016460D01*
X008802Y016448D01*
X008821Y016460D01*
X008843Y016460D01*
X008887Y016505D01*
X008971Y016560D01*
X008993Y016560D01*
X009037Y016605D01*
X009090Y016640D01*
X009094Y016661D01*
X009110Y016677D01*
X009110Y016740D01*
X009110Y016740D01*
X009110Y015860D01*
X007293Y015860D01*
X007275Y015878D01*
X007275Y015973D01*
X007227Y016088D01*
X007138Y016177D01*
X007023Y016225D01*
X006897Y016225D01*
X006782Y016177D01*
X006693Y016088D01*
X006645Y015973D01*
X006645Y015847D01*
X006693Y015732D01*
X006782Y015643D01*
X006897Y015595D01*
X006992Y015595D01*
X007010Y015577D01*
X007127Y015460D01*
X009943Y015460D01*
X010043Y015560D01*
X010160Y015677D01*
X010160Y015815D01*
X010185Y015840D01*
X010210Y015815D01*
X010210Y014660D01*
X010132Y014627D01*
X010043Y014538D01*
X009995Y014423D01*
X009995Y014297D01*
X010043Y014182D01*
X010132Y014093D01*
X010247Y014045D01*
X010373Y014045D01*
X010488Y014093D01*
X010577Y014182D01*
X010625Y014297D01*
X010625Y014423D01*
X010610Y014459D01*
X010610Y015815D01*
X010677Y015882D01*
X010725Y015997D01*
X010725Y016123D01*
X010677Y016238D01*
X010588Y016327D01*
X010473Y016375D01*
X010347Y016375D01*
X010232Y016327D01*
X010185Y016280D01*
X010138Y016327D01*
X010023Y016375D01*
X009897Y016375D01*
X009782Y016327D01*
X009693Y016238D01*
X009645Y016123D01*
X009645Y015997D01*
X009693Y015882D01*
X009715Y015860D01*
X009510Y015860D01*
X009510Y016598D01*
X009618Y016643D01*
X009707Y016732D01*
X009755Y016847D01*
X009755Y016973D01*
X009707Y017088D01*
X009618Y017177D01*
X009503Y017225D01*
X009377Y017225D01*
X009262Y017177D01*
X009217Y017132D01*
X009177Y017228D01*
X009110Y017295D01*
X009110Y017615D01*
X009177Y017682D01*
X009225Y017797D01*
X009225Y017923D01*
X009177Y018038D01*
X009088Y018127D01*
X008973Y018175D01*
X008840Y018172D02*
X003537Y018172D01*
X003466Y018054D02*
X008658Y018054D01*
X008600Y017935D02*
X003394Y017935D01*
X003323Y017817D02*
X008595Y017817D01*
X008636Y017698D02*
X003251Y017698D01*
X003180Y017580D02*
X008710Y017580D01*
X008710Y017461D02*
X003108Y017461D01*
X003036Y017343D02*
X008710Y017343D01*
X008641Y017224D02*
X002965Y017224D01*
X002750Y016869D02*
X008646Y016869D01*
X008760Y016660D02*
X004160Y016660D01*
X003710Y016210D01*
X003710Y016060D01*
X003481Y016276D02*
X002689Y016276D01*
X002790Y016158D02*
X003409Y016158D01*
X003395Y016039D02*
X002825Y016039D01*
X002814Y015921D02*
X003427Y015921D01*
X003522Y015802D02*
X002748Y015802D01*
X002610Y015684D02*
X006741Y015684D01*
X006664Y015802D02*
X003898Y015802D01*
X003993Y015921D02*
X006645Y015921D01*
X006672Y016039D02*
X004025Y016039D01*
X004011Y016158D02*
X006762Y016158D01*
X006960Y015910D02*
X007210Y015660D01*
X009410Y015660D01*
X009860Y015660D01*
X009960Y015760D01*
X009960Y016060D01*
X009731Y016276D02*
X009510Y016276D01*
X009510Y016158D02*
X009659Y016158D01*
X009645Y016039D02*
X009510Y016039D01*
X009510Y015921D02*
X009677Y015921D01*
X009410Y015660D02*
X009310Y015760D01*
X009310Y016760D01*
X009440Y016910D01*
X009591Y016632D02*
X013206Y016632D01*
X013195Y016750D02*
X009715Y016750D01*
X009755Y016869D02*
X013195Y016869D01*
X013195Y016987D02*
X009749Y016987D01*
X009690Y017106D02*
X013195Y017106D01*
X013195Y017224D02*
X009505Y017224D01*
X009375Y017224D02*
X009179Y017224D01*
X009110Y017343D02*
X013195Y017343D01*
X013195Y017461D02*
X009110Y017461D01*
X009110Y017580D02*
X013195Y017580D01*
X013195Y017698D02*
X009184Y017698D01*
X009225Y017817D02*
X013195Y017817D01*
X013195Y017935D02*
X009220Y017935D01*
X009162Y018054D02*
X013195Y018054D01*
X013255Y016513D02*
X009510Y016513D01*
X009510Y016395D02*
X013304Y016395D01*
X013311Y016377D02*
X013311Y016377D01*
X013412Y016276D02*
X010639Y016276D01*
X010711Y016158D02*
X013536Y016158D01*
X013527Y016161D02*
X013527Y016161D01*
X013745Y015921D02*
X010693Y015921D01*
X010725Y016039D02*
X013863Y016039D01*
X013691Y015802D02*
X012863Y015802D01*
X012950Y015684D02*
X013655Y015684D01*
X013655Y015565D02*
X012975Y015565D01*
X013042Y015447D02*
X013679Y015447D01*
X013728Y015328D02*
X013161Y015328D01*
X012860Y015091D02*
X010610Y015091D01*
X010610Y014973D02*
X012979Y014973D01*
X012742Y015210D02*
X010610Y015210D01*
X010610Y015328D02*
X012446Y015328D01*
X012366Y015447D02*
X010610Y015447D01*
X010610Y015565D02*
X012345Y015565D01*
X012370Y015684D02*
X010610Y015684D01*
X010610Y015802D02*
X012457Y015802D01*
X010610Y014854D02*
X014508Y014854D01*
X014351Y014736D02*
X010610Y014736D01*
X010610Y014617D02*
X014293Y014617D01*
X014279Y014499D02*
X010610Y014499D01*
X010625Y014380D02*
X014301Y014380D01*
X014369Y014262D02*
X010610Y014262D01*
X010539Y014143D02*
X014552Y014143D01*
X014758Y014143D02*
X016462Y014143D01*
X016668Y014143D02*
X018745Y014143D01*
X018745Y014025D02*
X007050Y014025D01*
X007050Y014143D02*
X010081Y014143D01*
X010010Y014262D02*
X007027Y014262D01*
X007025Y014264D02*
X007025Y014373D01*
X006977Y014488D01*
X006888Y014577D01*
X006773Y014625D01*
X006647Y014625D01*
X006532Y014577D01*
X006443Y014488D01*
X006395Y014373D01*
X006395Y014247D01*
X006414Y014201D01*
X006338Y014277D01*
X006223Y014325D01*
X006097Y014325D01*
X006000Y014285D01*
X006000Y014555D01*
X006077Y014632D01*
X006125Y014747D01*
X006125Y014873D01*
X006077Y014988D01*
X005988Y015077D01*
X005873Y015125D01*
X005747Y015125D01*
X005632Y015077D01*
X005543Y014988D01*
X005495Y014873D01*
X005495Y014747D01*
X005543Y014632D01*
X005620Y014555D01*
X005620Y009231D01*
X005731Y009120D01*
X005841Y009010D01*
X005043Y009010D01*
X004725Y009328D01*
X004725Y009423D01*
X004677Y009538D01*
X004588Y009627D01*
X004473Y009675D01*
X004347Y009675D01*
X004232Y009627D01*
X004143Y009538D01*
X004095Y009423D01*
X004095Y009297D01*
X004143Y009182D01*
X004232Y009093D01*
X004347Y009045D01*
X004442Y009045D01*
X004760Y008727D01*
X004877Y008610D01*
X006415Y008610D01*
X006482Y008543D01*
X006597Y008495D01*
X006723Y008495D01*
X006838Y008543D01*
X006927Y008632D01*
X006975Y008747D01*
X006975Y008873D01*
X006935Y008970D01*
X008205Y008970D01*
X008282Y008893D01*
X008397Y008845D01*
X008523Y008845D01*
X008638Y008893D01*
X008727Y008982D01*
X008775Y009097D01*
X008775Y009223D01*
X008727Y009338D01*
X008655Y009410D01*
X008727Y009482D01*
X008775Y009597D01*
X008775Y009723D01*
X008727Y009838D01*
X008638Y009927D01*
X008523Y009975D01*
X008397Y009975D01*
X008282Y009927D01*
X008205Y009850D01*
X006439Y009850D01*
X006350Y009939D01*
X006350Y011051D01*
X006431Y010970D01*
X006531Y010870D01*
X006895Y010870D01*
X006895Y010847D01*
X006943Y010732D01*
X007032Y010643D01*
X007147Y010595D01*
X007273Y010595D01*
X007388Y010643D01*
X007477Y010732D01*
X007525Y010847D01*
X007525Y010973D01*
X007477Y011088D01*
X007388Y011177D01*
X007273Y011225D01*
X007164Y011225D01*
X007139Y011250D01*
X006745Y011250D01*
X006777Y011282D01*
X006819Y011382D01*
X006931Y011270D01*
X007535Y011270D01*
X008145Y010696D01*
X008145Y010597D01*
X008193Y010482D01*
X008282Y010393D01*
X008397Y010345D01*
X008523Y010345D01*
X008638Y010393D01*
X008727Y010482D01*
X008775Y010597D01*
X008775Y010723D01*
X008727Y010838D01*
X008638Y010927D01*
X008523Y010975D01*
X008403Y010975D01*
X007742Y011596D01*
X007689Y011650D01*
X007685Y011650D01*
X007683Y011652D01*
X007607Y011650D01*
X007089Y011650D01*
X007050Y011689D01*
X007050Y014239D01*
X007025Y014264D01*
X007022Y014380D02*
X009995Y014380D01*
X010026Y014499D02*
X006967Y014499D01*
X006792Y014617D02*
X010122Y014617D01*
X010210Y014736D02*
X006120Y014736D01*
X006125Y014854D02*
X010210Y014854D01*
X010210Y014973D02*
X006084Y014973D01*
X005955Y015091D02*
X010210Y015091D01*
X010210Y015210D02*
X002468Y015210D01*
X002504Y015328D02*
X010210Y015328D01*
X010210Y015447D02*
X002539Y015447D01*
X002575Y015565D02*
X007022Y015565D01*
X007275Y015921D02*
X009110Y015921D01*
X009110Y016039D02*
X007248Y016039D01*
X007158Y016158D02*
X009110Y016158D01*
X009110Y016276D02*
X004059Y016276D01*
X004177Y016395D02*
X009110Y016395D01*
X009110Y016513D02*
X008900Y016513D01*
X008760Y016660D02*
X008910Y016760D01*
X008910Y017050D01*
X008910Y017860D01*
X008798Y018291D02*
X003609Y018291D01*
X003805Y018409D02*
X008579Y018409D01*
X008627Y018361D02*
X008627Y018361D01*
X008461Y018528D02*
X003896Y018528D01*
X003925Y018646D02*
X008383Y018646D01*
X008334Y018765D02*
X003908Y018765D01*
X003832Y018883D02*
X008295Y018883D01*
X008295Y018858D02*
X008295Y018858D01*
X008295Y019002D02*
X003588Y019002D01*
X003712Y019120D02*
X008295Y019120D01*
X008295Y019239D02*
X003836Y019239D01*
X003960Y019357D02*
X008295Y019357D01*
X008295Y019476D02*
X004084Y019476D01*
X004208Y019594D02*
X008295Y019594D01*
X009950Y018239D02*
X009950Y018239D01*
X009110Y016632D02*
X009078Y016632D01*
X010160Y015802D02*
X010210Y015802D01*
X010210Y015684D02*
X010160Y015684D01*
X010210Y015565D02*
X010048Y015565D01*
X010043Y015560D02*
X010043Y015560D01*
X010410Y016060D02*
X010410Y014460D01*
X010310Y014360D01*
X010851Y013780D02*
X008721Y013780D01*
X008653Y013848D01*
X008528Y013900D01*
X008392Y013900D01*
X008267Y013848D01*
X008172Y013753D01*
X008120Y013628D01*
X008120Y013492D01*
X008172Y013367D01*
X008267Y013272D01*
X008328Y013246D01*
X008282Y013227D01*
X008193Y013138D01*
X008145Y013023D01*
X008145Y012897D01*
X008193Y012782D01*
X008282Y012693D01*
X008397Y012645D01*
X008523Y012645D01*
X008638Y012693D01*
X008685Y012740D01*
X010369Y012740D01*
X010440Y012669D01*
X010440Y009419D01*
X010569Y009290D01*
X010869Y008990D01*
X016785Y008990D01*
X016832Y008943D01*
X016947Y008895D01*
X017073Y008895D01*
X017188Y008943D01*
X017277Y009032D01*
X017325Y009147D01*
X017325Y009273D01*
X017297Y009340D01*
X018469Y009340D01*
X018540Y009269D01*
X018540Y007269D01*
X018869Y006940D01*
X020549Y006940D01*
X020617Y006872D01*
X020742Y006820D01*
X020878Y006820D01*
X021003Y006872D01*
X021098Y006967D01*
X021150Y007092D01*
X021150Y007228D01*
X021098Y007353D01*
X021003Y007448D01*
X020878Y007500D01*
X020742Y007500D01*
X020617Y007448D01*
X020549Y007380D01*
X019051Y007380D01*
X018980Y007451D01*
X018980Y009451D01*
X018851Y009580D01*
X018651Y009780D01*
X011201Y009780D01*
X011180Y009801D01*
X011180Y011900D01*
X015456Y011900D01*
X015520Y011964D01*
X015520Y013856D01*
X015456Y013920D01*
X011164Y013920D01*
X011100Y013856D01*
X011100Y013531D01*
X011051Y013580D01*
X010851Y013780D01*
X010962Y013669D02*
X011100Y013669D01*
X011100Y013551D02*
X011081Y013551D01*
X011100Y013788D02*
X008713Y013788D01*
X008207Y013788D02*
X007050Y013788D01*
X007050Y013906D02*
X011150Y013906D01*
X010388Y012721D02*
X008667Y012721D01*
X008253Y012721D02*
X007050Y012721D01*
X007050Y012603D02*
X010440Y012603D01*
X010440Y012484D02*
X007050Y012484D01*
X007050Y012366D02*
X010440Y012366D01*
X010440Y012247D02*
X007050Y012247D01*
X007050Y012129D02*
X010440Y012129D01*
X010440Y012010D02*
X007050Y012010D01*
X007050Y011892D02*
X010440Y011892D01*
X010440Y011773D02*
X007050Y011773D01*
X007084Y011655D02*
X010440Y011655D01*
X010440Y011536D02*
X007806Y011536D01*
X007932Y011418D02*
X010440Y011418D01*
X010440Y011299D02*
X008058Y011299D01*
X008184Y011181D02*
X010440Y011181D01*
X010440Y011062D02*
X008310Y011062D01*
X008599Y010944D02*
X010440Y010944D01*
X010440Y010825D02*
X008733Y010825D01*
X008775Y010707D02*
X010440Y010707D01*
X010440Y010588D02*
X008771Y010588D01*
X008715Y010470D02*
X010440Y010470D01*
X010440Y010351D02*
X008537Y010351D01*
X008383Y010351D02*
X006350Y010351D01*
X006350Y010233D02*
X010440Y010233D01*
X010440Y010114D02*
X006350Y010114D01*
X006350Y009996D02*
X010440Y009996D01*
X010440Y009877D02*
X008688Y009877D01*
X008760Y009759D02*
X010440Y009759D01*
X010440Y009640D02*
X008775Y009640D01*
X008744Y009522D02*
X010440Y009522D01*
X010456Y009403D02*
X008662Y009403D01*
X008749Y009285D02*
X010574Y009285D01*
X010693Y009166D02*
X008775Y009166D01*
X008754Y009048D02*
X010811Y009048D01*
X010778Y008300D02*
X010642Y008300D01*
X010517Y008248D01*
X010422Y008153D01*
X010370Y008028D01*
X010370Y007892D01*
X010422Y007767D01*
X010490Y007699D01*
X010490Y006650D01*
X010442Y006650D01*
X010317Y006598D01*
X010222Y006503D01*
X010170Y006378D01*
X010170Y006242D01*
X010222Y006117D01*
X010317Y006022D01*
X010442Y005970D01*
X010578Y005970D01*
X010703Y006022D01*
X010798Y006117D01*
X010850Y006242D01*
X010850Y006339D01*
X010930Y006419D01*
X010930Y007699D01*
X010998Y007767D01*
X011050Y007892D01*
X011050Y008028D01*
X010998Y008153D01*
X010903Y008248D01*
X010778Y008300D01*
X010933Y008218D02*
X018540Y008218D01*
X018540Y008100D02*
X011020Y008100D01*
X011050Y007981D02*
X018540Y007981D01*
X018540Y007863D02*
X011038Y007863D01*
X010975Y007744D02*
X018540Y007744D01*
X018540Y007626D02*
X010930Y007626D01*
X010930Y007507D02*
X018540Y007507D01*
X018540Y007389D02*
X010930Y007389D01*
X010930Y007270D02*
X018540Y007270D01*
X018657Y007152D02*
X010930Y007152D01*
X010930Y007033D02*
X018776Y007033D01*
X019043Y007389D02*
X020558Y007389D01*
X020575Y006915D02*
X010930Y006915D01*
X010930Y006796D02*
X022134Y006796D01*
X022010Y006678D02*
X010930Y006678D01*
X010930Y006559D02*
X021886Y006559D01*
X021762Y006441D02*
X019695Y006441D01*
X019575Y006490D02*
X019245Y006490D01*
X018940Y006364D01*
X018706Y006130D01*
X018580Y005825D01*
X018580Y005495D01*
X018706Y005190D01*
X018940Y004956D01*
X019245Y004830D01*
X019369Y004830D01*
X019575Y004830D01*
X019880Y004956D01*
X020114Y005190D01*
X020240Y005495D01*
X020240Y005825D01*
X020114Y006130D01*
X020114Y006130D01*
X019880Y006364D01*
X019575Y006490D01*
X019880Y006364D02*
X019880Y006364D01*
X019922Y006322D02*
X021639Y006322D01*
X021515Y006204D02*
X020040Y006204D01*
X020132Y006085D02*
X021391Y006085D01*
X021267Y005967D02*
X020181Y005967D01*
X020231Y005848D02*
X021143Y005848D01*
X021019Y005730D02*
X020240Y005730D01*
X020240Y005611D02*
X020716Y005611D01*
X020653Y005493D02*
X020239Y005493D01*
X020190Y005374D02*
X020645Y005374D01*
X020683Y005256D02*
X020141Y005256D01*
X020114Y005190D02*
X020114Y005190D01*
X020061Y005137D02*
X020796Y005137D01*
X020802Y005019D02*
X019942Y005019D01*
X019880Y004956D02*
X019880Y004956D01*
X019744Y004900D02*
X020584Y004900D01*
X020366Y004782D02*
X006194Y004782D01*
X006086Y004900D02*
X006576Y004900D01*
X006440Y004956D02*
X006745Y004830D01*
X006951Y004830D01*
X007075Y004830D01*
X007075Y004830D01*
X007380Y004956D01*
X007614Y005190D01*
X007740Y005495D01*
X007740Y005825D01*
X007614Y006130D01*
X007614Y006130D01*
X007380Y006364D01*
X007075Y006490D01*
X006745Y006490D01*
X006440Y006364D01*
X006206Y006130D01*
X006080Y005825D01*
X006080Y005495D01*
X006206Y005190D01*
X006440Y004956D01*
X006440Y004956D01*
X006378Y005019D02*
X005978Y005019D01*
X005870Y005137D02*
X006259Y005137D01*
X006206Y005190D02*
X006206Y005190D01*
X006179Y005256D02*
X005762Y005256D01*
X005725Y005297D02*
X005725Y005297D01*
X005725Y005374D02*
X006130Y005374D01*
X006081Y005493D02*
X005696Y005493D01*
X005604Y005611D02*
X006080Y005611D01*
X006080Y005730D02*
X004879Y005730D01*
X004815Y005848D02*
X006089Y005848D01*
X006139Y005967D02*
X004750Y005967D01*
X004686Y006085D02*
X006188Y006085D01*
X006206Y006130D02*
X006206Y006130D01*
X006280Y006204D02*
X004621Y006204D01*
X004556Y006322D02*
X006398Y006322D01*
X006440Y006364D02*
X006440Y006364D01*
X006625Y006441D02*
X004492Y006441D01*
X004427Y006559D02*
X010278Y006559D01*
X010196Y006441D02*
X007195Y006441D01*
X007380Y006364D02*
X007380Y006364D01*
X007422Y006322D02*
X010170Y006322D01*
X010186Y006204D02*
X007540Y006204D01*
X007632Y006085D02*
X010254Y006085D01*
X010766Y006085D02*
X018688Y006085D01*
X018706Y006130D02*
X018706Y006130D01*
X018706Y006130D01*
X018780Y006204D02*
X010834Y006204D01*
X010850Y006322D02*
X018898Y006322D01*
X019125Y006441D02*
X010930Y006441D01*
X010490Y006678D02*
X004362Y006678D01*
X004298Y006796D02*
X010490Y006796D01*
X010490Y006915D02*
X004233Y006915D01*
X004168Y007033D02*
X010490Y007033D01*
X010490Y007152D02*
X004104Y007152D01*
X004039Y007270D02*
X010490Y007270D01*
X010490Y007389D02*
X003975Y007389D01*
X003910Y007507D02*
X010490Y007507D01*
X010490Y007626D02*
X003925Y007626D01*
X003916Y007744D02*
X010445Y007744D01*
X010382Y007863D02*
X003853Y007863D01*
X003367Y007863D02*
X003276Y007863D01*
X003249Y007981D02*
X010370Y007981D01*
X010400Y008100D02*
X003221Y008100D01*
X003193Y008218D02*
X010487Y008218D01*
X011180Y009877D02*
X023805Y009877D01*
X023736Y009759D02*
X018673Y009759D01*
X018791Y009640D02*
X023666Y009640D01*
X023596Y009522D02*
X018910Y009522D01*
X018980Y009403D02*
X023527Y009403D01*
X023457Y009285D02*
X018980Y009285D01*
X018980Y009166D02*
X023387Y009166D01*
X023318Y009048D02*
X018980Y009048D01*
X018980Y008929D02*
X023248Y008929D01*
X023178Y008811D02*
X018980Y008811D01*
X018980Y008692D02*
X023108Y008692D01*
X023039Y008574D02*
X018980Y008574D01*
X018980Y008455D02*
X022969Y008455D01*
X022899Y008337D02*
X018980Y008337D01*
X018980Y008218D02*
X022830Y008218D01*
X022686Y008100D02*
X018980Y008100D01*
X018980Y007981D02*
X022540Y007981D01*
X022495Y007863D02*
X018980Y007863D01*
X018980Y007744D02*
X022496Y007744D01*
X022549Y007626D02*
X018980Y007626D01*
X018980Y007507D02*
X022718Y007507D01*
X022754Y007389D02*
X021062Y007389D01*
X021132Y007270D02*
X022630Y007270D01*
X022506Y007152D02*
X021150Y007152D01*
X021125Y007033D02*
X022382Y007033D01*
X022258Y006915D02*
X021045Y006915D01*
X022569Y005493D02*
X023470Y005493D01*
X023550Y005611D02*
X022659Y005611D01*
X022749Y005730D02*
X023630Y005730D01*
X023711Y005848D02*
X022839Y005848D01*
X022929Y005967D02*
X023791Y005967D01*
X023871Y006085D02*
X023019Y006085D01*
X023109Y006204D02*
X023952Y006204D01*
X024032Y006322D02*
X023199Y006322D01*
X023290Y006441D02*
X024112Y006441D01*
X024189Y006559D02*
X023380Y006559D01*
X023444Y006644D02*
X023444Y006644D01*
X023470Y006678D02*
X024252Y006678D01*
X024315Y006796D02*
X023560Y006796D01*
X023764Y006915D02*
X024377Y006915D01*
X024440Y007033D02*
X023843Y007033D01*
X023863Y007152D02*
X024503Y007152D01*
X024566Y007270D02*
X023845Y007270D01*
X023895Y007389D02*
X024629Y007389D01*
X024692Y007507D02*
X023945Y007507D01*
X023995Y007626D02*
X024754Y007626D01*
X024817Y007744D02*
X024045Y007744D01*
X024095Y007863D02*
X024867Y007863D01*
X024914Y007981D02*
X024144Y007981D01*
X024194Y008100D02*
X024961Y008100D01*
X025008Y008218D02*
X024244Y008218D01*
X024294Y008337D02*
X025056Y008337D01*
X025103Y008455D02*
X024344Y008455D01*
X024394Y008574D02*
X025150Y008574D01*
X025197Y008692D02*
X024444Y008692D01*
X024494Y008811D02*
X025245Y008811D01*
X025292Y008929D02*
X024544Y008929D01*
X024593Y009048D02*
X025339Y009048D01*
X025373Y009166D02*
X024643Y009166D01*
X024693Y009285D02*
X025406Y009285D01*
X025439Y009403D02*
X024743Y009403D01*
X024793Y009522D02*
X025472Y009522D01*
X025504Y009640D02*
X024843Y009640D01*
X024954Y009759D02*
X025537Y009759D01*
X025570Y009877D02*
X025046Y009877D01*
X025075Y009996D02*
X025603Y009996D01*
X025636Y010114D02*
X025058Y010114D01*
X025010Y010233D02*
X025669Y010233D01*
X025702Y010351D02*
X025025Y010351D01*
X025040Y010470D02*
X025726Y010470D01*
X025746Y010588D02*
X025055Y010588D01*
X025070Y010707D02*
X025765Y010707D01*
X025785Y010825D02*
X025085Y010825D01*
X025100Y010944D02*
X025804Y010944D01*
X025824Y011062D02*
X025115Y011062D01*
X025130Y011181D02*
X025843Y011181D01*
X025862Y011299D02*
X025145Y011299D01*
X025160Y011418D02*
X025882Y011418D01*
X025901Y011536D02*
X025176Y011536D01*
X025191Y011655D02*
X025921Y011655D01*
X025940Y011773D02*
X025206Y011773D01*
X025221Y011892D02*
X025946Y011892D01*
X025953Y012010D02*
X025236Y012010D01*
X025251Y012129D02*
X025959Y012129D01*
X025966Y012247D02*
X025266Y012247D01*
X025281Y012366D02*
X025972Y012366D01*
X025978Y012484D02*
X025296Y012484D01*
X025311Y012603D02*
X025985Y012603D01*
X025991Y012721D02*
X025326Y012721D01*
X025341Y012840D02*
X025998Y012840D01*
X026004Y012958D02*
X025404Y012958D01*
X025466Y013077D02*
X026010Y013077D01*
X026013Y013195D02*
X025475Y013195D01*
X025437Y013314D02*
X026007Y013314D01*
X026000Y013432D02*
X025347Y013432D01*
X025331Y013551D02*
X025994Y013551D01*
X025987Y013669D02*
X025316Y013669D01*
X025301Y013788D02*
X025981Y013788D01*
X025975Y013906D02*
X025286Y013906D01*
X025270Y014025D02*
X025968Y014025D01*
X025962Y014143D02*
X025255Y014143D01*
X025240Y014262D02*
X025955Y014262D01*
X025949Y014380D02*
X025224Y014380D01*
X025209Y014499D02*
X025942Y014499D01*
X025929Y014617D02*
X025194Y014617D01*
X025179Y014736D02*
X025909Y014736D01*
X025890Y014854D02*
X025163Y014854D01*
X025148Y014973D02*
X025870Y014973D01*
X025851Y015091D02*
X025133Y015091D01*
X025117Y015210D02*
X025831Y015210D01*
X025812Y015328D02*
X025102Y015328D01*
X025087Y015447D02*
X025793Y015447D01*
X025773Y015565D02*
X025071Y015565D01*
X025056Y015684D02*
X025754Y015684D01*
X025734Y015802D02*
X025041Y015802D01*
X025026Y015921D02*
X025715Y015921D01*
X025682Y016039D02*
X025012Y016039D01*
X025038Y016158D02*
X025649Y016158D01*
X025617Y016276D02*
X025065Y016276D01*
X025045Y016395D02*
X025584Y016395D01*
X025551Y016513D02*
X024967Y016513D01*
X024844Y016632D02*
X025518Y016632D01*
X025485Y016750D02*
X024795Y016750D01*
X024746Y016869D02*
X025452Y016869D01*
X025419Y016987D02*
X024697Y016987D01*
X024648Y017106D02*
X025386Y017106D01*
X025353Y017224D02*
X024599Y017224D01*
X024550Y017343D02*
X025311Y017343D01*
X025264Y017461D02*
X024501Y017461D01*
X024452Y017580D02*
X025217Y017580D01*
X025169Y017698D02*
X024403Y017698D01*
X024354Y017817D02*
X025122Y017817D01*
X025075Y017935D02*
X024305Y017935D01*
X024256Y018054D02*
X025028Y018054D01*
X024981Y018172D02*
X024207Y018172D01*
X024158Y018291D02*
X024933Y018291D01*
X024886Y018409D02*
X024109Y018409D01*
X024060Y018528D02*
X024839Y018528D01*
X024780Y018646D02*
X024011Y018646D01*
X023962Y018765D02*
X024717Y018765D01*
X024654Y018883D02*
X023913Y018883D01*
X023866Y018997D02*
X023866Y018997D01*
X023864Y019002D02*
X024592Y019002D01*
X024529Y019120D02*
X023858Y019120D01*
X023858Y019239D02*
X024466Y019239D01*
X024403Y019357D02*
X023811Y019357D01*
X023659Y019476D02*
X024340Y019476D01*
X024277Y019594D02*
X023506Y019594D01*
X023416Y019713D02*
X024215Y019713D01*
X024145Y019831D02*
X023326Y019831D01*
X023236Y019950D02*
X024065Y019950D01*
X023985Y020068D02*
X023146Y020068D01*
X023056Y020187D02*
X023904Y020187D01*
X023824Y020305D02*
X022966Y020305D01*
X022876Y020424D02*
X023744Y020424D01*
X023663Y020542D02*
X022786Y020542D01*
X022696Y020661D02*
X023583Y020661D01*
X023503Y020779D02*
X022606Y020779D01*
X022516Y020898D02*
X023422Y020898D01*
X023329Y021016D02*
X022426Y021016D01*
X022336Y021135D02*
X023228Y021135D01*
X023127Y021253D02*
X022246Y021253D01*
X022156Y021372D02*
X023027Y021372D01*
X022926Y021490D02*
X022065Y021490D01*
X021993Y021609D02*
X022825Y021609D01*
X022725Y021727D02*
X021982Y021727D01*
X021914Y021846D02*
X022624Y021846D01*
X022524Y021964D02*
X021652Y021964D01*
X021521Y022083D02*
X022406Y022083D01*
X022281Y022201D02*
X021390Y022201D01*
X021258Y022320D02*
X022156Y022320D01*
X022031Y022438D02*
X021127Y022438D01*
X020996Y022557D02*
X021906Y022557D01*
X021780Y022675D02*
X020865Y022675D01*
X020741Y022794D02*
X021655Y022794D01*
X021530Y022912D02*
X020594Y022912D01*
X020448Y023031D02*
X021386Y023031D01*
X021230Y023149D02*
X020302Y023149D01*
X020156Y023268D02*
X021074Y023268D01*
X020919Y023386D02*
X020009Y023386D01*
X019863Y023505D02*
X020763Y023505D01*
X020607Y023623D02*
X019717Y023623D01*
X019575Y023742D02*
X020451Y023742D01*
X020274Y023860D02*
X019539Y023860D01*
X019435Y023979D02*
X020077Y023979D01*
X019880Y024097D02*
X018820Y024097D01*
X018482Y024216D02*
X019683Y024216D01*
X019486Y024334D02*
X018143Y024334D01*
X017804Y024453D02*
X019289Y024453D01*
X019066Y024571D02*
X017466Y024571D01*
X017127Y024690D02*
X018810Y024690D01*
X018553Y024808D02*
X016789Y024808D01*
X016532Y024927D02*
X018297Y024927D01*
X018041Y025045D02*
X016395Y025045D01*
X016125Y025045D02*
X013453Y025045D01*
X013475Y025164D02*
X017735Y025164D01*
X017384Y025282D02*
X013450Y025282D01*
X013372Y024927D02*
X015988Y024927D01*
X014974Y025875D02*
X011346Y025875D01*
X012436Y025993D02*
X013884Y025993D01*
X013093Y024453D02*
X011061Y024453D01*
X010817Y020542D02*
X013005Y020542D01*
X017564Y022912D02*
X018247Y022912D01*
X018447Y022794D02*
X017758Y022794D01*
X017693Y022859D02*
X017693Y022859D01*
X017877Y022675D02*
X018499Y022675D01*
X018669Y022557D02*
X017944Y022557D01*
X017909Y022643D02*
X017909Y022643D01*
X017994Y022438D02*
X019405Y022438D01*
X019303Y022557D02*
X018851Y022557D01*
X019021Y022675D02*
X019201Y022675D01*
X019098Y022794D02*
X019073Y022794D01*
X019508Y022320D02*
X018025Y022320D01*
X018025Y022201D02*
X019610Y022201D01*
X019712Y022083D02*
X018025Y022083D01*
X018025Y021964D02*
X019815Y021964D01*
X019917Y021846D02*
X018025Y021846D01*
X018025Y021727D02*
X020019Y021727D01*
X020122Y021609D02*
X018025Y021609D01*
X018025Y021490D02*
X020224Y021490D01*
X020326Y021372D02*
X019861Y021372D01*
X019880Y021364D02*
X019575Y021490D01*
X019245Y021490D01*
X018940Y021364D01*
X018706Y021130D01*
X018580Y020825D01*
X018580Y020495D01*
X018706Y020190D01*
X018940Y019956D01*
X019245Y019830D01*
X019451Y019830D01*
X019575Y019830D01*
X019575Y019830D01*
X019880Y019956D01*
X020114Y020190D01*
X020240Y020495D01*
X020240Y020825D01*
X020114Y021130D01*
X020114Y021130D01*
X019880Y021364D01*
X019880Y021364D01*
X019991Y021253D02*
X020429Y021253D01*
X020445Y021135D02*
X020109Y021135D01*
X020161Y021016D02*
X020479Y021016D01*
X020577Y020898D02*
X020210Y020898D01*
X020240Y020779D02*
X021315Y020779D01*
X021380Y020661D02*
X020240Y020661D01*
X020240Y020542D02*
X021444Y020542D01*
X021509Y020424D02*
X020210Y020424D01*
X020161Y020305D02*
X021574Y020305D01*
X021638Y020187D02*
X020110Y020187D01*
X020114Y020190D02*
X020114Y020190D01*
X019992Y020068D02*
X021703Y020068D01*
X021767Y019950D02*
X019864Y019950D01*
X019880Y019956D02*
X019880Y019956D01*
X019578Y019831D02*
X021832Y019831D01*
X021897Y019713D02*
X018025Y019713D01*
X018025Y019831D02*
X019242Y019831D01*
X018956Y019950D02*
X018025Y019950D01*
X018025Y020068D02*
X018828Y020068D01*
X018940Y019956D02*
X018940Y019956D01*
X018710Y020187D02*
X018025Y020187D01*
X018025Y020305D02*
X018659Y020305D01*
X018706Y020190D02*
X018706Y020190D01*
X018610Y020424D02*
X018025Y020424D01*
X018025Y020542D02*
X018580Y020542D01*
X018580Y020661D02*
X018025Y020661D01*
X018025Y020779D02*
X018580Y020779D01*
X018610Y020898D02*
X018025Y020898D01*
X018025Y021016D02*
X018659Y021016D01*
X018706Y021130D02*
X018706Y021130D01*
X018711Y021135D02*
X018025Y021135D01*
X018025Y021253D02*
X018829Y021253D01*
X018940Y021364D02*
X018940Y021364D01*
X018959Y021372D02*
X018025Y021372D01*
X018025Y019594D02*
X021523Y019594D01*
X021482Y019577D02*
X021435Y019530D01*
X019019Y019530D01*
X018614Y019125D01*
X018547Y019125D01*
X018432Y019077D01*
X018343Y018988D01*
X018295Y018873D01*
X018295Y018747D01*
X018343Y018632D01*
X018432Y018543D01*
X018547Y018495D01*
X018673Y018495D01*
X018788Y018543D01*
X018877Y018632D01*
X018925Y018747D01*
X018925Y018814D01*
X019201Y019090D01*
X021435Y019090D01*
X021482Y019043D01*
X021597Y018995D01*
X021723Y018995D01*
X021838Y019043D01*
X021927Y019132D01*
X021975Y019247D01*
X021975Y019373D01*
X021927Y019488D01*
X021838Y019577D01*
X021723Y019625D01*
X021597Y019625D01*
X021482Y019577D01*
X021797Y019594D02*
X021961Y019594D01*
X021932Y019476D02*
X022026Y019476D01*
X021975Y019357D02*
X022091Y019357D01*
X022155Y019239D02*
X021971Y019239D01*
X021916Y019120D02*
X022220Y019120D01*
X022285Y019002D02*
X021738Y019002D01*
X021582Y019002D02*
X019113Y019002D01*
X018994Y018883D02*
X022349Y018883D01*
X022345Y018765D02*
X018925Y018765D01*
X018883Y018646D02*
X022346Y018646D01*
X022397Y018528D02*
X018751Y018528D01*
X018469Y018528D02*
X018025Y018528D01*
X018025Y018646D02*
X018337Y018646D01*
X018295Y018765D02*
X018025Y018765D01*
X018025Y018883D02*
X018299Y018883D01*
X018356Y019002D02*
X018025Y019002D01*
X018025Y019120D02*
X018535Y019120D01*
X018727Y019239D02*
X018025Y019239D01*
X018025Y019357D02*
X018846Y019357D01*
X018964Y019476D02*
X018025Y019476D01*
X018025Y018409D02*
X022563Y018409D01*
X022757Y018409D02*
X022984Y018409D01*
X022953Y018528D02*
X022923Y018528D01*
X023015Y018291D02*
X018025Y018291D01*
X018025Y018172D02*
X023046Y018172D01*
X023078Y018054D02*
X018025Y018054D01*
X018025Y017935D02*
X023109Y017935D01*
X023140Y017817D02*
X018025Y017817D01*
X018025Y017698D02*
X023171Y017698D01*
X023202Y017580D02*
X018025Y017580D01*
X018025Y017461D02*
X023233Y017461D01*
X023264Y017343D02*
X018025Y017343D01*
X018025Y017224D02*
X023295Y017224D01*
X023326Y017106D02*
X018025Y017106D01*
X018025Y016987D02*
X023357Y016987D01*
X023388Y016869D02*
X018025Y016869D01*
X018031Y016750D02*
X023419Y016750D01*
X023451Y016632D02*
X018021Y016632D01*
X018037Y016683D02*
X018037Y016683D01*
X017984Y016513D02*
X023482Y016513D01*
X023513Y016395D02*
X017939Y016395D01*
X017840Y016276D02*
X023544Y016276D01*
X023530Y016158D02*
X017706Y016158D01*
X017770Y016191D02*
X017770Y016191D01*
X017517Y016059D02*
X017517Y016059D01*
X017475Y015921D02*
X023506Y015921D01*
X023495Y016039D02*
X017357Y016039D01*
X017529Y015802D02*
X023572Y015802D01*
X024048Y015802D02*
X024063Y015802D01*
X024061Y015684D02*
X017565Y015684D01*
X017565Y015565D02*
X024059Y015565D01*
X024057Y015447D02*
X017541Y015447D01*
X017492Y015328D02*
X024055Y015328D01*
X024053Y015210D02*
X017756Y015210D01*
X017817Y015091D02*
X024051Y015091D01*
X024049Y014973D02*
X017825Y014973D01*
X017786Y014854D02*
X024047Y014854D01*
X024045Y014736D02*
X017671Y014736D01*
X017349Y014736D02*
X016869Y014736D01*
X016927Y014617D02*
X024043Y014617D01*
X024042Y014499D02*
X023004Y014499D01*
X023064Y014464D02*
X022871Y014575D01*
X019049Y014575D01*
X018856Y014464D01*
X018745Y014271D01*
X018745Y011842D01*
X018745Y011799D01*
X018745Y011799D01*
X018856Y011606D01*
X018856Y011606D01*
X018856Y011606D01*
X019049Y011495D01*
X022871Y011495D01*
X023064Y011606D01*
X023064Y011606D01*
X023064Y011606D01*
X023175Y011799D01*
X023175Y014271D01*
X023064Y014464D01*
X023064Y014464D01*
X023064Y014464D01*
X023112Y014380D02*
X024040Y014380D01*
X024038Y014262D02*
X023175Y014262D01*
X023175Y014143D02*
X024036Y014143D01*
X024034Y014025D02*
X023175Y014025D01*
X023175Y013906D02*
X024032Y013906D01*
X024030Y013788D02*
X023175Y013788D01*
X023175Y013669D02*
X024028Y013669D01*
X024026Y013551D02*
X023175Y013551D01*
X023175Y013432D02*
X024024Y013432D01*
X023933Y013314D02*
X023175Y013314D01*
X023175Y013195D02*
X023895Y013195D01*
X023904Y013077D02*
X023175Y013077D01*
X023175Y012958D02*
X023966Y012958D01*
X024315Y012840D02*
X023175Y012840D01*
X023175Y012721D02*
X024281Y012721D01*
X024248Y012603D02*
X023175Y012603D01*
X023175Y012484D02*
X024214Y012484D01*
X024181Y012366D02*
X023175Y012366D01*
X023175Y012247D02*
X024147Y012247D01*
X024114Y012129D02*
X023175Y012129D01*
X023175Y012010D02*
X024080Y012010D01*
X024046Y011892D02*
X023175Y011892D01*
X023160Y011773D02*
X024013Y011773D01*
X023979Y011655D02*
X023092Y011655D01*
X022942Y011536D02*
X023946Y011536D01*
X023912Y011418D02*
X011180Y011418D01*
X011180Y011536D02*
X018978Y011536D01*
X018828Y011655D02*
X011180Y011655D01*
X011180Y011773D02*
X018760Y011773D01*
X018745Y011892D02*
X011180Y011892D01*
X011180Y011299D02*
X023879Y011299D01*
X023845Y011181D02*
X011180Y011181D01*
X011180Y011062D02*
X023811Y011062D01*
X023778Y010944D02*
X011180Y010944D01*
X011180Y010825D02*
X023744Y010825D01*
X023711Y010707D02*
X011180Y010707D01*
X011180Y010588D02*
X023593Y010588D01*
X023514Y010470D02*
X011180Y010470D01*
X011180Y010351D02*
X023495Y010351D01*
X023522Y010233D02*
X011180Y010233D01*
X011180Y010114D02*
X023611Y010114D01*
X023875Y009996D02*
X011180Y009996D01*
X008674Y008929D02*
X016865Y008929D01*
X017155Y008929D02*
X018540Y008929D01*
X018540Y008811D02*
X006975Y008811D01*
X006952Y008929D02*
X008246Y008929D01*
X008232Y009877D02*
X006412Y009877D01*
X006350Y010470D02*
X008205Y010470D01*
X008149Y010588D02*
X006350Y010588D01*
X006350Y010707D02*
X006968Y010707D01*
X006904Y010825D02*
X006350Y010825D01*
X006350Y010944D02*
X006458Y010944D01*
X006784Y011299D02*
X006902Y011299D01*
X007380Y011181D02*
X007630Y011181D01*
X007756Y011062D02*
X007488Y011062D01*
X007525Y010944D02*
X007882Y010944D01*
X008007Y010825D02*
X007516Y010825D01*
X007452Y010707D02*
X008133Y010707D01*
X006952Y008692D02*
X018540Y008692D01*
X018540Y008574D02*
X006869Y008574D01*
X006660Y008810D02*
X004960Y008810D01*
X004410Y009360D01*
X004263Y009640D02*
X002861Y009640D01*
X002834Y009759D02*
X005620Y009759D01*
X005620Y009877D02*
X002806Y009877D01*
X002778Y009996D02*
X005620Y009996D01*
X005620Y010114D02*
X002759Y010114D01*
X002819Y010233D02*
X005620Y010233D01*
X005620Y010351D02*
X002825Y010351D01*
X002785Y010470D02*
X005620Y010470D01*
X005620Y010588D02*
X002662Y010588D01*
X002358Y010588D02*
X002224Y010588D01*
X002218Y010470D02*
X002235Y010470D01*
X002230Y010707D02*
X005620Y010707D01*
X005620Y010825D02*
X002236Y010825D01*
X002242Y010944D02*
X005620Y010944D01*
X005620Y011062D02*
X002248Y011062D01*
X002254Y011181D02*
X005620Y011181D01*
X005620Y011299D02*
X002260Y011299D01*
X002266Y011418D02*
X005620Y011418D01*
X005620Y011536D02*
X002272Y011536D01*
X002277Y011655D02*
X005620Y011655D01*
X005620Y011773D02*
X002283Y011773D01*
X002289Y011892D02*
X005620Y011892D01*
X005620Y012010D02*
X002295Y012010D01*
X002301Y012129D02*
X005620Y012129D01*
X005620Y012247D02*
X002307Y012247D01*
X002313Y012366D02*
X005620Y012366D01*
X005620Y012484D02*
X002319Y012484D01*
X002325Y012603D02*
X005620Y012603D01*
X005620Y012721D02*
X002331Y012721D01*
X002337Y012840D02*
X005620Y012840D01*
X005620Y012958D02*
X002438Y012958D01*
X002475Y013077D02*
X005620Y013077D01*
X005620Y013195D02*
X002466Y013195D01*
X002402Y013314D02*
X005620Y013314D01*
X005620Y013432D02*
X001935Y013432D01*
X001918Y013314D02*
X001899Y013314D01*
X001971Y013551D02*
X005620Y013551D01*
X005620Y013669D02*
X002006Y013669D01*
X002042Y013788D02*
X005620Y013788D01*
X005620Y013906D02*
X002077Y013906D01*
X002113Y014025D02*
X005620Y014025D01*
X005620Y014143D02*
X002148Y014143D01*
X002184Y014262D02*
X005620Y014262D01*
X005620Y014380D02*
X002219Y014380D01*
X002255Y014499D02*
X005620Y014499D01*
X005557Y014617D02*
X002290Y014617D01*
X002326Y014736D02*
X005500Y014736D01*
X005495Y014854D02*
X002362Y014854D01*
X002397Y014973D02*
X005536Y014973D01*
X005665Y015091D02*
X002433Y015091D01*
X002464Y016395D02*
X003612Y016395D01*
X003730Y016513D02*
X002536Y016513D01*
X002607Y016632D02*
X003849Y016632D01*
X003967Y016750D02*
X002679Y016750D01*
X006000Y014499D02*
X006453Y014499D01*
X006398Y014380D02*
X006000Y014380D01*
X006063Y014617D02*
X006628Y014617D01*
X006395Y014262D02*
X006354Y014262D01*
X007050Y013669D02*
X008137Y013669D01*
X008120Y013551D02*
X007050Y013551D01*
X007050Y013432D02*
X008145Y013432D01*
X008226Y013314D02*
X007050Y013314D01*
X007050Y013195D02*
X008250Y013195D01*
X008167Y013077D02*
X007050Y013077D01*
X007050Y012958D02*
X008145Y012958D01*
X008169Y012840D02*
X007050Y012840D01*
X005620Y009640D02*
X004557Y009640D01*
X004684Y009522D02*
X005620Y009522D01*
X005620Y009403D02*
X004725Y009403D01*
X004768Y009285D02*
X005620Y009285D01*
X005685Y009166D02*
X004887Y009166D01*
X005005Y009048D02*
X005804Y009048D01*
X006451Y008574D02*
X003110Y008574D01*
X003083Y008692D02*
X004795Y008692D01*
X004677Y008811D02*
X003055Y008811D01*
X003027Y008929D02*
X004558Y008929D01*
X004341Y009048D02*
X003000Y009048D01*
X002972Y009166D02*
X004159Y009166D01*
X004100Y009285D02*
X002944Y009285D01*
X002917Y009403D02*
X004095Y009403D01*
X004136Y009522D02*
X002889Y009522D01*
X003138Y008455D02*
X018540Y008455D01*
X018540Y008337D02*
X003166Y008337D01*
X004944Y005611D02*
X005216Y005611D01*
X005124Y005493D02*
X005009Y005493D01*
X005073Y005374D02*
X005095Y005374D01*
X006302Y004663D02*
X020149Y004663D01*
X019931Y004545D02*
X006410Y004545D01*
X006518Y004426D02*
X019713Y004426D01*
X019495Y004308D02*
X006626Y004308D01*
X006734Y004189D02*
X019277Y004189D01*
X019059Y004071D02*
X006842Y004071D01*
X006950Y003952D02*
X018841Y003952D01*
X018388Y003834D02*
X007882Y003834D01*
X007957Y003715D02*
X018313Y003715D01*
X018295Y003597D02*
X008050Y003597D01*
X008246Y003478D02*
X018324Y003478D01*
X018415Y003360D02*
X008442Y003360D01*
X008639Y003241D02*
X018032Y003241D01*
X017573Y003123D02*
X008835Y003123D01*
X009031Y003004D02*
X017114Y003004D01*
X016655Y002886D02*
X009228Y002886D01*
X009424Y002767D02*
X010122Y002767D01*
X010026Y002649D02*
X009620Y002649D01*
X009816Y002530D02*
X009995Y002530D01*
X010498Y002767D02*
X015772Y002767D01*
X015676Y002649D02*
X010594Y002649D01*
X010927Y002530D02*
X015645Y002530D01*
X015660Y002412D02*
X013354Y002412D01*
X012966Y002412D02*
X011338Y002412D01*
X011749Y002293D02*
X012874Y002293D01*
X012845Y002175D02*
X012161Y002175D01*
X012572Y002056D02*
X012862Y002056D01*
X012459Y000990D02*
X009080Y000990D01*
X008728Y001108D02*
X011642Y001108D01*
X011791Y000397D02*
X014529Y000397D01*
X014678Y001108D02*
X017592Y001108D01*
X017240Y000990D02*
X013861Y000990D01*
X013327Y000871D02*
X016888Y000871D01*
X016503Y000753D02*
X009817Y000753D01*
X009432Y000871D02*
X012924Y000871D01*
X010893Y000516D02*
X015427Y000516D01*
X015965Y000634D02*
X010355Y000634D01*
X010826Y001227D02*
X008384Y001227D01*
X008127Y001345D02*
X009830Y001345D01*
X009718Y001464D02*
X007871Y001464D01*
X007615Y001582D02*
X009431Y001582D01*
X009145Y001701D02*
X007359Y001701D01*
X007111Y001819D02*
X008859Y001819D01*
X008572Y001938D02*
X006914Y001938D01*
X006717Y002056D02*
X008286Y002056D01*
X008000Y002175D02*
X006520Y002175D01*
X006323Y002293D02*
X007713Y002293D01*
X007427Y002412D02*
X006126Y002412D01*
X005933Y002530D02*
X006937Y002530D01*
X006844Y002649D02*
X005777Y002649D01*
X005621Y002767D02*
X006787Y002767D01*
X006631Y002886D02*
X005465Y002886D01*
X005309Y003004D02*
X006475Y003004D01*
X006319Y003123D02*
X005153Y003123D01*
X004998Y003241D02*
X006164Y003241D01*
X006008Y003360D02*
X004842Y003360D01*
X004716Y003478D02*
X005852Y003478D01*
X005696Y003597D02*
X004591Y003597D01*
X004466Y003715D02*
X005540Y003715D01*
X005384Y003834D02*
X004341Y003834D01*
X004215Y003952D02*
X005228Y003952D01*
X005072Y004071D02*
X004090Y004071D01*
X007058Y003834D02*
X007438Y003834D01*
X007363Y003715D02*
X007166Y003715D01*
X007274Y003597D02*
X007345Y003597D01*
X007244Y004900D02*
X019076Y004900D01*
X018940Y004956D02*
X018940Y004956D01*
X018878Y005019D02*
X007442Y005019D01*
X007380Y004956D02*
X007380Y004956D01*
X007561Y005137D02*
X018759Y005137D01*
X018706Y005190D02*
X018706Y005190D01*
X018679Y005256D02*
X007641Y005256D01*
X007614Y005190D02*
X007614Y005190D01*
X007614Y005190D01*
X007690Y005374D02*
X018630Y005374D01*
X018581Y005493D02*
X007739Y005493D01*
X007740Y005611D02*
X018580Y005611D01*
X018580Y005730D02*
X007740Y005730D01*
X007731Y005848D02*
X018589Y005848D01*
X018639Y005967D02*
X007681Y005967D01*
X015494Y001227D02*
X017936Y001227D01*
X018193Y001345D02*
X016490Y001345D01*
X016602Y001464D02*
X018449Y001464D01*
X018705Y001582D02*
X016889Y001582D01*
X017175Y001701D02*
X018961Y001701D01*
X019209Y001819D02*
X017461Y001819D01*
X017748Y001938D02*
X019406Y001938D01*
X019603Y002056D02*
X018034Y002056D01*
X018320Y002175D02*
X019800Y002175D01*
X019997Y002293D02*
X018607Y002293D01*
X018893Y002412D02*
X020194Y002412D01*
X020387Y002530D02*
X019375Y002530D01*
X019455Y002649D02*
X020543Y002649D01*
X020699Y002767D02*
X019533Y002767D01*
X019689Y002886D02*
X020855Y002886D01*
X021011Y003004D02*
X019845Y003004D01*
X020001Y003123D02*
X021167Y003123D01*
X021322Y003241D02*
X020156Y003241D01*
X020312Y003360D02*
X021478Y003360D01*
X021604Y003478D02*
X020468Y003478D01*
X020624Y003597D02*
X021729Y003597D01*
X021854Y003715D02*
X020780Y003715D01*
X020936Y003834D02*
X021979Y003834D01*
X022105Y003952D02*
X021092Y003952D01*
X021248Y004071D02*
X022230Y004071D01*
X022355Y004189D02*
X021404Y004189D01*
X021560Y004308D02*
X022480Y004308D01*
X022583Y004426D02*
X021864Y004426D01*
X021965Y004545D02*
X022684Y004545D01*
X022784Y004663D02*
X022000Y004663D01*
X022029Y004782D02*
X022885Y004782D01*
X022986Y004900D02*
X022119Y004900D01*
X022209Y005019D02*
X023086Y005019D01*
X023187Y005137D02*
X022299Y005137D01*
X022389Y005256D02*
X023288Y005256D01*
X023388Y005374D02*
X022479Y005374D01*
X021609Y004345D02*
X021609Y004345D01*
X018540Y009048D02*
X017284Y009048D01*
X017325Y009166D02*
X018540Y009166D01*
X018524Y009285D02*
X017320Y009285D01*
X018745Y012010D02*
X015520Y012010D01*
X015520Y012129D02*
X018745Y012129D01*
X018745Y012247D02*
X015520Y012247D01*
X015520Y012366D02*
X018745Y012366D01*
X018745Y012484D02*
X015520Y012484D01*
X015520Y012603D02*
X018745Y012603D01*
X018745Y012721D02*
X015520Y012721D01*
X015520Y012840D02*
X018745Y012840D01*
X018745Y012958D02*
X015520Y012958D01*
X015520Y013077D02*
X018745Y013077D01*
X018745Y013195D02*
X015520Y013195D01*
X015520Y013314D02*
X018745Y013314D01*
X018745Y013432D02*
X015520Y013432D01*
X015520Y013551D02*
X018745Y013551D01*
X018745Y013669D02*
X015520Y013669D01*
X015520Y013788D02*
X018745Y013788D01*
X018745Y013906D02*
X015470Y013906D01*
X014941Y014262D02*
X016279Y014262D01*
X016210Y014380D02*
X015010Y014380D01*
X015031Y014499D02*
X016189Y014499D01*
X016203Y014617D02*
X015017Y014617D01*
X014959Y014736D02*
X016261Y014736D01*
X016418Y014854D02*
X014802Y014854D01*
X016712Y014854D02*
X017234Y014854D01*
X016941Y014499D02*
X018916Y014499D01*
X018856Y014464D02*
X018856Y014464D01*
X018808Y014380D02*
X016919Y014380D01*
X016851Y014262D02*
X018745Y014262D01*
X020943Y020898D02*
X021250Y020898D01*
X021186Y021016D02*
X021041Y021016D01*
X021075Y021135D02*
X021121Y021135D01*
X016196Y002767D02*
X016148Y002767D01*
X016052Y001308D02*
X016052Y001308D01*
D16*
X016260Y001560D03*
X016310Y002110D03*
X015960Y002510D03*
X013160Y002160D03*
X013260Y001660D03*
X013125Y001115D03*
X010310Y002010D03*
X010310Y002510D03*
X010060Y001560D03*
X007660Y003610D03*
X007460Y003110D03*
X007128Y002784D03*
X005110Y004910D03*
X004676Y004647D03*
X005410Y005360D03*
X003210Y007310D03*
X002777Y007137D03*
X003610Y007660D03*
X004410Y009360D03*
X006033Y008235D03*
X006660Y008810D03*
X008460Y009160D03*
X008460Y009660D03*
X008460Y010660D03*
X008460Y011660D03*
X008460Y012960D03*
X006710Y014310D03*
X006160Y014010D03*
X005810Y014810D03*
X005160Y015310D03*
X003710Y016060D03*
X002510Y016010D03*
X002010Y016010D03*
X001560Y016260D03*
X003610Y018660D03*
X003060Y018760D03*
X002760Y019160D03*
X004860Y021160D03*
X005310Y020910D03*
X004660Y021660D03*
X007260Y023110D03*
X007160Y023560D03*
X007660Y022760D03*
X010060Y024310D03*
X010035Y024770D03*
X010310Y023810D03*
X012160Y023660D03*
X013210Y024160D03*
X014060Y023660D03*
X013160Y025160D03*
X016060Y024260D03*
X016260Y024760D03*
X018860Y023360D03*
X018760Y022860D03*
X019260Y023710D03*
X021160Y021460D03*
X020760Y021160D03*
X021678Y021636D03*
X021660Y019310D03*
X022660Y018710D03*
X023010Y019060D03*
X023543Y019183D03*
X024260Y016260D03*
X024750Y016285D03*
X023810Y016010D03*
X024660Y013360D03*
X024210Y013160D03*
X025160Y013160D03*
X024310Y010360D03*
X023810Y010360D03*
X024760Y010010D03*
X022810Y007810D03*
X023260Y007610D03*
X023548Y007145D03*
X021460Y005160D03*
X021685Y004693D03*
X020960Y005410D03*
X019060Y003310D03*
X018610Y003610D03*
X019160Y002760D03*
X015410Y006960D03*
X017010Y009210D03*
X017510Y015010D03*
X018610Y018810D03*
X012660Y015560D03*
X010410Y016060D03*
X009960Y016060D03*
X009440Y016910D03*
X008910Y017050D03*
X008910Y017860D03*
X006960Y015910D03*
X010310Y014360D03*
X007210Y010910D03*
X006510Y011460D03*
X002510Y010310D03*
X002010Y010110D03*
X001560Y010060D03*
X001610Y013010D03*
X001160Y013160D03*
X002160Y013110D03*
D17*
X001160Y013160D02*
X001212Y013566D01*
X001560Y016260D01*
X001709Y016619D01*
X002760Y019160D01*
X003117Y019630D01*
X004660Y021660D01*
X004835Y021793D01*
X007160Y023560D01*
X007409Y023663D01*
X010060Y024760D01*
X010035Y024770D01*
X010565Y024825D01*
X013160Y025160D01*
X016260Y024760D02*
X019260Y023710D01*
X020535Y022677D01*
X021660Y021660D01*
X021678Y021636D01*
X021945Y021285D01*
X021678Y021636D02*
X023543Y019183D01*
X023628Y018997D01*
X024750Y016285D01*
X024787Y016051D01*
X025160Y013160D01*
X025136Y012969D01*
X024760Y010010D01*
X024673Y009804D01*
X023560Y007160D01*
X023548Y007145D01*
X023324Y006849D01*
X021685Y004693D01*
X021548Y004575D01*
X019160Y002760D01*
X018602Y002529D01*
X016260Y001560D01*
X015931Y001512D01*
X013160Y001110D01*
X013125Y001115D01*
X012572Y001195D01*
X010060Y001560D01*
X009562Y001766D01*
X007160Y002760D01*
X007128Y002784D01*
X006595Y003190D01*
X004676Y004647D01*
X004533Y004827D01*
X002777Y007137D01*
X002703Y007298D01*
X001560Y010060D01*
X001533Y010269D01*
X001160Y013160D01*
X002703Y007298D02*
X002760Y007160D01*
X002777Y007137D01*
X004533Y004827D02*
X004660Y004660D01*
X004676Y004647D01*
X010510Y006310D02*
X010710Y006510D01*
X010710Y007960D01*
X010960Y009210D02*
X010660Y009510D01*
X010660Y012760D01*
X010460Y012960D01*
X008460Y012960D01*
X008460Y013560D02*
X010760Y013560D01*
X010960Y013360D01*
X010960Y009710D01*
X011110Y009560D01*
X018560Y009560D01*
X018760Y009360D01*
X018760Y007360D01*
X018960Y007160D01*
X020810Y007160D01*
X021685Y004693D02*
X021660Y004660D01*
X021548Y004575D01*
X017010Y009210D02*
X010960Y009210D01*
X018610Y018810D02*
X019110Y019310D01*
X021660Y019310D01*
X023543Y019183D02*
X023560Y019160D01*
X023628Y018997D01*
X024750Y016285D02*
X024760Y016260D01*
X024787Y016051D01*
D18*
X020810Y007160D03*
X010710Y007960D03*
X010510Y006310D03*
X008460Y013560D03*
D19*
X006860Y014160D02*
X006710Y014310D01*
X006860Y014160D02*
X006860Y011610D01*
X007010Y011460D01*
X007610Y011460D01*
X008460Y010660D01*
X008460Y009660D02*
X006360Y009660D01*
X006160Y009860D01*
X006160Y014010D01*
X005810Y014810D02*
X005810Y009310D01*
X005960Y009160D01*
X008460Y009160D01*
X007210Y010910D02*
X007060Y011060D01*
X006610Y011060D01*
X006510Y011160D01*
X006510Y011460D01*
X003610Y007660D02*
X005110Y004910D01*
X005410Y005360D02*
X007460Y003110D01*
X007660Y003610D02*
X010310Y002010D01*
X010310Y002510D02*
X013260Y001660D01*
X013160Y002160D02*
X016310Y002110D01*
X015960Y002510D02*
X019060Y003310D01*
X018610Y003610D02*
X021460Y005160D01*
X020960Y005410D02*
X023260Y007610D01*
X022810Y007810D02*
X024310Y010360D01*
X023810Y010360D02*
X024660Y013360D01*
X024210Y013160D02*
X024260Y016260D01*
X023810Y016010D02*
X023010Y019060D01*
X022660Y018710D02*
X021160Y021460D01*
X020760Y021160D02*
X018860Y023360D01*
X018760Y022860D02*
X016060Y024260D01*
X013210Y024160D02*
X010060Y024310D01*
X010310Y023810D02*
X007260Y023110D01*
X007660Y022760D02*
X004860Y021160D01*
X005310Y020910D02*
X003060Y018760D01*
X003610Y018660D02*
X002010Y016010D01*
X002510Y016010D02*
X001610Y013010D01*
X002160Y013110D02*
X002010Y010110D01*
X002510Y010310D02*
X003210Y007310D01*
X012660Y015560D02*
X013160Y015060D01*
X017460Y015060D01*
X017510Y015010D01*
M02*
