G75*
%MOIN*%
%OFA0B0*%
%FSLAX24Y24*%
%IPPOS*%
%LPD*%
%AMOC8*
5,1,8,0,0,1.08239X$1,22.5*
%
%ADD10C,0.0472*%
%ADD11C,0.0787*%
%ADD12C,0.0120*%
%ADD13C,0.0350*%
%ADD14C,0.0160*%
%ADD15C,0.0100*%
D10*
X013805Y018058D03*
X015715Y018058D03*
D11*
X016181Y019160D03*
X013339Y019160D03*
D12*
X004916Y004189D02*
X003965Y004189D01*
X003840Y004308D02*
X004760Y004308D01*
X004727Y004332D02*
X006389Y003070D01*
X006389Y003070D01*
X006813Y002747D01*
X006813Y002721D01*
X006861Y002606D01*
X006950Y002517D01*
X007066Y002469D01*
X007191Y002469D01*
X007239Y002489D01*
X009563Y001528D01*
X009768Y001443D01*
X009793Y001382D01*
X009882Y001293D01*
X009997Y001245D01*
X010123Y001245D01*
X010238Y001293D01*
X010255Y001309D01*
X012631Y000964D01*
X012631Y000964D01*
X012864Y000931D01*
X012947Y000848D01*
X013063Y000800D01*
X013188Y000800D01*
X013304Y000848D01*
X013375Y000919D01*
X016052Y001308D01*
X016065Y001309D01*
X016082Y001293D01*
X016197Y001245D01*
X016323Y001245D01*
X016438Y001293D01*
X016527Y001382D01*
X016552Y001443D01*
X018620Y002298D01*
X019036Y002471D01*
X019097Y002445D01*
X019223Y002445D01*
X019338Y002493D01*
X019427Y002582D01*
X019475Y002697D01*
X019475Y002723D01*
X021609Y004345D01*
X021609Y004345D01*
X021615Y004350D01*
X021623Y004349D01*
X021657Y004378D01*
X021748Y004378D01*
X021863Y004426D01*
X021952Y004515D01*
X022000Y004630D01*
X022000Y004744D01*
X023444Y006644D01*
X023585Y006830D01*
X023611Y006830D01*
X023727Y006878D01*
X023815Y006966D01*
X023863Y007082D01*
X023863Y007207D01*
X023841Y007261D01*
X024841Y009635D01*
X024875Y009717D01*
X024938Y009743D01*
X025027Y009832D01*
X025075Y009947D01*
X025075Y010073D01*
X025027Y010188D01*
X025007Y010209D01*
X025349Y012904D01*
X025427Y012982D01*
X025475Y013097D01*
X025475Y013223D01*
X025427Y013338D01*
X025349Y013417D01*
X025016Y015992D01*
X025019Y015995D01*
X025005Y016082D01*
X025003Y016093D01*
X025017Y016107D01*
X025065Y016222D01*
X025065Y016348D01*
X025017Y016463D01*
X024928Y016552D01*
X024867Y016577D01*
X023866Y018997D01*
X023864Y019001D01*
X023866Y019005D01*
X023836Y019069D01*
X023858Y019120D01*
X023858Y019245D01*
X023810Y019361D01*
X023721Y019450D01*
X023605Y019498D01*
X023580Y019498D01*
X022175Y021345D01*
X022175Y021345D01*
X022088Y021460D01*
X021993Y021585D01*
X021993Y021699D01*
X021945Y021814D01*
X021857Y021903D01*
X021741Y021951D01*
X021641Y021951D01*
X019541Y023547D01*
X019541Y023547D01*
X019475Y023597D01*
X019475Y023623D01*
X020607Y023623D01*
X020763Y023505D02*
X019597Y023505D01*
X019475Y023623D02*
X019427Y023738D01*
X019338Y023827D01*
X019223Y023875D01*
X019097Y023875D01*
X019036Y023849D01*
X016552Y024877D01*
X016527Y024938D01*
X016438Y025027D01*
X016323Y025075D01*
X016197Y025075D01*
X016082Y025027D01*
X015993Y024938D01*
X015945Y024823D01*
X015945Y024697D01*
X015993Y024582D01*
X016000Y024575D01*
X015997Y024575D01*
X015882Y024527D01*
X015793Y024438D01*
X015745Y024323D01*
X015745Y024197D01*
X015793Y024082D01*
X015882Y023993D01*
X015997Y023945D01*
X016123Y023945D01*
X016179Y023968D01*
X018345Y022677D01*
X018345Y022647D01*
X018393Y022532D01*
X018482Y022443D01*
X018597Y022395D01*
X018723Y022395D01*
X018838Y022443D01*
X018927Y022532D01*
X018975Y022647D01*
X018975Y022718D01*
X020445Y021211D01*
X020445Y021097D01*
X020493Y020982D01*
X020582Y020893D01*
X020697Y020845D01*
X020823Y020845D01*
X020938Y020893D01*
X021027Y020982D01*
X021075Y021097D01*
X021075Y021154D01*
X021097Y021145D01*
X021115Y021145D01*
X022373Y018840D01*
X022345Y018773D01*
X022345Y018647D01*
X022393Y018532D01*
X022482Y018443D01*
X022597Y018395D01*
X022723Y018395D01*
X022838Y018443D01*
X022927Y018532D01*
X022942Y018569D01*
X023562Y016207D01*
X023543Y016188D01*
X023495Y016073D01*
X023495Y015947D01*
X023543Y015832D01*
X023632Y015743D01*
X023747Y015695D01*
X023873Y015695D01*
X023988Y015743D01*
X024063Y015817D01*
X024024Y013420D01*
X023943Y013338D01*
X023895Y013223D01*
X023895Y013097D01*
X023943Y012982D01*
X024032Y012893D01*
X024147Y012845D01*
X024273Y012845D01*
X024322Y012866D01*
X023696Y010654D01*
X023632Y010627D01*
X023543Y010538D01*
X023495Y010423D01*
X023495Y010297D01*
X023543Y010182D01*
X023632Y010093D01*
X023747Y010045D01*
X023873Y010045D01*
X023914Y010062D01*
X022775Y008125D01*
X022747Y008125D01*
X022632Y008077D01*
X022543Y007988D01*
X022495Y007873D01*
X022495Y007747D01*
X022543Y007632D01*
X022632Y007543D01*
X022747Y007495D01*
X022865Y007495D01*
X021014Y005725D01*
X020897Y005725D01*
X020782Y005677D01*
X020693Y005588D01*
X020645Y005473D01*
X020645Y005347D01*
X020693Y005232D01*
X020782Y005143D01*
X020897Y005095D01*
X020943Y005095D01*
X018740Y003897D01*
X018673Y003925D01*
X018547Y003925D01*
X018432Y003877D01*
X018343Y003788D01*
X018295Y003673D01*
X018295Y003547D01*
X018343Y003432D01*
X018431Y003344D01*
X016158Y002757D01*
X016138Y002777D01*
X016023Y002825D01*
X015897Y002825D01*
X015782Y002777D01*
X015693Y002688D01*
X015645Y002573D01*
X015645Y002447D01*
X015693Y002332D01*
X015715Y002309D01*
X013420Y002346D01*
X013338Y002427D01*
X013223Y002475D01*
X013097Y002475D01*
X012982Y002427D01*
X012893Y002338D01*
X012845Y002223D01*
X012845Y002097D01*
X012893Y001982D01*
X012918Y001956D01*
X010604Y002623D01*
X010577Y002688D01*
X010488Y002777D01*
X010373Y002825D01*
X010247Y002825D01*
X010132Y002777D01*
X010043Y002688D01*
X009995Y002573D01*
X009995Y002447D01*
X010009Y002414D01*
X007975Y003642D01*
X007975Y003673D01*
X007927Y003788D01*
X007838Y003877D01*
X007723Y003925D01*
X007597Y003925D01*
X007482Y003877D01*
X007393Y003788D01*
X007345Y003673D01*
X007345Y003547D01*
X007367Y003494D01*
X005725Y005297D01*
X005725Y005423D01*
X005677Y005538D01*
X005588Y005627D01*
X005473Y005675D01*
X005347Y005675D01*
X005232Y005627D01*
X005143Y005538D01*
X005095Y005423D01*
X005095Y005334D01*
X003897Y007530D01*
X003925Y007597D01*
X003925Y007723D01*
X003877Y007838D01*
X003788Y007927D01*
X003673Y007975D01*
X003547Y007975D01*
X003432Y007927D01*
X003343Y007838D01*
X003304Y007744D01*
X003304Y007744D01*
X002752Y010107D01*
X002777Y010132D01*
X002825Y010247D01*
X002825Y010373D01*
X002777Y010488D01*
X002688Y010577D01*
X002573Y010625D01*
X002447Y010625D01*
X002332Y010577D01*
X002243Y010488D01*
X002216Y010423D01*
X002337Y012842D01*
X002338Y012843D01*
X002427Y012932D01*
X002475Y013047D01*
X002475Y013173D01*
X002427Y013288D01*
X002338Y013377D01*
X002223Y013425D01*
X002097Y013425D01*
X001982Y013377D01*
X001893Y013288D01*
X001889Y013279D01*
X002620Y015714D01*
X002688Y015743D01*
X002777Y015832D01*
X002825Y015947D01*
X002825Y016073D01*
X002777Y016188D01*
X002688Y016277D01*
X002573Y016325D01*
X002447Y016325D01*
X002414Y016311D01*
X003642Y018345D01*
X003673Y018345D01*
X003788Y018393D01*
X003877Y018482D01*
X003925Y018597D01*
X003925Y018723D01*
X003877Y018838D01*
X003788Y018927D01*
X003673Y018975D01*
X003560Y018975D01*
X005255Y020595D01*
X005373Y020595D01*
X005488Y020643D01*
X005577Y020732D01*
X005625Y020847D01*
X005625Y020973D01*
X005577Y021088D01*
X005488Y021177D01*
X005373Y021225D01*
X005370Y021225D01*
X007532Y022422D01*
X007597Y022395D01*
X007723Y022395D01*
X007838Y022443D01*
X007927Y022532D01*
X007975Y022647D01*
X007975Y022773D01*
X007927Y022888D01*
X007838Y022977D01*
X007728Y023023D01*
X010106Y023568D01*
X010132Y023543D01*
X010247Y023495D01*
X010373Y023495D01*
X010488Y023543D01*
X010577Y023632D01*
X010625Y023747D01*
X010625Y023873D01*
X010577Y023988D01*
X010488Y024077D01*
X010427Y024102D01*
X012943Y023983D01*
X012943Y023982D01*
X013032Y023893D01*
X013147Y023845D01*
X013273Y023845D01*
X013388Y023893D01*
X013477Y023982D01*
X013525Y024097D01*
X015787Y024097D01*
X015745Y024216D02*
X013525Y024216D01*
X013525Y024223D02*
X013477Y024338D01*
X013388Y024427D01*
X013273Y024475D01*
X013147Y024475D01*
X013032Y024427D01*
X012966Y024362D01*
X010327Y024487D01*
X010327Y024488D01*
X010263Y024553D01*
X010285Y024575D01*
X010500Y024597D01*
X010502Y024595D01*
X010590Y024607D01*
X010678Y024616D01*
X010680Y024618D01*
X012962Y024913D01*
X012982Y024893D01*
X013097Y024845D01*
X013223Y024845D01*
X013338Y024893D01*
X013427Y024982D01*
X013475Y025097D01*
X013475Y025223D01*
X013427Y025338D01*
X013338Y025427D01*
X013223Y025475D01*
X013097Y025475D01*
X012982Y025427D01*
X012903Y025349D01*
X010539Y025044D01*
X010238Y025012D01*
X010213Y025037D01*
X010097Y025085D01*
X009972Y025085D01*
X009856Y025037D01*
X009768Y024948D01*
X009732Y024862D01*
X007409Y023901D01*
X007284Y023849D01*
X007223Y023875D01*
X007097Y023875D01*
X006982Y023827D01*
X006893Y023738D01*
X006845Y023623D01*
X005713Y023623D01*
X005557Y023505D02*
X006723Y023505D01*
X006845Y023597D02*
X004711Y021975D01*
X004597Y021975D01*
X004482Y021927D01*
X004393Y021838D01*
X004345Y021723D01*
X004345Y021609D01*
X002997Y019836D01*
X002723Y019475D01*
X002697Y019475D01*
X002582Y019427D01*
X002493Y019338D01*
X002445Y019223D01*
X002445Y019097D01*
X002471Y019036D01*
X001471Y016619D01*
X001443Y016552D01*
X001382Y016527D01*
X001293Y016438D01*
X001245Y016323D01*
X001245Y016197D01*
X001293Y016082D01*
X001313Y016062D01*
X001006Y013685D01*
X000971Y013417D01*
X000893Y013338D01*
X000845Y013223D01*
X000845Y013097D01*
X000893Y012982D01*
X000971Y012903D01*
X001313Y010258D01*
X001293Y010238D01*
X001245Y010123D01*
X001245Y009997D01*
X001293Y009882D01*
X001382Y009793D01*
X001443Y009768D01*
X002467Y007294D01*
X002465Y007289D01*
X002483Y007250D01*
X002462Y007200D01*
X002462Y007075D01*
X002510Y006959D01*
X002599Y006870D01*
X002715Y006822D01*
X002740Y006822D01*
X004304Y004764D01*
X004304Y004761D01*
X004359Y004692D01*
X004361Y004689D01*
X004361Y004585D01*
X004409Y004469D01*
X004498Y004380D01*
X004614Y004332D01*
X004727Y004332D01*
X004452Y004426D02*
X003737Y004426D01*
X003827Y004320D02*
X002926Y005380D01*
X002145Y006533D01*
X001493Y007762D01*
X000978Y009055D01*
X000606Y010397D01*
X000380Y011770D01*
X000305Y013160D01*
X000380Y014550D01*
X000606Y015923D01*
X000978Y017265D01*
X001493Y018558D01*
X002145Y019787D01*
X002926Y020940D01*
X003827Y022000D01*
X004838Y022958D01*
X005946Y023800D01*
X007139Y024518D01*
X008402Y025102D01*
X009721Y025546D01*
X011080Y025846D01*
X012464Y025996D01*
X013856Y025996D01*
X015240Y025846D01*
X016599Y025546D01*
X017918Y025102D01*
X019181Y024518D01*
X020374Y023800D01*
X021482Y022958D01*
X022493Y022000D01*
X023394Y020940D01*
X024175Y019787D01*
X024827Y018558D01*
X025342Y017265D01*
X025714Y015923D01*
X025940Y014550D01*
X026015Y013160D01*
X025940Y011770D01*
X025940Y011770D01*
X025714Y010397D01*
X025342Y009055D01*
X024827Y007762D01*
X024175Y006533D01*
X023394Y005380D01*
X022493Y004320D01*
X022493Y004320D01*
X021482Y003362D01*
X020374Y002520D01*
X019181Y001802D01*
X017918Y001218D01*
X016599Y000774D01*
X015240Y000474D01*
X013856Y000324D01*
X012464Y000324D01*
X011080Y000474D01*
X009721Y000774D01*
X008402Y001218D01*
X007139Y001802D01*
X005946Y002520D01*
X004838Y003362D01*
X003827Y004320D01*
X003636Y004545D02*
X004378Y004545D01*
X004361Y004663D02*
X003536Y004663D01*
X003435Y004782D02*
X004291Y004782D01*
X004201Y004900D02*
X003334Y004900D01*
X003234Y005019D02*
X004111Y005019D01*
X004021Y005137D02*
X003133Y005137D01*
X003032Y005256D02*
X003931Y005256D01*
X003841Y005374D02*
X002932Y005374D01*
X002850Y005493D02*
X003751Y005493D01*
X003661Y005611D02*
X002770Y005611D01*
X002690Y005730D02*
X003571Y005730D01*
X003481Y005848D02*
X002609Y005848D01*
X002529Y005967D02*
X003391Y005967D01*
X003301Y006085D02*
X002449Y006085D01*
X002368Y006204D02*
X003211Y006204D01*
X003121Y006322D02*
X002288Y006322D01*
X002208Y006441D02*
X003030Y006441D01*
X002940Y006559D02*
X002131Y006559D01*
X002068Y006678D02*
X002850Y006678D01*
X002760Y006796D02*
X002005Y006796D01*
X001943Y006915D02*
X002555Y006915D01*
X002480Y007033D02*
X001880Y007033D01*
X001817Y007152D02*
X002462Y007152D01*
X002473Y007270D02*
X001754Y007270D01*
X001691Y007389D02*
X002427Y007389D01*
X002378Y007507D02*
X001628Y007507D01*
X001566Y007626D02*
X002329Y007626D01*
X002280Y007744D02*
X001503Y007744D01*
X001453Y007863D02*
X002231Y007863D01*
X002182Y007981D02*
X001406Y007981D01*
X001359Y008100D02*
X002133Y008100D01*
X002084Y008218D02*
X001312Y008218D01*
X001264Y008337D02*
X002035Y008337D01*
X001986Y008455D02*
X001217Y008455D01*
X001170Y008574D02*
X001937Y008574D01*
X001888Y008692D02*
X001123Y008692D01*
X001075Y008811D02*
X001839Y008811D01*
X001790Y008929D02*
X001028Y008929D01*
X000981Y009048D02*
X001741Y009048D01*
X001692Y009166D02*
X000947Y009166D01*
X000914Y009285D02*
X001643Y009285D01*
X001594Y009403D02*
X000881Y009403D01*
X000848Y009522D02*
X001545Y009522D01*
X001496Y009640D02*
X000816Y009640D01*
X000783Y009759D02*
X001447Y009759D01*
X001298Y009877D02*
X000750Y009877D01*
X000717Y009996D02*
X001246Y009996D01*
X001245Y010114D02*
X000684Y010114D01*
X000651Y010233D02*
X001291Y010233D01*
X001301Y010351D02*
X000618Y010351D01*
X000594Y010470D02*
X001285Y010470D01*
X001270Y010588D02*
X000574Y010588D01*
X000555Y010707D02*
X001255Y010707D01*
X001239Y010825D02*
X000535Y010825D01*
X000516Y010944D02*
X001224Y010944D01*
X001209Y011062D02*
X000496Y011062D01*
X000477Y011181D02*
X001194Y011181D01*
X001178Y011299D02*
X000458Y011299D01*
X000438Y011418D02*
X001163Y011418D01*
X001148Y011536D02*
X000419Y011536D01*
X000399Y011655D02*
X001132Y011655D01*
X001117Y011773D02*
X000380Y011773D01*
X000374Y011892D02*
X001102Y011892D01*
X001087Y012010D02*
X000367Y012010D01*
X000361Y012129D02*
X001071Y012129D01*
X001056Y012247D02*
X000354Y012247D01*
X000348Y012366D02*
X001041Y012366D01*
X001025Y012484D02*
X000342Y012484D01*
X000335Y012603D02*
X001010Y012603D01*
X000995Y012721D02*
X000329Y012721D01*
X000322Y012840D02*
X000980Y012840D01*
X000916Y012958D02*
X000316Y012958D01*
X000310Y013077D02*
X000854Y013077D01*
X000845Y013195D02*
X000307Y013195D01*
X000313Y013314D02*
X000883Y013314D01*
X000973Y013432D02*
X000320Y013432D01*
X000326Y013551D02*
X000989Y013551D01*
X001004Y013669D02*
X000333Y013669D01*
X000339Y013788D02*
X001019Y013788D01*
X001034Y013906D02*
X000345Y013906D01*
X000352Y014025D02*
X001050Y014025D01*
X001065Y014143D02*
X000358Y014143D01*
X000365Y014262D02*
X001080Y014262D01*
X001096Y014380D02*
X000371Y014380D01*
X000378Y014499D02*
X001111Y014499D01*
X001126Y014617D02*
X000391Y014617D01*
X000411Y014736D02*
X001141Y014736D01*
X001157Y014854D02*
X000430Y014854D01*
X000450Y014973D02*
X001172Y014973D01*
X001187Y015091D02*
X000469Y015091D01*
X000489Y015210D02*
X001203Y015210D01*
X001218Y015328D02*
X000508Y015328D01*
X000527Y015447D02*
X001233Y015447D01*
X001249Y015565D02*
X000547Y015565D01*
X000566Y015684D02*
X001264Y015684D01*
X001279Y015802D02*
X000586Y015802D01*
X000605Y015921D02*
X001294Y015921D01*
X001310Y016039D02*
X000638Y016039D01*
X000671Y016158D02*
X001261Y016158D01*
X001245Y016276D02*
X000703Y016276D01*
X000736Y016395D02*
X001275Y016395D01*
X001368Y016513D02*
X000769Y016513D01*
X000802Y016632D02*
X001476Y016632D01*
X001525Y016750D02*
X000835Y016750D01*
X000868Y016869D02*
X001574Y016869D01*
X001623Y016987D02*
X000901Y016987D01*
X000934Y017106D02*
X001672Y017106D01*
X001721Y017224D02*
X000967Y017224D01*
X001009Y017343D02*
X001770Y017343D01*
X001819Y017461D02*
X001056Y017461D01*
X001103Y017580D02*
X001868Y017580D01*
X001917Y017698D02*
X001151Y017698D01*
X001198Y017817D02*
X001966Y017817D01*
X002015Y017935D02*
X001245Y017935D01*
X001292Y018054D02*
X002064Y018054D01*
X002113Y018172D02*
X001339Y018172D01*
X001387Y018291D02*
X002162Y018291D01*
X002211Y018409D02*
X001434Y018409D01*
X001481Y018528D02*
X002260Y018528D01*
X002309Y018646D02*
X001540Y018646D01*
X001603Y018765D02*
X002358Y018765D01*
X002407Y018883D02*
X001666Y018883D01*
X001728Y019002D02*
X002456Y019002D01*
X002445Y019120D02*
X001791Y019120D01*
X001854Y019239D02*
X002452Y019239D01*
X002512Y019357D02*
X001917Y019357D01*
X001980Y019476D02*
X002723Y019476D01*
X002814Y019594D02*
X002043Y019594D01*
X002105Y019713D02*
X002904Y019713D01*
X002994Y019831D02*
X002175Y019831D01*
X002255Y019950D02*
X003084Y019950D01*
X002997Y019836D02*
X002997Y019836D01*
X003174Y020068D02*
X002335Y020068D01*
X002416Y020187D02*
X003264Y020187D01*
X003354Y020305D02*
X002496Y020305D01*
X002576Y020424D02*
X003444Y020424D01*
X003534Y020542D02*
X002657Y020542D01*
X002737Y020661D02*
X003624Y020661D01*
X003714Y020779D02*
X002817Y020779D01*
X002898Y020898D02*
X003804Y020898D01*
X003894Y021016D02*
X002991Y021016D01*
X003092Y021135D02*
X003984Y021135D01*
X004074Y021253D02*
X003193Y021253D01*
X003293Y021372D02*
X004164Y021372D01*
X004255Y021490D02*
X003394Y021490D01*
X003495Y021609D02*
X004345Y021609D01*
X004347Y021727D02*
X003595Y021727D01*
X003696Y021846D02*
X004400Y021846D01*
X004571Y021964D02*
X003796Y021964D01*
X003914Y022083D02*
X004852Y022083D01*
X005008Y022201D02*
X004039Y022201D01*
X004164Y022320D02*
X005164Y022320D01*
X005320Y022438D02*
X004289Y022438D01*
X004414Y022557D02*
X005476Y022557D01*
X005632Y022675D02*
X004540Y022675D01*
X004665Y022794D02*
X005788Y022794D01*
X005944Y022912D02*
X004790Y022912D01*
X004838Y022958D02*
X004838Y022958D01*
X004934Y023031D02*
X006100Y023031D01*
X006256Y023149D02*
X005090Y023149D01*
X005246Y023268D02*
X006412Y023268D01*
X006568Y023386D02*
X005401Y023386D01*
X005869Y023742D02*
X006896Y023742D01*
X006845Y023623D02*
X006845Y023597D01*
X007061Y023860D02*
X006046Y023860D01*
X006243Y023979D02*
X007596Y023979D01*
X007882Y024097D02*
X006440Y024097D01*
X006637Y024216D02*
X008169Y024216D01*
X008455Y024334D02*
X006834Y024334D01*
X007031Y024453D02*
X008742Y024453D01*
X009028Y024571D02*
X007254Y024571D01*
X007510Y024690D02*
X009314Y024690D01*
X009601Y024808D02*
X007767Y024808D01*
X008023Y024927D02*
X009759Y024927D01*
X009876Y025045D02*
X008279Y025045D01*
X008585Y025164D02*
X011468Y025164D01*
X011233Y024690D02*
X015948Y024690D01*
X015945Y024808D02*
X012152Y024808D01*
X012387Y025282D02*
X008936Y025282D01*
X009288Y025401D02*
X012955Y025401D01*
X013365Y025401D02*
X017032Y025401D01*
X016680Y025519D02*
X009640Y025519D01*
X010135Y025638D02*
X016185Y025638D01*
X015647Y025756D02*
X010673Y025756D01*
X010550Y025045D02*
X010193Y025045D01*
X010281Y024571D02*
X015988Y024571D01*
X015807Y024453D02*
X013327Y024453D01*
X013479Y024334D02*
X015750Y024334D01*
X015916Y023979D02*
X013474Y023979D01*
X013525Y024097D02*
X013525Y024223D01*
X013309Y023860D02*
X016360Y023860D01*
X016559Y023742D02*
X010623Y023742D01*
X010625Y023860D02*
X013111Y023860D01*
X012946Y023979D02*
X010581Y023979D01*
X010537Y024097D02*
X010440Y024097D01*
X010569Y023623D02*
X016757Y023623D01*
X016956Y023505D02*
X010396Y023505D01*
X010224Y023505D02*
X009828Y023505D01*
X009312Y023386D02*
X017155Y023386D01*
X017354Y023268D02*
X008796Y023268D01*
X008280Y023149D02*
X017552Y023149D01*
X017751Y023031D02*
X007763Y023031D01*
X007903Y022912D02*
X011729Y022912D01*
X011695Y022878D02*
X011792Y022975D01*
X016178Y022975D01*
X016275Y022878D01*
X016275Y019992D01*
X016178Y019895D01*
X011792Y019895D01*
X011695Y019992D01*
X011695Y022742D01*
X011695Y022878D01*
X011695Y022794D02*
X007966Y022794D01*
X007975Y022675D02*
X011695Y022675D01*
X011695Y022557D02*
X007937Y022557D01*
X007827Y022438D02*
X011695Y022438D01*
X011695Y022320D02*
X007347Y022320D01*
X007133Y022201D02*
X011695Y022201D01*
X011695Y022083D02*
X006919Y022083D01*
X006705Y021964D02*
X011695Y021964D01*
X011695Y021846D02*
X006491Y021846D01*
X006277Y021727D02*
X011695Y021727D01*
X011695Y021609D02*
X006063Y021609D01*
X005849Y021490D02*
X011695Y021490D01*
X011695Y021372D02*
X008361Y021372D01*
X008380Y021364D02*
X008075Y021490D01*
X007745Y021490D01*
X007440Y021364D01*
X007206Y021130D01*
X007080Y020825D01*
X007080Y020495D01*
X007206Y020190D01*
X007440Y019956D01*
X007745Y019830D01*
X007951Y019830D01*
X008075Y019830D01*
X008075Y019830D01*
X008380Y019956D01*
X008614Y020190D01*
X008740Y020495D01*
X008740Y020825D01*
X008614Y021130D01*
X008614Y021130D01*
X008380Y021364D01*
X008380Y021364D01*
X008491Y021253D02*
X011695Y021253D01*
X011695Y021135D02*
X008609Y021135D01*
X008661Y021016D02*
X011695Y021016D01*
X011695Y020898D02*
X008710Y020898D01*
X008740Y020779D02*
X011695Y020779D01*
X011695Y020661D02*
X008740Y020661D01*
X008740Y020542D02*
X011695Y020542D01*
X011695Y020424D02*
X008710Y020424D01*
X008661Y020305D02*
X011695Y020305D01*
X011695Y020187D02*
X008610Y020187D01*
X008614Y020190D02*
X008614Y020190D01*
X008492Y020068D02*
X009373Y020068D01*
X009365Y020060D02*
X009232Y020060D01*
X009224Y020067D01*
X009151Y020060D01*
X009077Y020060D01*
X009070Y020053D01*
X009059Y020052D01*
X009012Y019995D01*
X008960Y019943D01*
X008960Y019932D01*
X008762Y019695D01*
X008710Y019643D01*
X008710Y019632D01*
X008703Y019624D01*
X008710Y019551D01*
X008710Y019295D01*
X008643Y019228D01*
X008595Y019113D01*
X008595Y018987D01*
X008643Y018872D01*
X008655Y018860D01*
X005077Y018860D01*
X004627Y018410D01*
X004510Y018293D01*
X004510Y013755D01*
X004443Y013688D01*
X004395Y013573D01*
X004395Y013447D01*
X004443Y013332D01*
X004532Y013243D01*
X004647Y013195D01*
X002466Y013195D01*
X002475Y013077D02*
X005620Y013077D01*
X005620Y013195D02*
X004773Y013195D01*
X004888Y013243D01*
X004977Y013332D01*
X005025Y013447D01*
X005025Y013573D01*
X004977Y013688D01*
X004910Y013755D01*
X004910Y018127D01*
X005243Y018460D01*
X008740Y018460D01*
X008802Y018448D01*
X008821Y018460D01*
X008843Y018460D01*
X008887Y018505D01*
X008971Y018560D01*
X008993Y018560D01*
X009037Y018605D01*
X009090Y018640D01*
X009094Y018661D01*
X009110Y018677D01*
X009110Y018740D01*
X009110Y018740D01*
X009110Y017860D01*
X007293Y017860D01*
X007275Y017878D01*
X007275Y017973D01*
X007227Y018088D01*
X007138Y018177D01*
X007023Y018225D01*
X006897Y018225D01*
X006782Y018177D01*
X006693Y018088D01*
X006645Y017973D01*
X006645Y017847D01*
X006693Y017732D01*
X006782Y017643D01*
X006897Y017595D01*
X006992Y017595D01*
X007010Y017577D01*
X007127Y017460D01*
X009943Y017460D01*
X010043Y017560D01*
X010160Y017677D01*
X010160Y017815D01*
X010185Y017840D01*
X010210Y017815D01*
X010210Y016777D01*
X010310Y016677D01*
X010427Y016560D01*
X012165Y016560D01*
X012232Y016493D01*
X012347Y016445D01*
X012473Y016445D01*
X012588Y016493D01*
X012677Y016582D01*
X012725Y016697D01*
X012725Y016823D01*
X012677Y016938D01*
X012588Y017027D01*
X012473Y017075D01*
X012347Y017075D01*
X012232Y017027D01*
X012165Y016960D01*
X010610Y016960D01*
X010610Y017815D01*
X010677Y017882D01*
X010725Y017997D01*
X010725Y018123D01*
X010677Y018238D01*
X010588Y018327D01*
X010473Y018375D01*
X010347Y018375D01*
X010232Y018327D01*
X010185Y018280D01*
X010138Y018327D01*
X010023Y018375D01*
X009897Y018375D01*
X009782Y018327D01*
X009693Y018238D01*
X009645Y018123D01*
X009645Y017997D01*
X009693Y017882D01*
X009715Y017860D01*
X009510Y017860D01*
X009510Y018598D01*
X009618Y018643D01*
X009707Y018732D01*
X009755Y018847D01*
X009755Y018973D01*
X009707Y019088D01*
X009618Y019177D01*
X009503Y019225D01*
X009377Y019225D01*
X009262Y019177D01*
X009217Y019132D01*
X009177Y019228D01*
X009110Y019295D01*
X009110Y019488D01*
X009254Y019660D01*
X009365Y019660D01*
X009432Y019593D01*
X009547Y019545D01*
X009673Y019545D01*
X009788Y019593D01*
X009877Y019682D01*
X009925Y019797D01*
X009925Y019923D01*
X009877Y020038D01*
X009788Y020127D01*
X009673Y020175D01*
X009547Y020175D01*
X009432Y020127D01*
X009365Y020060D01*
X009160Y019860D02*
X009610Y019860D01*
X009847Y020068D02*
X011695Y020068D01*
X011737Y019950D02*
X009914Y019950D01*
X009925Y019831D02*
X018242Y019831D01*
X018245Y019830D02*
X018369Y019830D01*
X018575Y019830D01*
X018880Y019956D01*
X019114Y020190D01*
X019240Y020495D01*
X019240Y020825D01*
X019114Y021130D01*
X019114Y021130D01*
X018880Y021364D01*
X018575Y021490D01*
X018245Y021490D01*
X017940Y021364D01*
X017706Y021130D01*
X017580Y020825D01*
X017580Y020495D01*
X017706Y020190D01*
X017940Y019956D01*
X018245Y019830D01*
X017956Y019950D02*
X016233Y019950D01*
X016275Y020068D02*
X017828Y020068D01*
X017940Y019956D02*
X017940Y019956D01*
X017710Y020187D02*
X016275Y020187D01*
X016275Y020305D02*
X017659Y020305D01*
X017706Y020190D02*
X017706Y020190D01*
X017610Y020424D02*
X016275Y020424D01*
X016275Y020542D02*
X017580Y020542D01*
X017580Y020661D02*
X016275Y020661D01*
X016275Y020779D02*
X017580Y020779D01*
X017610Y020898D02*
X016275Y020898D01*
X016275Y021016D02*
X017659Y021016D01*
X017706Y021130D02*
X017706Y021130D01*
X017711Y021135D02*
X016275Y021135D01*
X016275Y021253D02*
X017829Y021253D01*
X017940Y021364D02*
X017940Y021364D01*
X017959Y021372D02*
X016275Y021372D01*
X016275Y021490D02*
X020173Y021490D01*
X020288Y021372D02*
X018861Y021372D01*
X018880Y021364D02*
X018880Y021364D01*
X018991Y021253D02*
X020404Y021253D01*
X020445Y021135D02*
X019109Y021135D01*
X019161Y021016D02*
X020479Y021016D01*
X020577Y020898D02*
X019210Y020898D01*
X019240Y020779D02*
X021315Y020779D01*
X021380Y020661D02*
X019240Y020661D01*
X019240Y020542D02*
X021444Y020542D01*
X021509Y020424D02*
X019210Y020424D01*
X019161Y020305D02*
X021574Y020305D01*
X021638Y020187D02*
X019110Y020187D01*
X019114Y020190D02*
X019114Y020190D01*
X019114Y020190D01*
X018992Y020068D02*
X021703Y020068D01*
X021767Y019950D02*
X018864Y019950D01*
X018578Y019831D02*
X021832Y019831D01*
X021897Y019713D02*
X009890Y019713D01*
X009790Y019594D02*
X013018Y019594D01*
X013036Y019612D02*
X012886Y019462D01*
X012805Y019266D01*
X012805Y019054D01*
X012879Y018875D01*
X012797Y018875D01*
X012682Y018827D01*
X012593Y018738D01*
X012545Y018623D01*
X012545Y018497D01*
X012593Y018382D01*
X012682Y018293D01*
X012797Y018245D01*
X012923Y018245D01*
X013038Y018293D01*
X013085Y018340D01*
X013556Y018340D01*
X013486Y018271D01*
X013429Y018132D01*
X013429Y018102D01*
X013373Y018125D01*
X013247Y018125D01*
X013132Y018077D01*
X013043Y017988D01*
X012995Y017873D01*
X012995Y017747D01*
X013043Y017632D01*
X013132Y017543D01*
X013247Y017495D01*
X013356Y017495D01*
X013431Y017420D01*
X014820Y017420D01*
X014820Y017315D01*
X014743Y017238D01*
X014695Y017123D01*
X014695Y016997D01*
X014743Y016882D01*
X014832Y016793D01*
X014947Y016745D01*
X015073Y016745D01*
X015188Y016793D01*
X015277Y016882D01*
X015325Y016997D01*
X015325Y017123D01*
X015277Y017238D01*
X015200Y017315D01*
X015200Y017639D01*
X015089Y017750D01*
X015039Y017800D01*
X014080Y017800D01*
X014124Y017845D01*
X014181Y017983D01*
X014181Y018132D01*
X014124Y018271D01*
X014055Y018340D01*
X015465Y018340D01*
X015396Y018271D01*
X015339Y018132D01*
X015339Y017983D01*
X015396Y017845D01*
X015502Y017739D01*
X015640Y017681D01*
X015790Y017681D01*
X015928Y017739D01*
X016034Y017845D01*
X016091Y017983D01*
X016091Y018132D01*
X016034Y018271D01*
X015964Y018340D01*
X018190Y018340D01*
X018190Y011551D01*
X018164Y011525D01*
X018097Y011525D01*
X017982Y011477D01*
X017893Y011388D01*
X017845Y011273D01*
X017845Y011147D01*
X017893Y011032D01*
X017895Y011030D01*
X017225Y011030D01*
X017227Y011032D01*
X017275Y011147D01*
X017275Y011273D01*
X017227Y011388D01*
X017138Y011477D01*
X017023Y011525D01*
X016897Y011525D01*
X016782Y011477D01*
X016735Y011430D01*
X012051Y011430D01*
X011880Y011601D01*
X011880Y014851D01*
X011680Y015051D01*
X011551Y015180D01*
X009585Y015180D01*
X009538Y015227D01*
X009423Y015275D01*
X009297Y015275D01*
X009182Y015227D01*
X009093Y015138D01*
X009045Y015023D01*
X009045Y014897D01*
X009093Y014782D01*
X009095Y014780D01*
X007601Y014780D01*
X007580Y014801D01*
X007580Y015585D01*
X007627Y015632D01*
X007675Y015747D01*
X007675Y015873D01*
X007627Y015988D01*
X007538Y016077D01*
X007423Y016125D01*
X007297Y016125D01*
X007182Y016077D01*
X007093Y015988D01*
X007050Y015885D01*
X007050Y016239D01*
X007025Y016264D01*
X007025Y016373D01*
X006977Y016488D01*
X006888Y016577D01*
X006773Y016625D01*
X006647Y016625D01*
X006532Y016577D01*
X006443Y016488D01*
X006395Y016373D01*
X006395Y016247D01*
X006414Y016201D01*
X006338Y016277D01*
X006223Y016325D01*
X006097Y016325D01*
X006000Y016285D01*
X006000Y016555D01*
X006077Y016632D01*
X006125Y016747D01*
X006125Y016873D01*
X006077Y016988D01*
X005988Y017077D01*
X005873Y017125D01*
X005747Y017125D01*
X005632Y017077D01*
X005543Y016988D01*
X005495Y016873D01*
X005495Y016747D01*
X005543Y016632D01*
X005620Y016555D01*
X005620Y011731D01*
X005731Y011620D01*
X005881Y011470D01*
X009305Y011470D01*
X009382Y011393D01*
X009497Y011345D01*
X009623Y011345D01*
X009738Y011393D01*
X009827Y011482D01*
X009875Y011597D01*
X009875Y011723D01*
X009827Y011838D01*
X009755Y011910D01*
X009827Y011982D01*
X009875Y012097D01*
X009875Y012223D01*
X009827Y012338D01*
X009738Y012427D01*
X009623Y012475D01*
X009497Y012475D01*
X009382Y012427D01*
X009305Y012350D01*
X006439Y012350D01*
X006350Y012439D01*
X006350Y013051D01*
X006431Y012970D01*
X006531Y012870D01*
X007895Y012870D01*
X007895Y012847D01*
X007943Y012732D01*
X008032Y012643D01*
X008147Y012595D01*
X008273Y012595D01*
X008388Y012643D01*
X008477Y012732D01*
X008525Y012847D01*
X008525Y012973D01*
X008477Y013088D01*
X008388Y013177D01*
X008273Y013225D01*
X008164Y013225D01*
X008139Y013250D01*
X006700Y013250D01*
X006700Y013501D01*
X006781Y013420D01*
X006931Y013270D01*
X009131Y013270D01*
X009195Y013206D01*
X009195Y013097D01*
X009243Y012982D01*
X009332Y012893D01*
X009447Y012845D01*
X009573Y012845D01*
X009688Y012893D01*
X009777Y012982D01*
X009825Y013097D01*
X009825Y013223D01*
X009777Y013338D01*
X009688Y013427D01*
X009573Y013475D01*
X009464Y013475D01*
X009400Y013539D01*
X009289Y013650D01*
X007089Y013650D01*
X007050Y013689D01*
X007050Y015735D01*
X007093Y015632D01*
X007140Y015585D01*
X007140Y014619D01*
X007269Y014490D01*
X007419Y014340D01*
X011019Y014340D01*
X011090Y014269D01*
X011090Y011169D01*
X011219Y011040D01*
X011669Y010590D01*
X014523Y010590D01*
X014495Y010523D01*
X014495Y010397D01*
X014543Y010282D01*
X014632Y010193D01*
X014747Y010145D01*
X014814Y010145D01*
X014919Y010040D01*
X018435Y010040D01*
X018482Y009993D01*
X018597Y009945D01*
X018723Y009945D01*
X018838Y009993D01*
X018927Y010082D01*
X018975Y010197D01*
X018975Y010323D01*
X018927Y010438D01*
X018838Y010527D01*
X018723Y010575D01*
X018597Y010575D01*
X018482Y010527D01*
X018435Y010480D01*
X015125Y010480D01*
X015125Y010523D01*
X015097Y010590D01*
X020998Y010590D01*
X021043Y010482D01*
X021132Y010393D01*
X021247Y010345D01*
X021373Y010345D01*
X021488Y010393D01*
X021577Y010482D01*
X021625Y010597D01*
X021625Y010723D01*
X021577Y010838D01*
X021488Y010927D01*
X021373Y010975D01*
X021306Y010975D01*
X021251Y011030D01*
X018425Y011030D01*
X018427Y011032D01*
X018475Y011147D01*
X018475Y011214D01*
X018501Y011240D01*
X018630Y011369D01*
X018630Y011745D01*
X023228Y011745D01*
X023325Y011842D01*
X023325Y014728D01*
X023228Y014825D01*
X018630Y014825D01*
X018630Y018551D01*
X018530Y018651D01*
X018401Y018780D01*
X018007Y018780D01*
X018038Y018793D01*
X018085Y018840D01*
X018951Y018840D01*
X019201Y019090D01*
X021035Y019090D01*
X021082Y019043D01*
X021197Y018995D01*
X021323Y018995D01*
X021438Y019043D01*
X021527Y019132D01*
X021575Y019247D01*
X021575Y019373D01*
X021527Y019488D01*
X021438Y019577D01*
X021323Y019625D01*
X021197Y019625D01*
X021082Y019577D01*
X021035Y019530D01*
X019019Y019530D01*
X018890Y019401D01*
X018769Y019280D01*
X018085Y019280D01*
X018038Y019327D01*
X017923Y019375D01*
X017797Y019375D01*
X017682Y019327D01*
X017593Y019238D01*
X017545Y019123D01*
X017545Y018997D01*
X017593Y018882D01*
X017682Y018793D01*
X017713Y018780D01*
X016556Y018780D01*
X016634Y018858D01*
X016715Y019054D01*
X016715Y019266D01*
X016634Y019462D01*
X016484Y019612D01*
X016287Y019694D01*
X016075Y019694D01*
X015879Y019612D01*
X015729Y019462D01*
X015648Y019266D01*
X015648Y019054D01*
X015729Y018858D01*
X015806Y018780D01*
X013714Y018780D01*
X013791Y018858D01*
X013872Y019054D01*
X013872Y019266D01*
X013791Y019462D01*
X013641Y019612D01*
X013445Y019694D01*
X013233Y019694D01*
X013036Y019612D01*
X012900Y019476D02*
X009110Y019476D01*
X009110Y019357D02*
X012843Y019357D01*
X012805Y019239D02*
X009167Y019239D01*
X008910Y019050D02*
X008910Y018760D01*
X008760Y018660D01*
X005160Y018660D01*
X004710Y018210D01*
X004710Y013510D01*
X004461Y013314D02*
X002402Y013314D01*
X002438Y012958D02*
X005620Y012958D01*
X005620Y012840D02*
X002337Y012840D01*
X002331Y012721D02*
X005620Y012721D01*
X005620Y012603D02*
X002325Y012603D01*
X002319Y012484D02*
X005620Y012484D01*
X005620Y012366D02*
X002313Y012366D01*
X002307Y012247D02*
X005620Y012247D01*
X005620Y012129D02*
X002301Y012129D01*
X002295Y012010D02*
X005620Y012010D01*
X005620Y011892D02*
X002289Y011892D01*
X002283Y011773D02*
X005620Y011773D01*
X005697Y011655D02*
X005522Y011655D01*
X005473Y011675D02*
X005347Y011675D01*
X005232Y011627D01*
X005143Y011538D01*
X005095Y011423D01*
X005095Y011297D01*
X005143Y011182D01*
X005232Y011093D01*
X005347Y011045D01*
X005442Y011045D01*
X005727Y010760D01*
X007565Y010760D01*
X007632Y010693D01*
X007747Y010645D01*
X007873Y010645D01*
X007988Y010693D01*
X008077Y010782D01*
X008125Y010897D01*
X008125Y011023D01*
X008077Y011138D01*
X007988Y011227D01*
X007873Y011275D01*
X007747Y011275D01*
X007632Y011227D01*
X007565Y011160D01*
X005893Y011160D01*
X005725Y011328D01*
X005725Y011423D01*
X005677Y011538D01*
X005588Y011627D01*
X005473Y011675D01*
X005298Y011655D02*
X002277Y011655D01*
X002272Y011536D02*
X005142Y011536D01*
X005095Y011418D02*
X002266Y011418D01*
X002260Y011299D02*
X005095Y011299D01*
X005144Y011181D02*
X002254Y011181D01*
X002248Y011062D02*
X005306Y011062D01*
X005544Y010944D02*
X002242Y010944D01*
X002236Y010825D02*
X005662Y010825D01*
X005810Y010960D02*
X007810Y010960D01*
X007585Y011181D02*
X005872Y011181D01*
X005754Y011299D02*
X011090Y011299D01*
X011090Y011181D02*
X008035Y011181D01*
X008109Y011062D02*
X011197Y011062D01*
X011315Y010944D02*
X008125Y010944D01*
X008095Y010825D02*
X011434Y010825D01*
X011552Y010707D02*
X008002Y010707D01*
X007618Y010707D02*
X002230Y010707D01*
X002224Y010588D02*
X002358Y010588D01*
X002235Y010470D02*
X002218Y010470D01*
X002662Y010588D02*
X014522Y010588D01*
X014495Y010470D02*
X002785Y010470D01*
X002825Y010351D02*
X014514Y010351D01*
X014592Y010233D02*
X002819Y010233D01*
X002759Y010114D02*
X014845Y010114D01*
X015098Y010588D02*
X020999Y010588D01*
X021055Y010470D02*
X018896Y010470D01*
X018963Y010351D02*
X021233Y010351D01*
X021387Y010351D02*
X023495Y010351D01*
X023514Y010470D02*
X021565Y010470D01*
X021621Y010588D02*
X023593Y010588D01*
X023711Y010707D02*
X021625Y010707D01*
X021583Y010825D02*
X023744Y010825D01*
X023778Y010944D02*
X021449Y010944D01*
X023256Y011773D02*
X024013Y011773D01*
X024046Y011892D02*
X023325Y011892D01*
X023325Y012010D02*
X024080Y012010D01*
X024114Y012129D02*
X023325Y012129D01*
X023325Y012247D02*
X024147Y012247D01*
X024181Y012366D02*
X023325Y012366D01*
X023325Y012484D02*
X024214Y012484D01*
X024248Y012603D02*
X023325Y012603D01*
X023325Y012721D02*
X024281Y012721D01*
X024315Y012840D02*
X023325Y012840D01*
X023325Y012958D02*
X023966Y012958D01*
X023904Y013077D02*
X023325Y013077D01*
X023325Y013195D02*
X023895Y013195D01*
X023933Y013314D02*
X023325Y013314D01*
X023325Y013432D02*
X024024Y013432D01*
X024026Y013551D02*
X023325Y013551D01*
X023325Y013669D02*
X024028Y013669D01*
X024030Y013788D02*
X023325Y013788D01*
X023325Y013906D02*
X024032Y013906D01*
X024034Y014025D02*
X023325Y014025D01*
X023325Y014143D02*
X024036Y014143D01*
X024038Y014262D02*
X023325Y014262D01*
X023325Y014380D02*
X024040Y014380D01*
X024042Y014499D02*
X023325Y014499D01*
X023325Y014617D02*
X024043Y014617D01*
X024045Y014736D02*
X023318Y014736D01*
X024047Y014854D02*
X018630Y014854D01*
X018630Y014973D02*
X024049Y014973D01*
X024051Y015091D02*
X018630Y015091D01*
X018630Y015210D02*
X024053Y015210D01*
X024055Y015328D02*
X018630Y015328D01*
X018630Y015447D02*
X024057Y015447D01*
X024059Y015565D02*
X018630Y015565D01*
X018630Y015684D02*
X024061Y015684D01*
X024048Y015802D02*
X024063Y015802D01*
X023572Y015802D02*
X018630Y015802D01*
X018630Y015921D02*
X023506Y015921D01*
X023495Y016039D02*
X018630Y016039D01*
X018630Y016158D02*
X023530Y016158D01*
X023544Y016276D02*
X018630Y016276D01*
X018630Y016395D02*
X023513Y016395D01*
X023482Y016513D02*
X018630Y016513D01*
X018630Y016632D02*
X023451Y016632D01*
X023419Y016750D02*
X018630Y016750D01*
X018630Y016869D02*
X023388Y016869D01*
X023357Y016987D02*
X018630Y016987D01*
X018630Y017106D02*
X023326Y017106D01*
X023295Y017224D02*
X018630Y017224D01*
X018630Y017343D02*
X023264Y017343D01*
X023233Y017461D02*
X018630Y017461D01*
X018630Y017580D02*
X023202Y017580D01*
X023171Y017698D02*
X018630Y017698D01*
X018630Y017817D02*
X023140Y017817D01*
X023109Y017935D02*
X018630Y017935D01*
X018630Y018054D02*
X023078Y018054D01*
X023046Y018172D02*
X018630Y018172D01*
X018630Y018291D02*
X023015Y018291D01*
X022984Y018409D02*
X022757Y018409D01*
X022563Y018409D02*
X018630Y018409D01*
X018630Y018528D02*
X022397Y018528D01*
X022346Y018646D02*
X018535Y018646D01*
X018417Y018765D02*
X022345Y018765D01*
X022349Y018883D02*
X018994Y018883D01*
X019113Y019002D02*
X021182Y019002D01*
X021338Y019002D02*
X022285Y019002D01*
X022220Y019120D02*
X021516Y019120D01*
X021571Y019239D02*
X022155Y019239D01*
X022091Y019357D02*
X021575Y019357D01*
X021532Y019476D02*
X022026Y019476D01*
X021961Y019594D02*
X021397Y019594D01*
X021123Y019594D02*
X016502Y019594D01*
X016620Y019476D02*
X018964Y019476D01*
X018846Y019357D02*
X017966Y019357D01*
X017754Y019357D02*
X016677Y019357D01*
X016715Y019239D02*
X017593Y019239D01*
X017545Y019120D02*
X016715Y019120D01*
X016693Y019002D02*
X017545Y019002D01*
X017592Y018883D02*
X016644Y018883D01*
X016075Y018172D02*
X018190Y018172D01*
X018190Y018054D02*
X016091Y018054D01*
X016071Y017935D02*
X018190Y017935D01*
X018190Y017817D02*
X016006Y017817D01*
X015830Y017698D02*
X018190Y017698D01*
X018190Y017580D02*
X015200Y017580D01*
X015200Y017461D02*
X018190Y017461D01*
X018190Y017343D02*
X015200Y017343D01*
X015283Y017224D02*
X018190Y017224D01*
X018190Y017106D02*
X015325Y017106D01*
X015321Y016987D02*
X018190Y016987D01*
X018190Y016869D02*
X015264Y016869D01*
X015085Y016750D02*
X018190Y016750D01*
X018190Y016632D02*
X012698Y016632D01*
X012725Y016750D02*
X014935Y016750D01*
X014756Y016869D02*
X012706Y016869D01*
X012628Y016987D02*
X014699Y016987D01*
X014695Y017106D02*
X010610Y017106D01*
X010610Y017224D02*
X014737Y017224D01*
X014820Y017343D02*
X010610Y017343D01*
X010610Y017461D02*
X013390Y017461D01*
X013095Y017580D02*
X010610Y017580D01*
X010610Y017698D02*
X013015Y017698D01*
X012995Y017817D02*
X010612Y017817D01*
X010699Y017935D02*
X013021Y017935D01*
X013108Y018054D02*
X010725Y018054D01*
X010705Y018172D02*
X013445Y018172D01*
X013506Y018291D02*
X013033Y018291D01*
X012687Y018291D02*
X010625Y018291D01*
X010410Y018060D02*
X010410Y016860D01*
X010510Y016760D01*
X012410Y016760D01*
X012192Y016987D02*
X010610Y016987D01*
X010356Y016632D02*
X006077Y016632D01*
X006125Y016750D02*
X010237Y016750D01*
X010210Y016869D02*
X006125Y016869D01*
X006078Y016987D02*
X010210Y016987D01*
X010210Y017106D02*
X005920Y017106D01*
X005700Y017106D02*
X004910Y017106D01*
X004910Y017224D02*
X010210Y017224D01*
X010210Y017343D02*
X004910Y017343D01*
X004910Y017461D02*
X007126Y017461D01*
X007010Y017577D02*
X007010Y017577D01*
X007008Y017580D02*
X004910Y017580D01*
X004910Y017698D02*
X006726Y017698D01*
X006658Y017817D02*
X004910Y017817D01*
X004910Y017935D02*
X006645Y017935D01*
X006679Y018054D02*
X004910Y018054D01*
X004955Y018172D02*
X006777Y018172D01*
X006960Y017910D02*
X007210Y017660D01*
X009410Y017660D01*
X009860Y017660D01*
X009960Y017760D01*
X009960Y018060D01*
X009671Y017935D02*
X009510Y017935D01*
X009510Y018054D02*
X009645Y018054D01*
X009665Y018172D02*
X009510Y018172D01*
X009510Y018291D02*
X009745Y018291D01*
X009510Y018409D02*
X012582Y018409D01*
X012545Y018528D02*
X009510Y018528D01*
X009622Y018646D02*
X012555Y018646D01*
X012619Y018765D02*
X009721Y018765D01*
X009755Y018883D02*
X012876Y018883D01*
X012827Y019002D02*
X009743Y019002D01*
X009675Y019120D02*
X012805Y019120D01*
X013659Y019594D02*
X015861Y019594D01*
X015742Y019476D02*
X013778Y019476D01*
X013835Y019357D02*
X015685Y019357D01*
X015648Y019239D02*
X013872Y019239D01*
X013872Y019120D02*
X015648Y019120D01*
X015669Y019002D02*
X013851Y019002D01*
X013802Y018883D02*
X015718Y018883D01*
X016014Y018291D02*
X018190Y018291D01*
X018190Y016513D02*
X012609Y016513D01*
X012414Y016420D02*
X012350Y016356D01*
X012350Y014464D01*
X012414Y014400D01*
X012506Y014400D01*
X016356Y014400D01*
X016420Y014464D01*
X016420Y016356D01*
X016356Y016420D01*
X012414Y016420D01*
X012389Y016395D02*
X007016Y016395D01*
X007025Y016276D02*
X012350Y016276D01*
X012350Y016158D02*
X007050Y016158D01*
X007050Y016039D02*
X007144Y016039D01*
X007065Y015921D02*
X007050Y015921D01*
X007050Y015684D02*
X007071Y015684D01*
X007050Y015565D02*
X007140Y015565D01*
X007140Y015447D02*
X007050Y015447D01*
X007050Y015328D02*
X007140Y015328D01*
X007140Y015210D02*
X007050Y015210D01*
X007050Y015091D02*
X007140Y015091D01*
X007140Y014973D02*
X007050Y014973D01*
X007050Y014854D02*
X007140Y014854D01*
X007140Y014736D02*
X007050Y014736D01*
X007050Y014617D02*
X007142Y014617D01*
X007050Y014499D02*
X007260Y014499D01*
X007379Y014380D02*
X007050Y014380D01*
X007050Y014262D02*
X011090Y014262D01*
X011090Y014143D02*
X007050Y014143D01*
X007050Y014025D02*
X011090Y014025D01*
X011090Y013906D02*
X007050Y013906D01*
X007050Y013788D02*
X011090Y013788D01*
X011090Y013669D02*
X007070Y013669D01*
X006769Y013432D02*
X006700Y013432D01*
X006700Y013314D02*
X006888Y013314D01*
X006443Y012958D02*
X006350Y012958D01*
X006350Y012840D02*
X007898Y012840D01*
X007953Y012721D02*
X006350Y012721D01*
X006350Y012603D02*
X008129Y012603D01*
X008291Y012603D02*
X011090Y012603D01*
X011090Y012721D02*
X008467Y012721D01*
X008522Y012840D02*
X011090Y012840D01*
X011090Y012958D02*
X009754Y012958D01*
X009816Y013077D02*
X011090Y013077D01*
X011090Y013195D02*
X009825Y013195D01*
X009787Y013314D02*
X011090Y013314D01*
X011090Y013432D02*
X009676Y013432D01*
X009388Y013551D02*
X011090Y013551D01*
X011880Y013551D02*
X018190Y013551D01*
X018190Y013669D02*
X011880Y013669D01*
X011880Y013788D02*
X018190Y013788D01*
X018190Y013906D02*
X011880Y013906D01*
X011880Y014025D02*
X018190Y014025D01*
X018190Y014143D02*
X011880Y014143D01*
X011880Y014262D02*
X018190Y014262D01*
X018190Y014380D02*
X011880Y014380D01*
X011880Y014499D02*
X012350Y014499D01*
X012350Y014617D02*
X011880Y014617D01*
X011880Y014736D02*
X012350Y014736D01*
X012350Y014854D02*
X011877Y014854D01*
X011759Y014973D02*
X012350Y014973D01*
X012350Y015091D02*
X011640Y015091D01*
X012350Y015210D02*
X009556Y015210D01*
X009164Y015210D02*
X007580Y015210D01*
X007580Y015328D02*
X012350Y015328D01*
X012350Y015447D02*
X007580Y015447D01*
X007580Y015565D02*
X012350Y015565D01*
X012350Y015684D02*
X007649Y015684D01*
X007675Y015802D02*
X012350Y015802D01*
X012350Y015921D02*
X007655Y015921D01*
X007576Y016039D02*
X012350Y016039D01*
X012211Y016513D02*
X006952Y016513D01*
X006468Y016513D02*
X006000Y016513D01*
X006000Y016395D02*
X006404Y016395D01*
X006395Y016276D02*
X006339Y016276D01*
X005620Y016276D02*
X004910Y016276D01*
X004910Y016158D02*
X005620Y016158D01*
X005620Y016039D02*
X004910Y016039D01*
X004910Y015921D02*
X005620Y015921D01*
X005620Y015802D02*
X004910Y015802D01*
X004910Y015684D02*
X005620Y015684D01*
X005620Y015565D02*
X004910Y015565D01*
X004910Y015447D02*
X005620Y015447D01*
X005620Y015328D02*
X004910Y015328D01*
X004910Y015210D02*
X005620Y015210D01*
X005620Y015091D02*
X004910Y015091D01*
X004910Y014973D02*
X005620Y014973D01*
X005620Y014854D02*
X004910Y014854D01*
X004910Y014736D02*
X005620Y014736D01*
X005620Y014617D02*
X004910Y014617D01*
X004910Y014499D02*
X005620Y014499D01*
X005620Y014380D02*
X004910Y014380D01*
X004910Y014262D02*
X005620Y014262D01*
X005620Y014143D02*
X004910Y014143D01*
X004910Y014025D02*
X005620Y014025D01*
X005620Y013906D02*
X004910Y013906D01*
X004910Y013788D02*
X005620Y013788D01*
X005620Y013669D02*
X004985Y013669D01*
X005025Y013551D02*
X005620Y013551D01*
X005620Y013432D02*
X005019Y013432D01*
X004959Y013314D02*
X005620Y013314D01*
X004773Y013195D02*
X004647Y013195D01*
X004401Y013432D02*
X001935Y013432D01*
X001918Y013314D02*
X001899Y013314D01*
X001971Y013551D02*
X004395Y013551D01*
X004435Y013669D02*
X002006Y013669D01*
X002042Y013788D02*
X004510Y013788D01*
X004510Y013906D02*
X002077Y013906D01*
X002113Y014025D02*
X004510Y014025D01*
X004510Y014143D02*
X002148Y014143D01*
X002184Y014262D02*
X004510Y014262D01*
X004510Y014380D02*
X002219Y014380D01*
X002255Y014499D02*
X004510Y014499D01*
X004510Y014617D02*
X002290Y014617D01*
X002326Y014736D02*
X004510Y014736D01*
X004510Y014854D02*
X002362Y014854D01*
X002397Y014973D02*
X004510Y014973D01*
X004510Y015091D02*
X002433Y015091D01*
X002468Y015210D02*
X004510Y015210D01*
X004510Y015328D02*
X002504Y015328D01*
X002539Y015447D02*
X004510Y015447D01*
X004510Y015565D02*
X002575Y015565D01*
X002610Y015684D02*
X004510Y015684D01*
X004510Y015802D02*
X002748Y015802D01*
X002814Y015921D02*
X004510Y015921D01*
X004510Y016039D02*
X002825Y016039D01*
X002790Y016158D02*
X004510Y016158D01*
X004510Y016276D02*
X002689Y016276D01*
X002464Y016395D02*
X004510Y016395D01*
X004510Y016513D02*
X002536Y016513D01*
X002607Y016632D02*
X004510Y016632D01*
X004510Y016750D02*
X002679Y016750D01*
X002750Y016869D02*
X004510Y016869D01*
X004510Y016987D02*
X002822Y016987D01*
X002893Y017106D02*
X004510Y017106D01*
X004510Y017224D02*
X002965Y017224D01*
X003036Y017343D02*
X004510Y017343D01*
X004510Y017461D02*
X003108Y017461D01*
X003180Y017580D02*
X004510Y017580D01*
X004510Y017698D02*
X003251Y017698D01*
X003323Y017817D02*
X004510Y017817D01*
X004510Y017935D02*
X003394Y017935D01*
X003466Y018054D02*
X004510Y018054D01*
X004510Y018172D02*
X003537Y018172D01*
X003609Y018291D02*
X004510Y018291D01*
X004626Y018409D02*
X003805Y018409D01*
X003896Y018528D02*
X004745Y018528D01*
X004863Y018646D02*
X003925Y018646D01*
X003908Y018765D02*
X004982Y018765D01*
X005192Y018409D02*
X009110Y018409D01*
X009110Y018291D02*
X005073Y018291D01*
X003960Y019357D02*
X008710Y019357D01*
X008710Y019476D02*
X004084Y019476D01*
X004208Y019594D02*
X008706Y019594D01*
X008777Y019713D02*
X004332Y019713D01*
X004456Y019831D02*
X007742Y019831D01*
X007456Y019950D02*
X004580Y019950D01*
X004704Y020068D02*
X007328Y020068D01*
X007440Y019956D02*
X007440Y019956D01*
X007210Y020187D02*
X004828Y020187D01*
X004952Y020305D02*
X007159Y020305D01*
X007206Y020190D02*
X007206Y020190D01*
X007110Y020424D02*
X005076Y020424D01*
X005200Y020542D02*
X007080Y020542D01*
X007080Y020661D02*
X005506Y020661D01*
X005597Y020779D02*
X007080Y020779D01*
X007110Y020898D02*
X005625Y020898D01*
X005607Y021016D02*
X007159Y021016D01*
X007206Y021130D02*
X007206Y021130D01*
X007211Y021135D02*
X005531Y021135D01*
X005420Y021253D02*
X007329Y021253D01*
X007440Y021364D02*
X007440Y021364D01*
X007459Y021372D02*
X005634Y021372D01*
X003836Y019239D02*
X008653Y019239D01*
X008598Y019120D02*
X003712Y019120D01*
X003588Y019002D02*
X008595Y019002D01*
X008638Y018883D02*
X003832Y018883D01*
X004910Y016987D02*
X005542Y016987D01*
X005495Y016869D02*
X004910Y016869D01*
X004910Y016750D02*
X005495Y016750D01*
X005543Y016632D02*
X004910Y016632D01*
X004910Y016513D02*
X005620Y016513D01*
X005620Y016395D02*
X004910Y016395D01*
X007275Y017935D02*
X009110Y017935D01*
X009110Y018054D02*
X007241Y018054D01*
X007143Y018172D02*
X009110Y018172D01*
X009110Y018528D02*
X008922Y018528D01*
X009091Y018646D02*
X009110Y018646D01*
X009310Y018760D02*
X009310Y017760D01*
X009410Y017660D01*
X009944Y017461D02*
X010210Y017461D01*
X010210Y017580D02*
X010062Y017580D01*
X010160Y017698D02*
X010210Y017698D01*
X010208Y017817D02*
X010162Y017817D01*
X010175Y018291D02*
X010195Y018291D01*
X009440Y018910D02*
X009310Y018760D01*
X008910Y019050D02*
X008910Y019560D01*
X009160Y019860D01*
X008967Y019950D02*
X008364Y019950D01*
X008380Y019956D02*
X008380Y019956D01*
X008078Y019831D02*
X008876Y019831D01*
X009199Y019594D02*
X009430Y019594D01*
X007310Y023860D02*
X007259Y023860D01*
X011061Y024453D02*
X013093Y024453D01*
X013372Y024927D02*
X015988Y024927D01*
X016125Y025045D02*
X013453Y025045D01*
X013475Y025164D02*
X017735Y025164D01*
X018041Y025045D02*
X016395Y025045D01*
X016532Y024927D02*
X018297Y024927D01*
X018553Y024808D02*
X016719Y024808D01*
X017006Y024690D02*
X018810Y024690D01*
X019066Y024571D02*
X017292Y024571D01*
X017578Y024453D02*
X019289Y024453D01*
X019486Y024334D02*
X017865Y024334D01*
X018151Y024216D02*
X019683Y024216D01*
X019880Y024097D02*
X018438Y024097D01*
X018724Y023979D02*
X020077Y023979D01*
X020274Y023860D02*
X019259Y023860D01*
X019061Y023860D02*
X019010Y023860D01*
X019424Y023742D02*
X020451Y023742D01*
X020919Y023386D02*
X019752Y023386D01*
X019908Y023268D02*
X021074Y023268D01*
X021230Y023149D02*
X020064Y023149D01*
X020220Y023031D02*
X021386Y023031D01*
X021530Y022912D02*
X020376Y022912D01*
X020532Y022794D02*
X021655Y022794D01*
X021780Y022675D02*
X020688Y022675D01*
X020844Y022557D02*
X021906Y022557D01*
X022031Y022438D02*
X021000Y022438D01*
X021156Y022320D02*
X022156Y022320D01*
X022281Y022201D02*
X021312Y022201D01*
X021468Y022083D02*
X022406Y022083D01*
X022524Y021964D02*
X021624Y021964D01*
X021914Y021846D02*
X022624Y021846D01*
X022725Y021727D02*
X021982Y021727D01*
X021993Y021609D02*
X022825Y021609D01*
X022926Y021490D02*
X022065Y021490D01*
X022156Y021372D02*
X023027Y021372D01*
X023127Y021253D02*
X022246Y021253D01*
X022336Y021135D02*
X023228Y021135D01*
X023329Y021016D02*
X022426Y021016D01*
X022516Y020898D02*
X023422Y020898D01*
X023503Y020779D02*
X022606Y020779D01*
X022696Y020661D02*
X023583Y020661D01*
X023663Y020542D02*
X022786Y020542D01*
X022876Y020424D02*
X023744Y020424D01*
X023824Y020305D02*
X022966Y020305D01*
X023056Y020187D02*
X023904Y020187D01*
X023985Y020068D02*
X023146Y020068D01*
X023236Y019950D02*
X024065Y019950D01*
X024145Y019831D02*
X023326Y019831D01*
X023416Y019713D02*
X024215Y019713D01*
X024277Y019594D02*
X023506Y019594D01*
X023659Y019476D02*
X024340Y019476D01*
X024403Y019357D02*
X023811Y019357D01*
X023858Y019239D02*
X024466Y019239D01*
X024529Y019120D02*
X023858Y019120D01*
X023864Y019002D02*
X024592Y019002D01*
X024654Y018883D02*
X023913Y018883D01*
X023962Y018765D02*
X024717Y018765D01*
X024780Y018646D02*
X024011Y018646D01*
X024060Y018528D02*
X024839Y018528D01*
X024886Y018409D02*
X024109Y018409D01*
X024158Y018291D02*
X024933Y018291D01*
X024981Y018172D02*
X024207Y018172D01*
X024256Y018054D02*
X025028Y018054D01*
X025075Y017935D02*
X024305Y017935D01*
X024354Y017817D02*
X025122Y017817D01*
X025169Y017698D02*
X024403Y017698D01*
X024452Y017580D02*
X025217Y017580D01*
X025264Y017461D02*
X024501Y017461D01*
X024550Y017343D02*
X025311Y017343D01*
X025353Y017224D02*
X024599Y017224D01*
X024648Y017106D02*
X025386Y017106D01*
X025419Y016987D02*
X024697Y016987D01*
X024746Y016869D02*
X025452Y016869D01*
X025485Y016750D02*
X024795Y016750D01*
X024844Y016632D02*
X025518Y016632D01*
X025551Y016513D02*
X024967Y016513D01*
X025045Y016395D02*
X025584Y016395D01*
X025617Y016276D02*
X025065Y016276D01*
X025038Y016158D02*
X025649Y016158D01*
X025682Y016039D02*
X025012Y016039D01*
X025026Y015921D02*
X025715Y015921D01*
X025734Y015802D02*
X025041Y015802D01*
X025056Y015684D02*
X025754Y015684D01*
X025773Y015565D02*
X025071Y015565D01*
X025087Y015447D02*
X025793Y015447D01*
X025812Y015328D02*
X025102Y015328D01*
X025117Y015210D02*
X025831Y015210D01*
X025851Y015091D02*
X025133Y015091D01*
X025148Y014973D02*
X025870Y014973D01*
X025890Y014854D02*
X025163Y014854D01*
X025179Y014736D02*
X025909Y014736D01*
X025929Y014617D02*
X025194Y014617D01*
X025209Y014499D02*
X025942Y014499D01*
X025949Y014380D02*
X025224Y014380D01*
X025240Y014262D02*
X025955Y014262D01*
X025962Y014143D02*
X025255Y014143D01*
X025270Y014025D02*
X025968Y014025D01*
X025975Y013906D02*
X025286Y013906D01*
X025301Y013788D02*
X025981Y013788D01*
X025987Y013669D02*
X025316Y013669D01*
X025331Y013551D02*
X025994Y013551D01*
X026000Y013432D02*
X025347Y013432D01*
X025437Y013314D02*
X026007Y013314D01*
X026013Y013195D02*
X025475Y013195D01*
X025466Y013077D02*
X026010Y013077D01*
X026004Y012958D02*
X025404Y012958D01*
X025341Y012840D02*
X025998Y012840D01*
X025991Y012721D02*
X025326Y012721D01*
X025311Y012603D02*
X025985Y012603D01*
X025978Y012484D02*
X025296Y012484D01*
X025281Y012366D02*
X025972Y012366D01*
X025966Y012247D02*
X025266Y012247D01*
X025251Y012129D02*
X025959Y012129D01*
X025953Y012010D02*
X025236Y012010D01*
X025221Y011892D02*
X025946Y011892D01*
X025940Y011773D02*
X025206Y011773D01*
X025191Y011655D02*
X025921Y011655D01*
X025901Y011536D02*
X025176Y011536D01*
X025160Y011418D02*
X025882Y011418D01*
X025862Y011299D02*
X025145Y011299D01*
X025130Y011181D02*
X025843Y011181D01*
X025824Y011062D02*
X025115Y011062D01*
X025100Y010944D02*
X025804Y010944D01*
X025785Y010825D02*
X025085Y010825D01*
X025070Y010707D02*
X025765Y010707D01*
X025746Y010588D02*
X025055Y010588D01*
X025040Y010470D02*
X025726Y010470D01*
X025702Y010351D02*
X025025Y010351D01*
X025010Y010233D02*
X025669Y010233D01*
X025636Y010114D02*
X025058Y010114D01*
X025075Y009996D02*
X025603Y009996D01*
X025570Y009877D02*
X025046Y009877D01*
X024954Y009759D02*
X025537Y009759D01*
X025504Y009640D02*
X024843Y009640D01*
X024841Y009635D02*
X024841Y009635D01*
X024793Y009522D02*
X025472Y009522D01*
X025439Y009403D02*
X024743Y009403D01*
X024693Y009285D02*
X025406Y009285D01*
X025373Y009166D02*
X024643Y009166D01*
X024593Y009048D02*
X025339Y009048D01*
X025292Y008929D02*
X024544Y008929D01*
X024494Y008811D02*
X025245Y008811D01*
X025197Y008692D02*
X024444Y008692D01*
X024394Y008574D02*
X025150Y008574D01*
X025103Y008455D02*
X024344Y008455D01*
X024294Y008337D02*
X025056Y008337D01*
X025008Y008218D02*
X024244Y008218D01*
X024194Y008100D02*
X024961Y008100D01*
X024914Y007981D02*
X024144Y007981D01*
X024095Y007863D02*
X024867Y007863D01*
X024817Y007744D02*
X024045Y007744D01*
X023995Y007626D02*
X024754Y007626D01*
X024692Y007507D02*
X023945Y007507D01*
X023895Y007389D02*
X024629Y007389D01*
X024566Y007270D02*
X023845Y007270D01*
X023863Y007152D02*
X024503Y007152D01*
X024440Y007033D02*
X023843Y007033D01*
X023764Y006915D02*
X024377Y006915D01*
X024315Y006796D02*
X023560Y006796D01*
X023470Y006678D02*
X024252Y006678D01*
X024189Y006559D02*
X023380Y006559D01*
X023444Y006644D02*
X023444Y006644D01*
X023290Y006441D02*
X024112Y006441D01*
X024032Y006322D02*
X023199Y006322D01*
X023109Y006204D02*
X023952Y006204D01*
X023871Y006085D02*
X023019Y006085D01*
X022929Y005967D02*
X023791Y005967D01*
X023711Y005848D02*
X022839Y005848D01*
X022749Y005730D02*
X023630Y005730D01*
X023550Y005611D02*
X022659Y005611D01*
X022569Y005493D02*
X023470Y005493D01*
X023388Y005374D02*
X022479Y005374D01*
X022389Y005256D02*
X023288Y005256D01*
X023187Y005137D02*
X022299Y005137D01*
X022209Y005019D02*
X023086Y005019D01*
X022986Y004900D02*
X022119Y004900D01*
X022029Y004782D02*
X022885Y004782D01*
X022784Y004663D02*
X022000Y004663D01*
X021965Y004545D02*
X022684Y004545D01*
X022583Y004426D02*
X021864Y004426D01*
X022230Y004071D02*
X021248Y004071D01*
X021404Y004189D02*
X022355Y004189D01*
X022480Y004308D02*
X021560Y004308D01*
X021092Y003952D02*
X022105Y003952D01*
X021979Y003834D02*
X020936Y003834D01*
X020780Y003715D02*
X021854Y003715D01*
X021729Y003597D02*
X020624Y003597D01*
X020468Y003478D02*
X021604Y003478D01*
X021478Y003360D02*
X020312Y003360D01*
X020156Y003241D02*
X021322Y003241D01*
X021167Y003123D02*
X020001Y003123D01*
X019845Y003004D02*
X021011Y003004D01*
X020855Y002886D02*
X019689Y002886D01*
X019533Y002767D02*
X020699Y002767D01*
X020543Y002649D02*
X019455Y002649D01*
X019375Y002530D02*
X020387Y002530D01*
X020194Y002412D02*
X018893Y002412D01*
X018607Y002293D02*
X019997Y002293D01*
X019800Y002175D02*
X018320Y002175D01*
X018034Y002056D02*
X019603Y002056D01*
X019406Y001938D02*
X017748Y001938D01*
X017461Y001819D02*
X019209Y001819D01*
X018961Y001701D02*
X017175Y001701D01*
X016889Y001582D02*
X018705Y001582D01*
X018449Y001464D02*
X016602Y001464D01*
X016490Y001345D02*
X018193Y001345D01*
X017936Y001227D02*
X015494Y001227D01*
X016052Y001308D02*
X016052Y001308D01*
X015965Y000634D02*
X010355Y000634D01*
X010893Y000516D02*
X015427Y000516D01*
X014529Y000397D02*
X011791Y000397D01*
X011642Y001108D02*
X008728Y001108D01*
X009080Y000990D02*
X012459Y000990D01*
X012924Y000871D02*
X009432Y000871D01*
X009817Y000753D02*
X016503Y000753D01*
X016888Y000871D02*
X013327Y000871D01*
X013861Y000990D02*
X017240Y000990D01*
X017592Y001108D02*
X014678Y001108D01*
X015660Y002412D02*
X013354Y002412D01*
X012966Y002412D02*
X011338Y002412D01*
X011749Y002293D02*
X012874Y002293D01*
X012845Y002175D02*
X012161Y002175D01*
X012572Y002056D02*
X012862Y002056D01*
X010927Y002530D02*
X015645Y002530D01*
X015676Y002649D02*
X010594Y002649D01*
X010498Y002767D02*
X015772Y002767D01*
X016148Y002767D02*
X016196Y002767D01*
X016655Y002886D02*
X009228Y002886D01*
X009424Y002767D02*
X010122Y002767D01*
X010026Y002649D02*
X009620Y002649D01*
X009816Y002530D02*
X009995Y002530D01*
X009031Y003004D02*
X017114Y003004D01*
X017573Y003123D02*
X008835Y003123D01*
X008639Y003241D02*
X018032Y003241D01*
X018324Y003478D02*
X008246Y003478D01*
X008050Y003597D02*
X018295Y003597D01*
X018313Y003715D02*
X007957Y003715D01*
X007882Y003834D02*
X018388Y003834D01*
X018841Y003952D02*
X006950Y003952D01*
X007058Y003834D02*
X007438Y003834D01*
X007363Y003715D02*
X007166Y003715D01*
X007274Y003597D02*
X007345Y003597D01*
X006842Y004071D02*
X019059Y004071D01*
X019277Y004189D02*
X006734Y004189D01*
X006626Y004308D02*
X019495Y004308D01*
X019713Y004426D02*
X006518Y004426D01*
X006410Y004545D02*
X019931Y004545D01*
X020149Y004663D02*
X006302Y004663D01*
X006194Y004782D02*
X020366Y004782D01*
X020584Y004900D02*
X018744Y004900D01*
X018880Y004956D02*
X018880Y004956D01*
X019114Y005190D01*
X019240Y005495D01*
X019240Y005825D01*
X019114Y006130D01*
X019114Y006130D01*
X018880Y006364D01*
X018575Y006490D01*
X018245Y006490D01*
X017940Y006364D01*
X017706Y006130D01*
X017580Y005825D01*
X017580Y005495D01*
X017706Y005190D01*
X017940Y004956D01*
X018245Y004830D01*
X018451Y004830D01*
X018575Y004830D01*
X018575Y004830D01*
X018880Y004956D01*
X018942Y005019D02*
X020802Y005019D01*
X020796Y005137D02*
X019061Y005137D01*
X019114Y005190D02*
X019114Y005190D01*
X019141Y005256D02*
X020683Y005256D01*
X020645Y005374D02*
X019190Y005374D01*
X019239Y005493D02*
X020653Y005493D01*
X020716Y005611D02*
X019240Y005611D01*
X019240Y005730D02*
X021019Y005730D01*
X021143Y005848D02*
X019231Y005848D01*
X019181Y005967D02*
X021267Y005967D01*
X021391Y006085D02*
X019132Y006085D01*
X019040Y006204D02*
X021515Y006204D01*
X021639Y006322D02*
X018922Y006322D01*
X018880Y006364D02*
X018880Y006364D01*
X018695Y006441D02*
X021762Y006441D01*
X021886Y006559D02*
X004427Y006559D01*
X004492Y006441D02*
X007625Y006441D01*
X007745Y006490D02*
X007440Y006364D01*
X007206Y006130D01*
X007080Y005825D01*
X007080Y005495D01*
X007206Y005190D01*
X007440Y004956D01*
X007745Y004830D01*
X007869Y004830D01*
X008075Y004830D01*
X008380Y004956D01*
X008614Y005190D01*
X008740Y005495D01*
X008740Y005825D01*
X008614Y006130D01*
X008614Y006130D01*
X008380Y006364D01*
X008075Y006490D01*
X007745Y006490D01*
X007440Y006364D02*
X007440Y006364D01*
X007398Y006322D02*
X004556Y006322D01*
X004621Y006204D02*
X007280Y006204D01*
X007206Y006130D02*
X007206Y006130D01*
X007206Y006130D01*
X007188Y006085D02*
X004686Y006085D01*
X004750Y005967D02*
X007139Y005967D01*
X007089Y005848D02*
X004815Y005848D01*
X004879Y005730D02*
X007080Y005730D01*
X007080Y005611D02*
X005604Y005611D01*
X005696Y005493D02*
X007081Y005493D01*
X007130Y005374D02*
X005725Y005374D01*
X005725Y005297D02*
X005725Y005297D01*
X005762Y005256D02*
X007179Y005256D01*
X007206Y005190D02*
X007206Y005190D01*
X007259Y005137D02*
X005870Y005137D01*
X005978Y005019D02*
X007378Y005019D01*
X007440Y004956D02*
X007440Y004956D01*
X007576Y004900D02*
X006086Y004900D01*
X005095Y005374D02*
X005073Y005374D01*
X005124Y005493D02*
X005009Y005493D01*
X004944Y005611D02*
X005216Y005611D01*
X004362Y006678D02*
X022010Y006678D01*
X022134Y006796D02*
X004298Y006796D01*
X004233Y006915D02*
X022258Y006915D01*
X022382Y007033D02*
X004168Y007033D01*
X004104Y007152D02*
X022506Y007152D01*
X022630Y007270D02*
X004039Y007270D01*
X003975Y007389D02*
X022754Y007389D01*
X022718Y007507D02*
X003910Y007507D01*
X003925Y007626D02*
X022549Y007626D01*
X022496Y007744D02*
X003916Y007744D01*
X003853Y007863D02*
X022495Y007863D01*
X022540Y007981D02*
X003249Y007981D01*
X003276Y007863D02*
X003367Y007863D01*
X003221Y008100D02*
X022686Y008100D01*
X022830Y008218D02*
X003193Y008218D01*
X003166Y008337D02*
X022899Y008337D01*
X022969Y008455D02*
X003138Y008455D01*
X003110Y008574D02*
X023039Y008574D01*
X023108Y008692D02*
X003083Y008692D01*
X003055Y008811D02*
X023178Y008811D01*
X023248Y008929D02*
X003027Y008929D01*
X003000Y009048D02*
X023318Y009048D01*
X023387Y009166D02*
X002972Y009166D01*
X002944Y009285D02*
X023457Y009285D01*
X023527Y009403D02*
X002917Y009403D01*
X002889Y009522D02*
X023596Y009522D01*
X023666Y009640D02*
X002861Y009640D01*
X002834Y009759D02*
X023736Y009759D01*
X023805Y009877D02*
X002806Y009877D01*
X002778Y009996D02*
X018479Y009996D01*
X018841Y009996D02*
X023875Y009996D01*
X023611Y010114D02*
X018940Y010114D01*
X018975Y010233D02*
X023522Y010233D01*
X023811Y011062D02*
X018440Y011062D01*
X018475Y011181D02*
X023845Y011181D01*
X023879Y011299D02*
X018560Y011299D01*
X018630Y011418D02*
X023912Y011418D01*
X023946Y011536D02*
X018630Y011536D01*
X018630Y011655D02*
X023979Y011655D01*
X018190Y011655D02*
X011880Y011655D01*
X011880Y011773D02*
X018190Y011773D01*
X018190Y011892D02*
X011880Y011892D01*
X011880Y012010D02*
X018190Y012010D01*
X018190Y012129D02*
X011880Y012129D01*
X011880Y012247D02*
X018190Y012247D01*
X018190Y012366D02*
X011880Y012366D01*
X011880Y012484D02*
X018190Y012484D01*
X018190Y012603D02*
X011880Y012603D01*
X011880Y012721D02*
X018190Y012721D01*
X018190Y012840D02*
X011880Y012840D01*
X011880Y012958D02*
X018190Y012958D01*
X018190Y013077D02*
X011880Y013077D01*
X011880Y013195D02*
X018190Y013195D01*
X018190Y013314D02*
X011880Y013314D01*
X011880Y013432D02*
X018190Y013432D01*
X018190Y014499D02*
X016420Y014499D01*
X016420Y014617D02*
X018190Y014617D01*
X018190Y014736D02*
X016420Y014736D01*
X016420Y014854D02*
X018190Y014854D01*
X018190Y014973D02*
X016420Y014973D01*
X016420Y015091D02*
X018190Y015091D01*
X018190Y015210D02*
X016420Y015210D01*
X016420Y015328D02*
X018190Y015328D01*
X018190Y015447D02*
X016420Y015447D01*
X016420Y015565D02*
X018190Y015565D01*
X018190Y015684D02*
X016420Y015684D01*
X016420Y015802D02*
X018190Y015802D01*
X018190Y015921D02*
X016420Y015921D01*
X016420Y016039D02*
X018190Y016039D01*
X018190Y016158D02*
X016420Y016158D01*
X016420Y016276D02*
X018190Y016276D01*
X018190Y016395D02*
X016381Y016395D01*
X015600Y017698D02*
X015141Y017698D01*
X015424Y017817D02*
X014096Y017817D01*
X014162Y017935D02*
X015358Y017935D01*
X015339Y018054D02*
X014181Y018054D01*
X014165Y018172D02*
X015355Y018172D01*
X015416Y018291D02*
X014104Y018291D01*
X016275Y021609D02*
X020057Y021609D01*
X019941Y021727D02*
X016275Y021727D01*
X016275Y021846D02*
X019826Y021846D01*
X019710Y021964D02*
X016275Y021964D01*
X016275Y022083D02*
X019595Y022083D01*
X019479Y022201D02*
X016275Y022201D01*
X016275Y022320D02*
X019363Y022320D01*
X019248Y022438D02*
X018827Y022438D01*
X018937Y022557D02*
X019132Y022557D01*
X019016Y022675D02*
X018975Y022675D01*
X018493Y022438D02*
X016275Y022438D01*
X016275Y022557D02*
X018383Y022557D01*
X018345Y022675D02*
X016275Y022675D01*
X016275Y022794D02*
X018149Y022794D01*
X017950Y022912D02*
X016241Y022912D01*
X017384Y025282D02*
X013450Y025282D01*
X013884Y025993D02*
X012436Y025993D01*
X011346Y025875D02*
X014974Y025875D01*
X020943Y020898D02*
X021250Y020898D01*
X021186Y021016D02*
X021041Y021016D01*
X021075Y021135D02*
X021121Y021135D01*
X022923Y018528D02*
X022953Y018528D01*
X018175Y011536D02*
X011945Y011536D01*
X011090Y011536D02*
X009850Y011536D01*
X009875Y011655D02*
X011090Y011655D01*
X011090Y011773D02*
X009854Y011773D01*
X009774Y011892D02*
X011090Y011892D01*
X011090Y012010D02*
X009839Y012010D01*
X009875Y012129D02*
X011090Y012129D01*
X011090Y012247D02*
X009865Y012247D01*
X009800Y012366D02*
X011090Y012366D01*
X011090Y012484D02*
X006350Y012484D01*
X006423Y012366D02*
X009320Y012366D01*
X009266Y012958D02*
X008525Y012958D01*
X008482Y013077D02*
X009204Y013077D01*
X009195Y013195D02*
X008345Y013195D01*
X009063Y014854D02*
X007580Y014854D01*
X007580Y014973D02*
X009045Y014973D01*
X009073Y015091D02*
X007580Y015091D01*
X005815Y011536D02*
X005678Y011536D01*
X005725Y011418D02*
X009357Y011418D01*
X009763Y011418D02*
X011090Y011418D01*
X008380Y006364D02*
X008380Y006364D01*
X008422Y006322D02*
X017898Y006322D01*
X017940Y006364D02*
X017940Y006364D01*
X018125Y006441D02*
X008195Y006441D01*
X008540Y006204D02*
X017780Y006204D01*
X017706Y006130D02*
X017706Y006130D01*
X017688Y006085D02*
X008632Y006085D01*
X008681Y005967D02*
X017639Y005967D01*
X017589Y005848D02*
X008731Y005848D01*
X008740Y005730D02*
X017580Y005730D01*
X017580Y005611D02*
X008740Y005611D01*
X008739Y005493D02*
X017581Y005493D01*
X017630Y005374D02*
X008690Y005374D01*
X008641Y005256D02*
X017679Y005256D01*
X017706Y005190D02*
X017706Y005190D01*
X017759Y005137D02*
X008561Y005137D01*
X008614Y005190D02*
X008614Y005190D01*
X008442Y005019D02*
X017878Y005019D01*
X017940Y004956D02*
X017940Y004956D01*
X018076Y004900D02*
X008244Y004900D01*
X008380Y004956D02*
X008380Y004956D01*
X008442Y003360D02*
X018415Y003360D01*
X010826Y001227D02*
X008384Y001227D01*
X008127Y001345D02*
X009830Y001345D01*
X009718Y001464D02*
X007871Y001464D01*
X007615Y001582D02*
X009431Y001582D01*
X009563Y001528D02*
X009563Y001528D01*
X009145Y001701D02*
X007359Y001701D01*
X007111Y001819D02*
X008859Y001819D01*
X008572Y001938D02*
X006914Y001938D01*
X006717Y002056D02*
X008286Y002056D01*
X008000Y002175D02*
X006520Y002175D01*
X006323Y002293D02*
X007713Y002293D01*
X007427Y002412D02*
X006126Y002412D01*
X005933Y002530D02*
X006937Y002530D01*
X006844Y002649D02*
X005777Y002649D01*
X005621Y002767D02*
X006787Y002767D01*
X006631Y002886D02*
X005465Y002886D01*
X005309Y003004D02*
X006475Y003004D01*
X006319Y003123D02*
X005153Y003123D01*
X004998Y003241D02*
X006164Y003241D01*
X006008Y003360D02*
X004842Y003360D01*
X004716Y003478D02*
X005852Y003478D01*
X005696Y003597D02*
X004591Y003597D01*
X004466Y003715D02*
X005540Y003715D01*
X005384Y003834D02*
X004341Y003834D01*
X004215Y003952D02*
X005228Y003952D01*
X005072Y004071D02*
X004090Y004071D01*
X005810Y010960D02*
X005410Y011360D01*
X017198Y011418D02*
X017922Y011418D01*
X017856Y011299D02*
X017264Y011299D01*
X017275Y011181D02*
X017845Y011181D01*
X017880Y011062D02*
X017240Y011062D01*
D13*
X016960Y011210D03*
X018160Y011210D03*
X018660Y010260D03*
X016410Y008960D03*
X014810Y010460D03*
X013160Y008960D03*
X009560Y011660D03*
X009560Y012160D03*
X009510Y013160D03*
X008210Y012910D03*
X006510Y013760D03*
X004710Y013510D03*
X005410Y011360D03*
X007333Y010535D03*
X007810Y010960D03*
X009360Y014960D03*
X007360Y015810D03*
X006710Y016310D03*
X006160Y016010D03*
X005810Y016810D03*
X005160Y017310D03*
X003610Y018660D03*
X003060Y018760D03*
X002760Y019160D03*
X004860Y021160D03*
X005310Y020910D03*
X004660Y021660D03*
X007260Y023110D03*
X007160Y023560D03*
X007660Y022710D03*
X010060Y024310D03*
X010035Y024770D03*
X010310Y023810D03*
X012160Y023660D03*
X013210Y024160D03*
X014160Y023660D03*
X013160Y025160D03*
X016060Y024260D03*
X016260Y024760D03*
X018660Y022710D03*
X018760Y023210D03*
X019160Y023560D03*
X021160Y021460D03*
X020760Y021160D03*
X021678Y021636D03*
X021260Y019310D03*
X022660Y018710D03*
X023010Y019060D03*
X023543Y019183D03*
X024260Y016260D03*
X024750Y016285D03*
X023810Y016010D03*
X024660Y013360D03*
X024210Y013160D03*
X025160Y013160D03*
X024310Y010360D03*
X023810Y010360D03*
X024760Y010010D03*
X022810Y007810D03*
X023260Y007610D03*
X023548Y007145D03*
X021460Y005160D03*
X021685Y004693D03*
X020960Y005410D03*
X019060Y003310D03*
X018610Y003610D03*
X019160Y002760D03*
X016310Y002110D03*
X015960Y002510D03*
X016260Y001560D03*
X013260Y001660D03*
X013160Y002160D03*
X013125Y001115D03*
X010310Y002010D03*
X010310Y002510D03*
X010060Y001560D03*
X007660Y003610D03*
X007460Y003110D03*
X007128Y002784D03*
X005110Y004910D03*
X004676Y004647D03*
X005410Y005360D03*
X003210Y007310D03*
X002777Y007137D03*
X003610Y007660D03*
X002010Y010110D03*
X001560Y010060D03*
X002510Y010310D03*
X002160Y013110D03*
X001610Y013010D03*
X001160Y013160D03*
X002010Y016010D03*
X002510Y016010D03*
X001560Y016260D03*
X006960Y017910D03*
X008910Y019050D03*
X009440Y018910D03*
X009960Y018060D03*
X010410Y018060D03*
X009610Y019860D03*
X012860Y018560D03*
X013310Y017810D03*
X012410Y016760D03*
X015010Y017060D03*
X017860Y019060D03*
X021310Y010660D03*
D14*
X021160Y010810D01*
X011760Y010810D01*
X011310Y011260D01*
X011310Y014360D01*
X011110Y014560D01*
X007510Y014560D01*
X007360Y014710D01*
X007360Y015810D01*
X009360Y014960D02*
X011460Y014960D01*
X011660Y014760D01*
X011660Y011510D01*
X011960Y011210D01*
X016960Y011210D01*
X018160Y011210D02*
X018410Y011460D01*
X018410Y018460D01*
X018310Y018560D01*
X012860Y018560D01*
X017860Y019060D02*
X018860Y019060D01*
X019110Y019310D01*
X021260Y019310D01*
X021945Y021285D02*
X021678Y021636D01*
X023543Y019183D01*
X023628Y018997D01*
X024750Y016285D01*
X024787Y016051D01*
X025160Y013160D01*
X025136Y012969D01*
X024760Y010010D01*
X024673Y009804D01*
X023560Y007160D01*
X023548Y007145D01*
X023324Y006849D01*
X021685Y004693D01*
X021548Y004575D01*
X019160Y002760D01*
X018602Y002529D01*
X016260Y001560D01*
X015931Y001512D01*
X013160Y001110D01*
X013125Y001115D01*
X012572Y001195D01*
X010060Y001560D01*
X009562Y001766D01*
X007160Y002760D01*
X007128Y002784D01*
X006595Y003190D01*
X004676Y004647D01*
X004533Y004827D01*
X002777Y007137D01*
X002703Y007298D01*
X001560Y010060D01*
X001533Y010269D01*
X001160Y013160D01*
X001212Y013566D01*
X001560Y016260D01*
X001709Y016619D01*
X002760Y019160D01*
X003117Y019630D01*
X004660Y021660D01*
X004835Y021793D01*
X007160Y023560D01*
X007409Y023663D01*
X010060Y024760D01*
X010035Y024770D01*
X010565Y024825D01*
X013160Y025160D01*
X016260Y024760D02*
X019160Y023560D01*
X019335Y023427D01*
X021660Y021660D01*
X021678Y021636D01*
X023543Y019183D02*
X023560Y019160D01*
X023628Y018997D01*
X024750Y016285D02*
X024760Y016260D01*
X024787Y016051D01*
X018660Y010260D02*
X015010Y010260D01*
X014810Y010460D01*
X021548Y004575D02*
X021660Y004660D01*
X021685Y004693D01*
X004676Y004647D02*
X004660Y004660D01*
X004533Y004827D01*
X002777Y007137D02*
X002760Y007160D01*
X002703Y007298D01*
D15*
X003210Y007310D02*
X002510Y010310D01*
X002010Y010110D02*
X002160Y013110D01*
X001610Y013010D02*
X002510Y016010D01*
X002010Y016010D02*
X003610Y018660D01*
X003060Y018760D02*
X005310Y020910D01*
X004860Y021160D02*
X007660Y022710D01*
X007260Y023110D02*
X010310Y023810D01*
X010060Y024310D02*
X013210Y024160D01*
X016060Y024260D02*
X018660Y022710D01*
X018760Y023210D02*
X020760Y021160D01*
X021160Y021460D02*
X022660Y018710D01*
X023010Y019060D02*
X023810Y016010D01*
X024260Y016260D02*
X024210Y013160D01*
X024660Y013360D02*
X023810Y010360D01*
X024310Y010360D02*
X022810Y007810D01*
X023260Y007610D02*
X020960Y005410D01*
X021460Y005160D02*
X018610Y003610D01*
X019060Y003310D02*
X015960Y002510D01*
X016310Y002110D02*
X013160Y002160D01*
X013260Y001660D02*
X010310Y002510D01*
X010310Y002010D02*
X007660Y003610D01*
X007460Y003110D02*
X005410Y005360D01*
X005110Y004910D02*
X003610Y007660D01*
X005960Y011660D02*
X005810Y011810D01*
X005810Y016810D01*
X006160Y016010D02*
X006160Y012360D01*
X006360Y012160D01*
X009560Y012160D01*
X009560Y011660D02*
X005960Y011660D01*
X006610Y013060D02*
X006510Y013160D01*
X006510Y013760D01*
X006860Y013610D02*
X006860Y016160D01*
X006710Y016310D01*
X006860Y013610D02*
X007010Y013460D01*
X009210Y013460D01*
X009510Y013160D01*
X008210Y012910D02*
X008060Y013060D01*
X006610Y013060D01*
X013310Y017810D02*
X013510Y017610D01*
X014960Y017610D01*
X015010Y017560D01*
X015010Y017060D01*
M02*
