%
M48
M72
T01C0.0150
T02C0.0200
T03C0.0236
T04C0.0433
T05C0.1200
%
T01
X4676Y4647
X5110Y4910
X5410Y5360
X3210Y7310
X2777Y7137
X3610Y7660
X5410Y9360
X4710Y11510
X6510Y11760
X8210Y10910
X9510Y11160
X9560Y10160
X9560Y9660
X7810Y8960
X7733Y8285
X7660Y3610
X7460Y3110
X7128Y2784
X10060Y1560
X10310Y2010
X10310Y2510
X13125Y1115
X13260Y1660
X13160Y2160
X15960Y2510
X16310Y2110
X16260Y1560
X18610Y3610
X19060Y3310
X19160Y2760
X21460Y5160
X21685Y4693
X20960Y5410
X22810Y7810
X23260Y7610
X23548Y7145
X24760Y10010
X24310Y10360
X23810Y10360
X24210Y13160
X24660Y13360
X25160Y13160
X23810Y16010
X24260Y16260
X24750Y16285
X22660Y18710
X23010Y19060
X23543Y19183
X21260Y19310
X20760Y21160
X21160Y21460
X21678Y21636
X19260Y23710
X18860Y23360
X18760Y22860
X16060Y24260
X16260Y24760
X14060Y23660
X13210Y24160
X13160Y25160
X12160Y23660
X10310Y23810
X10060Y24310
X10035Y24770
X7660Y22760
X7260Y23110
X7160Y23560
X4860Y21160
X5310Y20910
X4660Y21660
X2760Y19160
X3060Y18760
X3610Y18660
X1560Y16260
X2010Y16010
X2510Y16010
X5160Y15310
X5810Y14810
X6160Y14010
X6710Y14310
X6960Y15910
X8910Y17050
X9440Y16910
X9960Y16060
X10410Y16060
X8910Y17860
X12410Y14760
X12860Y15510
X15010Y14710
X17860Y19060
X9360Y12960
X13310Y6510
X16410Y6960
X17010Y9210
X2510Y10310
X2010Y10110
X1560Y10060
X1610Y13010
X1160Y13160
X2160Y13110
T02
X9360Y13560
X11710Y8360
X11560Y6560
X20910Y7260
T03
X15715Y15558
X13805Y15558
T04
X13339Y16660
X16181Y16660
T05
X18410Y20660
X7910Y20660
X7910Y5660
X18410Y5660
M30
