G75*
%MOIN*%
%OFA0B0*%
%FSLAX24Y24*%
%IPPOS*%
%LPD*%
%AMOC8*
5,1,8,0,0,1.08239X$1,22.5*
%
%ADD10C,0.0010*%
%ADD11C,0.0050*%
%ADD12C,0.0552*%
%ADD13C,0.0867*%
%ADD14C,0.0000*%
%ADD15C,0.1280*%
D10*
X000160Y013160D02*
X000164Y013479D01*
X000176Y013798D01*
X000195Y014116D01*
X000223Y014434D01*
X000258Y014751D01*
X000301Y015067D01*
X000351Y015383D01*
X000410Y015696D01*
X000476Y016008D01*
X000550Y016319D01*
X000631Y016627D01*
X000720Y016934D01*
X000816Y017238D01*
X000920Y017540D01*
X001031Y017839D01*
X001150Y018135D01*
X001275Y018428D01*
X001408Y018718D01*
X001548Y019005D01*
X001695Y019288D01*
X001849Y019568D01*
X002010Y019843D01*
X002177Y020115D01*
X002351Y020382D01*
X002531Y020646D01*
X002718Y020904D01*
X002911Y021158D01*
X003111Y021407D01*
X003316Y021651D01*
X003528Y021890D01*
X003745Y022124D01*
X003968Y022352D01*
X004196Y022575D01*
X004430Y022792D01*
X004669Y023004D01*
X004913Y023209D01*
X005162Y023409D01*
X005416Y023602D01*
X005674Y023789D01*
X005938Y023969D01*
X006205Y024143D01*
X006477Y024310D01*
X006752Y024471D01*
X007032Y024625D01*
X007315Y024772D01*
X007602Y024912D01*
X007892Y025045D01*
X008185Y025170D01*
X008481Y025289D01*
X008780Y025400D01*
X009082Y025504D01*
X009386Y025600D01*
X009693Y025689D01*
X010001Y025770D01*
X010312Y025844D01*
X010624Y025910D01*
X010937Y025969D01*
X011253Y026019D01*
X011569Y026062D01*
X011886Y026097D01*
X012204Y026125D01*
X012522Y026144D01*
X012841Y026156D01*
X013160Y026160D01*
X013479Y026156D01*
X013798Y026144D01*
X014116Y026125D01*
X014434Y026097D01*
X014751Y026062D01*
X015067Y026019D01*
X015383Y025969D01*
X015696Y025910D01*
X016008Y025844D01*
X016319Y025770D01*
X016627Y025689D01*
X016934Y025600D01*
X017238Y025504D01*
X017540Y025400D01*
X017839Y025289D01*
X018135Y025170D01*
X018428Y025045D01*
X018718Y024912D01*
X019005Y024772D01*
X019288Y024625D01*
X019568Y024471D01*
X019843Y024310D01*
X020115Y024143D01*
X020382Y023969D01*
X020646Y023789D01*
X020904Y023602D01*
X021158Y023409D01*
X021407Y023209D01*
X021651Y023004D01*
X021890Y022792D01*
X022124Y022575D01*
X022352Y022352D01*
X022575Y022124D01*
X022792Y021890D01*
X023004Y021651D01*
X023209Y021407D01*
X023409Y021158D01*
X023602Y020904D01*
X023789Y020646D01*
X023969Y020382D01*
X024143Y020115D01*
X024310Y019843D01*
X024471Y019568D01*
X024625Y019288D01*
X024772Y019005D01*
X024912Y018718D01*
X025045Y018428D01*
X025170Y018135D01*
X025289Y017839D01*
X025400Y017540D01*
X025504Y017238D01*
X025600Y016934D01*
X025689Y016627D01*
X025770Y016319D01*
X025844Y016008D01*
X025910Y015696D01*
X025969Y015383D01*
X026019Y015067D01*
X026062Y014751D01*
X026097Y014434D01*
X026125Y014116D01*
X026144Y013798D01*
X026156Y013479D01*
X026160Y013160D01*
X026156Y012841D01*
X026144Y012522D01*
X026125Y012204D01*
X026097Y011886D01*
X026062Y011569D01*
X026019Y011253D01*
X025969Y010937D01*
X025910Y010624D01*
X025844Y010312D01*
X025770Y010001D01*
X025689Y009693D01*
X025600Y009386D01*
X025504Y009082D01*
X025400Y008780D01*
X025289Y008481D01*
X025170Y008185D01*
X025045Y007892D01*
X024912Y007602D01*
X024772Y007315D01*
X024625Y007032D01*
X024471Y006752D01*
X024310Y006477D01*
X024143Y006205D01*
X023969Y005938D01*
X023789Y005674D01*
X023602Y005416D01*
X023409Y005162D01*
X023209Y004913D01*
X023004Y004669D01*
X022792Y004430D01*
X022575Y004196D01*
X022352Y003968D01*
X022124Y003745D01*
X021890Y003528D01*
X021651Y003316D01*
X021407Y003111D01*
X021158Y002911D01*
X020904Y002718D01*
X020646Y002531D01*
X020382Y002351D01*
X020115Y002177D01*
X019843Y002010D01*
X019568Y001849D01*
X019288Y001695D01*
X019005Y001548D01*
X018718Y001408D01*
X018428Y001275D01*
X018135Y001150D01*
X017839Y001031D01*
X017540Y000920D01*
X017238Y000816D01*
X016934Y000720D01*
X016627Y000631D01*
X016319Y000550D01*
X016008Y000476D01*
X015696Y000410D01*
X015383Y000351D01*
X015067Y000301D01*
X014751Y000258D01*
X014434Y000223D01*
X014116Y000195D01*
X013798Y000176D01*
X013479Y000164D01*
X013160Y000160D01*
X012841Y000164D01*
X012522Y000176D01*
X012204Y000195D01*
X011886Y000223D01*
X011569Y000258D01*
X011253Y000301D01*
X010937Y000351D01*
X010624Y000410D01*
X010312Y000476D01*
X010001Y000550D01*
X009693Y000631D01*
X009386Y000720D01*
X009082Y000816D01*
X008780Y000920D01*
X008481Y001031D01*
X008185Y001150D01*
X007892Y001275D01*
X007602Y001408D01*
X007315Y001548D01*
X007032Y001695D01*
X006752Y001849D01*
X006477Y002010D01*
X006205Y002177D01*
X005938Y002351D01*
X005674Y002531D01*
X005416Y002718D01*
X005162Y002911D01*
X004913Y003111D01*
X004669Y003316D01*
X004430Y003528D01*
X004196Y003745D01*
X003968Y003968D01*
X003745Y004196D01*
X003528Y004430D01*
X003316Y004669D01*
X003111Y004913D01*
X002911Y005162D01*
X002718Y005416D01*
X002531Y005674D01*
X002351Y005938D01*
X002177Y006205D01*
X002010Y006477D01*
X001849Y006752D01*
X001695Y007032D01*
X001548Y007315D01*
X001408Y007602D01*
X001275Y007892D01*
X001150Y008185D01*
X001031Y008481D01*
X000920Y008780D01*
X000816Y009082D01*
X000720Y009386D01*
X000631Y009693D01*
X000550Y010001D01*
X000476Y010312D01*
X000410Y010624D01*
X000351Y010937D01*
X000301Y011253D01*
X000258Y011569D01*
X000223Y011886D01*
X000195Y012204D01*
X000176Y012522D01*
X000164Y012841D01*
X000160Y013160D01*
D11*
X009260Y021260D02*
X009260Y022310D01*
X009262Y022354D01*
X009268Y022397D01*
X009277Y022439D01*
X009290Y022481D01*
X009307Y022521D01*
X009327Y022560D01*
X009350Y022597D01*
X009377Y022631D01*
X009406Y022664D01*
X009439Y022693D01*
X009473Y022720D01*
X009510Y022743D01*
X009549Y022763D01*
X009589Y022780D01*
X009631Y022793D01*
X009673Y022802D01*
X009716Y022808D01*
X009760Y022810D01*
X016560Y022810D01*
X016604Y022808D01*
X016647Y022802D01*
X016689Y022793D01*
X016731Y022780D01*
X016771Y022763D01*
X016810Y022743D01*
X016847Y022720D01*
X016881Y022693D01*
X016914Y022664D01*
X016943Y022631D01*
X016970Y022597D01*
X016993Y022560D01*
X017013Y022521D01*
X017030Y022481D01*
X017043Y022439D01*
X017052Y022397D01*
X017058Y022354D01*
X017060Y022310D01*
X017060Y018060D01*
X017058Y018016D01*
X017052Y017973D01*
X017043Y017931D01*
X017030Y017889D01*
X017013Y017849D01*
X016993Y017810D01*
X016970Y017773D01*
X016943Y017739D01*
X016914Y017706D01*
X016881Y017677D01*
X016847Y017650D01*
X016810Y017627D01*
X016771Y017607D01*
X016731Y017590D01*
X016689Y017577D01*
X016647Y017568D01*
X016604Y017562D01*
X016560Y017560D01*
X012560Y017560D01*
X012516Y017562D01*
X012473Y017568D01*
X012431Y017577D01*
X012389Y017590D01*
X012349Y017607D01*
X012310Y017627D01*
X012273Y017650D01*
X012239Y017677D01*
X012206Y017706D01*
X012177Y017739D01*
X012150Y017773D01*
X012127Y017810D01*
X012107Y017849D01*
X012090Y017889D01*
X012077Y017931D01*
X012068Y017973D01*
X012062Y018016D01*
X012060Y018060D01*
X012060Y020260D01*
X012058Y020304D01*
X012052Y020347D01*
X012043Y020389D01*
X012030Y020431D01*
X012013Y020471D01*
X011993Y020510D01*
X011970Y020547D01*
X011943Y020581D01*
X011914Y020614D01*
X011881Y020643D01*
X011847Y020670D01*
X011810Y020693D01*
X011771Y020713D01*
X011731Y020730D01*
X011689Y020743D01*
X011647Y020752D01*
X011604Y020758D01*
X011560Y020760D01*
X009760Y020760D01*
X009716Y020762D01*
X009673Y020768D01*
X009631Y020777D01*
X009589Y020790D01*
X009549Y020807D01*
X009510Y020827D01*
X009473Y020850D01*
X009439Y020877D01*
X009406Y020906D01*
X009377Y020939D01*
X009350Y020973D01*
X009327Y021010D01*
X009307Y021049D01*
X009290Y021089D01*
X009277Y021131D01*
X009268Y021173D01*
X009262Y021216D01*
X009260Y021260D01*
X018660Y014410D02*
X018660Y012160D01*
X018662Y012130D01*
X018667Y012100D01*
X018676Y012071D01*
X018689Y012044D01*
X018704Y012018D01*
X018723Y011994D01*
X018744Y011973D01*
X018768Y011954D01*
X018794Y011939D01*
X018821Y011926D01*
X018850Y011917D01*
X018880Y011912D01*
X018910Y011910D01*
X022510Y011910D01*
X022540Y011912D01*
X022570Y011917D01*
X022599Y011926D01*
X022626Y011939D01*
X022652Y011954D01*
X022676Y011973D01*
X022697Y011994D01*
X022716Y012018D01*
X022731Y012044D01*
X022744Y012071D01*
X022753Y012100D01*
X022758Y012130D01*
X022760Y012160D01*
X022760Y014410D01*
X022758Y014440D01*
X022753Y014470D01*
X022744Y014499D01*
X022731Y014526D01*
X022716Y014552D01*
X022697Y014576D01*
X022676Y014597D01*
X022652Y014616D01*
X022626Y014631D01*
X022599Y014644D01*
X022570Y014653D01*
X022540Y014658D01*
X022510Y014660D01*
X018910Y014660D01*
X018880Y014658D01*
X018850Y014653D01*
X018821Y014644D01*
X018794Y014631D01*
X018768Y014616D01*
X018744Y014597D01*
X018723Y014576D01*
X018704Y014552D01*
X018689Y014526D01*
X018676Y014499D01*
X018667Y014470D01*
X018662Y014440D01*
X018660Y014410D01*
D12*
X015715Y015558D03*
X013805Y015558D03*
D13*
X013339Y016660D03*
X016181Y016660D03*
D14*
X017810Y020660D02*
X017812Y020709D01*
X017818Y020757D01*
X017828Y020805D01*
X017842Y020852D01*
X017859Y020898D01*
X017880Y020942D01*
X017905Y020984D01*
X017933Y021024D01*
X017965Y021062D01*
X017999Y021097D01*
X018036Y021129D01*
X018075Y021158D01*
X018117Y021184D01*
X018161Y021206D01*
X018206Y021224D01*
X018253Y021239D01*
X018300Y021250D01*
X018349Y021257D01*
X018398Y021260D01*
X018447Y021259D01*
X018495Y021254D01*
X018544Y021245D01*
X018591Y021232D01*
X018637Y021215D01*
X018681Y021195D01*
X018724Y021171D01*
X018765Y021144D01*
X018803Y021113D01*
X018839Y021080D01*
X018871Y021044D01*
X018901Y021005D01*
X018928Y020964D01*
X018951Y020920D01*
X018970Y020875D01*
X018986Y020829D01*
X018998Y020782D01*
X019006Y020733D01*
X019010Y020684D01*
X019010Y020636D01*
X019006Y020587D01*
X018998Y020538D01*
X018986Y020491D01*
X018970Y020445D01*
X018951Y020400D01*
X018928Y020356D01*
X018901Y020315D01*
X018871Y020276D01*
X018839Y020240D01*
X018803Y020207D01*
X018765Y020176D01*
X018724Y020149D01*
X018681Y020125D01*
X018637Y020105D01*
X018591Y020088D01*
X018544Y020075D01*
X018495Y020066D01*
X018447Y020061D01*
X018398Y020060D01*
X018349Y020063D01*
X018300Y020070D01*
X018253Y020081D01*
X018206Y020096D01*
X018161Y020114D01*
X018117Y020136D01*
X018075Y020162D01*
X018036Y020191D01*
X017999Y020223D01*
X017965Y020258D01*
X017933Y020296D01*
X017905Y020336D01*
X017880Y020378D01*
X017859Y020422D01*
X017842Y020468D01*
X017828Y020515D01*
X017818Y020563D01*
X017812Y020611D01*
X017810Y020660D01*
X007310Y020660D02*
X007312Y020709D01*
X007318Y020757D01*
X007328Y020805D01*
X007342Y020852D01*
X007359Y020898D01*
X007380Y020942D01*
X007405Y020984D01*
X007433Y021024D01*
X007465Y021062D01*
X007499Y021097D01*
X007536Y021129D01*
X007575Y021158D01*
X007617Y021184D01*
X007661Y021206D01*
X007706Y021224D01*
X007753Y021239D01*
X007800Y021250D01*
X007849Y021257D01*
X007898Y021260D01*
X007947Y021259D01*
X007995Y021254D01*
X008044Y021245D01*
X008091Y021232D01*
X008137Y021215D01*
X008181Y021195D01*
X008224Y021171D01*
X008265Y021144D01*
X008303Y021113D01*
X008339Y021080D01*
X008371Y021044D01*
X008401Y021005D01*
X008428Y020964D01*
X008451Y020920D01*
X008470Y020875D01*
X008486Y020829D01*
X008498Y020782D01*
X008506Y020733D01*
X008510Y020684D01*
X008510Y020636D01*
X008506Y020587D01*
X008498Y020538D01*
X008486Y020491D01*
X008470Y020445D01*
X008451Y020400D01*
X008428Y020356D01*
X008401Y020315D01*
X008371Y020276D01*
X008339Y020240D01*
X008303Y020207D01*
X008265Y020176D01*
X008224Y020149D01*
X008181Y020125D01*
X008137Y020105D01*
X008091Y020088D01*
X008044Y020075D01*
X007995Y020066D01*
X007947Y020061D01*
X007898Y020060D01*
X007849Y020063D01*
X007800Y020070D01*
X007753Y020081D01*
X007706Y020096D01*
X007661Y020114D01*
X007617Y020136D01*
X007575Y020162D01*
X007536Y020191D01*
X007499Y020223D01*
X007465Y020258D01*
X007433Y020296D01*
X007405Y020336D01*
X007380Y020378D01*
X007359Y020422D01*
X007342Y020468D01*
X007328Y020515D01*
X007318Y020563D01*
X007312Y020611D01*
X007310Y020660D01*
X007310Y005660D02*
X007312Y005709D01*
X007318Y005757D01*
X007328Y005805D01*
X007342Y005852D01*
X007359Y005898D01*
X007380Y005942D01*
X007405Y005984D01*
X007433Y006024D01*
X007465Y006062D01*
X007499Y006097D01*
X007536Y006129D01*
X007575Y006158D01*
X007617Y006184D01*
X007661Y006206D01*
X007706Y006224D01*
X007753Y006239D01*
X007800Y006250D01*
X007849Y006257D01*
X007898Y006260D01*
X007947Y006259D01*
X007995Y006254D01*
X008044Y006245D01*
X008091Y006232D01*
X008137Y006215D01*
X008181Y006195D01*
X008224Y006171D01*
X008265Y006144D01*
X008303Y006113D01*
X008339Y006080D01*
X008371Y006044D01*
X008401Y006005D01*
X008428Y005964D01*
X008451Y005920D01*
X008470Y005875D01*
X008486Y005829D01*
X008498Y005782D01*
X008506Y005733D01*
X008510Y005684D01*
X008510Y005636D01*
X008506Y005587D01*
X008498Y005538D01*
X008486Y005491D01*
X008470Y005445D01*
X008451Y005400D01*
X008428Y005356D01*
X008401Y005315D01*
X008371Y005276D01*
X008339Y005240D01*
X008303Y005207D01*
X008265Y005176D01*
X008224Y005149D01*
X008181Y005125D01*
X008137Y005105D01*
X008091Y005088D01*
X008044Y005075D01*
X007995Y005066D01*
X007947Y005061D01*
X007898Y005060D01*
X007849Y005063D01*
X007800Y005070D01*
X007753Y005081D01*
X007706Y005096D01*
X007661Y005114D01*
X007617Y005136D01*
X007575Y005162D01*
X007536Y005191D01*
X007499Y005223D01*
X007465Y005258D01*
X007433Y005296D01*
X007405Y005336D01*
X007380Y005378D01*
X007359Y005422D01*
X007342Y005468D01*
X007328Y005515D01*
X007318Y005563D01*
X007312Y005611D01*
X007310Y005660D01*
X017810Y005660D02*
X017812Y005709D01*
X017818Y005757D01*
X017828Y005805D01*
X017842Y005852D01*
X017859Y005898D01*
X017880Y005942D01*
X017905Y005984D01*
X017933Y006024D01*
X017965Y006062D01*
X017999Y006097D01*
X018036Y006129D01*
X018075Y006158D01*
X018117Y006184D01*
X018161Y006206D01*
X018206Y006224D01*
X018253Y006239D01*
X018300Y006250D01*
X018349Y006257D01*
X018398Y006260D01*
X018447Y006259D01*
X018495Y006254D01*
X018544Y006245D01*
X018591Y006232D01*
X018637Y006215D01*
X018681Y006195D01*
X018724Y006171D01*
X018765Y006144D01*
X018803Y006113D01*
X018839Y006080D01*
X018871Y006044D01*
X018901Y006005D01*
X018928Y005964D01*
X018951Y005920D01*
X018970Y005875D01*
X018986Y005829D01*
X018998Y005782D01*
X019006Y005733D01*
X019010Y005684D01*
X019010Y005636D01*
X019006Y005587D01*
X018998Y005538D01*
X018986Y005491D01*
X018970Y005445D01*
X018951Y005400D01*
X018928Y005356D01*
X018901Y005315D01*
X018871Y005276D01*
X018839Y005240D01*
X018803Y005207D01*
X018765Y005176D01*
X018724Y005149D01*
X018681Y005125D01*
X018637Y005105D01*
X018591Y005088D01*
X018544Y005075D01*
X018495Y005066D01*
X018447Y005061D01*
X018398Y005060D01*
X018349Y005063D01*
X018300Y005070D01*
X018253Y005081D01*
X018206Y005096D01*
X018161Y005114D01*
X018117Y005136D01*
X018075Y005162D01*
X018036Y005191D01*
X017999Y005223D01*
X017965Y005258D01*
X017933Y005296D01*
X017905Y005336D01*
X017880Y005378D01*
X017859Y005422D01*
X017842Y005468D01*
X017828Y005515D01*
X017818Y005563D01*
X017812Y005611D01*
X017810Y005660D01*
D15*
X007910Y005660D03*
X018410Y005660D03*
X018410Y020660D03*
X007910Y020660D03*
M02*
