G75*
%MOIN*%
%OFA0B0*%
%FSLAX24Y24*%
%IPPOS*%
%LPD*%
%AMOC8*
5,1,8,0,0,1.08239X$1,22.5*
%
%ADD10C,0.0556*%
%ADD11C,0.0867*%
%ADD12R,0.0316X0.0552*%
%ADD13R,0.1891X0.0474*%
%ADD14R,0.1419X0.0710*%
%ADD15C,0.1346*%
%ADD16C,0.0120*%
%ADD17R,0.0820X0.0820*%
%ADD18C,0.0820*%
%ADD19R,0.0580X0.0659*%
%ADD20R,0.1615X0.1615*%
%ADD21R,0.1340X0.1340*%
%ADD22R,0.0710X0.0631*%
D10*
X002330Y005205D03*
X002330Y007115D03*
D11*
X001228Y007581D03*
X001228Y004739D03*
D12*
G36*
X006566Y003057D02*
X006777Y003292D01*
X007186Y002923D01*
X006975Y002688D01*
X006566Y003057D01*
G37*
G36*
X006901Y003429D02*
X007112Y003664D01*
X007521Y003295D01*
X007310Y003060D01*
X006901Y003429D01*
G37*
G36*
X007236Y003800D02*
X007447Y004035D01*
X007856Y003666D01*
X007645Y003431D01*
X007236Y003800D01*
G37*
G36*
X007570Y004172D02*
X007781Y004407D01*
X008190Y004038D01*
X007979Y003803D01*
X007570Y004172D01*
G37*
G36*
X008874Y002325D02*
X009085Y002560D01*
X009494Y002191D01*
X009283Y001956D01*
X008874Y002325D01*
G37*
G36*
X008539Y001954D02*
X008750Y002189D01*
X009159Y001820D01*
X008948Y001585D01*
X008539Y001954D01*
G37*
G36*
X008205Y001582D02*
X008416Y001817D01*
X008825Y001448D01*
X008614Y001213D01*
X008205Y001582D01*
G37*
G36*
X009209Y002697D02*
X009420Y002932D01*
X009829Y002563D01*
X009618Y002328D01*
X009209Y002697D01*
G37*
D13*
X009365Y005373D03*
X009365Y006160D03*
X009365Y006947D03*
D14*
X011412Y007892D03*
X011412Y004428D03*
D15*
X010698Y003160D03*
X006648Y000960D03*
X003298Y010160D03*
D16*
X003902Y009640D02*
X002690Y009640D01*
X002685Y009646D02*
X002771Y009554D01*
X002872Y009477D01*
X002983Y009417D01*
X003103Y009376D01*
X003227Y009355D01*
X003353Y009354D01*
X003478Y009374D01*
X003598Y009413D01*
X003711Y009472D01*
X003812Y009547D01*
X003899Y009636D01*
X003972Y009738D01*
X004029Y009849D01*
X004067Y009968D01*
X004088Y010091D01*
X004089Y010216D01*
X004071Y010339D01*
X004035Y010459D01*
X003981Y010571D01*
X003910Y010674D01*
X003434Y011319D01*
X002132Y010226D01*
X002685Y009646D01*
X002577Y009759D02*
X003983Y009759D01*
X004038Y009877D02*
X002465Y009877D01*
X002352Y009996D02*
X004072Y009996D01*
X004088Y010114D02*
X002239Y010114D01*
X002139Y010233D02*
X004087Y010233D01*
X004068Y010351D02*
X002281Y010351D01*
X002422Y010470D02*
X004030Y010470D01*
X003970Y010588D02*
X002563Y010588D01*
X002704Y010707D02*
X003887Y010707D01*
X003799Y010825D02*
X002846Y010825D01*
X002987Y010944D02*
X003712Y010944D01*
X003624Y011062D02*
X003128Y011062D01*
X003269Y011181D02*
X003537Y011181D01*
X003449Y011299D02*
X003410Y011299D01*
X003777Y009522D02*
X002813Y009522D01*
X003024Y009403D02*
X003567Y009403D01*
X009937Y003393D02*
X009911Y003271D01*
X009904Y003146D01*
X009916Y003022D01*
X009947Y002901D01*
X009996Y002786D01*
X010062Y002681D01*
X010144Y002586D01*
X010239Y002505D01*
X010865Y002005D01*
X011840Y003397D01*
X011156Y003815D01*
X011049Y003882D01*
X010932Y003930D01*
X010809Y003959D01*
X010683Y003968D01*
X010557Y003956D01*
X010435Y003924D01*
X010319Y003873D01*
X010214Y003803D01*
X010120Y003718D01*
X010042Y003619D01*
X009981Y003510D01*
X009937Y003393D01*
X009930Y003360D02*
X011814Y003360D01*
X011731Y003241D02*
X009909Y003241D01*
X009906Y003123D02*
X011648Y003123D01*
X011565Y003004D02*
X009921Y003004D01*
X009954Y002886D02*
X011482Y002886D01*
X011399Y002767D02*
X010009Y002767D01*
X010090Y002649D02*
X011316Y002649D01*
X011233Y002530D02*
X010209Y002530D01*
X010355Y002412D02*
X011150Y002412D01*
X011067Y002293D02*
X010504Y002293D01*
X010653Y002175D02*
X010984Y002175D01*
X010901Y002056D02*
X010801Y002056D01*
X009969Y003478D02*
X011709Y003478D01*
X011515Y003597D02*
X010030Y003597D01*
X010118Y003715D02*
X011321Y003715D01*
X011127Y003834D02*
X010260Y003834D01*
X010543Y003952D02*
X010839Y003952D01*
X007366Y001327D02*
X007413Y001210D01*
X007440Y001086D01*
X007448Y000960D01*
X007498Y000160D01*
X005798Y000160D01*
X007498Y000160D01*
X007490Y000279D02*
X005805Y000279D01*
X005812Y000397D02*
X007483Y000397D01*
X007475Y000516D02*
X005820Y000516D01*
X005827Y000634D02*
X007468Y000634D01*
X007461Y000753D02*
X005835Y000753D01*
X005842Y000871D02*
X007453Y000871D01*
X007446Y000990D02*
X005850Y000990D01*
X005848Y000960D02*
X005860Y001084D01*
X005890Y001205D01*
X005939Y001320D01*
X006005Y001426D01*
X006087Y001521D01*
X006181Y001602D01*
X006287Y001668D01*
X006402Y001717D01*
X006523Y001748D01*
X006648Y001760D01*
X006774Y001753D01*
X006897Y001725D01*
X007014Y001679D01*
X007123Y001613D01*
X007219Y001531D01*
X007301Y001435D01*
X007366Y001327D01*
X007355Y001345D02*
X005955Y001345D01*
X005900Y001227D02*
X007406Y001227D01*
X007436Y001108D02*
X005866Y001108D01*
X005848Y000960D02*
X005798Y000160D01*
X006037Y001464D02*
X007277Y001464D01*
X007159Y001582D02*
X006158Y001582D01*
X006363Y001701D02*
X006959Y001701D01*
D17*
G36*
X004217Y001100D02*
X004760Y001713D01*
X005373Y001170D01*
X004830Y000557D01*
X004217Y001100D01*
G37*
D18*
X002549Y003123D03*
X003298Y002460D03*
X004047Y001797D03*
X001800Y003785D03*
D19*
G36*
X006333Y009906D02*
X005902Y010294D01*
X006341Y010782D01*
X006772Y010394D01*
X006333Y009906D01*
G37*
G36*
X005083Y011914D02*
X005514Y011526D01*
X005075Y011038D01*
X004644Y011426D01*
X005083Y011914D01*
G37*
D20*
G36*
X004259Y006601D02*
X005339Y007799D01*
X006537Y006719D01*
X005457Y005521D01*
X004259Y006601D01*
G37*
D21*
G36*
X002291Y004212D02*
X003188Y005207D01*
X004183Y004310D01*
X003286Y003315D01*
X002291Y004212D01*
G37*
G36*
X006612Y009010D02*
X007509Y010005D01*
X008504Y009108D01*
X007607Y008113D01*
X006612Y009010D01*
G37*
D22*
G36*
X005119Y002662D02*
X004645Y002135D01*
X004177Y002556D01*
X004651Y003083D01*
X005119Y002662D01*
G37*
G36*
X005938Y001924D02*
X005464Y001397D01*
X004996Y001818D01*
X005470Y002345D01*
X005938Y001924D01*
G37*
M02*
