G75*
%MOIN*%
%OFA0B0*%
%FSLAX24Y24*%
%IPPOS*%
%LPD*%
%AMOC8*
5,1,8,0,0,1.08239X$1,22.5*
%
%ADD10C,0.0010*%
%ADD11C,0.0050*%
%ADD12R,0.0394X0.0433*%
%ADD13R,0.0157X0.0551*%
%ADD14R,0.0709X0.0709*%
%ADD15C,0.0160*%
%ADD16R,0.0236X0.0472*%
%ADD17R,0.0394X0.1811*%
%ADD18R,0.0630X0.1339*%
%ADD19R,0.0217X0.0472*%
%ADD20R,0.0433X0.0394*%
%ADD21R,0.0472X0.0236*%
%ADD22R,0.1575X0.1575*%
%ADD23R,0.1378X0.1969*%
%ADD24R,0.0709X0.0433*%
%ADD25R,0.0433X0.0709*%
%ADD26R,0.0098X0.0394*%
%ADD27R,0.0394X0.0098*%
%ADD28R,0.0787X0.0787*%
%ADD29R,0.0630X0.1260*%
%ADD30R,0.0315X0.0315*%
%ADD31R,0.0709X0.0394*%
%ADD32C,0.0000*%
%ADD33R,0.0394X0.0551*%
D10*
X000160Y013160D02*
X000164Y013479D01*
X000176Y013798D01*
X000195Y014116D01*
X000223Y014434D01*
X000258Y014751D01*
X000301Y015067D01*
X000351Y015383D01*
X000410Y015696D01*
X000476Y016008D01*
X000550Y016319D01*
X000631Y016627D01*
X000720Y016934D01*
X000816Y017238D01*
X000920Y017540D01*
X001031Y017839D01*
X001150Y018135D01*
X001275Y018428D01*
X001408Y018718D01*
X001548Y019005D01*
X001695Y019288D01*
X001849Y019568D01*
X002010Y019843D01*
X002177Y020115D01*
X002351Y020382D01*
X002531Y020646D01*
X002718Y020904D01*
X002911Y021158D01*
X003111Y021407D01*
X003316Y021651D01*
X003528Y021890D01*
X003745Y022124D01*
X003968Y022352D01*
X004196Y022575D01*
X004430Y022792D01*
X004669Y023004D01*
X004913Y023209D01*
X005162Y023409D01*
X005416Y023602D01*
X005674Y023789D01*
X005938Y023969D01*
X006205Y024143D01*
X006477Y024310D01*
X006752Y024471D01*
X007032Y024625D01*
X007315Y024772D01*
X007602Y024912D01*
X007892Y025045D01*
X008185Y025170D01*
X008481Y025289D01*
X008780Y025400D01*
X009082Y025504D01*
X009386Y025600D01*
X009693Y025689D01*
X010001Y025770D01*
X010312Y025844D01*
X010624Y025910D01*
X010937Y025969D01*
X011253Y026019D01*
X011569Y026062D01*
X011886Y026097D01*
X012204Y026125D01*
X012522Y026144D01*
X012841Y026156D01*
X013160Y026160D01*
X013479Y026156D01*
X013798Y026144D01*
X014116Y026125D01*
X014434Y026097D01*
X014751Y026062D01*
X015067Y026019D01*
X015383Y025969D01*
X015696Y025910D01*
X016008Y025844D01*
X016319Y025770D01*
X016627Y025689D01*
X016934Y025600D01*
X017238Y025504D01*
X017540Y025400D01*
X017839Y025289D01*
X018135Y025170D01*
X018428Y025045D01*
X018718Y024912D01*
X019005Y024772D01*
X019288Y024625D01*
X019568Y024471D01*
X019843Y024310D01*
X020115Y024143D01*
X020382Y023969D01*
X020646Y023789D01*
X020904Y023602D01*
X021158Y023409D01*
X021407Y023209D01*
X021651Y023004D01*
X021890Y022792D01*
X022124Y022575D01*
X022352Y022352D01*
X022575Y022124D01*
X022792Y021890D01*
X023004Y021651D01*
X023209Y021407D01*
X023409Y021158D01*
X023602Y020904D01*
X023789Y020646D01*
X023969Y020382D01*
X024143Y020115D01*
X024310Y019843D01*
X024471Y019568D01*
X024625Y019288D01*
X024772Y019005D01*
X024912Y018718D01*
X025045Y018428D01*
X025170Y018135D01*
X025289Y017839D01*
X025400Y017540D01*
X025504Y017238D01*
X025600Y016934D01*
X025689Y016627D01*
X025770Y016319D01*
X025844Y016008D01*
X025910Y015696D01*
X025969Y015383D01*
X026019Y015067D01*
X026062Y014751D01*
X026097Y014434D01*
X026125Y014116D01*
X026144Y013798D01*
X026156Y013479D01*
X026160Y013160D01*
X026156Y012841D01*
X026144Y012522D01*
X026125Y012204D01*
X026097Y011886D01*
X026062Y011569D01*
X026019Y011253D01*
X025969Y010937D01*
X025910Y010624D01*
X025844Y010312D01*
X025770Y010001D01*
X025689Y009693D01*
X025600Y009386D01*
X025504Y009082D01*
X025400Y008780D01*
X025289Y008481D01*
X025170Y008185D01*
X025045Y007892D01*
X024912Y007602D01*
X024772Y007315D01*
X024625Y007032D01*
X024471Y006752D01*
X024310Y006477D01*
X024143Y006205D01*
X023969Y005938D01*
X023789Y005674D01*
X023602Y005416D01*
X023409Y005162D01*
X023209Y004913D01*
X023004Y004669D01*
X022792Y004430D01*
X022575Y004196D01*
X022352Y003968D01*
X022124Y003745D01*
X021890Y003528D01*
X021651Y003316D01*
X021407Y003111D01*
X021158Y002911D01*
X020904Y002718D01*
X020646Y002531D01*
X020382Y002351D01*
X020115Y002177D01*
X019843Y002010D01*
X019568Y001849D01*
X019288Y001695D01*
X019005Y001548D01*
X018718Y001408D01*
X018428Y001275D01*
X018135Y001150D01*
X017839Y001031D01*
X017540Y000920D01*
X017238Y000816D01*
X016934Y000720D01*
X016627Y000631D01*
X016319Y000550D01*
X016008Y000476D01*
X015696Y000410D01*
X015383Y000351D01*
X015067Y000301D01*
X014751Y000258D01*
X014434Y000223D01*
X014116Y000195D01*
X013798Y000176D01*
X013479Y000164D01*
X013160Y000160D01*
X012841Y000164D01*
X012522Y000176D01*
X012204Y000195D01*
X011886Y000223D01*
X011569Y000258D01*
X011253Y000301D01*
X010937Y000351D01*
X010624Y000410D01*
X010312Y000476D01*
X010001Y000550D01*
X009693Y000631D01*
X009386Y000720D01*
X009082Y000816D01*
X008780Y000920D01*
X008481Y001031D01*
X008185Y001150D01*
X007892Y001275D01*
X007602Y001408D01*
X007315Y001548D01*
X007032Y001695D01*
X006752Y001849D01*
X006477Y002010D01*
X006205Y002177D01*
X005938Y002351D01*
X005674Y002531D01*
X005416Y002718D01*
X005162Y002911D01*
X004913Y003111D01*
X004669Y003316D01*
X004430Y003528D01*
X004196Y003745D01*
X003968Y003968D01*
X003745Y004196D01*
X003528Y004430D01*
X003316Y004669D01*
X003111Y004913D01*
X002911Y005162D01*
X002718Y005416D01*
X002531Y005674D01*
X002351Y005938D01*
X002177Y006205D01*
X002010Y006477D01*
X001849Y006752D01*
X001695Y007032D01*
X001548Y007315D01*
X001408Y007602D01*
X001275Y007892D01*
X001150Y008185D01*
X001031Y008481D01*
X000920Y008780D01*
X000816Y009082D01*
X000720Y009386D01*
X000631Y009693D01*
X000550Y010001D01*
X000476Y010312D01*
X000410Y010624D01*
X000351Y010937D01*
X000301Y011253D01*
X000258Y011569D01*
X000223Y011886D01*
X000195Y012204D01*
X000176Y012522D01*
X000164Y012841D01*
X000160Y013160D01*
D11*
X009260Y021260D02*
X009260Y022310D01*
X009262Y022354D01*
X009268Y022397D01*
X009277Y022439D01*
X009290Y022481D01*
X009307Y022521D01*
X009327Y022560D01*
X009350Y022597D01*
X009377Y022631D01*
X009406Y022664D01*
X009439Y022693D01*
X009473Y022720D01*
X009510Y022743D01*
X009549Y022763D01*
X009589Y022780D01*
X009631Y022793D01*
X009673Y022802D01*
X009716Y022808D01*
X009760Y022810D01*
X016560Y022810D01*
X016604Y022808D01*
X016647Y022802D01*
X016689Y022793D01*
X016731Y022780D01*
X016771Y022763D01*
X016810Y022743D01*
X016847Y022720D01*
X016881Y022693D01*
X016914Y022664D01*
X016943Y022631D01*
X016970Y022597D01*
X016993Y022560D01*
X017013Y022521D01*
X017030Y022481D01*
X017043Y022439D01*
X017052Y022397D01*
X017058Y022354D01*
X017060Y022310D01*
X017060Y018060D01*
X017058Y018016D01*
X017052Y017973D01*
X017043Y017931D01*
X017030Y017889D01*
X017013Y017849D01*
X016993Y017810D01*
X016970Y017773D01*
X016943Y017739D01*
X016914Y017706D01*
X016881Y017677D01*
X016847Y017650D01*
X016810Y017627D01*
X016771Y017607D01*
X016731Y017590D01*
X016689Y017577D01*
X016647Y017568D01*
X016604Y017562D01*
X016560Y017560D01*
X012560Y017560D01*
X012516Y017562D01*
X012473Y017568D01*
X012431Y017577D01*
X012389Y017590D01*
X012349Y017607D01*
X012310Y017627D01*
X012273Y017650D01*
X012239Y017677D01*
X012206Y017706D01*
X012177Y017739D01*
X012150Y017773D01*
X012127Y017810D01*
X012107Y017849D01*
X012090Y017889D01*
X012077Y017931D01*
X012068Y017973D01*
X012062Y018016D01*
X012060Y018060D01*
X012060Y020260D01*
X012058Y020304D01*
X012052Y020347D01*
X012043Y020389D01*
X012030Y020431D01*
X012013Y020471D01*
X011993Y020510D01*
X011970Y020547D01*
X011943Y020581D01*
X011914Y020614D01*
X011881Y020643D01*
X011847Y020670D01*
X011810Y020693D01*
X011771Y020713D01*
X011731Y020730D01*
X011689Y020743D01*
X011647Y020752D01*
X011604Y020758D01*
X011560Y020760D01*
X009760Y020760D01*
X009716Y020762D01*
X009673Y020768D01*
X009631Y020777D01*
X009589Y020790D01*
X009549Y020807D01*
X009510Y020827D01*
X009473Y020850D01*
X009439Y020877D01*
X009406Y020906D01*
X009377Y020939D01*
X009350Y020973D01*
X009327Y021010D01*
X009307Y021049D01*
X009290Y021089D01*
X009277Y021131D01*
X009268Y021173D01*
X009262Y021216D01*
X009260Y021260D01*
X018660Y014410D02*
X018660Y012160D01*
X018662Y012130D01*
X018667Y012100D01*
X018676Y012071D01*
X018689Y012044D01*
X018704Y012018D01*
X018723Y011994D01*
X018744Y011973D01*
X018768Y011954D01*
X018794Y011939D01*
X018821Y011926D01*
X018850Y011917D01*
X018880Y011912D01*
X018910Y011910D01*
X022510Y011910D01*
X022540Y011912D01*
X022570Y011917D01*
X022599Y011926D01*
X022626Y011939D01*
X022652Y011954D01*
X022676Y011973D01*
X022697Y011994D01*
X022716Y012018D01*
X022731Y012044D01*
X022744Y012071D01*
X022753Y012100D01*
X022758Y012130D01*
X022760Y012160D01*
X022760Y014410D01*
X022758Y014440D01*
X022753Y014470D01*
X022744Y014499D01*
X022731Y014526D01*
X022716Y014552D01*
X022697Y014576D01*
X022676Y014597D01*
X022652Y014616D01*
X022626Y014631D01*
X022599Y014644D01*
X022570Y014653D01*
X022540Y014658D01*
X022510Y014660D01*
X018910Y014660D01*
X018880Y014658D01*
X018850Y014653D01*
X018821Y014644D01*
X018794Y014631D01*
X018768Y014616D01*
X018744Y014597D01*
X018723Y014576D01*
X018704Y014552D01*
X018689Y014526D01*
X018676Y014499D01*
X018667Y014470D01*
X018662Y014440D01*
X018660Y014410D01*
D12*
X018160Y010614D03*
X018160Y009906D03*
X008760Y009606D03*
X008760Y010314D03*
X004710Y010256D03*
X004710Y009514D03*
X004710Y008806D03*
X004710Y010964D03*
D13*
X014248Y015617D03*
X014504Y015617D03*
X014760Y015617D03*
X015016Y015617D03*
X015272Y015617D03*
D14*
X015213Y016660D03*
X014307Y016660D03*
D15*
X011090Y013740D02*
X009930Y013740D01*
X011090Y013740D02*
X011090Y013580D01*
X009930Y013580D01*
X009930Y013740D01*
X009930Y013739D02*
X011090Y013739D01*
X011090Y013240D02*
X009930Y013240D01*
X011090Y013240D02*
X011090Y013080D01*
X009930Y013080D01*
X009930Y013240D01*
X009930Y013239D02*
X011090Y013239D01*
X011090Y012740D02*
X009930Y012740D01*
X011090Y012740D02*
X011090Y012580D01*
X009930Y012580D01*
X009930Y012740D01*
X009930Y012739D02*
X011090Y012739D01*
X011090Y012240D02*
X009930Y012240D01*
X011090Y012240D02*
X011090Y012080D01*
X009930Y012080D01*
X009930Y012240D01*
X009930Y012239D02*
X011090Y012239D01*
X011090Y011740D02*
X009930Y011740D01*
X011090Y011740D02*
X011090Y011580D01*
X009930Y011580D01*
X009930Y011740D01*
X009930Y011739D02*
X011090Y011739D01*
X011090Y011240D02*
X009930Y011240D01*
X011090Y011240D02*
X011090Y011080D01*
X009930Y011080D01*
X009930Y011240D01*
X009930Y011239D02*
X011090Y011239D01*
X011090Y010740D02*
X009930Y010740D01*
X011090Y010740D02*
X011090Y010580D01*
X009930Y010580D01*
X009930Y010740D01*
X009930Y010739D02*
X011090Y010739D01*
X011090Y010240D02*
X009930Y010240D01*
X011090Y010240D02*
X011090Y010080D01*
X009930Y010080D01*
X009930Y010240D01*
X009930Y010239D02*
X011090Y010239D01*
X011090Y009740D02*
X009930Y009740D01*
X011090Y009740D02*
X011090Y009580D01*
X009930Y009580D01*
X009930Y009740D01*
X009930Y009739D02*
X011090Y009739D01*
X011090Y009240D02*
X009930Y009240D01*
X011090Y009240D02*
X011090Y009080D01*
X009930Y009080D01*
X009930Y009240D01*
X009930Y009239D02*
X011090Y009239D01*
X011090Y008740D02*
X009930Y008740D01*
X011090Y008740D02*
X011090Y008580D01*
X009930Y008580D01*
X009930Y008740D01*
X009930Y008739D02*
X011090Y008739D01*
X015230Y008740D02*
X016390Y008740D01*
X016390Y008580D01*
X015230Y008580D01*
X015230Y008740D01*
X015230Y008739D02*
X016390Y008739D01*
X016390Y009240D02*
X015230Y009240D01*
X016390Y009240D02*
X016390Y009080D01*
X015230Y009080D01*
X015230Y009240D01*
X015230Y009239D02*
X016390Y009239D01*
X016390Y009740D02*
X015230Y009740D01*
X016390Y009740D02*
X016390Y009580D01*
X015230Y009580D01*
X015230Y009740D01*
X015230Y009739D02*
X016390Y009739D01*
X016390Y010240D02*
X015230Y010240D01*
X016390Y010240D02*
X016390Y010080D01*
X015230Y010080D01*
X015230Y010240D01*
X015230Y010239D02*
X016390Y010239D01*
X016390Y010740D02*
X015230Y010740D01*
X016390Y010740D02*
X016390Y010580D01*
X015230Y010580D01*
X015230Y010740D01*
X015230Y010739D02*
X016390Y010739D01*
X016390Y011240D02*
X015230Y011240D01*
X016390Y011240D02*
X016390Y011080D01*
X015230Y011080D01*
X015230Y011240D01*
X015230Y011239D02*
X016390Y011239D01*
X016390Y011740D02*
X015230Y011740D01*
X016390Y011740D02*
X016390Y011580D01*
X015230Y011580D01*
X015230Y011740D01*
X015230Y011739D02*
X016390Y011739D01*
X016390Y012240D02*
X015230Y012240D01*
X016390Y012240D02*
X016390Y012080D01*
X015230Y012080D01*
X015230Y012240D01*
X015230Y012239D02*
X016390Y012239D01*
D16*
X006810Y010962D03*
X006310Y010962D03*
X005810Y010962D03*
X005310Y010962D03*
X005310Y008758D03*
X005810Y008758D03*
X006310Y008758D03*
X006810Y008758D03*
D17*
X019923Y017923D03*
X020710Y017923D03*
X021497Y017923D03*
X021104Y008753D03*
X020316Y008753D03*
D18*
X018978Y015876D03*
X022442Y015876D03*
D19*
X008184Y010372D03*
X007810Y010372D03*
X007436Y010372D03*
X007436Y009348D03*
X008184Y009348D03*
D20*
X010006Y007760D03*
X010714Y007760D03*
X010714Y006810D03*
X010006Y006810D03*
G36*
X005629Y003670D02*
X005892Y004012D01*
X006203Y003772D01*
X005940Y003430D01*
X005629Y003670D01*
G37*
G36*
X005197Y003108D02*
X005460Y003450D01*
X005771Y003210D01*
X005508Y002868D01*
X005197Y003108D01*
G37*
G36*
X002868Y005508D02*
X003210Y005771D01*
X003450Y005460D01*
X003108Y005197D01*
X002868Y005508D01*
G37*
G36*
X003430Y005940D02*
X003772Y006203D01*
X004012Y005892D01*
X003670Y005629D01*
X003430Y005940D01*
G37*
G36*
X001239Y008433D02*
X001637Y008598D01*
X001787Y008235D01*
X001389Y008070D01*
X001239Y008433D01*
G37*
G36*
X001893Y008705D02*
X002291Y008870D01*
X002441Y008507D01*
X002043Y008342D01*
X001893Y008705D01*
G37*
G36*
X000420Y011681D02*
X000847Y011737D01*
X000898Y011347D01*
X000471Y011291D01*
X000420Y011681D01*
G37*
G36*
X001122Y011773D02*
X001549Y011829D01*
X001600Y011439D01*
X001173Y011383D01*
X001122Y011773D01*
G37*
G36*
X001173Y014937D02*
X001600Y014881D01*
X001549Y014491D01*
X001122Y014547D01*
X001173Y014937D01*
G37*
G36*
X000471Y015029D02*
X000898Y014973D01*
X000847Y014583D01*
X000420Y014639D01*
X000471Y015029D01*
G37*
G36*
X002043Y017978D02*
X002441Y017813D01*
X002291Y017450D01*
X001893Y017615D01*
X002043Y017978D01*
G37*
G36*
X001389Y018250D02*
X001787Y018085D01*
X001637Y017722D01*
X001239Y017887D01*
X001389Y018250D01*
G37*
G36*
X003670Y020691D02*
X004012Y020428D01*
X003772Y020117D01*
X003430Y020380D01*
X003670Y020691D01*
G37*
G36*
X003108Y021123D02*
X003450Y020860D01*
X003210Y020549D01*
X002868Y020812D01*
X003108Y021123D01*
G37*
G36*
X005508Y023452D02*
X005771Y023110D01*
X005460Y022870D01*
X005197Y023212D01*
X005508Y023452D01*
G37*
G36*
X005940Y022890D02*
X006203Y022548D01*
X005892Y022308D01*
X005629Y022650D01*
X005940Y022890D01*
G37*
G36*
X008433Y025081D02*
X008598Y024683D01*
X008235Y024533D01*
X008070Y024931D01*
X008433Y025081D01*
G37*
G36*
X008705Y024427D02*
X008870Y024029D01*
X008507Y023879D01*
X008342Y024277D01*
X008705Y024427D01*
G37*
G36*
X011681Y025900D02*
X011737Y025473D01*
X011347Y025422D01*
X011291Y025849D01*
X011681Y025900D01*
G37*
G36*
X011773Y025198D02*
X011829Y024771D01*
X011439Y024720D01*
X011383Y025147D01*
X011773Y025198D01*
G37*
G36*
X014937Y025147D02*
X014881Y024720D01*
X014491Y024771D01*
X014547Y025198D01*
X014937Y025147D01*
G37*
G36*
X015029Y025849D02*
X014973Y025422D01*
X014583Y025473D01*
X014639Y025900D01*
X015029Y025849D01*
G37*
G36*
X017978Y024277D02*
X017813Y023879D01*
X017450Y024029D01*
X017615Y024427D01*
X017978Y024277D01*
G37*
G36*
X018250Y024931D02*
X018085Y024533D01*
X017722Y024683D01*
X017887Y025081D01*
X018250Y024931D01*
G37*
G36*
X020691Y022650D02*
X020428Y022308D01*
X020117Y022548D01*
X020380Y022890D01*
X020691Y022650D01*
G37*
G36*
X021123Y023212D02*
X020860Y022870D01*
X020549Y023110D01*
X020812Y023452D01*
X021123Y023212D01*
G37*
G36*
X023452Y020812D02*
X023110Y020549D01*
X022870Y020860D01*
X023212Y021123D01*
X023452Y020812D01*
G37*
G36*
X022890Y020380D02*
X022548Y020117D01*
X022308Y020428D01*
X022650Y020691D01*
X022890Y020380D01*
G37*
G36*
X025081Y017887D02*
X024683Y017722D01*
X024533Y018085D01*
X024931Y018250D01*
X025081Y017887D01*
G37*
G36*
X024427Y017615D02*
X024029Y017450D01*
X023879Y017813D01*
X024277Y017978D01*
X024427Y017615D01*
G37*
G36*
X025900Y014639D02*
X025473Y014583D01*
X025422Y014973D01*
X025849Y015029D01*
X025900Y014639D01*
G37*
G36*
X025198Y014547D02*
X024771Y014491D01*
X024720Y014881D01*
X025147Y014937D01*
X025198Y014547D01*
G37*
G36*
X025147Y011383D02*
X024720Y011439D01*
X024771Y011829D01*
X025198Y011773D01*
X025147Y011383D01*
G37*
G36*
X025849Y011291D02*
X025422Y011347D01*
X025473Y011737D01*
X025900Y011681D01*
X025849Y011291D01*
G37*
G36*
X024277Y008342D02*
X023879Y008507D01*
X024029Y008870D01*
X024427Y008705D01*
X024277Y008342D01*
G37*
G36*
X024931Y008070D02*
X024533Y008235D01*
X024683Y008598D01*
X025081Y008433D01*
X024931Y008070D01*
G37*
G36*
X022650Y005629D02*
X022308Y005892D01*
X022548Y006203D01*
X022890Y005940D01*
X022650Y005629D01*
G37*
G36*
X023212Y005197D02*
X022870Y005460D01*
X023110Y005771D01*
X023452Y005508D01*
X023212Y005197D01*
G37*
G36*
X020812Y002868D02*
X020549Y003210D01*
X020860Y003450D01*
X021123Y003108D01*
X020812Y002868D01*
G37*
G36*
X020380Y003430D02*
X020117Y003772D01*
X020428Y004012D01*
X020691Y003670D01*
X020380Y003430D01*
G37*
G36*
X017887Y001239D02*
X017722Y001637D01*
X018085Y001787D01*
X018250Y001389D01*
X017887Y001239D01*
G37*
G36*
X017615Y001893D02*
X017450Y002291D01*
X017813Y002441D01*
X017978Y002043D01*
X017615Y001893D01*
G37*
G36*
X014639Y000420D02*
X014583Y000847D01*
X014973Y000898D01*
X015029Y000471D01*
X014639Y000420D01*
G37*
G36*
X014547Y001122D02*
X014491Y001549D01*
X014881Y001600D01*
X014937Y001173D01*
X014547Y001122D01*
G37*
G36*
X011383Y001173D02*
X011439Y001600D01*
X011829Y001549D01*
X011773Y001122D01*
X011383Y001173D01*
G37*
G36*
X011291Y000471D02*
X011347Y000898D01*
X011737Y000847D01*
X011681Y000420D01*
X011291Y000471D01*
G37*
G36*
X008342Y002043D02*
X008507Y002441D01*
X008870Y002291D01*
X008705Y001893D01*
X008342Y002043D01*
G37*
G36*
X008070Y001389D02*
X008235Y001787D01*
X008598Y001637D01*
X008433Y001239D01*
X008070Y001389D01*
G37*
X011006Y014760D03*
X011006Y015360D03*
X011006Y015960D03*
X011714Y015960D03*
X011714Y015360D03*
X011714Y014760D03*
X010464Y017360D03*
X009756Y017360D03*
X006414Y017110D03*
X006414Y016510D03*
X006414Y015910D03*
X006414Y015310D03*
X005706Y015310D03*
X005706Y015910D03*
X005706Y016510D03*
X005706Y017110D03*
D21*
X005340Y007587D03*
X005340Y007233D03*
X007820Y007233D03*
X007820Y007587D03*
D22*
X013160Y004210D03*
D23*
X015817Y004210D03*
X010503Y004210D03*
D24*
G36*
X003709Y004434D02*
X003209Y004934D01*
X003515Y005240D01*
X004015Y004740D01*
X003709Y004434D01*
G37*
G36*
X004934Y003209D02*
X004434Y003709D01*
X004740Y004015D01*
X005240Y003515D01*
X004934Y003209D01*
G37*
G36*
X006293Y002294D02*
X005681Y002648D01*
X005897Y003022D01*
X006509Y002668D01*
X006293Y002294D01*
G37*
G36*
X007793Y001427D02*
X007181Y001781D01*
X007397Y002155D01*
X008009Y001801D01*
X007793Y001427D01*
G37*
G36*
X009336Y000886D02*
X008653Y001069D01*
X008764Y001486D01*
X009447Y001303D01*
X009336Y000886D01*
G37*
G36*
X011010Y000437D02*
X010327Y000620D01*
X010438Y001037D01*
X011121Y000854D01*
X011010Y000437D01*
G37*
X012294Y000530D03*
X012294Y001790D03*
G36*
X011336Y001654D02*
X010653Y001837D01*
X010764Y002254D01*
X011447Y002071D01*
X011336Y001654D01*
G37*
G36*
X009662Y002103D02*
X008979Y002286D01*
X009090Y002703D01*
X009773Y002520D01*
X009662Y002103D01*
G37*
G36*
X008423Y002518D02*
X007811Y002872D01*
X008027Y003246D01*
X008639Y002892D01*
X008423Y002518D01*
G37*
G36*
X006923Y003385D02*
X006311Y003739D01*
X006527Y004113D01*
X007139Y003759D01*
X006923Y003385D01*
G37*
G36*
X005825Y004100D02*
X005325Y004600D01*
X005631Y004906D01*
X006131Y004406D01*
X005825Y004100D01*
G37*
G36*
X004600Y005325D02*
X004100Y005825D01*
X004406Y006131D01*
X004906Y005631D01*
X004600Y005325D01*
G37*
G36*
X003739Y006311D02*
X003385Y006923D01*
X003759Y007139D01*
X004113Y006527D01*
X003739Y006311D01*
G37*
G36*
X002648Y005681D02*
X002294Y006293D01*
X002668Y006509D01*
X003022Y005897D01*
X002648Y005681D01*
G37*
G36*
X001781Y007181D02*
X001427Y007793D01*
X001801Y008009D01*
X002155Y007397D01*
X001781Y007181D01*
G37*
G36*
X002872Y007811D02*
X002518Y008423D01*
X002892Y008639D01*
X003246Y008027D01*
X002872Y007811D01*
G37*
G36*
X002286Y008979D02*
X002103Y009662D01*
X002520Y009773D01*
X002703Y009090D01*
X002286Y008979D01*
G37*
G36*
X001069Y008653D02*
X000886Y009336D01*
X001303Y009447D01*
X001486Y008764D01*
X001069Y008653D01*
G37*
G36*
X000620Y010327D02*
X000437Y011010D01*
X000854Y011121D01*
X001037Y010438D01*
X000620Y010327D01*
G37*
G36*
X001837Y010653D02*
X001654Y011336D01*
X002071Y011447D01*
X002254Y010764D01*
X001837Y010653D01*
G37*
G36*
X001654Y014984D02*
X001837Y015667D01*
X002254Y015556D01*
X002071Y014873D01*
X001654Y014984D01*
G37*
G36*
X000437Y015310D02*
X000620Y015993D01*
X001037Y015882D01*
X000854Y015199D01*
X000437Y015310D01*
G37*
G36*
X000886Y016984D02*
X001069Y017667D01*
X001486Y017556D01*
X001303Y016873D01*
X000886Y016984D01*
G37*
G36*
X002103Y016658D02*
X002286Y017341D01*
X002703Y017230D01*
X002520Y016547D01*
X002103Y016658D01*
G37*
G36*
X002518Y017897D02*
X002872Y018509D01*
X003246Y018293D01*
X002892Y017681D01*
X002518Y017897D01*
G37*
G36*
X001427Y018527D02*
X001781Y019139D01*
X002155Y018923D01*
X001801Y018311D01*
X001427Y018527D01*
G37*
G36*
X002294Y020027D02*
X002648Y020639D01*
X003022Y020423D01*
X002668Y019811D01*
X002294Y020027D01*
G37*
G36*
X003209Y021386D02*
X003709Y021886D01*
X004015Y021580D01*
X003515Y021080D01*
X003209Y021386D01*
G37*
G36*
X004100Y020495D02*
X004600Y020995D01*
X004906Y020689D01*
X004406Y020189D01*
X004100Y020495D01*
G37*
G36*
X003385Y019397D02*
X003739Y020009D01*
X004113Y019793D01*
X003759Y019181D01*
X003385Y019397D01*
G37*
G36*
X005325Y021720D02*
X005825Y022220D01*
X006131Y021914D01*
X005631Y021414D01*
X005325Y021720D01*
G37*
G36*
X004434Y022611D02*
X004934Y023111D01*
X005240Y022805D01*
X004740Y022305D01*
X004434Y022611D01*
G37*
G36*
X005681Y023672D02*
X006293Y024026D01*
X006509Y023652D01*
X005897Y023298D01*
X005681Y023672D01*
G37*
G36*
X006311Y022581D02*
X006923Y022935D01*
X007139Y022561D01*
X006527Y022207D01*
X006311Y022581D01*
G37*
G36*
X007811Y023448D02*
X008423Y023802D01*
X008639Y023428D01*
X008027Y023074D01*
X007811Y023448D01*
G37*
G36*
X007181Y024539D02*
X007793Y024893D01*
X008009Y024519D01*
X007397Y024165D01*
X007181Y024539D01*
G37*
G36*
X008653Y025251D02*
X009336Y025434D01*
X009447Y025017D01*
X008764Y024834D01*
X008653Y025251D01*
G37*
G36*
X008979Y024034D02*
X009662Y024217D01*
X009773Y023800D01*
X009090Y023617D01*
X008979Y024034D01*
G37*
G36*
X010327Y025700D02*
X011010Y025883D01*
X011121Y025466D01*
X010438Y025283D01*
X010327Y025700D01*
G37*
G36*
X010653Y024483D02*
X011336Y024666D01*
X011447Y024249D01*
X010764Y024066D01*
X010653Y024483D01*
G37*
X012294Y024530D03*
X012294Y025790D03*
X014026Y025790D03*
X014026Y024530D03*
G36*
X014984Y024666D02*
X015667Y024483D01*
X015556Y024066D01*
X014873Y024249D01*
X014984Y024666D01*
G37*
G36*
X015310Y025883D02*
X015993Y025700D01*
X015882Y025283D01*
X015199Y025466D01*
X015310Y025883D01*
G37*
G36*
X016984Y025434D02*
X017667Y025251D01*
X017556Y024834D01*
X016873Y025017D01*
X016984Y025434D01*
G37*
G36*
X016658Y024217D02*
X017341Y024034D01*
X017230Y023617D01*
X016547Y023800D01*
X016658Y024217D01*
G37*
G36*
X017897Y023802D02*
X018509Y023448D01*
X018293Y023074D01*
X017681Y023428D01*
X017897Y023802D01*
G37*
G36*
X018527Y024893D02*
X019139Y024539D01*
X018923Y024165D01*
X018311Y024519D01*
X018527Y024893D01*
G37*
G36*
X020027Y024026D02*
X020639Y023672D01*
X020423Y023298D01*
X019811Y023652D01*
X020027Y024026D01*
G37*
G36*
X021386Y023111D02*
X021886Y022611D01*
X021580Y022305D01*
X021080Y022805D01*
X021386Y023111D01*
G37*
G36*
X020495Y022220D02*
X020995Y021720D01*
X020689Y021414D01*
X020189Y021914D01*
X020495Y022220D01*
G37*
G36*
X019397Y022935D02*
X020009Y022581D01*
X019793Y022207D01*
X019181Y022561D01*
X019397Y022935D01*
G37*
G36*
X021720Y020995D02*
X022220Y020495D01*
X021914Y020189D01*
X021414Y020689D01*
X021720Y020995D01*
G37*
G36*
X022611Y021886D02*
X023111Y021386D01*
X022805Y021080D01*
X022305Y021580D01*
X022611Y021886D01*
G37*
G36*
X023672Y020639D02*
X024026Y020027D01*
X023652Y019811D01*
X023298Y020423D01*
X023672Y020639D01*
G37*
G36*
X022581Y020009D02*
X022935Y019397D01*
X022561Y019181D01*
X022207Y019793D01*
X022581Y020009D01*
G37*
G36*
X023448Y018509D02*
X023802Y017897D01*
X023428Y017681D01*
X023074Y018293D01*
X023448Y018509D01*
G37*
G36*
X024539Y019139D02*
X024893Y018527D01*
X024519Y018311D01*
X024165Y018923D01*
X024539Y019139D01*
G37*
G36*
X025251Y017667D02*
X025434Y016984D01*
X025017Y016873D01*
X024834Y017556D01*
X025251Y017667D01*
G37*
G36*
X024034Y017341D02*
X024217Y016658D01*
X023800Y016547D01*
X023617Y017230D01*
X024034Y017341D01*
G37*
G36*
X025700Y015993D02*
X025883Y015310D01*
X025466Y015199D01*
X025283Y015882D01*
X025700Y015993D01*
G37*
G36*
X024483Y015667D02*
X024666Y014984D01*
X024249Y014873D01*
X024066Y015556D01*
X024483Y015667D01*
G37*
G36*
X024666Y011336D02*
X024483Y010653D01*
X024066Y010764D01*
X024249Y011447D01*
X024666Y011336D01*
G37*
G36*
X025883Y011010D02*
X025700Y010327D01*
X025283Y010438D01*
X025466Y011121D01*
X025883Y011010D01*
G37*
G36*
X025434Y009336D02*
X025251Y008653D01*
X024834Y008764D01*
X025017Y009447D01*
X025434Y009336D01*
G37*
G36*
X024217Y009662D02*
X024034Y008979D01*
X023617Y009090D01*
X023800Y009773D01*
X024217Y009662D01*
G37*
G36*
X023802Y008423D02*
X023448Y007811D01*
X023074Y008027D01*
X023428Y008639D01*
X023802Y008423D01*
G37*
G36*
X024893Y007793D02*
X024539Y007181D01*
X024165Y007397D01*
X024519Y008009D01*
X024893Y007793D01*
G37*
G36*
X024026Y006293D02*
X023672Y005681D01*
X023298Y005897D01*
X023652Y006509D01*
X024026Y006293D01*
G37*
G36*
X023111Y004934D02*
X022611Y004434D01*
X022305Y004740D01*
X022805Y005240D01*
X023111Y004934D01*
G37*
G36*
X022220Y005825D02*
X021720Y005325D01*
X021414Y005631D01*
X021914Y006131D01*
X022220Y005825D01*
G37*
G36*
X022935Y006923D02*
X022581Y006311D01*
X022207Y006527D01*
X022561Y007139D01*
X022935Y006923D01*
G37*
G36*
X020995Y004600D02*
X020495Y004100D01*
X020189Y004406D01*
X020689Y004906D01*
X020995Y004600D01*
G37*
G36*
X021886Y003709D02*
X021386Y003209D01*
X021080Y003515D01*
X021580Y004015D01*
X021886Y003709D01*
G37*
G36*
X020639Y002648D02*
X020027Y002294D01*
X019811Y002668D01*
X020423Y003022D01*
X020639Y002648D01*
G37*
G36*
X020009Y003739D02*
X019397Y003385D01*
X019181Y003759D01*
X019793Y004113D01*
X020009Y003739D01*
G37*
G36*
X018509Y002872D02*
X017897Y002518D01*
X017681Y002892D01*
X018293Y003246D01*
X018509Y002872D01*
G37*
G36*
X019139Y001781D02*
X018527Y001427D01*
X018311Y001801D01*
X018923Y002155D01*
X019139Y001781D01*
G37*
G36*
X017667Y001069D02*
X016984Y000886D01*
X016873Y001303D01*
X017556Y001486D01*
X017667Y001069D01*
G37*
G36*
X017341Y002286D02*
X016658Y002103D01*
X016547Y002520D01*
X017230Y002703D01*
X017341Y002286D01*
G37*
G36*
X015993Y000620D02*
X015310Y000437D01*
X015199Y000854D01*
X015882Y001037D01*
X015993Y000620D01*
G37*
G36*
X015667Y001837D02*
X014984Y001654D01*
X014873Y002071D01*
X015556Y002254D01*
X015667Y001837D01*
G37*
X014026Y001790D03*
X014026Y000530D03*
D25*
X024530Y012294D03*
X025790Y012294D03*
X025790Y014026D03*
X024530Y014026D03*
X001790Y014026D03*
X000530Y014026D03*
X000530Y012294D03*
X001790Y012294D03*
D26*
X008329Y014710D03*
X008526Y014710D03*
X008723Y014710D03*
X008919Y014710D03*
X009116Y014710D03*
X009116Y016285D03*
X008919Y016285D03*
X008723Y016285D03*
X008526Y016285D03*
X008329Y016285D03*
D27*
X007935Y015891D03*
X007935Y015694D03*
X007935Y015497D03*
X007935Y015301D03*
X007935Y015104D03*
X009510Y015104D03*
X009510Y015301D03*
X009510Y015497D03*
X009510Y015694D03*
X009510Y015891D03*
D28*
X008723Y015497D03*
D29*
X019371Y010801D03*
X022049Y010801D03*
D30*
X010455Y016510D03*
X010455Y016910D03*
X009865Y016910D03*
X009865Y016510D03*
D31*
X017060Y011811D03*
X017060Y010709D03*
D32*
X017810Y005660D02*
X017812Y005709D01*
X017818Y005757D01*
X017828Y005805D01*
X017842Y005852D01*
X017859Y005898D01*
X017880Y005942D01*
X017905Y005984D01*
X017933Y006024D01*
X017965Y006062D01*
X017999Y006097D01*
X018036Y006129D01*
X018075Y006158D01*
X018117Y006184D01*
X018161Y006206D01*
X018206Y006224D01*
X018253Y006239D01*
X018300Y006250D01*
X018349Y006257D01*
X018398Y006260D01*
X018447Y006259D01*
X018495Y006254D01*
X018544Y006245D01*
X018591Y006232D01*
X018637Y006215D01*
X018681Y006195D01*
X018724Y006171D01*
X018765Y006144D01*
X018803Y006113D01*
X018839Y006080D01*
X018871Y006044D01*
X018901Y006005D01*
X018928Y005964D01*
X018951Y005920D01*
X018970Y005875D01*
X018986Y005829D01*
X018998Y005782D01*
X019006Y005733D01*
X019010Y005684D01*
X019010Y005636D01*
X019006Y005587D01*
X018998Y005538D01*
X018986Y005491D01*
X018970Y005445D01*
X018951Y005400D01*
X018928Y005356D01*
X018901Y005315D01*
X018871Y005276D01*
X018839Y005240D01*
X018803Y005207D01*
X018765Y005176D01*
X018724Y005149D01*
X018681Y005125D01*
X018637Y005105D01*
X018591Y005088D01*
X018544Y005075D01*
X018495Y005066D01*
X018447Y005061D01*
X018398Y005060D01*
X018349Y005063D01*
X018300Y005070D01*
X018253Y005081D01*
X018206Y005096D01*
X018161Y005114D01*
X018117Y005136D01*
X018075Y005162D01*
X018036Y005191D01*
X017999Y005223D01*
X017965Y005258D01*
X017933Y005296D01*
X017905Y005336D01*
X017880Y005378D01*
X017859Y005422D01*
X017842Y005468D01*
X017828Y005515D01*
X017818Y005563D01*
X017812Y005611D01*
X017810Y005660D01*
X007310Y005660D02*
X007312Y005709D01*
X007318Y005757D01*
X007328Y005805D01*
X007342Y005852D01*
X007359Y005898D01*
X007380Y005942D01*
X007405Y005984D01*
X007433Y006024D01*
X007465Y006062D01*
X007499Y006097D01*
X007536Y006129D01*
X007575Y006158D01*
X007617Y006184D01*
X007661Y006206D01*
X007706Y006224D01*
X007753Y006239D01*
X007800Y006250D01*
X007849Y006257D01*
X007898Y006260D01*
X007947Y006259D01*
X007995Y006254D01*
X008044Y006245D01*
X008091Y006232D01*
X008137Y006215D01*
X008181Y006195D01*
X008224Y006171D01*
X008265Y006144D01*
X008303Y006113D01*
X008339Y006080D01*
X008371Y006044D01*
X008401Y006005D01*
X008428Y005964D01*
X008451Y005920D01*
X008470Y005875D01*
X008486Y005829D01*
X008498Y005782D01*
X008506Y005733D01*
X008510Y005684D01*
X008510Y005636D01*
X008506Y005587D01*
X008498Y005538D01*
X008486Y005491D01*
X008470Y005445D01*
X008451Y005400D01*
X008428Y005356D01*
X008401Y005315D01*
X008371Y005276D01*
X008339Y005240D01*
X008303Y005207D01*
X008265Y005176D01*
X008224Y005149D01*
X008181Y005125D01*
X008137Y005105D01*
X008091Y005088D01*
X008044Y005075D01*
X007995Y005066D01*
X007947Y005061D01*
X007898Y005060D01*
X007849Y005063D01*
X007800Y005070D01*
X007753Y005081D01*
X007706Y005096D01*
X007661Y005114D01*
X007617Y005136D01*
X007575Y005162D01*
X007536Y005191D01*
X007499Y005223D01*
X007465Y005258D01*
X007433Y005296D01*
X007405Y005336D01*
X007380Y005378D01*
X007359Y005422D01*
X007342Y005468D01*
X007328Y005515D01*
X007318Y005563D01*
X007312Y005611D01*
X007310Y005660D01*
X007310Y020660D02*
X007312Y020709D01*
X007318Y020757D01*
X007328Y020805D01*
X007342Y020852D01*
X007359Y020898D01*
X007380Y020942D01*
X007405Y020984D01*
X007433Y021024D01*
X007465Y021062D01*
X007499Y021097D01*
X007536Y021129D01*
X007575Y021158D01*
X007617Y021184D01*
X007661Y021206D01*
X007706Y021224D01*
X007753Y021239D01*
X007800Y021250D01*
X007849Y021257D01*
X007898Y021260D01*
X007947Y021259D01*
X007995Y021254D01*
X008044Y021245D01*
X008091Y021232D01*
X008137Y021215D01*
X008181Y021195D01*
X008224Y021171D01*
X008265Y021144D01*
X008303Y021113D01*
X008339Y021080D01*
X008371Y021044D01*
X008401Y021005D01*
X008428Y020964D01*
X008451Y020920D01*
X008470Y020875D01*
X008486Y020829D01*
X008498Y020782D01*
X008506Y020733D01*
X008510Y020684D01*
X008510Y020636D01*
X008506Y020587D01*
X008498Y020538D01*
X008486Y020491D01*
X008470Y020445D01*
X008451Y020400D01*
X008428Y020356D01*
X008401Y020315D01*
X008371Y020276D01*
X008339Y020240D01*
X008303Y020207D01*
X008265Y020176D01*
X008224Y020149D01*
X008181Y020125D01*
X008137Y020105D01*
X008091Y020088D01*
X008044Y020075D01*
X007995Y020066D01*
X007947Y020061D01*
X007898Y020060D01*
X007849Y020063D01*
X007800Y020070D01*
X007753Y020081D01*
X007706Y020096D01*
X007661Y020114D01*
X007617Y020136D01*
X007575Y020162D01*
X007536Y020191D01*
X007499Y020223D01*
X007465Y020258D01*
X007433Y020296D01*
X007405Y020336D01*
X007380Y020378D01*
X007359Y020422D01*
X007342Y020468D01*
X007328Y020515D01*
X007318Y020563D01*
X007312Y020611D01*
X007310Y020660D01*
X017810Y020660D02*
X017812Y020709D01*
X017818Y020757D01*
X017828Y020805D01*
X017842Y020852D01*
X017859Y020898D01*
X017880Y020942D01*
X017905Y020984D01*
X017933Y021024D01*
X017965Y021062D01*
X017999Y021097D01*
X018036Y021129D01*
X018075Y021158D01*
X018117Y021184D01*
X018161Y021206D01*
X018206Y021224D01*
X018253Y021239D01*
X018300Y021250D01*
X018349Y021257D01*
X018398Y021260D01*
X018447Y021259D01*
X018495Y021254D01*
X018544Y021245D01*
X018591Y021232D01*
X018637Y021215D01*
X018681Y021195D01*
X018724Y021171D01*
X018765Y021144D01*
X018803Y021113D01*
X018839Y021080D01*
X018871Y021044D01*
X018901Y021005D01*
X018928Y020964D01*
X018951Y020920D01*
X018970Y020875D01*
X018986Y020829D01*
X018998Y020782D01*
X019006Y020733D01*
X019010Y020684D01*
X019010Y020636D01*
X019006Y020587D01*
X018998Y020538D01*
X018986Y020491D01*
X018970Y020445D01*
X018951Y020400D01*
X018928Y020356D01*
X018901Y020315D01*
X018871Y020276D01*
X018839Y020240D01*
X018803Y020207D01*
X018765Y020176D01*
X018724Y020149D01*
X018681Y020125D01*
X018637Y020105D01*
X018591Y020088D01*
X018544Y020075D01*
X018495Y020066D01*
X018447Y020061D01*
X018398Y020060D01*
X018349Y020063D01*
X018300Y020070D01*
X018253Y020081D01*
X018206Y020096D01*
X018161Y020114D01*
X018117Y020136D01*
X018075Y020162D01*
X018036Y020191D01*
X017999Y020223D01*
X017965Y020258D01*
X017933Y020296D01*
X017905Y020336D01*
X017880Y020378D01*
X017859Y020422D01*
X017842Y020468D01*
X017828Y020515D01*
X017818Y020563D01*
X017812Y020611D01*
X017810Y020660D01*
D33*
X008834Y012943D03*
X008086Y012943D03*
X008460Y012077D03*
M02*
