%
M48
M72
T01C0.0200
T02C0.0236
T03C0.0400
T04C0.0433
T05C0.0866
%
T01
X4508Y4870
X3828Y5180
X5698Y3810
X6478Y3360
X6858Y3860
X6728Y2480
X5788Y2410
X8198Y4460
X8428Y3750
X9948Y4460
X11998Y5570
X12208Y6380
X9548Y1880
X7698Y6480
X7718Y7050
X7718Y7720
X6848Y8000
X6028Y7910
X3498Y9010
X2618Y8380
X2008Y7580
T02
X2330Y7115
X2330Y5205
T03
X2549Y3123
X3298Y2460
X4047Y1797
X4795Y1135
X1800Y3785
T04
X1228Y4739
X1228Y7581
T05
X3298Y10160
X10698Y3160
X6648Y960
M30
