G75*
%MOIN*%
%OFA0B0*%
%FSLAX24Y24*%
%IPPOS*%
%LPD*%
%AMOC8*
5,1,8,0,0,1.08239X$1,22.5*
%
%ADD10C,0.0030*%
%ADD11C,0.0040*%
%ADD12C,0.0050*%
%ADD13C,0.0010*%
%ADD14R,0.0100X0.0250*%
%ADD15C,0.0080*%
D10*
X002726Y006875D02*
X002720Y006993D01*
X002812Y007032D02*
X002809Y007091D01*
X002865Y007153D01*
X002924Y007156D01*
X003048Y007045D01*
X003051Y006986D01*
X002995Y006924D01*
X002936Y006921D01*
X002906Y006825D02*
X002788Y006819D01*
X002726Y006875D01*
X002954Y007252D02*
X003065Y007376D01*
X003009Y007314D02*
X003195Y007146D01*
X003312Y007276D02*
X003306Y007394D01*
X003278Y007363D02*
X003362Y007456D01*
X003424Y007400D02*
X003238Y007567D01*
X003154Y007474D01*
X003157Y007416D01*
X003219Y007360D01*
X003278Y007363D01*
X003483Y007466D02*
X003477Y007584D01*
X003415Y007639D01*
X003297Y007633D01*
X003617Y007926D02*
X003853Y007939D01*
X003856Y007880D01*
X003800Y007818D01*
X003741Y007815D01*
X003617Y007926D01*
X003614Y007985D01*
X003670Y008047D01*
X003729Y008050D01*
X003853Y007939D01*
X003945Y007979D02*
X004056Y008102D01*
X003821Y008090D01*
X003790Y008118D01*
X003787Y008177D01*
X003842Y008239D01*
X003901Y008242D01*
X003962Y008310D02*
X003959Y008369D01*
X004015Y008431D01*
X004074Y008434D01*
X003962Y008310D02*
X003993Y008282D01*
X004229Y008294D01*
X004117Y008170D01*
X004290Y008362D02*
X004401Y008486D01*
X004346Y008424D02*
X004160Y008591D01*
X004277Y008597D01*
X004307Y008693D02*
X004369Y008637D01*
X004428Y008640D01*
X004512Y008733D01*
X004574Y008677D02*
X004388Y008845D01*
X004304Y008752D01*
X004307Y008693D01*
X004456Y008671D02*
X004462Y008553D01*
X004604Y008773D02*
X004663Y008776D01*
X004718Y008838D01*
X004715Y008897D01*
X004591Y009008D01*
X004533Y009005D01*
X004477Y008943D01*
X004480Y008884D01*
X006733Y010095D02*
X006733Y010220D01*
X006775Y010262D01*
X006817Y010220D01*
X006817Y010095D01*
X006900Y010095D02*
X006900Y010262D01*
X006858Y010262D01*
X006817Y010220D01*
X006991Y010220D02*
X006991Y010137D01*
X007033Y010095D01*
X007116Y010095D01*
X007158Y010137D01*
X007158Y010220D01*
X007116Y010262D01*
X007033Y010262D01*
X006991Y010220D01*
X007249Y010262D02*
X007374Y010262D01*
X007416Y010220D01*
X007416Y010137D01*
X007374Y010095D01*
X007249Y010095D01*
X007503Y010095D02*
X007545Y010095D01*
X007545Y010137D01*
X007503Y010137D01*
X007503Y010095D01*
X007636Y010095D02*
X007761Y010095D01*
X007802Y010137D01*
X007802Y010220D01*
X007761Y010262D01*
X007636Y010262D01*
X007933Y010262D02*
X007933Y010095D01*
X007974Y010095D02*
X007891Y010095D01*
X008063Y010095D02*
X008105Y010137D01*
X008105Y010304D01*
X008146Y010262D02*
X008063Y010262D01*
X007974Y010262D02*
X007933Y010262D01*
X007933Y010345D02*
X007933Y010387D01*
X008237Y010220D02*
X008237Y010137D01*
X008279Y010095D01*
X008362Y010095D01*
X008404Y010137D01*
X008404Y010220D01*
X008362Y010262D01*
X008279Y010262D01*
X008237Y010220D01*
X008495Y010220D02*
X008495Y010137D01*
X008537Y010095D01*
X008662Y010095D01*
X008662Y010345D01*
X008662Y010262D02*
X008537Y010262D01*
X008495Y010220D01*
X008753Y010220D02*
X008753Y010137D01*
X008795Y010095D01*
X008878Y010095D01*
X008920Y010137D01*
X008920Y010220D01*
X008878Y010262D01*
X008795Y010262D01*
X008753Y010220D01*
X009009Y010262D02*
X009051Y010262D01*
X009135Y010178D01*
X009135Y010095D02*
X009135Y010262D01*
X009226Y010262D02*
X009351Y010262D01*
X009392Y010220D01*
X009392Y010137D01*
X009351Y010095D01*
X009226Y010095D01*
X009483Y010095D02*
X009608Y010095D01*
X009650Y010137D01*
X009608Y010178D01*
X009483Y010178D01*
X009483Y010220D02*
X009483Y010095D01*
X009483Y010220D02*
X009525Y010262D01*
X009608Y010262D01*
X009737Y010137D02*
X009737Y010095D01*
X009779Y010095D01*
X009779Y010137D01*
X009737Y010137D01*
X009870Y010137D02*
X009870Y010262D01*
X009870Y010137D02*
X009912Y010095D01*
X009954Y010137D01*
X009995Y010095D01*
X010037Y010137D01*
X010037Y010262D01*
X010128Y010262D02*
X010128Y010137D01*
X010170Y010095D01*
X010211Y010137D01*
X010253Y010095D01*
X010295Y010137D01*
X010295Y010262D01*
X010386Y010262D02*
X010386Y010137D01*
X010427Y010095D01*
X010469Y010137D01*
X010511Y010095D01*
X010553Y010137D01*
X010553Y010262D01*
X009244Y003826D02*
X009049Y003611D01*
X008977Y003675D02*
X009121Y003546D01*
X009229Y003514D02*
X009232Y003446D01*
X009304Y003381D01*
X009373Y003385D01*
X009502Y003529D01*
X009498Y003597D01*
X009427Y003662D01*
X009358Y003658D01*
X009251Y003690D02*
X009244Y003826D01*
X009608Y003498D02*
X009680Y003433D01*
X009644Y003465D02*
X009450Y003250D01*
X009486Y003217D02*
X009414Y003282D01*
D11*
X009782Y003681D02*
X009898Y003819D01*
X009890Y003903D01*
X009706Y004058D01*
X009622Y004050D01*
X009506Y003912D01*
X009782Y003681D01*
X008917Y004760D02*
X008917Y005000D01*
X008797Y004880D02*
X009037Y004880D01*
X008937Y007300D02*
X008937Y007540D01*
D12*
X003256Y003375D02*
X002326Y004213D01*
X003163Y005143D01*
X001697Y006464D01*
X001912Y006703D01*
X003134Y006737D01*
X004912Y008712D01*
X004857Y009973D01*
X005206Y010361D01*
X006672Y009041D01*
X007510Y009971D01*
X008470Y009107D01*
X007632Y008177D01*
X008226Y007641D01*
X008354Y006025D01*
X006298Y003741D01*
X004762Y003704D01*
X004094Y004306D01*
X003256Y003375D01*
X002779Y004243D02*
X002781Y004281D01*
X002787Y004318D01*
X002797Y004355D01*
X002810Y004390D01*
X002827Y004423D01*
X002848Y004455D01*
X002872Y004485D01*
X002898Y004511D01*
X002928Y004535D01*
X002959Y004556D01*
X002993Y004573D01*
X003028Y004586D01*
X003065Y004596D01*
X003102Y004602D01*
X003140Y004604D01*
X003178Y004602D01*
X003215Y004596D01*
X003252Y004586D01*
X003287Y004573D01*
X003320Y004556D01*
X003352Y004535D01*
X003382Y004511D01*
X003408Y004485D01*
X003432Y004455D01*
X003453Y004424D01*
X003470Y004390D01*
X003483Y004355D01*
X003493Y004318D01*
X003499Y004281D01*
X003501Y004243D01*
X003499Y004205D01*
X003493Y004168D01*
X003483Y004131D01*
X003470Y004096D01*
X003453Y004063D01*
X003432Y004031D01*
X003408Y004001D01*
X003382Y003975D01*
X003352Y003951D01*
X003321Y003930D01*
X003287Y003913D01*
X003252Y003900D01*
X003215Y003890D01*
X003178Y003884D01*
X003140Y003882D01*
X003102Y003884D01*
X003065Y003890D01*
X003028Y003900D01*
X002993Y003913D01*
X002960Y003930D01*
X002928Y003951D01*
X002898Y003975D01*
X002872Y004001D01*
X002848Y004031D01*
X002827Y004062D01*
X002810Y004096D01*
X002797Y004131D01*
X002787Y004168D01*
X002781Y004205D01*
X002779Y004243D01*
X006956Y002582D02*
X008101Y001552D01*
X009439Y003038D01*
X008294Y004068D01*
X006956Y002582D01*
X007747Y000825D02*
X007747Y000525D01*
X007597Y000675D02*
X007897Y000675D01*
X007211Y009075D02*
X007213Y009113D01*
X007219Y009150D01*
X007229Y009187D01*
X007242Y009222D01*
X007259Y009255D01*
X007280Y009287D01*
X007304Y009317D01*
X007330Y009343D01*
X007360Y009367D01*
X007391Y009388D01*
X007425Y009405D01*
X007460Y009418D01*
X007497Y009428D01*
X007534Y009434D01*
X007572Y009436D01*
X007610Y009434D01*
X007647Y009428D01*
X007684Y009418D01*
X007719Y009405D01*
X007752Y009388D01*
X007784Y009367D01*
X007814Y009343D01*
X007840Y009317D01*
X007864Y009287D01*
X007885Y009256D01*
X007902Y009222D01*
X007915Y009187D01*
X007925Y009150D01*
X007931Y009113D01*
X007933Y009075D01*
X007931Y009037D01*
X007925Y009000D01*
X007915Y008963D01*
X007902Y008928D01*
X007885Y008895D01*
X007864Y008863D01*
X007840Y008833D01*
X007814Y008807D01*
X007784Y008783D01*
X007753Y008762D01*
X007719Y008745D01*
X007684Y008732D01*
X007647Y008722D01*
X007610Y008716D01*
X007572Y008714D01*
X007534Y008716D01*
X007497Y008722D01*
X007460Y008732D01*
X007425Y008745D01*
X007392Y008762D01*
X007360Y008783D01*
X007330Y008807D01*
X007304Y008833D01*
X007280Y008863D01*
X007259Y008894D01*
X007242Y008928D01*
X007229Y008963D01*
X007219Y009000D01*
X007213Y009037D01*
X007211Y009075D01*
X002403Y009430D02*
X002103Y009430D01*
D13*
X004722Y011166D02*
X004718Y011385D01*
X005086Y011794D01*
X005312Y011806D01*
X005765Y011397D01*
X005805Y011442D01*
X005998Y011268D01*
X005744Y010986D01*
X005551Y011160D01*
X005591Y011204D01*
X005390Y011534D01*
X005316Y011452D01*
X005294Y011472D01*
X005167Y011331D01*
X005060Y011212D01*
X005082Y011192D01*
X005008Y011110D01*
X005344Y010929D01*
X005397Y010989D01*
X005590Y010815D01*
X005329Y010525D01*
X005136Y010699D01*
X005183Y010751D01*
X004722Y011166D01*
X004722Y011168D02*
X005060Y011168D01*
X005053Y011159D02*
X004729Y011159D01*
X004739Y011151D02*
X005045Y011151D01*
X005037Y011142D02*
X004748Y011142D01*
X004758Y011134D02*
X005030Y011134D01*
X005022Y011125D02*
X004767Y011125D01*
X004777Y011117D02*
X005015Y011117D01*
X005012Y011108D02*
X004786Y011108D01*
X004796Y011100D02*
X005027Y011100D01*
X005043Y011091D02*
X004805Y011091D01*
X004814Y011083D02*
X005059Y011083D01*
X005075Y011074D02*
X004824Y011074D01*
X004833Y011066D02*
X005090Y011066D01*
X005106Y011057D02*
X004843Y011057D01*
X004852Y011049D02*
X005122Y011049D01*
X005138Y011040D02*
X004862Y011040D01*
X004871Y011032D02*
X005153Y011032D01*
X005169Y011023D02*
X004881Y011023D01*
X004890Y011015D02*
X005185Y011015D01*
X005201Y011006D02*
X004899Y011006D01*
X004909Y010998D02*
X005217Y010998D01*
X005232Y010989D02*
X004918Y010989D01*
X004928Y010981D02*
X005248Y010981D01*
X005264Y010972D02*
X004937Y010972D01*
X004947Y010964D02*
X005280Y010964D01*
X005295Y010955D02*
X004956Y010955D01*
X004965Y010947D02*
X005311Y010947D01*
X005327Y010938D02*
X004975Y010938D01*
X004984Y010930D02*
X005343Y010930D01*
X005344Y010930D02*
X005463Y010930D01*
X005472Y010921D02*
X004994Y010921D01*
X005003Y010913D02*
X005481Y010913D01*
X005491Y010904D02*
X005013Y010904D01*
X005022Y010896D02*
X005500Y010896D01*
X005510Y010887D02*
X005032Y010887D01*
X005041Y010879D02*
X005519Y010879D01*
X005529Y010870D02*
X005050Y010870D01*
X005060Y010862D02*
X005538Y010862D01*
X005548Y010853D02*
X005069Y010853D01*
X005079Y010845D02*
X005557Y010845D01*
X005566Y010836D02*
X005088Y010836D01*
X005098Y010828D02*
X005576Y010828D01*
X005585Y010819D02*
X005107Y010819D01*
X005117Y010811D02*
X005587Y010811D01*
X005579Y010802D02*
X005126Y010802D01*
X005135Y010794D02*
X005571Y010794D01*
X005564Y010785D02*
X005145Y010785D01*
X005154Y010777D02*
X005556Y010777D01*
X005548Y010768D02*
X005164Y010768D01*
X005173Y010760D02*
X005541Y010760D01*
X005533Y010751D02*
X005183Y010751D01*
X005176Y010743D02*
X005526Y010743D01*
X005518Y010734D02*
X005168Y010734D01*
X005160Y010726D02*
X005510Y010726D01*
X005503Y010717D02*
X005153Y010717D01*
X005145Y010709D02*
X005495Y010709D01*
X005487Y010700D02*
X005137Y010700D01*
X005144Y010692D02*
X005480Y010692D01*
X005472Y010683D02*
X005154Y010683D01*
X005163Y010675D02*
X005464Y010675D01*
X005457Y010666D02*
X005172Y010666D01*
X005182Y010658D02*
X005449Y010658D01*
X005441Y010649D02*
X005191Y010649D01*
X005201Y010641D02*
X005434Y010641D01*
X005426Y010632D02*
X005210Y010632D01*
X005220Y010624D02*
X005418Y010624D01*
X005411Y010615D02*
X005229Y010615D01*
X005238Y010607D02*
X005403Y010607D01*
X005395Y010598D02*
X005248Y010598D01*
X005257Y010590D02*
X005388Y010590D01*
X005380Y010581D02*
X005267Y010581D01*
X005276Y010573D02*
X005372Y010573D01*
X005365Y010564D02*
X005286Y010564D01*
X005295Y010556D02*
X005357Y010556D01*
X005349Y010547D02*
X005305Y010547D01*
X005314Y010539D02*
X005342Y010539D01*
X005334Y010530D02*
X005323Y010530D01*
X005352Y010938D02*
X005453Y010938D01*
X005444Y010947D02*
X005359Y010947D01*
X005367Y010955D02*
X005434Y010955D01*
X005425Y010964D02*
X005375Y010964D01*
X005382Y010972D02*
X005415Y010972D01*
X005406Y010981D02*
X005390Y010981D01*
X005551Y011159D02*
X005901Y011159D01*
X005908Y011168D02*
X005558Y011168D01*
X005566Y011176D02*
X005916Y011176D01*
X005923Y011185D02*
X005574Y011185D01*
X005581Y011193D02*
X005931Y011193D01*
X005939Y011202D02*
X005589Y011202D01*
X005587Y011210D02*
X005946Y011210D01*
X005954Y011219D02*
X005582Y011219D01*
X005577Y011227D02*
X005962Y011227D01*
X005969Y011236D02*
X005572Y011236D01*
X005567Y011244D02*
X005977Y011244D01*
X005985Y011253D02*
X005561Y011253D01*
X005556Y011261D02*
X005992Y011261D01*
X005997Y011270D02*
X005551Y011270D01*
X005546Y011278D02*
X005987Y011278D01*
X005978Y011287D02*
X005541Y011287D01*
X005535Y011295D02*
X005968Y011295D01*
X005959Y011304D02*
X005530Y011304D01*
X005525Y011312D02*
X005949Y011312D01*
X005940Y011321D02*
X005520Y011321D01*
X005515Y011329D02*
X005931Y011329D01*
X005921Y011338D02*
X005510Y011338D01*
X005504Y011346D02*
X005912Y011346D01*
X005902Y011355D02*
X005499Y011355D01*
X005494Y011363D02*
X005893Y011363D01*
X005883Y011372D02*
X005489Y011372D01*
X005484Y011380D02*
X005874Y011380D01*
X005864Y011389D02*
X005478Y011389D01*
X005473Y011397D02*
X005855Y011397D01*
X005846Y011406D02*
X005773Y011406D01*
X005780Y011414D02*
X005836Y011414D01*
X005827Y011423D02*
X005788Y011423D01*
X005796Y011431D02*
X005817Y011431D01*
X005808Y011440D02*
X005803Y011440D01*
X005756Y011406D02*
X005468Y011406D01*
X005463Y011414D02*
X005746Y011414D01*
X005737Y011423D02*
X005458Y011423D01*
X005452Y011431D02*
X005728Y011431D01*
X005718Y011440D02*
X005447Y011440D01*
X005442Y011448D02*
X005709Y011448D01*
X005699Y011457D02*
X005437Y011457D01*
X005432Y011465D02*
X005690Y011465D01*
X005680Y011474D02*
X005426Y011474D01*
X005421Y011482D02*
X005671Y011482D01*
X005661Y011491D02*
X005416Y011491D01*
X005411Y011499D02*
X005652Y011499D01*
X005643Y011508D02*
X005406Y011508D01*
X005400Y011516D02*
X005633Y011516D01*
X005624Y011525D02*
X005395Y011525D01*
X005390Y011533D02*
X005614Y011533D01*
X005605Y011542D02*
X004859Y011542D01*
X004867Y011550D02*
X005595Y011550D01*
X005586Y011559D02*
X004874Y011559D01*
X004882Y011567D02*
X005577Y011567D01*
X005567Y011576D02*
X004890Y011576D01*
X004897Y011584D02*
X005558Y011584D01*
X005548Y011593D02*
X004905Y011593D01*
X004913Y011601D02*
X005539Y011601D01*
X005529Y011610D02*
X004920Y011610D01*
X004928Y011618D02*
X005520Y011618D01*
X005510Y011627D02*
X004935Y011627D01*
X004943Y011635D02*
X005501Y011635D01*
X005492Y011644D02*
X004951Y011644D01*
X004958Y011652D02*
X005482Y011652D01*
X005473Y011661D02*
X004966Y011661D01*
X004974Y011669D02*
X005463Y011669D01*
X005454Y011678D02*
X004981Y011678D01*
X004989Y011686D02*
X005444Y011686D01*
X005435Y011695D02*
X004997Y011695D01*
X005004Y011703D02*
X005425Y011703D01*
X005416Y011712D02*
X005012Y011712D01*
X005020Y011720D02*
X005407Y011720D01*
X005397Y011729D02*
X005027Y011729D01*
X005035Y011737D02*
X005388Y011737D01*
X005378Y011746D02*
X005043Y011746D01*
X005050Y011754D02*
X005369Y011754D01*
X005359Y011763D02*
X005058Y011763D01*
X005066Y011771D02*
X005350Y011771D01*
X005340Y011780D02*
X005073Y011780D01*
X005081Y011788D02*
X005331Y011788D01*
X005322Y011797D02*
X005143Y011797D01*
X005306Y011805D02*
X005312Y011805D01*
X005390Y011533D02*
X004851Y011533D01*
X004844Y011525D02*
X005140Y011525D01*
X005142Y011528D02*
X004982Y011349D01*
X005078Y011262D01*
X005152Y011344D01*
X005167Y011331D01*
X005152Y011344D01*
X005239Y011441D01*
X005142Y011528D01*
X005145Y011525D02*
X005382Y011525D01*
X005374Y011516D02*
X005155Y011516D01*
X005164Y011508D02*
X005367Y011508D01*
X005359Y011499D02*
X005174Y011499D01*
X005183Y011491D02*
X005351Y011491D01*
X005344Y011482D02*
X005193Y011482D01*
X005202Y011474D02*
X005336Y011474D01*
X005328Y011465D02*
X005301Y011465D01*
X005311Y011457D02*
X005321Y011457D01*
X005288Y011465D02*
X005212Y011465D01*
X005221Y011457D02*
X005280Y011457D01*
X005273Y011448D02*
X005230Y011448D01*
X005238Y011440D02*
X005265Y011440D01*
X005257Y011431D02*
X005230Y011431D01*
X005223Y011423D02*
X005250Y011423D01*
X005242Y011414D02*
X005215Y011414D01*
X005207Y011406D02*
X005234Y011406D01*
X005227Y011397D02*
X005200Y011397D01*
X005192Y011389D02*
X005219Y011389D01*
X005211Y011380D02*
X005185Y011380D01*
X005177Y011372D02*
X005204Y011372D01*
X005196Y011363D02*
X005169Y011363D01*
X005162Y011355D02*
X005188Y011355D01*
X005181Y011346D02*
X005154Y011346D01*
X005159Y011338D02*
X005173Y011338D01*
X005165Y011329D02*
X005139Y011329D01*
X005146Y011338D02*
X005159Y011338D01*
X005158Y011321D02*
X005131Y011321D01*
X005123Y011312D02*
X005150Y011312D01*
X005143Y011304D02*
X005116Y011304D01*
X005108Y011295D02*
X005135Y011295D01*
X005127Y011287D02*
X005100Y011287D01*
X005093Y011278D02*
X005120Y011278D01*
X005112Y011270D02*
X005085Y011270D01*
X005070Y011270D02*
X004720Y011270D01*
X004720Y011278D02*
X005061Y011278D01*
X005051Y011287D02*
X004720Y011287D01*
X004720Y011295D02*
X005042Y011295D01*
X005032Y011304D02*
X004719Y011304D01*
X004719Y011312D02*
X005023Y011312D01*
X005013Y011321D02*
X004719Y011321D01*
X004719Y011329D02*
X005004Y011329D01*
X004994Y011338D02*
X004719Y011338D01*
X004719Y011346D02*
X004985Y011346D01*
X004987Y011355D02*
X004718Y011355D01*
X004718Y011363D02*
X004994Y011363D01*
X005002Y011372D02*
X004718Y011372D01*
X004718Y011380D02*
X005010Y011380D01*
X005017Y011389D02*
X004721Y011389D01*
X004729Y011397D02*
X005025Y011397D01*
X005033Y011406D02*
X004736Y011406D01*
X004744Y011414D02*
X005040Y011414D01*
X005048Y011423D02*
X004752Y011423D01*
X004759Y011431D02*
X005055Y011431D01*
X005063Y011440D02*
X004767Y011440D01*
X004775Y011448D02*
X005071Y011448D01*
X005078Y011457D02*
X004782Y011457D01*
X004790Y011465D02*
X005086Y011465D01*
X005094Y011474D02*
X004798Y011474D01*
X004805Y011482D02*
X005101Y011482D01*
X005109Y011491D02*
X004813Y011491D01*
X004821Y011499D02*
X005117Y011499D01*
X005124Y011508D02*
X004828Y011508D01*
X004836Y011516D02*
X005132Y011516D01*
X005104Y011261D02*
X004720Y011261D01*
X004720Y011253D02*
X005097Y011253D01*
X005089Y011244D02*
X004721Y011244D01*
X004721Y011236D02*
X005081Y011236D01*
X005074Y011227D02*
X004721Y011227D01*
X004721Y011219D02*
X005066Y011219D01*
X005061Y011210D02*
X004721Y011210D01*
X004722Y011202D02*
X005071Y011202D01*
X005080Y011193D02*
X004722Y011193D01*
X004722Y011185D02*
X005076Y011185D01*
X005068Y011176D02*
X004722Y011176D01*
X005561Y011151D02*
X005893Y011151D01*
X005885Y011142D02*
X005570Y011142D01*
X005580Y011134D02*
X005878Y011134D01*
X005870Y011125D02*
X005589Y011125D01*
X005599Y011117D02*
X005862Y011117D01*
X005855Y011108D02*
X005608Y011108D01*
X005618Y011100D02*
X005847Y011100D01*
X005839Y011091D02*
X005627Y011091D01*
X005636Y011083D02*
X005832Y011083D01*
X005824Y011074D02*
X005646Y011074D01*
X005655Y011066D02*
X005816Y011066D01*
X005809Y011057D02*
X005665Y011057D01*
X005674Y011049D02*
X005801Y011049D01*
X005793Y011040D02*
X005684Y011040D01*
X005693Y011032D02*
X005786Y011032D01*
X005778Y011023D02*
X005702Y011023D01*
X005712Y011015D02*
X005770Y011015D01*
X005763Y011006D02*
X005721Y011006D01*
X005731Y010998D02*
X005755Y010998D01*
X005747Y010989D02*
X005740Y010989D01*
D14*
G36*
X009860Y002490D02*
X009934Y002423D01*
X009768Y002238D01*
X009694Y002305D01*
X009860Y002490D01*
G37*
D15*
X010624Y004191D02*
X009050Y004191D01*
X009050Y004526D01*
X010034Y004526D01*
X010034Y005077D01*
X012002Y004880D02*
X012002Y007440D01*
X010624Y008129D02*
X009050Y008129D01*
X009050Y007794D01*
X010034Y007794D01*
X010034Y007243D01*
X005501Y001178D02*
X001756Y004491D01*
X001094Y003742D01*
X004839Y000429D01*
X005501Y001178D01*
M02*
