%
M48
M72
T01C0.0150
T02C0.0236
T03C0.0433
T04C0.1200
%
T01
X4676Y4647
X5110Y4910
X5410Y5360
X3210Y7310
X2777Y7137
X3610Y7660
X2010Y10110
X1560Y10060
X2510Y10310
X2160Y13110
X1610Y13010
X1160Y13160
X2010Y16010
X2510Y16010
X1560Y16260
X3610Y18660
X3060Y18760
X2760Y19160
X4860Y21160
X5310Y20910
X4660Y21660
X7260Y23110
X7160Y23560
X7660Y22710
X10060Y24310
X10035Y24770
X10310Y23810
X12160Y23660
X13210Y24160
X14160Y23660
X13160Y25160
X16060Y24260
X16260Y24760
X18660Y22710
X18760Y23210
X19160Y23560
X21160Y21460
X20760Y21160
X21678Y21636
X21260Y19310
X22660Y18710
X23010Y19060
X23543Y19183
X24260Y16260
X24750Y16285
X23810Y16010
X24660Y13360
X24210Y13160
X25160Y13160
X24310Y10360
X23810Y10360
X24760Y10010
X22810Y7810
X23260Y7610
X23548Y7145
X21460Y5160
X21685Y4693
X20960Y5410
X19060Y3310
X18610Y3610
X19160Y2760
X16310Y2110
X15960Y2510
X16260Y1560
X13260Y1660
X13160Y2160
X13125Y1115
X10310Y2010
X10310Y2510
X10060Y1560
X7660Y3610
X7460Y3110
X7128Y2784
X13160Y8960
X14810Y10460
X16410Y8960
X16960Y11210
X18160Y11210
X18660Y10260
X21310Y10660
X15710Y17060
X14010Y17810
X12860Y18560
X12410Y16760
X10410Y18060
X9960Y18060
X9440Y18910
X8910Y19050
X9610Y19860
X6960Y17910
X5810Y16810
X5160Y17310
X6160Y16010
X6710Y16310
X7360Y15810
X9360Y14960
X9510Y13160
X9560Y12160
X9560Y11660
X8210Y12910
X6510Y13760
X4710Y13510
X5410Y11360
X7333Y10535
X7810Y10960
X17860Y19060
T02
X16415Y18058
X14505Y18058
T03
X14039Y19160
X16881Y19160
T04
X18410Y20660
X7910Y20660
X7910Y5660
X18410Y5660
M30
