G75*
%MOIN*%
%OFA0B0*%
%FSLAX24Y24*%
%IPPOS*%
%LPD*%
%AMOC8*
5,1,8,0,0,1.08239X$1,22.5*
%
%ADD10C,0.0010*%
%ADD11C,0.0050*%
%ADD12R,0.0474X0.0513*%
%ADD13R,0.0237X0.0631*%
%ADD14R,0.0789X0.0789*%
%ADD15C,0.0552*%
%ADD16C,0.0867*%
%ADD17C,0.0200*%
%ADD18R,0.0316X0.0552*%
%ADD19R,0.0474X0.1891*%
%ADD20R,0.0710X0.1419*%
%ADD21R,0.0297X0.0552*%
%ADD22R,0.0513X0.0474*%
%ADD23R,0.0552X0.0316*%
%ADD24R,0.1655X0.1655*%
%ADD25R,0.1458X0.1655*%
%ADD26R,0.0789X0.0513*%
%ADD27R,0.0513X0.0789*%
%ADD28R,0.0178X0.0474*%
%ADD29R,0.0474X0.0178*%
%ADD30R,0.0867X0.0867*%
%ADD31R,0.0710X0.1340*%
%ADD32R,0.0395X0.0395*%
%ADD33R,0.0789X0.0474*%
%ADD34C,0.0000*%
%ADD35C,0.1280*%
%ADD36R,0.0580X0.0330*%
%ADD37R,0.0474X0.0631*%
D10*
X000160Y013160D02*
X000164Y013479D01*
X000176Y013798D01*
X000195Y014116D01*
X000223Y014434D01*
X000258Y014751D01*
X000301Y015067D01*
X000351Y015383D01*
X000410Y015696D01*
X000476Y016008D01*
X000550Y016319D01*
X000631Y016627D01*
X000720Y016934D01*
X000816Y017238D01*
X000920Y017540D01*
X001031Y017839D01*
X001150Y018135D01*
X001275Y018428D01*
X001408Y018718D01*
X001548Y019005D01*
X001695Y019288D01*
X001849Y019568D01*
X002010Y019843D01*
X002177Y020115D01*
X002351Y020382D01*
X002531Y020646D01*
X002718Y020904D01*
X002911Y021158D01*
X003111Y021407D01*
X003316Y021651D01*
X003528Y021890D01*
X003745Y022124D01*
X003968Y022352D01*
X004196Y022575D01*
X004430Y022792D01*
X004669Y023004D01*
X004913Y023209D01*
X005162Y023409D01*
X005416Y023602D01*
X005674Y023789D01*
X005938Y023969D01*
X006205Y024143D01*
X006477Y024310D01*
X006752Y024471D01*
X007032Y024625D01*
X007315Y024772D01*
X007602Y024912D01*
X007892Y025045D01*
X008185Y025170D01*
X008481Y025289D01*
X008780Y025400D01*
X009082Y025504D01*
X009386Y025600D01*
X009693Y025689D01*
X010001Y025770D01*
X010312Y025844D01*
X010624Y025910D01*
X010937Y025969D01*
X011253Y026019D01*
X011569Y026062D01*
X011886Y026097D01*
X012204Y026125D01*
X012522Y026144D01*
X012841Y026156D01*
X013160Y026160D01*
X013479Y026156D01*
X013798Y026144D01*
X014116Y026125D01*
X014434Y026097D01*
X014751Y026062D01*
X015067Y026019D01*
X015383Y025969D01*
X015696Y025910D01*
X016008Y025844D01*
X016319Y025770D01*
X016627Y025689D01*
X016934Y025600D01*
X017238Y025504D01*
X017540Y025400D01*
X017839Y025289D01*
X018135Y025170D01*
X018428Y025045D01*
X018718Y024912D01*
X019005Y024772D01*
X019288Y024625D01*
X019568Y024471D01*
X019843Y024310D01*
X020115Y024143D01*
X020382Y023969D01*
X020646Y023789D01*
X020904Y023602D01*
X021158Y023409D01*
X021407Y023209D01*
X021651Y023004D01*
X021890Y022792D01*
X022124Y022575D01*
X022352Y022352D01*
X022575Y022124D01*
X022792Y021890D01*
X023004Y021651D01*
X023209Y021407D01*
X023409Y021158D01*
X023602Y020904D01*
X023789Y020646D01*
X023969Y020382D01*
X024143Y020115D01*
X024310Y019843D01*
X024471Y019568D01*
X024625Y019288D01*
X024772Y019005D01*
X024912Y018718D01*
X025045Y018428D01*
X025170Y018135D01*
X025289Y017839D01*
X025400Y017540D01*
X025504Y017238D01*
X025600Y016934D01*
X025689Y016627D01*
X025770Y016319D01*
X025844Y016008D01*
X025910Y015696D01*
X025969Y015383D01*
X026019Y015067D01*
X026062Y014751D01*
X026097Y014434D01*
X026125Y014116D01*
X026144Y013798D01*
X026156Y013479D01*
X026160Y013160D01*
X026156Y012841D01*
X026144Y012522D01*
X026125Y012204D01*
X026097Y011886D01*
X026062Y011569D01*
X026019Y011253D01*
X025969Y010937D01*
X025910Y010624D01*
X025844Y010312D01*
X025770Y010001D01*
X025689Y009693D01*
X025600Y009386D01*
X025504Y009082D01*
X025400Y008780D01*
X025289Y008481D01*
X025170Y008185D01*
X025045Y007892D01*
X024912Y007602D01*
X024772Y007315D01*
X024625Y007032D01*
X024471Y006752D01*
X024310Y006477D01*
X024143Y006205D01*
X023969Y005938D01*
X023789Y005674D01*
X023602Y005416D01*
X023409Y005162D01*
X023209Y004913D01*
X023004Y004669D01*
X022792Y004430D01*
X022575Y004196D01*
X022352Y003968D01*
X022124Y003745D01*
X021890Y003528D01*
X021651Y003316D01*
X021407Y003111D01*
X021158Y002911D01*
X020904Y002718D01*
X020646Y002531D01*
X020382Y002351D01*
X020115Y002177D01*
X019843Y002010D01*
X019568Y001849D01*
X019288Y001695D01*
X019005Y001548D01*
X018718Y001408D01*
X018428Y001275D01*
X018135Y001150D01*
X017839Y001031D01*
X017540Y000920D01*
X017238Y000816D01*
X016934Y000720D01*
X016627Y000631D01*
X016319Y000550D01*
X016008Y000476D01*
X015696Y000410D01*
X015383Y000351D01*
X015067Y000301D01*
X014751Y000258D01*
X014434Y000223D01*
X014116Y000195D01*
X013798Y000176D01*
X013479Y000164D01*
X013160Y000160D01*
X012841Y000164D01*
X012522Y000176D01*
X012204Y000195D01*
X011886Y000223D01*
X011569Y000258D01*
X011253Y000301D01*
X010937Y000351D01*
X010624Y000410D01*
X010312Y000476D01*
X010001Y000550D01*
X009693Y000631D01*
X009386Y000720D01*
X009082Y000816D01*
X008780Y000920D01*
X008481Y001031D01*
X008185Y001150D01*
X007892Y001275D01*
X007602Y001408D01*
X007315Y001548D01*
X007032Y001695D01*
X006752Y001849D01*
X006477Y002010D01*
X006205Y002177D01*
X005938Y002351D01*
X005674Y002531D01*
X005416Y002718D01*
X005162Y002911D01*
X004913Y003111D01*
X004669Y003316D01*
X004430Y003528D01*
X004196Y003745D01*
X003968Y003968D01*
X003745Y004196D01*
X003528Y004430D01*
X003316Y004669D01*
X003111Y004913D01*
X002911Y005162D01*
X002718Y005416D01*
X002531Y005674D01*
X002351Y005938D01*
X002177Y006205D01*
X002010Y006477D01*
X001849Y006752D01*
X001695Y007032D01*
X001548Y007315D01*
X001408Y007602D01*
X001275Y007892D01*
X001150Y008185D01*
X001031Y008481D01*
X000920Y008780D01*
X000816Y009082D01*
X000720Y009386D01*
X000631Y009693D01*
X000550Y010001D01*
X000476Y010312D01*
X000410Y010624D01*
X000351Y010937D01*
X000301Y011253D01*
X000258Y011569D01*
X000223Y011886D01*
X000195Y012204D01*
X000176Y012522D01*
X000164Y012841D01*
X000160Y013160D01*
D11*
X008460Y019010D02*
X008460Y022460D01*
X008462Y022507D01*
X008467Y022554D01*
X008477Y022600D01*
X008489Y022645D01*
X008506Y022690D01*
X008525Y022732D01*
X008548Y022773D01*
X008575Y022813D01*
X008604Y022850D01*
X008636Y022884D01*
X008670Y022916D01*
X008707Y022945D01*
X008747Y022972D01*
X008788Y022995D01*
X008830Y023014D01*
X008875Y023031D01*
X008920Y023043D01*
X008966Y023053D01*
X009013Y023058D01*
X009060Y023060D01*
X013360Y023060D01*
X013362Y023086D01*
X013367Y023112D01*
X013375Y023137D01*
X013387Y023160D01*
X013401Y023182D01*
X013419Y023201D01*
X013438Y023219D01*
X013460Y023233D01*
X013483Y023245D01*
X013508Y023253D01*
X013534Y023258D01*
X013560Y023260D01*
X017060Y023260D01*
X017115Y023258D01*
X017169Y023253D01*
X017223Y023243D01*
X017276Y023230D01*
X017328Y023214D01*
X017379Y023194D01*
X017428Y023170D01*
X017476Y023144D01*
X017521Y023114D01*
X017565Y023081D01*
X017606Y023045D01*
X017645Y023006D01*
X017681Y022965D01*
X017714Y022921D01*
X017744Y022876D01*
X017770Y022828D01*
X017794Y022779D01*
X017814Y022728D01*
X017830Y022676D01*
X017843Y022623D01*
X017853Y022569D01*
X017858Y022515D01*
X017860Y022460D01*
X017860Y016810D01*
X017862Y016764D01*
X017860Y016719D01*
X017855Y016673D01*
X017846Y016629D01*
X017834Y016585D01*
X017817Y016542D01*
X017798Y016501D01*
X017775Y016462D01*
X017748Y016424D01*
X017719Y016389D01*
X017687Y016357D01*
X017653Y016327D01*
X017616Y016300D01*
X017577Y016277D01*
X017536Y016256D01*
X017493Y016239D01*
X017450Y016226D01*
X017405Y016216D01*
X017360Y016210D01*
X013960Y016210D01*
X013913Y016212D01*
X013866Y016217D01*
X013820Y016227D01*
X013775Y016239D01*
X013730Y016256D01*
X013688Y016275D01*
X013647Y016298D01*
X013607Y016325D01*
X013570Y016354D01*
X013536Y016386D01*
X013504Y016420D01*
X013475Y016457D01*
X013448Y016497D01*
X013425Y016538D01*
X013406Y016580D01*
X013389Y016625D01*
X013377Y016670D01*
X013367Y016716D01*
X013362Y016763D01*
X013360Y016810D01*
X013360Y019910D01*
X013358Y019957D01*
X013353Y020004D01*
X013343Y020050D01*
X013331Y020095D01*
X013314Y020140D01*
X013295Y020182D01*
X013272Y020223D01*
X013245Y020263D01*
X013216Y020300D01*
X013184Y020334D01*
X013150Y020366D01*
X013113Y020395D01*
X013073Y020422D01*
X013032Y020445D01*
X012990Y020464D01*
X012945Y020481D01*
X012900Y020493D01*
X012854Y020503D01*
X012807Y020508D01*
X012760Y020510D01*
X011010Y020510D01*
X010963Y020508D01*
X010916Y020503D01*
X010870Y020493D01*
X010825Y020481D01*
X010780Y020464D01*
X010738Y020445D01*
X010697Y020422D01*
X010657Y020395D01*
X010620Y020366D01*
X010586Y020334D01*
X010554Y020300D01*
X010525Y020263D01*
X010498Y020223D01*
X010475Y020182D01*
X010456Y020140D01*
X010439Y020095D01*
X010427Y020050D01*
X010417Y020004D01*
X010412Y019957D01*
X010410Y019910D01*
X010410Y018960D01*
X010407Y018915D01*
X010399Y018870D01*
X010389Y018826D01*
X010375Y018783D01*
X010357Y018742D01*
X010336Y018701D01*
X010313Y018663D01*
X010286Y018627D01*
X010256Y018592D01*
X010224Y018560D01*
X010190Y018531D01*
X010153Y018505D01*
X010114Y018481D01*
X010074Y018461D01*
X010032Y018444D01*
X009989Y018430D01*
X009945Y018420D01*
X009900Y018413D01*
X009855Y018409D01*
X009810Y018410D01*
X009060Y018410D01*
X009013Y018412D01*
X008966Y018417D01*
X008920Y018427D01*
X008875Y018439D01*
X008830Y018456D01*
X008788Y018475D01*
X008747Y018498D01*
X008707Y018525D01*
X008670Y018554D01*
X008636Y018586D01*
X008604Y018620D01*
X008575Y018657D01*
X008548Y018697D01*
X008525Y018738D01*
X008506Y018780D01*
X008489Y018825D01*
X008477Y018870D01*
X008467Y018916D01*
X008462Y018963D01*
X008460Y019010D01*
X018910Y014160D02*
X018910Y011910D01*
X018912Y011880D01*
X018917Y011850D01*
X018926Y011821D01*
X018939Y011794D01*
X018954Y011768D01*
X018973Y011744D01*
X018994Y011723D01*
X019018Y011704D01*
X019044Y011689D01*
X019071Y011676D01*
X019100Y011667D01*
X019130Y011662D01*
X019160Y011660D01*
X022760Y011660D01*
X022790Y011662D01*
X022820Y011667D01*
X022849Y011676D01*
X022876Y011689D01*
X022902Y011704D01*
X022926Y011723D01*
X022947Y011744D01*
X022966Y011768D01*
X022981Y011794D01*
X022994Y011821D01*
X023003Y011850D01*
X023008Y011880D01*
X023010Y011910D01*
X023010Y014160D01*
X023008Y014190D01*
X023003Y014220D01*
X022994Y014249D01*
X022981Y014276D01*
X022966Y014302D01*
X022947Y014326D01*
X022926Y014347D01*
X022902Y014366D01*
X022876Y014381D01*
X022849Y014394D01*
X022820Y014403D01*
X022790Y014408D01*
X022760Y014410D01*
X019160Y014410D01*
X019130Y014408D01*
X019100Y014403D01*
X019071Y014394D01*
X019044Y014381D01*
X019018Y014366D01*
X018994Y014347D01*
X018973Y014326D01*
X018954Y014302D01*
X018939Y014276D01*
X018926Y014249D01*
X018917Y014220D01*
X018912Y014190D01*
X018910Y014160D01*
D12*
X018360Y011614D03*
X018360Y010906D03*
X007760Y010814D03*
X007760Y010106D03*
X003710Y010256D03*
X003710Y009514D03*
X003710Y008806D03*
X003710Y010964D03*
D13*
X015098Y014267D03*
X015354Y014267D03*
X015610Y014267D03*
X015866Y014267D03*
X016122Y014267D03*
D14*
X016063Y015310D03*
X015157Y015310D03*
D15*
X014655Y014208D03*
X016565Y014208D03*
D16*
X017031Y015310D03*
X014189Y015310D03*
D17*
X014110Y011730D02*
X015310Y011730D01*
X015310Y011530D01*
X014110Y011530D01*
X014110Y011730D01*
X014110Y011729D02*
X015310Y011729D01*
X015310Y011230D02*
X014110Y011230D01*
X015310Y011230D02*
X015310Y011030D01*
X014110Y011030D01*
X014110Y011230D01*
X014110Y011229D02*
X015310Y011229D01*
X015310Y010730D02*
X014110Y010730D01*
X015310Y010730D02*
X015310Y010530D01*
X014110Y010530D01*
X014110Y010730D01*
X014110Y010729D02*
X015310Y010729D01*
X015310Y010230D02*
X014110Y010230D01*
X015310Y010230D02*
X015310Y010030D01*
X014110Y010030D01*
X014110Y010230D01*
X014110Y010229D02*
X015310Y010229D01*
X015310Y009730D02*
X014110Y009730D01*
X015310Y009730D02*
X015310Y009530D01*
X014110Y009530D01*
X014110Y009730D01*
X014110Y009729D02*
X015310Y009729D01*
X015310Y009230D02*
X014110Y009230D01*
X015310Y009230D02*
X015310Y009030D01*
X014110Y009030D01*
X014110Y009230D01*
X014110Y009229D02*
X015310Y009229D01*
X015310Y008730D02*
X014110Y008730D01*
X015310Y008730D02*
X015310Y008530D01*
X014110Y008530D01*
X014110Y008730D01*
X014110Y008729D02*
X015310Y008729D01*
X015310Y008230D02*
X014110Y008230D01*
X015310Y008230D02*
X015310Y008030D01*
X014110Y008030D01*
X014110Y008230D01*
X014110Y008229D02*
X015310Y008229D01*
X010010Y008230D02*
X008810Y008230D01*
X010010Y008230D02*
X010010Y008030D01*
X008810Y008030D01*
X008810Y008230D01*
X008810Y008229D02*
X010010Y008229D01*
X010010Y008730D02*
X008810Y008730D01*
X010010Y008730D02*
X010010Y008530D01*
X008810Y008530D01*
X008810Y008730D01*
X008810Y008729D02*
X010010Y008729D01*
X010010Y009230D02*
X008810Y009230D01*
X010010Y009230D02*
X010010Y009030D01*
X008810Y009030D01*
X008810Y009230D01*
X008810Y009229D02*
X010010Y009229D01*
X010010Y009730D02*
X008810Y009730D01*
X010010Y009730D02*
X010010Y009530D01*
X008810Y009530D01*
X008810Y009730D01*
X008810Y009729D02*
X010010Y009729D01*
X010010Y010230D02*
X008810Y010230D01*
X010010Y010230D02*
X010010Y010030D01*
X008810Y010030D01*
X008810Y010230D01*
X008810Y010229D02*
X010010Y010229D01*
X010010Y010730D02*
X008810Y010730D01*
X010010Y010730D02*
X010010Y010530D01*
X008810Y010530D01*
X008810Y010730D01*
X008810Y010729D02*
X010010Y010729D01*
X010010Y011230D02*
X008810Y011230D01*
X010010Y011230D02*
X010010Y011030D01*
X008810Y011030D01*
X008810Y011230D01*
X008810Y011229D02*
X010010Y011229D01*
X010010Y011730D02*
X008810Y011730D01*
X010010Y011730D02*
X010010Y011530D01*
X008810Y011530D01*
X008810Y011730D01*
X008810Y011729D02*
X010010Y011729D01*
X010010Y012230D02*
X008810Y012230D01*
X010010Y012230D02*
X010010Y012030D01*
X008810Y012030D01*
X008810Y012230D01*
X008810Y012229D02*
X010010Y012229D01*
X010010Y012730D02*
X008810Y012730D01*
X010010Y012730D02*
X010010Y012530D01*
X008810Y012530D01*
X008810Y012730D01*
X008810Y012729D02*
X010010Y012729D01*
X010010Y013230D02*
X008810Y013230D01*
X010010Y013230D02*
X010010Y013030D01*
X008810Y013030D01*
X008810Y013230D01*
X008810Y013229D02*
X010010Y013229D01*
D18*
X005810Y010962D03*
X005310Y010962D03*
X004810Y010962D03*
X004310Y010962D03*
X004310Y008758D03*
X004810Y008758D03*
X005310Y008758D03*
X005810Y008758D03*
D19*
X020173Y017673D03*
X020960Y017673D03*
X021747Y017673D03*
X021354Y008503D03*
X020566Y008503D03*
D20*
X019228Y015626D03*
X022692Y015626D03*
D21*
X007184Y010372D03*
X006810Y010372D03*
X006436Y010372D03*
X006436Y009348D03*
X007184Y009348D03*
D22*
X009006Y007210D03*
X009714Y007210D03*
X009714Y006310D03*
X009006Y006310D03*
G36*
X005573Y003663D02*
X005884Y004068D01*
X006259Y003779D01*
X005948Y003374D01*
X005573Y003663D01*
G37*
G36*
X005141Y003101D02*
X005452Y003506D01*
X005827Y003217D01*
X005516Y002812D01*
X005141Y003101D01*
G37*
G36*
X002812Y005516D02*
X003217Y005827D01*
X003506Y005452D01*
X003101Y005141D01*
X002812Y005516D01*
G37*
G36*
X003374Y005948D02*
X003779Y006259D01*
X004068Y005884D01*
X003663Y005573D01*
X003374Y005948D01*
G37*
G36*
X001186Y008454D02*
X001658Y008650D01*
X001840Y008214D01*
X001368Y008018D01*
X001186Y008454D01*
G37*
G36*
X001840Y008726D02*
X002312Y008922D01*
X002494Y008486D01*
X002022Y008290D01*
X001840Y008726D01*
G37*
G36*
X000375Y011715D02*
X000881Y011782D01*
X000943Y011313D01*
X000437Y011246D01*
X000375Y011715D01*
G37*
G36*
X001077Y011807D02*
X001583Y011874D01*
X001645Y011405D01*
X001139Y011338D01*
X001077Y011807D01*
G37*
G36*
X001139Y014982D02*
X001645Y014915D01*
X001583Y014446D01*
X001077Y014513D01*
X001139Y014982D01*
G37*
G36*
X000437Y015074D02*
X000943Y015007D01*
X000881Y014538D01*
X000375Y014605D01*
X000437Y015074D01*
G37*
G36*
X002022Y018030D02*
X002494Y017834D01*
X002312Y017398D01*
X001840Y017594D01*
X002022Y018030D01*
G37*
G36*
X001368Y018302D02*
X001840Y018106D01*
X001658Y017670D01*
X001186Y017866D01*
X001368Y018302D01*
G37*
G36*
X003663Y020747D02*
X004068Y020436D01*
X003779Y020061D01*
X003374Y020372D01*
X003663Y020747D01*
G37*
G36*
X003101Y021179D02*
X003506Y020868D01*
X003217Y020493D01*
X002812Y020804D01*
X003101Y021179D01*
G37*
G36*
X005516Y023508D02*
X005827Y023103D01*
X005452Y022814D01*
X005141Y023219D01*
X005516Y023508D01*
G37*
G36*
X005948Y022946D02*
X006259Y022541D01*
X005884Y022252D01*
X005573Y022657D01*
X005948Y022946D01*
G37*
G36*
X008454Y025134D02*
X008650Y024662D01*
X008214Y024480D01*
X008018Y024952D01*
X008454Y025134D01*
G37*
G36*
X008726Y024480D02*
X008922Y024008D01*
X008486Y023826D01*
X008290Y024298D01*
X008726Y024480D01*
G37*
G36*
X011715Y025945D02*
X011782Y025439D01*
X011313Y025377D01*
X011246Y025883D01*
X011715Y025945D01*
G37*
G36*
X011807Y025243D02*
X011874Y024737D01*
X011405Y024675D01*
X011338Y025181D01*
X011807Y025243D01*
G37*
G36*
X014982Y025181D02*
X014915Y024675D01*
X014446Y024737D01*
X014513Y025243D01*
X014982Y025181D01*
G37*
G36*
X015074Y025883D02*
X015007Y025377D01*
X014538Y025439D01*
X014605Y025945D01*
X015074Y025883D01*
G37*
G36*
X018030Y024298D02*
X017834Y023826D01*
X017398Y024008D01*
X017594Y024480D01*
X018030Y024298D01*
G37*
G36*
X018302Y024952D02*
X018106Y024480D01*
X017670Y024662D01*
X017866Y025134D01*
X018302Y024952D01*
G37*
G36*
X020747Y022657D02*
X020436Y022252D01*
X020061Y022541D01*
X020372Y022946D01*
X020747Y022657D01*
G37*
G36*
X021179Y023219D02*
X020868Y022814D01*
X020493Y023103D01*
X020804Y023508D01*
X021179Y023219D01*
G37*
G36*
X023508Y020804D02*
X023103Y020493D01*
X022814Y020868D01*
X023219Y021179D01*
X023508Y020804D01*
G37*
G36*
X022946Y020372D02*
X022541Y020061D01*
X022252Y020436D01*
X022657Y020747D01*
X022946Y020372D01*
G37*
G36*
X025134Y017866D02*
X024662Y017670D01*
X024480Y018106D01*
X024952Y018302D01*
X025134Y017866D01*
G37*
G36*
X024480Y017594D02*
X024008Y017398D01*
X023826Y017834D01*
X024298Y018030D01*
X024480Y017594D01*
G37*
G36*
X025945Y014605D02*
X025439Y014538D01*
X025377Y015007D01*
X025883Y015074D01*
X025945Y014605D01*
G37*
G36*
X025243Y014513D02*
X024737Y014446D01*
X024675Y014915D01*
X025181Y014982D01*
X025243Y014513D01*
G37*
G36*
X025181Y011338D02*
X024675Y011405D01*
X024737Y011874D01*
X025243Y011807D01*
X025181Y011338D01*
G37*
G36*
X025883Y011246D02*
X025377Y011313D01*
X025439Y011782D01*
X025945Y011715D01*
X025883Y011246D01*
G37*
G36*
X024298Y008290D02*
X023826Y008486D01*
X024008Y008922D01*
X024480Y008726D01*
X024298Y008290D01*
G37*
G36*
X024952Y008018D02*
X024480Y008214D01*
X024662Y008650D01*
X025134Y008454D01*
X024952Y008018D01*
G37*
G36*
X022657Y005573D02*
X022252Y005884D01*
X022541Y006259D01*
X022946Y005948D01*
X022657Y005573D01*
G37*
G36*
X023219Y005141D02*
X022814Y005452D01*
X023103Y005827D01*
X023508Y005516D01*
X023219Y005141D01*
G37*
G36*
X020804Y002812D02*
X020493Y003217D01*
X020868Y003506D01*
X021179Y003101D01*
X020804Y002812D01*
G37*
G36*
X020372Y003374D02*
X020061Y003779D01*
X020436Y004068D01*
X020747Y003663D01*
X020372Y003374D01*
G37*
G36*
X017866Y001186D02*
X017670Y001658D01*
X018106Y001840D01*
X018302Y001368D01*
X017866Y001186D01*
G37*
G36*
X017594Y001840D02*
X017398Y002312D01*
X017834Y002494D01*
X018030Y002022D01*
X017594Y001840D01*
G37*
G36*
X014605Y000375D02*
X014538Y000881D01*
X015007Y000943D01*
X015074Y000437D01*
X014605Y000375D01*
G37*
G36*
X014513Y001077D02*
X014446Y001583D01*
X014915Y001645D01*
X014982Y001139D01*
X014513Y001077D01*
G37*
G36*
X011338Y001139D02*
X011405Y001645D01*
X011874Y001583D01*
X011807Y001077D01*
X011338Y001139D01*
G37*
G36*
X011246Y000437D02*
X011313Y000943D01*
X011782Y000881D01*
X011715Y000375D01*
X011246Y000437D01*
G37*
G36*
X008290Y002022D02*
X008486Y002494D01*
X008922Y002312D01*
X008726Y001840D01*
X008290Y002022D01*
G37*
G36*
X008018Y001368D02*
X008214Y001840D01*
X008650Y001658D01*
X008454Y001186D01*
X008018Y001368D01*
G37*
X011006Y014760D03*
X011006Y015360D03*
X011006Y015960D03*
X011714Y015960D03*
X011714Y015360D03*
X011714Y014760D03*
X010464Y017360D03*
X009756Y017360D03*
X006414Y017110D03*
X006414Y016510D03*
X006414Y015910D03*
X006414Y015310D03*
X005706Y015310D03*
X005706Y015910D03*
X005706Y016510D03*
X005706Y017110D03*
D23*
X006820Y007637D03*
X006820Y007283D03*
X004340Y007283D03*
X004340Y007637D03*
D24*
X013160Y004210D03*
D25*
X015817Y004210D03*
X010503Y004210D03*
D26*
G36*
X003709Y004378D02*
X003153Y004934D01*
X003515Y005296D01*
X004071Y004740D01*
X003709Y004378D01*
G37*
G36*
X004934Y003153D02*
X004378Y003709D01*
X004740Y004071D01*
X005296Y003515D01*
X004934Y003153D01*
G37*
G36*
X006308Y002240D02*
X005626Y002634D01*
X005882Y003076D01*
X006564Y002682D01*
X006308Y002240D01*
G37*
G36*
X007808Y001373D02*
X007126Y001767D01*
X007382Y002209D01*
X008064Y001815D01*
X007808Y001373D01*
G37*
G36*
X009364Y000837D02*
X008604Y001041D01*
X008736Y001535D01*
X009496Y001331D01*
X009364Y000837D01*
G37*
G36*
X011038Y000388D02*
X010278Y000592D01*
X010410Y001086D01*
X011170Y000882D01*
X011038Y000388D01*
G37*
X012294Y000530D03*
X012294Y001790D03*
G36*
X011364Y001605D02*
X010604Y001809D01*
X010736Y002303D01*
X011496Y002099D01*
X011364Y001605D01*
G37*
G36*
X009690Y002054D02*
X008930Y002258D01*
X009062Y002752D01*
X009822Y002548D01*
X009690Y002054D01*
G37*
G36*
X008438Y002464D02*
X007756Y002858D01*
X008012Y003300D01*
X008694Y002906D01*
X008438Y002464D01*
G37*
G36*
X006938Y003331D02*
X006256Y003725D01*
X006512Y004167D01*
X007194Y003773D01*
X006938Y003331D01*
G37*
G36*
X005825Y004044D02*
X005269Y004600D01*
X005631Y004962D01*
X006187Y004406D01*
X005825Y004044D01*
G37*
G36*
X004600Y005269D02*
X004044Y005825D01*
X004406Y006187D01*
X004962Y005631D01*
X004600Y005269D01*
G37*
G36*
X003725Y006256D02*
X003331Y006938D01*
X003773Y007194D01*
X004167Y006512D01*
X003725Y006256D01*
G37*
G36*
X002634Y005626D02*
X002240Y006308D01*
X002682Y006564D01*
X003076Y005882D01*
X002634Y005626D01*
G37*
G36*
X001767Y007126D02*
X001373Y007808D01*
X001815Y008064D01*
X002209Y007382D01*
X001767Y007126D01*
G37*
G36*
X002858Y007756D02*
X002464Y008438D01*
X002906Y008694D01*
X003300Y008012D01*
X002858Y007756D01*
G37*
G36*
X002258Y008930D02*
X002054Y009690D01*
X002548Y009822D01*
X002752Y009062D01*
X002258Y008930D01*
G37*
G36*
X001041Y008604D02*
X000837Y009364D01*
X001331Y009496D01*
X001535Y008736D01*
X001041Y008604D01*
G37*
G36*
X000592Y010278D02*
X000388Y011038D01*
X000882Y011170D01*
X001086Y010410D01*
X000592Y010278D01*
G37*
G36*
X001809Y010604D02*
X001605Y011364D01*
X002099Y011496D01*
X002303Y010736D01*
X001809Y010604D01*
G37*
G36*
X001605Y014956D02*
X001809Y015716D01*
X002303Y015584D01*
X002099Y014824D01*
X001605Y014956D01*
G37*
G36*
X000388Y015282D02*
X000592Y016042D01*
X001086Y015910D01*
X000882Y015150D01*
X000388Y015282D01*
G37*
G36*
X000837Y016956D02*
X001041Y017716D01*
X001535Y017584D01*
X001331Y016824D01*
X000837Y016956D01*
G37*
G36*
X002054Y016630D02*
X002258Y017390D01*
X002752Y017258D01*
X002548Y016498D01*
X002054Y016630D01*
G37*
G36*
X002464Y017882D02*
X002858Y018564D01*
X003300Y018308D01*
X002906Y017626D01*
X002464Y017882D01*
G37*
G36*
X001373Y018512D02*
X001767Y019194D01*
X002209Y018938D01*
X001815Y018256D01*
X001373Y018512D01*
G37*
G36*
X002240Y020012D02*
X002634Y020694D01*
X003076Y020438D01*
X002682Y019756D01*
X002240Y020012D01*
G37*
G36*
X003153Y021386D02*
X003709Y021942D01*
X004071Y021580D01*
X003515Y021024D01*
X003153Y021386D01*
G37*
G36*
X004044Y020495D02*
X004600Y021051D01*
X004962Y020689D01*
X004406Y020133D01*
X004044Y020495D01*
G37*
G36*
X003331Y019382D02*
X003725Y020064D01*
X004167Y019808D01*
X003773Y019126D01*
X003331Y019382D01*
G37*
G36*
X005269Y021720D02*
X005825Y022276D01*
X006187Y021914D01*
X005631Y021358D01*
X005269Y021720D01*
G37*
G36*
X004378Y022611D02*
X004934Y023167D01*
X005296Y022805D01*
X004740Y022249D01*
X004378Y022611D01*
G37*
G36*
X005626Y023686D02*
X006308Y024080D01*
X006564Y023638D01*
X005882Y023244D01*
X005626Y023686D01*
G37*
G36*
X006256Y022595D02*
X006938Y022989D01*
X007194Y022547D01*
X006512Y022153D01*
X006256Y022595D01*
G37*
G36*
X007756Y023462D02*
X008438Y023856D01*
X008694Y023414D01*
X008012Y023020D01*
X007756Y023462D01*
G37*
G36*
X007126Y024553D02*
X007808Y024947D01*
X008064Y024505D01*
X007382Y024111D01*
X007126Y024553D01*
G37*
G36*
X008604Y025279D02*
X009364Y025483D01*
X009496Y024989D01*
X008736Y024785D01*
X008604Y025279D01*
G37*
G36*
X008930Y024062D02*
X009690Y024266D01*
X009822Y023772D01*
X009062Y023568D01*
X008930Y024062D01*
G37*
G36*
X010278Y025728D02*
X011038Y025932D01*
X011170Y025438D01*
X010410Y025234D01*
X010278Y025728D01*
G37*
G36*
X010604Y024511D02*
X011364Y024715D01*
X011496Y024221D01*
X010736Y024017D01*
X010604Y024511D01*
G37*
X012294Y024530D03*
X012294Y025790D03*
X014026Y025790D03*
X014026Y024530D03*
G36*
X014956Y024715D02*
X015716Y024511D01*
X015584Y024017D01*
X014824Y024221D01*
X014956Y024715D01*
G37*
G36*
X015282Y025932D02*
X016042Y025728D01*
X015910Y025234D01*
X015150Y025438D01*
X015282Y025932D01*
G37*
G36*
X016956Y025483D02*
X017716Y025279D01*
X017584Y024785D01*
X016824Y024989D01*
X016956Y025483D01*
G37*
G36*
X016630Y024266D02*
X017390Y024062D01*
X017258Y023568D01*
X016498Y023772D01*
X016630Y024266D01*
G37*
G36*
X017882Y023856D02*
X018564Y023462D01*
X018308Y023020D01*
X017626Y023414D01*
X017882Y023856D01*
G37*
G36*
X018512Y024947D02*
X019194Y024553D01*
X018938Y024111D01*
X018256Y024505D01*
X018512Y024947D01*
G37*
G36*
X020012Y024080D02*
X020694Y023686D01*
X020438Y023244D01*
X019756Y023638D01*
X020012Y024080D01*
G37*
G36*
X021386Y023167D02*
X021942Y022611D01*
X021580Y022249D01*
X021024Y022805D01*
X021386Y023167D01*
G37*
G36*
X020495Y022276D02*
X021051Y021720D01*
X020689Y021358D01*
X020133Y021914D01*
X020495Y022276D01*
G37*
G36*
X019382Y022989D02*
X020064Y022595D01*
X019808Y022153D01*
X019126Y022547D01*
X019382Y022989D01*
G37*
G36*
X021720Y021051D02*
X022276Y020495D01*
X021914Y020133D01*
X021358Y020689D01*
X021720Y021051D01*
G37*
G36*
X022611Y021942D02*
X023167Y021386D01*
X022805Y021024D01*
X022249Y021580D01*
X022611Y021942D01*
G37*
G36*
X023686Y020694D02*
X024080Y020012D01*
X023638Y019756D01*
X023244Y020438D01*
X023686Y020694D01*
G37*
G36*
X022595Y020064D02*
X022989Y019382D01*
X022547Y019126D01*
X022153Y019808D01*
X022595Y020064D01*
G37*
G36*
X023462Y018564D02*
X023856Y017882D01*
X023414Y017626D01*
X023020Y018308D01*
X023462Y018564D01*
G37*
G36*
X024553Y019194D02*
X024947Y018512D01*
X024505Y018256D01*
X024111Y018938D01*
X024553Y019194D01*
G37*
G36*
X025279Y017716D02*
X025483Y016956D01*
X024989Y016824D01*
X024785Y017584D01*
X025279Y017716D01*
G37*
G36*
X024062Y017390D02*
X024266Y016630D01*
X023772Y016498D01*
X023568Y017258D01*
X024062Y017390D01*
G37*
G36*
X025728Y016042D02*
X025932Y015282D01*
X025438Y015150D01*
X025234Y015910D01*
X025728Y016042D01*
G37*
G36*
X024511Y015716D02*
X024715Y014956D01*
X024221Y014824D01*
X024017Y015584D01*
X024511Y015716D01*
G37*
G36*
X024715Y011364D02*
X024511Y010604D01*
X024017Y010736D01*
X024221Y011496D01*
X024715Y011364D01*
G37*
G36*
X025932Y011038D02*
X025728Y010278D01*
X025234Y010410D01*
X025438Y011170D01*
X025932Y011038D01*
G37*
G36*
X025483Y009364D02*
X025279Y008604D01*
X024785Y008736D01*
X024989Y009496D01*
X025483Y009364D01*
G37*
G36*
X024266Y009690D02*
X024062Y008930D01*
X023568Y009062D01*
X023772Y009822D01*
X024266Y009690D01*
G37*
G36*
X023856Y008438D02*
X023462Y007756D01*
X023020Y008012D01*
X023414Y008694D01*
X023856Y008438D01*
G37*
G36*
X024947Y007808D02*
X024553Y007126D01*
X024111Y007382D01*
X024505Y008064D01*
X024947Y007808D01*
G37*
G36*
X024080Y006308D02*
X023686Y005626D01*
X023244Y005882D01*
X023638Y006564D01*
X024080Y006308D01*
G37*
G36*
X023167Y004934D02*
X022611Y004378D01*
X022249Y004740D01*
X022805Y005296D01*
X023167Y004934D01*
G37*
G36*
X022276Y005825D02*
X021720Y005269D01*
X021358Y005631D01*
X021914Y006187D01*
X022276Y005825D01*
G37*
G36*
X022989Y006938D02*
X022595Y006256D01*
X022153Y006512D01*
X022547Y007194D01*
X022989Y006938D01*
G37*
G36*
X021051Y004600D02*
X020495Y004044D01*
X020133Y004406D01*
X020689Y004962D01*
X021051Y004600D01*
G37*
G36*
X021942Y003709D02*
X021386Y003153D01*
X021024Y003515D01*
X021580Y004071D01*
X021942Y003709D01*
G37*
G36*
X020694Y002634D02*
X020012Y002240D01*
X019756Y002682D01*
X020438Y003076D01*
X020694Y002634D01*
G37*
G36*
X020064Y003725D02*
X019382Y003331D01*
X019126Y003773D01*
X019808Y004167D01*
X020064Y003725D01*
G37*
G36*
X018564Y002858D02*
X017882Y002464D01*
X017626Y002906D01*
X018308Y003300D01*
X018564Y002858D01*
G37*
G36*
X019194Y001767D02*
X018512Y001373D01*
X018256Y001815D01*
X018938Y002209D01*
X019194Y001767D01*
G37*
G36*
X017716Y001041D02*
X016956Y000837D01*
X016824Y001331D01*
X017584Y001535D01*
X017716Y001041D01*
G37*
G36*
X017390Y002258D02*
X016630Y002054D01*
X016498Y002548D01*
X017258Y002752D01*
X017390Y002258D01*
G37*
G36*
X016042Y000592D02*
X015282Y000388D01*
X015150Y000882D01*
X015910Y001086D01*
X016042Y000592D01*
G37*
G36*
X015716Y001809D02*
X014956Y001605D01*
X014824Y002099D01*
X015584Y002303D01*
X015716Y001809D01*
G37*
X014026Y001790D03*
X014026Y000530D03*
D27*
X024530Y012294D03*
X025790Y012294D03*
X025790Y014026D03*
X024530Y014026D03*
X001790Y014026D03*
X000530Y014026D03*
X000530Y012294D03*
X001790Y012294D03*
D28*
X008329Y014710D03*
X008526Y014710D03*
X008723Y014710D03*
X008919Y014710D03*
X009116Y014710D03*
X009116Y016285D03*
X008919Y016285D03*
X008723Y016285D03*
X008526Y016285D03*
X008329Y016285D03*
D29*
X007935Y015891D03*
X007935Y015694D03*
X007935Y015497D03*
X007935Y015301D03*
X007935Y015104D03*
X009510Y015104D03*
X009510Y015301D03*
X009510Y015497D03*
X009510Y015694D03*
X009510Y015891D03*
D30*
X008723Y015497D03*
D31*
X019621Y010551D03*
X022299Y010551D03*
D32*
X010455Y016510D03*
X010455Y016910D03*
X009865Y016910D03*
X009865Y016510D03*
D33*
X017060Y011811D03*
X017060Y010709D03*
D34*
X018810Y005660D02*
X018812Y005709D01*
X018818Y005757D01*
X018828Y005805D01*
X018842Y005852D01*
X018859Y005898D01*
X018880Y005942D01*
X018905Y005984D01*
X018933Y006024D01*
X018965Y006062D01*
X018999Y006097D01*
X019036Y006129D01*
X019075Y006158D01*
X019117Y006184D01*
X019161Y006206D01*
X019206Y006224D01*
X019253Y006239D01*
X019300Y006250D01*
X019349Y006257D01*
X019398Y006260D01*
X019447Y006259D01*
X019495Y006254D01*
X019544Y006245D01*
X019591Y006232D01*
X019637Y006215D01*
X019681Y006195D01*
X019724Y006171D01*
X019765Y006144D01*
X019803Y006113D01*
X019839Y006080D01*
X019871Y006044D01*
X019901Y006005D01*
X019928Y005964D01*
X019951Y005920D01*
X019970Y005875D01*
X019986Y005829D01*
X019998Y005782D01*
X020006Y005733D01*
X020010Y005684D01*
X020010Y005636D01*
X020006Y005587D01*
X019998Y005538D01*
X019986Y005491D01*
X019970Y005445D01*
X019951Y005400D01*
X019928Y005356D01*
X019901Y005315D01*
X019871Y005276D01*
X019839Y005240D01*
X019803Y005207D01*
X019765Y005176D01*
X019724Y005149D01*
X019681Y005125D01*
X019637Y005105D01*
X019591Y005088D01*
X019544Y005075D01*
X019495Y005066D01*
X019447Y005061D01*
X019398Y005060D01*
X019349Y005063D01*
X019300Y005070D01*
X019253Y005081D01*
X019206Y005096D01*
X019161Y005114D01*
X019117Y005136D01*
X019075Y005162D01*
X019036Y005191D01*
X018999Y005223D01*
X018965Y005258D01*
X018933Y005296D01*
X018905Y005336D01*
X018880Y005378D01*
X018859Y005422D01*
X018842Y005468D01*
X018828Y005515D01*
X018818Y005563D01*
X018812Y005611D01*
X018810Y005660D01*
X006310Y005660D02*
X006312Y005709D01*
X006318Y005757D01*
X006328Y005805D01*
X006342Y005852D01*
X006359Y005898D01*
X006380Y005942D01*
X006405Y005984D01*
X006433Y006024D01*
X006465Y006062D01*
X006499Y006097D01*
X006536Y006129D01*
X006575Y006158D01*
X006617Y006184D01*
X006661Y006206D01*
X006706Y006224D01*
X006753Y006239D01*
X006800Y006250D01*
X006849Y006257D01*
X006898Y006260D01*
X006947Y006259D01*
X006995Y006254D01*
X007044Y006245D01*
X007091Y006232D01*
X007137Y006215D01*
X007181Y006195D01*
X007224Y006171D01*
X007265Y006144D01*
X007303Y006113D01*
X007339Y006080D01*
X007371Y006044D01*
X007401Y006005D01*
X007428Y005964D01*
X007451Y005920D01*
X007470Y005875D01*
X007486Y005829D01*
X007498Y005782D01*
X007506Y005733D01*
X007510Y005684D01*
X007510Y005636D01*
X007506Y005587D01*
X007498Y005538D01*
X007486Y005491D01*
X007470Y005445D01*
X007451Y005400D01*
X007428Y005356D01*
X007401Y005315D01*
X007371Y005276D01*
X007339Y005240D01*
X007303Y005207D01*
X007265Y005176D01*
X007224Y005149D01*
X007181Y005125D01*
X007137Y005105D01*
X007091Y005088D01*
X007044Y005075D01*
X006995Y005066D01*
X006947Y005061D01*
X006898Y005060D01*
X006849Y005063D01*
X006800Y005070D01*
X006753Y005081D01*
X006706Y005096D01*
X006661Y005114D01*
X006617Y005136D01*
X006575Y005162D01*
X006536Y005191D01*
X006499Y005223D01*
X006465Y005258D01*
X006433Y005296D01*
X006405Y005336D01*
X006380Y005378D01*
X006359Y005422D01*
X006342Y005468D01*
X006328Y005515D01*
X006318Y005563D01*
X006312Y005611D01*
X006310Y005660D01*
X006310Y020660D02*
X006312Y020709D01*
X006318Y020757D01*
X006328Y020805D01*
X006342Y020852D01*
X006359Y020898D01*
X006380Y020942D01*
X006405Y020984D01*
X006433Y021024D01*
X006465Y021062D01*
X006499Y021097D01*
X006536Y021129D01*
X006575Y021158D01*
X006617Y021184D01*
X006661Y021206D01*
X006706Y021224D01*
X006753Y021239D01*
X006800Y021250D01*
X006849Y021257D01*
X006898Y021260D01*
X006947Y021259D01*
X006995Y021254D01*
X007044Y021245D01*
X007091Y021232D01*
X007137Y021215D01*
X007181Y021195D01*
X007224Y021171D01*
X007265Y021144D01*
X007303Y021113D01*
X007339Y021080D01*
X007371Y021044D01*
X007401Y021005D01*
X007428Y020964D01*
X007451Y020920D01*
X007470Y020875D01*
X007486Y020829D01*
X007498Y020782D01*
X007506Y020733D01*
X007510Y020684D01*
X007510Y020636D01*
X007506Y020587D01*
X007498Y020538D01*
X007486Y020491D01*
X007470Y020445D01*
X007451Y020400D01*
X007428Y020356D01*
X007401Y020315D01*
X007371Y020276D01*
X007339Y020240D01*
X007303Y020207D01*
X007265Y020176D01*
X007224Y020149D01*
X007181Y020125D01*
X007137Y020105D01*
X007091Y020088D01*
X007044Y020075D01*
X006995Y020066D01*
X006947Y020061D01*
X006898Y020060D01*
X006849Y020063D01*
X006800Y020070D01*
X006753Y020081D01*
X006706Y020096D01*
X006661Y020114D01*
X006617Y020136D01*
X006575Y020162D01*
X006536Y020191D01*
X006499Y020223D01*
X006465Y020258D01*
X006433Y020296D01*
X006405Y020336D01*
X006380Y020378D01*
X006359Y020422D01*
X006342Y020468D01*
X006328Y020515D01*
X006318Y020563D01*
X006312Y020611D01*
X006310Y020660D01*
X018810Y020660D02*
X018812Y020709D01*
X018818Y020757D01*
X018828Y020805D01*
X018842Y020852D01*
X018859Y020898D01*
X018880Y020942D01*
X018905Y020984D01*
X018933Y021024D01*
X018965Y021062D01*
X018999Y021097D01*
X019036Y021129D01*
X019075Y021158D01*
X019117Y021184D01*
X019161Y021206D01*
X019206Y021224D01*
X019253Y021239D01*
X019300Y021250D01*
X019349Y021257D01*
X019398Y021260D01*
X019447Y021259D01*
X019495Y021254D01*
X019544Y021245D01*
X019591Y021232D01*
X019637Y021215D01*
X019681Y021195D01*
X019724Y021171D01*
X019765Y021144D01*
X019803Y021113D01*
X019839Y021080D01*
X019871Y021044D01*
X019901Y021005D01*
X019928Y020964D01*
X019951Y020920D01*
X019970Y020875D01*
X019986Y020829D01*
X019998Y020782D01*
X020006Y020733D01*
X020010Y020684D01*
X020010Y020636D01*
X020006Y020587D01*
X019998Y020538D01*
X019986Y020491D01*
X019970Y020445D01*
X019951Y020400D01*
X019928Y020356D01*
X019901Y020315D01*
X019871Y020276D01*
X019839Y020240D01*
X019803Y020207D01*
X019765Y020176D01*
X019724Y020149D01*
X019681Y020125D01*
X019637Y020105D01*
X019591Y020088D01*
X019544Y020075D01*
X019495Y020066D01*
X019447Y020061D01*
X019398Y020060D01*
X019349Y020063D01*
X019300Y020070D01*
X019253Y020081D01*
X019206Y020096D01*
X019161Y020114D01*
X019117Y020136D01*
X019075Y020162D01*
X019036Y020191D01*
X018999Y020223D01*
X018965Y020258D01*
X018933Y020296D01*
X018905Y020336D01*
X018880Y020378D01*
X018859Y020422D01*
X018842Y020468D01*
X018828Y020515D01*
X018818Y020563D01*
X018812Y020611D01*
X018810Y020660D01*
D35*
X019410Y020660D03*
X006910Y020660D03*
X006910Y005660D03*
X019410Y005660D03*
D36*
X021110Y018933D03*
X021110Y019287D03*
X018410Y021948D03*
X018410Y022268D03*
D37*
X007834Y012943D03*
X007086Y012943D03*
X007460Y012077D03*
M02*
