G75*
%MOIN*%
%OFA0B0*%
%FSLAX24Y24*%
%IPPOS*%
%LPD*%
%AMOC8*
5,1,8,0,0,1.08239X$1,22.5*
%
%ADD10C,0.0030*%
%ADD11C,0.0060*%
%ADD12C,0.0040*%
%ADD13C,0.0050*%
%ADD14C,0.0220*%
%ADD15C,0.0010*%
%ADD16C,0.0080*%
%ADD17R,0.0100X0.0400*%
%ADD18R,0.0300X0.0180*%
%ADD19R,0.0300X0.0100*%
D10*
X002101Y002343D02*
X002145Y002665D01*
X002043Y002695D02*
X001984Y002628D01*
X001920Y002624D01*
X001819Y002713D01*
X001886Y002654D02*
X001894Y002526D01*
X001966Y002463D02*
X002280Y002546D01*
X002352Y002482D02*
X002453Y002393D01*
X002457Y002329D01*
X002338Y002194D01*
X002274Y002190D01*
X002173Y002280D01*
X002352Y002482D01*
X002043Y002695D02*
X002040Y002759D01*
X001938Y002848D01*
X001759Y002646D01*
X002577Y001936D02*
X002756Y002138D01*
X002823Y002079D02*
X002688Y002198D01*
X002895Y002015D02*
X002851Y001693D01*
X002923Y001630D02*
X003024Y001540D01*
X003088Y001544D01*
X003207Y001679D01*
X003203Y001743D01*
X003102Y001832D01*
X002923Y001630D01*
X002716Y001813D02*
X003030Y001896D01*
X003395Y001565D02*
X003306Y001464D01*
X003403Y001438D01*
X003437Y001408D01*
X003441Y001345D01*
X003381Y001277D01*
X003317Y001273D01*
X003250Y001333D01*
X003246Y001396D01*
X003395Y001565D02*
X003530Y001446D01*
X003602Y001382D02*
X003483Y001247D01*
X003491Y001120D01*
X003618Y001128D01*
X003737Y001263D01*
X005089Y000535D02*
X005093Y000471D01*
X005228Y000352D01*
X005292Y000355D01*
X005351Y000423D01*
X005347Y000486D01*
X005280Y000546D01*
X005220Y000479D01*
X005213Y000606D02*
X005149Y000602D01*
X005089Y000535D01*
X005242Y000708D02*
X005564Y000664D01*
X005362Y000843D01*
X005426Y000915D02*
X005515Y001016D01*
X005579Y001020D01*
X005714Y000900D01*
X005717Y000837D01*
X005628Y000735D01*
X005426Y000915D01*
X005242Y000708D02*
X005445Y000529D01*
X007227Y002125D02*
X007324Y002125D01*
X007275Y002125D02*
X007275Y002415D01*
X007227Y002415D02*
X007324Y002415D01*
X007423Y002367D02*
X007423Y002173D01*
X007472Y002125D01*
X007568Y002125D01*
X007617Y002173D01*
X007718Y002125D02*
X007911Y002318D01*
X007911Y002367D01*
X007863Y002415D01*
X007766Y002415D01*
X007718Y002367D01*
X007617Y002367D02*
X007568Y002415D01*
X007472Y002415D01*
X007423Y002367D01*
X007718Y002125D02*
X007911Y002125D01*
X008834Y001204D02*
X008952Y000983D01*
X008841Y000924D01*
X008785Y000941D01*
X008746Y001015D01*
X008763Y001071D01*
X008873Y001130D01*
X008973Y001136D02*
X009012Y001062D01*
X009069Y001045D01*
X009142Y001084D01*
X009140Y001177D02*
X008993Y001099D01*
X008973Y001136D02*
X008990Y001192D01*
X009064Y001231D01*
X009121Y001214D01*
X009140Y001177D01*
X009260Y001147D02*
X009181Y001294D01*
X009292Y001353D01*
X009348Y001335D01*
X009407Y001225D01*
X009468Y001304D02*
X009485Y001361D01*
X009595Y001420D01*
X009576Y001456D02*
X009635Y001346D01*
X009524Y001287D01*
X009468Y001304D01*
X009446Y001434D02*
X009519Y001474D01*
X009576Y001456D01*
X009732Y001445D02*
X009752Y001408D01*
X009789Y001428D01*
X009754Y001315D01*
X009789Y001428D02*
X009769Y001465D01*
X009732Y001445D01*
X010075Y001627D02*
X009996Y001774D01*
X010014Y001831D01*
X010087Y001870D01*
X010144Y001853D01*
X010244Y001859D02*
X010278Y001971D01*
X010391Y001937D01*
X010469Y001790D01*
X010410Y001900D02*
X010263Y001822D01*
X010244Y001859D02*
X010322Y001711D01*
X010222Y001705D02*
X010205Y001649D01*
X010131Y001610D01*
X010075Y001627D01*
X008724Y000862D02*
X008613Y000803D01*
X008557Y000820D01*
X008574Y000877D01*
X008685Y000935D01*
X008665Y000972D02*
X008724Y000862D01*
X008665Y000972D02*
X008609Y000989D01*
X008535Y000950D01*
X008418Y000888D02*
X008308Y000829D01*
X008290Y000773D01*
X008347Y000756D01*
X008420Y000795D01*
X008477Y000777D01*
X008459Y000721D01*
X008349Y000662D01*
X008269Y000620D02*
X008158Y000561D01*
X008102Y000578D01*
X008119Y000635D01*
X008230Y000693D01*
X008210Y000730D02*
X008269Y000620D01*
X008210Y000730D02*
X008154Y000747D01*
X008080Y000708D01*
X007982Y000609D02*
X007965Y000553D01*
X007855Y000494D01*
X007894Y000420D02*
X007776Y000641D01*
X007887Y000700D01*
X007943Y000683D01*
X007982Y000609D01*
X006953Y004086D02*
X006662Y004086D01*
X006662Y004231D01*
X006711Y004279D01*
X006807Y004279D01*
X006856Y004231D01*
X006856Y004086D01*
X006856Y004182D02*
X006953Y004279D01*
X006807Y004380D02*
X006807Y004574D01*
X006662Y004525D02*
X006807Y004380D01*
X006953Y004525D02*
X006662Y004525D01*
X006403Y004525D02*
X006403Y004429D01*
X006354Y004380D01*
X006403Y004279D02*
X006306Y004182D01*
X006306Y004231D02*
X006306Y004086D01*
X006403Y004086D02*
X006112Y004086D01*
X006112Y004231D01*
X006161Y004279D01*
X006257Y004279D01*
X006306Y004231D01*
X006161Y004380D02*
X006112Y004429D01*
X006112Y004525D01*
X006161Y004574D01*
X006209Y004574D01*
X006257Y004525D01*
X006306Y004574D01*
X006354Y004574D01*
X006403Y004525D01*
X006257Y004525D02*
X006257Y004477D01*
X005853Y004477D02*
X005562Y004477D01*
X005659Y004380D01*
X005611Y004279D02*
X005562Y004231D01*
X005562Y004086D01*
X005853Y004086D01*
X005756Y004086D02*
X005756Y004231D01*
X005707Y004279D01*
X005611Y004279D01*
X005756Y004182D02*
X005853Y004279D01*
X005853Y004380D02*
X005853Y004574D01*
X004833Y005136D02*
X004542Y005136D01*
X004542Y005281D01*
X004591Y005329D01*
X004687Y005329D01*
X004736Y005281D01*
X004736Y005136D01*
X004736Y005232D02*
X004833Y005329D01*
X004833Y005430D02*
X004639Y005624D01*
X004591Y005624D01*
X004542Y005575D01*
X004542Y005479D01*
X004591Y005430D01*
X004833Y005430D02*
X004833Y005624D01*
X004401Y005642D02*
X004401Y005593D01*
X004353Y005545D01*
X004256Y005545D01*
X004208Y005593D01*
X004107Y005593D02*
X004058Y005545D01*
X003962Y005545D01*
X003913Y005593D01*
X003913Y005787D01*
X003962Y005835D01*
X004058Y005835D01*
X004107Y005787D01*
X004208Y005787D02*
X004256Y005835D01*
X004353Y005835D01*
X004401Y005787D01*
X004401Y005738D01*
X004353Y005690D01*
X004401Y005642D01*
X004353Y005690D02*
X004305Y005690D01*
X003243Y005774D02*
X003115Y005629D01*
X003179Y005701D02*
X002962Y005894D01*
X002970Y005757D01*
X003048Y005553D02*
X002920Y005408D01*
X002702Y005600D01*
X002635Y005525D02*
X002724Y005187D01*
X002853Y005332D02*
X002507Y005380D01*
X002373Y005019D02*
X002441Y004959D01*
X002444Y004896D01*
X002355Y004795D01*
X002415Y004862D02*
X002542Y004870D01*
X002422Y004735D02*
X002220Y004914D01*
X002309Y005015D01*
X002373Y005019D01*
X002156Y004842D02*
X002037Y004707D01*
X002097Y004775D02*
X002299Y004596D01*
X002142Y004486D02*
X002146Y004422D01*
X002056Y004321D01*
X001854Y004500D01*
X001943Y004601D01*
X002007Y004605D01*
X002142Y004486D01*
X002651Y006465D02*
X002844Y006465D01*
X002893Y006513D01*
X002893Y006610D01*
X002844Y006658D01*
X002747Y006760D02*
X002747Y006953D01*
X002602Y006905D02*
X002747Y006760D01*
X002651Y006658D02*
X002602Y006610D01*
X002602Y006513D01*
X002651Y006465D01*
X002602Y006905D02*
X002893Y006905D01*
X003351Y007565D02*
X003303Y007613D01*
X003303Y007807D01*
X003351Y007855D01*
X003448Y007855D01*
X003496Y007807D01*
X003597Y007758D02*
X003694Y007855D01*
X003694Y007565D01*
X003597Y007565D02*
X003791Y007565D01*
X003496Y007613D02*
X003448Y007565D01*
X003351Y007565D01*
X003320Y007939D02*
X003153Y008036D01*
X003237Y007987D02*
X003382Y008239D01*
X003250Y008203D01*
X003186Y008296D02*
X003168Y008362D01*
X003043Y008434D01*
X002898Y008183D01*
X003023Y008110D01*
X003089Y008128D01*
X003186Y008296D01*
X001748Y008109D02*
X001603Y007858D01*
X001686Y007810D02*
X001519Y007906D01*
X001455Y007999D02*
X001389Y007981D01*
X001306Y008029D01*
X001288Y008095D01*
X001409Y008305D01*
X001576Y008208D02*
X001455Y007999D01*
X001616Y008074D02*
X001748Y008109D01*
X010273Y004437D02*
X010273Y004243D01*
X010321Y004195D01*
X010418Y004195D01*
X010466Y004243D01*
X010567Y004195D02*
X010761Y004388D01*
X010761Y004437D01*
X010712Y004485D01*
X010616Y004485D01*
X010567Y004437D01*
X010466Y004437D02*
X010418Y004485D01*
X010321Y004485D01*
X010273Y004437D01*
X010567Y004195D02*
X010761Y004195D01*
X011572Y004556D02*
X011572Y004701D01*
X011621Y004749D01*
X011717Y004749D01*
X011766Y004701D01*
X011766Y004556D01*
X011766Y004652D02*
X011863Y004749D01*
X011814Y004850D02*
X011863Y004899D01*
X011863Y004995D01*
X011814Y005044D01*
X011717Y005044D01*
X011669Y004995D01*
X011669Y004947D01*
X011717Y004850D01*
X011572Y004850D01*
X011572Y005044D01*
X011572Y004556D02*
X011863Y004556D01*
X012126Y006735D02*
X012293Y006818D01*
X012126Y006902D01*
X012126Y006993D02*
X012042Y007076D01*
X012293Y007076D01*
X012293Y006993D02*
X012293Y007160D01*
X012293Y007251D02*
X012293Y007292D01*
X012251Y007292D01*
X012251Y007251D01*
X012293Y007251D01*
X012293Y007380D02*
X012293Y007546D01*
X012293Y007463D02*
X012042Y007463D01*
X012126Y007380D01*
D11*
X011808Y007491D02*
X011726Y007409D01*
X011808Y007491D02*
X011808Y007655D01*
X011726Y007736D01*
X011644Y007736D01*
X011562Y007655D01*
X011562Y007491D01*
X011481Y007409D01*
X011399Y007409D01*
X011317Y007491D01*
X011317Y007655D01*
X011399Y007736D01*
X011481Y007916D02*
X011317Y008079D01*
X011481Y008243D01*
X011808Y008243D01*
X011808Y008422D02*
X011317Y008422D01*
X011317Y008667D01*
X011399Y008749D01*
X011562Y008749D01*
X011644Y008667D01*
X011644Y008422D01*
X011644Y008586D02*
X011808Y008749D01*
X011562Y008243D02*
X011562Y007916D01*
X011481Y007916D02*
X011808Y007916D01*
X011808Y007230D02*
X011808Y006903D01*
X011317Y006903D01*
X011317Y006723D02*
X011726Y006723D01*
X011808Y006642D01*
X011808Y006478D01*
X011726Y006396D01*
X011317Y006396D01*
X011399Y006217D02*
X011562Y006217D01*
X011644Y006135D01*
X011644Y005890D01*
X011808Y005890D02*
X011317Y005890D01*
X011317Y006135D01*
X011399Y006217D01*
D12*
X011674Y004047D02*
X011591Y004032D01*
X011487Y003885D01*
X011783Y003678D01*
X011886Y003825D01*
X011871Y003909D01*
X011674Y004047D01*
D13*
X010698Y005910D02*
X010698Y006160D01*
X010698Y005910D02*
X004698Y005910D01*
X004698Y006160D01*
X003163Y008506D02*
X002822Y008702D01*
X002783Y008634D01*
X002754Y008742D01*
X002822Y008702D01*
X002980Y008975D02*
X002912Y009014D01*
X003019Y009043D01*
X002980Y008975D01*
X003321Y008778D01*
X003872Y011310D02*
X004173Y011310D01*
X004698Y011710D02*
X004698Y011910D01*
X007198Y011910D01*
X007198Y010410D01*
X010698Y010410D01*
X010698Y010210D01*
X010698Y010410D02*
X010698Y011910D01*
X007198Y011910D01*
X007168Y005284D02*
X007168Y003236D01*
X007748Y001385D02*
X007748Y001085D01*
X007898Y001235D02*
X007598Y001235D01*
X009727Y003236D02*
X009727Y005284D01*
D14*
X010476Y005160D02*
X010500Y005160D01*
X003538Y006138D02*
X003538Y006162D01*
X003538Y006688D02*
X003538Y006712D01*
X003538Y007238D02*
X003538Y007262D01*
D15*
X008138Y002123D02*
X008072Y001906D01*
X008358Y001368D01*
X008305Y001340D01*
X008428Y001110D01*
X008763Y001288D01*
X008641Y001518D01*
X008588Y001490D01*
X008317Y001765D01*
X008414Y001816D01*
X008400Y001843D01*
X008568Y001932D01*
X008709Y002007D01*
X008723Y001981D01*
X008820Y002032D01*
X008915Y001664D01*
X008844Y001626D01*
X008966Y001396D01*
X009310Y001579D01*
X009188Y001809D01*
X009127Y001776D01*
X008836Y002324D01*
X008624Y002381D01*
X008138Y002123D01*
X008140Y002124D02*
X008942Y002124D01*
X008937Y002132D02*
X008156Y002132D01*
X008172Y002141D02*
X008933Y002141D01*
X008928Y002149D02*
X008188Y002149D01*
X008204Y002158D02*
X008924Y002158D01*
X008919Y002166D02*
X008220Y002166D01*
X008236Y002175D02*
X008915Y002175D01*
X008910Y002183D02*
X008252Y002183D01*
X008268Y002192D02*
X008906Y002192D01*
X008901Y002200D02*
X008284Y002200D01*
X008300Y002209D02*
X008897Y002209D01*
X008892Y002217D02*
X008316Y002217D01*
X008332Y002226D02*
X008888Y002226D01*
X008883Y002234D02*
X008348Y002234D01*
X008364Y002243D02*
X008879Y002243D01*
X008874Y002251D02*
X008380Y002251D01*
X008396Y002260D02*
X008870Y002260D01*
X008865Y002268D02*
X008412Y002268D01*
X008428Y002277D02*
X008861Y002277D01*
X008856Y002285D02*
X008444Y002285D01*
X008460Y002294D02*
X008852Y002294D01*
X008847Y002302D02*
X008476Y002302D01*
X008492Y002311D02*
X008842Y002311D01*
X008838Y002319D02*
X008508Y002319D01*
X008523Y002328D02*
X008821Y002328D01*
X008790Y002336D02*
X008539Y002336D01*
X008555Y002345D02*
X008758Y002345D01*
X008727Y002353D02*
X008571Y002353D01*
X008587Y002362D02*
X008695Y002362D01*
X008664Y002370D02*
X008603Y002370D01*
X008619Y002379D02*
X008633Y002379D01*
X008595Y002116D02*
X008656Y002001D01*
X008559Y001950D01*
X008568Y001932D01*
X008559Y001950D01*
X008444Y001889D01*
X008383Y002004D01*
X008595Y002116D01*
X008595Y002115D02*
X008946Y002115D01*
X008951Y002107D02*
X008600Y002107D01*
X008604Y002098D02*
X008955Y002098D01*
X008960Y002090D02*
X008609Y002090D01*
X008613Y002081D02*
X008965Y002081D01*
X008969Y002073D02*
X008618Y002073D01*
X008622Y002064D02*
X008974Y002064D01*
X008978Y002056D02*
X008627Y002056D01*
X008631Y002047D02*
X008983Y002047D01*
X008987Y002039D02*
X008636Y002039D01*
X008641Y002030D02*
X008816Y002030D01*
X008821Y002030D02*
X008992Y002030D01*
X008996Y002022D02*
X008823Y002022D01*
X008825Y002013D02*
X009001Y002013D01*
X009005Y002005D02*
X008828Y002005D01*
X008830Y001996D02*
X009010Y001996D01*
X009014Y001988D02*
X008832Y001988D01*
X008834Y001979D02*
X009019Y001979D01*
X009023Y001971D02*
X008836Y001971D01*
X008838Y001962D02*
X009028Y001962D01*
X009032Y001954D02*
X008841Y001954D01*
X008843Y001945D02*
X009037Y001945D01*
X009041Y001937D02*
X008845Y001937D01*
X008847Y001928D02*
X009046Y001928D01*
X009050Y001920D02*
X008849Y001920D01*
X008851Y001911D02*
X009055Y001911D01*
X009059Y001903D02*
X008854Y001903D01*
X008856Y001894D02*
X009064Y001894D01*
X009068Y001886D02*
X008858Y001886D01*
X008860Y001877D02*
X009073Y001877D01*
X009078Y001869D02*
X008862Y001869D01*
X008865Y001860D02*
X009082Y001860D01*
X009087Y001852D02*
X008867Y001852D01*
X008869Y001843D02*
X009091Y001843D01*
X009096Y001835D02*
X008871Y001835D01*
X008873Y001826D02*
X009100Y001826D01*
X009105Y001818D02*
X008875Y001818D01*
X008878Y001809D02*
X009109Y001809D01*
X009114Y001801D02*
X008880Y001801D01*
X008882Y001792D02*
X009118Y001792D01*
X009123Y001784D02*
X008884Y001784D01*
X008886Y001775D02*
X009207Y001775D01*
X009211Y001767D02*
X008888Y001767D01*
X008891Y001758D02*
X009216Y001758D01*
X009220Y001750D02*
X008893Y001750D01*
X008895Y001741D02*
X009225Y001741D01*
X009229Y001733D02*
X008897Y001733D01*
X008899Y001724D02*
X009234Y001724D01*
X009238Y001716D02*
X008901Y001716D01*
X008904Y001707D02*
X009243Y001707D01*
X009247Y001699D02*
X008906Y001699D01*
X008908Y001690D02*
X009252Y001690D01*
X009256Y001682D02*
X008910Y001682D01*
X008912Y001673D02*
X009261Y001673D01*
X009265Y001665D02*
X008914Y001665D01*
X008901Y001656D02*
X009270Y001656D01*
X009274Y001648D02*
X008885Y001648D01*
X008869Y001639D02*
X009279Y001639D01*
X009283Y001631D02*
X008853Y001631D01*
X008846Y001622D02*
X009288Y001622D01*
X009292Y001614D02*
X008851Y001614D01*
X008855Y001605D02*
X009297Y001605D01*
X009301Y001597D02*
X008860Y001597D01*
X008864Y001588D02*
X009306Y001588D01*
X009310Y001580D02*
X008869Y001580D01*
X008873Y001571D02*
X009295Y001571D01*
X009279Y001563D02*
X008878Y001563D01*
X008882Y001554D02*
X009263Y001554D01*
X009247Y001546D02*
X008887Y001546D01*
X008891Y001537D02*
X009231Y001537D01*
X009215Y001529D02*
X008896Y001529D01*
X008900Y001520D02*
X009199Y001520D01*
X009183Y001512D02*
X008905Y001512D01*
X008909Y001503D02*
X009167Y001503D01*
X009151Y001495D02*
X008914Y001495D01*
X008918Y001486D02*
X009135Y001486D01*
X009119Y001478D02*
X008923Y001478D01*
X008928Y001469D02*
X009103Y001469D01*
X009087Y001461D02*
X008932Y001461D01*
X008937Y001452D02*
X009071Y001452D01*
X009055Y001444D02*
X008941Y001444D01*
X008946Y001435D02*
X009039Y001435D01*
X009023Y001427D02*
X008950Y001427D01*
X008955Y001418D02*
X009007Y001418D01*
X008991Y001410D02*
X008959Y001410D01*
X008964Y001401D02*
X008975Y001401D01*
X008762Y001291D02*
X008332Y001291D01*
X008327Y001299D02*
X008757Y001299D01*
X008753Y001308D02*
X008323Y001308D01*
X008318Y001316D02*
X008748Y001316D01*
X008744Y001325D02*
X008313Y001325D01*
X008309Y001333D02*
X008739Y001333D01*
X008735Y001342D02*
X008309Y001342D01*
X008325Y001350D02*
X008730Y001350D01*
X008726Y001359D02*
X008341Y001359D01*
X008357Y001367D02*
X008721Y001367D01*
X008717Y001376D02*
X008354Y001376D01*
X008350Y001384D02*
X008712Y001384D01*
X008708Y001393D02*
X008345Y001393D01*
X008341Y001401D02*
X008703Y001401D01*
X008699Y001410D02*
X008336Y001410D01*
X008332Y001418D02*
X008694Y001418D01*
X008690Y001427D02*
X008327Y001427D01*
X008323Y001435D02*
X008685Y001435D01*
X008681Y001444D02*
X008318Y001444D01*
X008314Y001452D02*
X008676Y001452D01*
X008672Y001461D02*
X008309Y001461D01*
X008305Y001469D02*
X008667Y001469D01*
X008663Y001478D02*
X008300Y001478D01*
X008296Y001486D02*
X008658Y001486D01*
X008653Y001495D02*
X008597Y001495D01*
X008583Y001495D02*
X008291Y001495D01*
X008287Y001503D02*
X008575Y001503D01*
X008567Y001512D02*
X008282Y001512D01*
X008277Y001520D02*
X008558Y001520D01*
X008550Y001529D02*
X008273Y001529D01*
X008268Y001537D02*
X008542Y001537D01*
X008533Y001546D02*
X008264Y001546D01*
X008259Y001554D02*
X008525Y001554D01*
X008516Y001563D02*
X008255Y001563D01*
X008250Y001571D02*
X008508Y001571D01*
X008500Y001580D02*
X008246Y001580D01*
X008241Y001588D02*
X008491Y001588D01*
X008483Y001597D02*
X008237Y001597D01*
X008232Y001605D02*
X008475Y001605D01*
X008466Y001614D02*
X008228Y001614D01*
X008223Y001622D02*
X008458Y001622D01*
X008449Y001631D02*
X008219Y001631D01*
X008214Y001639D02*
X008441Y001639D01*
X008433Y001648D02*
X008210Y001648D01*
X008205Y001656D02*
X008424Y001656D01*
X008416Y001665D02*
X008201Y001665D01*
X008196Y001673D02*
X008408Y001673D01*
X008399Y001682D02*
X008192Y001682D01*
X008187Y001690D02*
X008391Y001690D01*
X008382Y001699D02*
X008183Y001699D01*
X008178Y001707D02*
X008374Y001707D01*
X008366Y001716D02*
X008174Y001716D01*
X008169Y001724D02*
X008357Y001724D01*
X008349Y001733D02*
X008164Y001733D01*
X008160Y001741D02*
X008341Y001741D01*
X008332Y001750D02*
X008155Y001750D01*
X008151Y001758D02*
X008324Y001758D01*
X008320Y001767D02*
X008146Y001767D01*
X008142Y001775D02*
X008336Y001775D01*
X008352Y001784D02*
X008137Y001784D01*
X008133Y001792D02*
X008368Y001792D01*
X008384Y001801D02*
X008128Y001801D01*
X008124Y001809D02*
X008400Y001809D01*
X008414Y001818D02*
X008119Y001818D01*
X008115Y001826D02*
X008409Y001826D01*
X008405Y001835D02*
X008110Y001835D01*
X008106Y001843D02*
X008400Y001843D01*
X008416Y001852D02*
X008101Y001852D01*
X008097Y001860D02*
X008432Y001860D01*
X008448Y001869D02*
X008092Y001869D01*
X008088Y001877D02*
X008464Y001877D01*
X008480Y001886D02*
X008083Y001886D01*
X008079Y001894D02*
X008441Y001894D01*
X008437Y001903D02*
X008074Y001903D01*
X008074Y001911D02*
X008432Y001911D01*
X008427Y001920D02*
X008076Y001920D01*
X008079Y001928D02*
X008423Y001928D01*
X008418Y001937D02*
X008081Y001937D01*
X008084Y001945D02*
X008414Y001945D01*
X008409Y001954D02*
X008087Y001954D01*
X008089Y001962D02*
X008405Y001962D01*
X008400Y001971D02*
X008092Y001971D01*
X008094Y001979D02*
X008396Y001979D01*
X008391Y001988D02*
X008097Y001988D01*
X008100Y001996D02*
X008387Y001996D01*
X008385Y002005D02*
X008102Y002005D01*
X008105Y002013D02*
X008401Y002013D01*
X008417Y002022D02*
X008107Y002022D01*
X008110Y002030D02*
X008433Y002030D01*
X008449Y002039D02*
X008113Y002039D01*
X008115Y002047D02*
X008465Y002047D01*
X008481Y002056D02*
X008118Y002056D01*
X008120Y002064D02*
X008497Y002064D01*
X008513Y002073D02*
X008123Y002073D01*
X008126Y002081D02*
X008528Y002081D01*
X008544Y002090D02*
X008128Y002090D01*
X008131Y002098D02*
X008560Y002098D01*
X008576Y002107D02*
X008133Y002107D01*
X008136Y002115D02*
X008592Y002115D01*
X008645Y002022D02*
X008800Y002022D01*
X008784Y002013D02*
X008650Y002013D01*
X008654Y002005D02*
X008704Y002005D01*
X008711Y002005D02*
X008768Y002005D01*
X008752Y001996D02*
X008715Y001996D01*
X008720Y001988D02*
X008736Y001988D01*
X008688Y001996D02*
X008646Y001996D01*
X008630Y001988D02*
X008672Y001988D01*
X008656Y001979D02*
X008614Y001979D01*
X008598Y001971D02*
X008640Y001971D01*
X008624Y001962D02*
X008582Y001962D01*
X008566Y001954D02*
X008608Y001954D01*
X008592Y001945D02*
X008561Y001945D01*
X008550Y001945D01*
X008566Y001937D02*
X008576Y001937D01*
X008566Y001937D02*
X008534Y001937D01*
X008518Y001928D02*
X008560Y001928D01*
X008544Y001920D02*
X008502Y001920D01*
X008486Y001911D02*
X008528Y001911D01*
X008512Y001903D02*
X008470Y001903D01*
X008454Y001894D02*
X008496Y001894D01*
X008629Y001512D02*
X008644Y001512D01*
X008649Y001503D02*
X008613Y001503D01*
X008735Y001274D02*
X008341Y001274D01*
X008336Y001282D02*
X008751Y001282D01*
X008719Y001265D02*
X008345Y001265D01*
X008350Y001257D02*
X008703Y001257D01*
X008687Y001248D02*
X008354Y001248D01*
X008359Y001240D02*
X008671Y001240D01*
X008655Y001231D02*
X008363Y001231D01*
X008368Y001223D02*
X008639Y001223D01*
X008623Y001214D02*
X008372Y001214D01*
X008377Y001206D02*
X008607Y001206D01*
X008591Y001197D02*
X008381Y001197D01*
X008386Y001189D02*
X008575Y001189D01*
X008559Y001180D02*
X008390Y001180D01*
X008395Y001172D02*
X008543Y001172D01*
X008527Y001163D02*
X008399Y001163D01*
X008404Y001155D02*
X008511Y001155D01*
X008495Y001146D02*
X008408Y001146D01*
X008413Y001138D02*
X008479Y001138D01*
X008463Y001129D02*
X008417Y001129D01*
X008422Y001121D02*
X008447Y001121D01*
X008431Y001112D02*
X008426Y001112D01*
X009140Y001784D02*
X009202Y001784D01*
X009197Y001792D02*
X009156Y001792D01*
X009172Y001801D02*
X009193Y001801D01*
D16*
X006829Y002804D02*
X003438Y005804D01*
X002134Y004329D01*
X005525Y001329D01*
X006829Y002804D01*
X005501Y001178D02*
X001756Y004491D01*
X001094Y003742D01*
X004839Y000429D01*
X005501Y001178D01*
X001850Y004821D02*
X001850Y007499D01*
X001720Y007499D01*
X002298Y008334D02*
X002467Y008626D01*
X001830Y008431D02*
X001647Y008537D01*
X001328Y008894D02*
X001497Y009186D01*
X000657Y007499D02*
X000657Y004821D01*
X001720Y004821D02*
X001850Y004821D01*
D17*
X011148Y006410D03*
D18*
X011248Y005150D03*
X006798Y005210D03*
X006248Y005210D03*
X005688Y005210D03*
X005128Y005210D03*
D19*
X007298Y002610D03*
M02*
